<svg xmlns="http://www.w3.org/2000/svg" fill-rule="evenodd" viewBox="0 0 100 100"><path d="M85.501 67.965h-8.456V47.557a1.5 1.5 0 0 0-1.5-1.5h-7.428V27.353a1.5 1.5 0 0 0-1.5-1.5H51.931l8.071-9.699c.041-.049.079-.101.113-.155a6.31 6.31 0 0 0 .999-3.385 6.312 6.312 0 0 0-6.305-6.305c-1.924 0-3.65.865-4.808 2.227a6.292 6.292 0 0 0-4.805-2.227 6.313 6.313 0 0 0-6.308 6.305c0 1.339.431 2.632 1.263 3.763l7.26 9.477H33.384a1.5 1.5 0 0 0-1.5 1.5v18.704H24.46a1.5 1.5 0 0 0-1.5 1.5v20.408h-8.459c-.019 0-.036.005-.055.005a1.554 1.554 0 0 0-.153.015c-.048.007-.096.013-.143.025-.045.011-.089.026-.133.041a1.42 1.42 0 0 0-.146.056c-.039.018-.076.04-.114.062a1.466 1.466 0 0 0-.141.09c-.014.01-.029.017-.043.027-.022.017-.038.038-.058.056a1.56 1.56 0 0 0-.206.22 1.492 1.492 0 0 0-.211.383 1.46 1.46 0 0 0-.09.435c-.001.028-.008.054-.008.083v22.717a1.5 1.5 0 0 0 1.5 1.5h52.76c.021.001.041.007.062.007h.022c.018 0 .036-.006.054-.007h18.1a1.5 1.5 0 0 0 1.5-1.5V69.464a1.495 1.495 0 0 0-1.497-1.499zM42.552 14.576a3.3 3.3 0 0 1-.663-1.963 3.31 3.31 0 0 1 3.308-3.305 3.309 3.309 0 0 1 3.305 3.305 1.5 1.5 0 1 0 3 0 3.31 3.31 0 0 1 3.308-3.305 3.309 3.309 0 0 1 3.305 3.305c0 .596-.163 1.168-.485 1.702l-7.954 9.559-7.124-9.298zm-7.667 14.277h30.232v17.204H34.885V28.853zm-8.924 20.204h48.084v18.908H25.961V49.057zm-9.96 41.626V73.792l13.311 16.891H16.001zm1.592-19.718h30.379L32.243 89.554l-14.65-18.589zm17.625 19.718 14.414-17.035 14.447 17.035H35.218zm32.071-.855L51.291 70.965h31.04L67.289 89.828zm16.712.855H70.444l13.557-17v17z"/></svg>