<svg xmlns="http://www.w3.org/2000/svg" xml:space="preserve" viewBox="0 0 800 800" style="clip-path: polygon(5% -1%, 98% -1%, 98% 92%, 5% 92%);"><path d="M0 0h800v800H0z" style="fill:#e0ecff"></path>
<path d="m378 788-3-2-2-4 3 1h6l4-1 6-2-2 4-3 3c-5 2-9 1-9 1" style="fill-rule:evenodd;clip-rule:evenodd;fill:#fff"></path>

<path d="m388 773 1-1 2 2a21 21 0 0 1 2 2l-2 1-1-2-2-2" style="fill-rule:evenodd;clip-rule:evenodd;fill:#fff"></path>
<path d="M391 774h1v-2 3l-1-1m-17 1-2 2v3l-1-1v-3l2-2 1 1zM371 776v-1h-2l1 1h1v1-1m9-6h4v1h-3l-2 1-1-1 2-1" style="fill-rule:evenodd;clip-rule:evenodd;fill:#fff"></path><path d="m381 769 1 1h-1zm12 3a1 1 0 0 1 0 1 1 1 0 0 1-1-1 1 1 0 0 1 1 0m-24 2a1 1 0 0 1 1 1 1 1 0 0 1-1 0 1 1 0 0 1 0-1" style="fill-rule:evenodd;clip-rule:evenodd;fill:#fff"></path>
<path d="M381 767a1 1 0 0 1 1 1 1 1 0 0 1-1 2 1 1 0 0 1-1-1 1 1 0 0 1 1-2" style="fill-rule:evenodd;clip-rule:evenodd;fill:#fff"></path>
<path d="m296 785-1 1h-3c-2 0-3-1-3-3s1-4 3-4h2v-2l1-1 1 1v8zm-4-4-1 2 1 2 2-2-2-2m7 2 1 2 3-1 1 1-4 1c-2 0-3-1-3-3s1-4 3-4 4 2 4 3l-1 1h-4zm3-1-2-2-1 2h3zm7-1-2-1-1 1c0 1 4 1 4 3 0 1-1 2-3 2l-3-1 1-1 2 1 1-1c0-1-4-1-4-3 0-1 1-2 3-2l2 1v1m3-4-1 1-1-1 1-1 1 1m-2 3 1-1 1 1v5l-1 1-1-1v-5zm10 6c0 2-1 3-4 3l-3-1 1-1 3 1 1-2v-1l-2 1c-2 0-3-1-3-3s1-4 3-4l2 1 1-1 1 1v6zm-3-5-2 2 2 2 1-2-1-2m4-1 1-1 1 1 2-1c2 0 3 1 3 2v4l-1 1-1-1v-3l-1-2-2 2v3l-1 1-1-1v-5zm10 3 2 2 2-1 1 1-3 1c-3 0-4-1-4-3s1-4 3-4c3 0 4 2 4 3l-1 1h-4zm3-1-2-2-1 2h3zm10 3-1 1h-3c-2 0-4-1-4-3s1-4 4-4h2v-2l1-1 1 1v8zm-4-4-2 2 2 2 2-2-2-2m8-4 1-1 1 1v2a3 3 0 0 1 2 0c3 0 4 2 4 4s-2 3-4 3h-3l-1-1v-8zm4 8 2-2-2-2-2 2 2 2m4-5 1-1h1l1 4 2-4h1l1 1h-1l-3 9h-1l-1-1 1-2-2-6zm138-679c1-3 2-6 0-9-1-3-4-6-7-6 3-5 2-12-6-14 5-5 9-10 15-11l1-1-2-7h-1c-7 1-14 9-16 17-1-2-4-2-6-1 0-6 2-19-6-20-7-1-10 6-11 11-6-3-10 8-6 13-7-2-12 6-9 12-8-2-16 8-10 15-9-1-12 17-10 23 2 4 7 7 11 7a9 9 0 0 0 5-1c4 10 4 23 10 33h1a1 1 0 0 0 1 0c6 3 13 4 20 4 4 0 12 0 14-5h2c6-12 10-26 13-39 6 6 15-3 15-10 0-8-10-14-18-11zm0-46 1 4c-6 2-11 8-16 13 2-7 7-15 15-17zm-22 16c2-1 4 0 6 1a18 18 0 0 0 0 2h-1l-3 1 1 1h3l2 2h1l-2-3 2-2c8 3 6 12 1 17a8 8 0 0 0-2-1c-2-2-4-1-6 1 0-2-1-4-3-4-2-1-4 0-4 2a5 5 0 0 0-3-2c-1-4 1-8 3-12l5-3zm10 88h-1c-8 8-23 4-33 2-5-11-5-23-11-33l3-4 6 5c1 8 1 18 5 26h1c-3-9-4-18-5-26 2 0 4-1 5-3a7 7 0 0 0 3 3c-1 8 0 17 1 25l1-1-1-24c3 2 6 1 8-2v35a1 1 0 0 0 1 0v-36h-1l1-1c2 3 6 6 9 7a1 1 0 0 0 0 1l-2 18h1l2-18v-1h9l-7 25h1c4-8 6-17 7-26 2-1 4-3 4-6 2 1 4 1 6-1l-13 35zm15-39v-1h-2c0 4-5 6-6 2-1-1-2 0-2 1 1 15-18 8-23-1v1a1 1 0 0 0-1 1c-1 7-9 6-10 0h-2c-1 7-9 3-9-2 0-2-2-2-2-1-4 10-15 10-18 0-2-6 2-18 9-18v-1a1 1 0 0 0 0-1c-5-7 3-16 10-11l2-2c-2-2-3-5-2-7 1-5 5-5 9-5l1-1c-2-2-3-5-2-8 1-4 4-6 7-3l1-1c0-5 3-14 10-11 6 3 3 13 3 19l-3 2c-4 3-6 9-5 14-2 0-3 2-2 5h1c-1-6 4-3 5-1h1c2-5 6-1 6 3h2c0-2 2-4 5-2 2 1 2 5 1 7 0 1 1 2 2 1v-8a14 14 0 0 0 2-3l4 1 3 3c2 3 1 7-1 10l1 2c7-2 14-2 17 5 4 7-5 18-12 11zm-155 12c-2-5-10-7-15-8 3-5 4-10 1-16a8 8 0 0 1 3 0l1 1c1 1 2 0 2-1-1-2-3-2-5-2l-7 2 1 1a22 22 0 0 1 3-1v1c6 16-14 26-27 29-16 4-34-5-38-22l5 1c1 0 2-1 1-2-3-2-9-1-13 0-1 1 0 2 1 2l4-1c1 19 24 28 40 25l12-4c4 10 19 15 27 10 5-3 6-10 4-15zm-6 13c-7 5-19-1-23-9l8-5c3 5 10 10 17 8l-1-2-9-1-6-6 4-5c4 3 8 3 11 5 5 4 5 12-1 15zm-54-52-6-3c-2 0-4 1-5 3-1 3 0 6 1 9l1-1c-1-3-1-9 3-9l4 2 1 2v4h2c1-2 0-6-1-7zm32-1c0-2-2-3-4-4-6-1-7 7-7 11h2c0-2 0-9 5-8l2 2 1 3v3l1 1c2-2 1-6 0-8zM142 80h-2l-1 1c0 3 1 11-2 13-4 2-5-10-5-11h-2l-1 12c-1 3-2-2-2-2l-1-5-1-5-1-1-3 8c-1 5-5-2-5-3l-2-6h-2c-2 8 0 25 11 22 0 12-7 56 9 54 8-1 6-17 6-22-1-11-2-21-5-31 12 2 10-17 9-24zm-9 22-1 1-1 1 4 26c1 4 4 24-3 25-12 1-6-42-8-52v-2c-5 0-8-2-10-7V82c0 4 1 12 6 12 2 0 3-4 4-7 0 5 1 11 4 11 2 0 3-3 4-6 0 2 2 4 4 4 3 0 5-4 5-8 0 7-1 15-8 14zm-35 1a1 1 0 0 0 0-1c10-7 6-30-9-28-7 1-8 9-8 15l3 8 4 8-3 10c-2 10-3 18 0 27 2 6 4 14 8 17 5 4 8-3 9-7 4-12-1-25-3-37-1-4-3-8-1-12zm0 53c-3 7-8-5-9-8-2-5-4-10-4-15-1-7 1-13 3-19l2-10-5-9-2-10c0-9 11-12 16-4 4 6 3 17-3 21a1 1 0 0 0 0 1c-2 7 1 15 3 21 2 10 4 23-1 32z" style="fill:#fff"></path>
<path d="m96 95-4-1-3-3c-1-3-2-7-1-9v-1c-2 4-1 8 0 11 2 3 5 6 9 4l-1-1zm63-16a1 1 0 0 0-1 0v-1h-1v57c-1 8-2 17 1 24s9-2 10-6c3-11-1-24-1-35l-1-1a23 23 0 0 0-2 0v-1c-1-4 3-3 6-3v-1c-1-12-8-21-11-33zm6 41 1 7 1 17c0 5 0 11-4 15-3 4-4-6-5-7l1-27 1-6 3-1c2 0 2 1 2 2zm3-9h-5v5a17 17 0 0 0-3 1l-1-30 4 8 5 11v5zm550-52c-15-6-31 8-37 22-3-12-10-22-19-26-20-7-35 14-38 31-8-10-23-14-34-6-10 6-9 18-6 28 5 11 15 23 28 25 3 1 7 0 10-2 0 3 0 6 3 7l4-1 2-3c1 5 5 8 6 12 1 5-4 12-5 16-3 8 0 15 7 19 1 1 2-1 1-1-4-4-7-7-7-13 0-5 3-9 5-14v-9c-1-4-5-7-7-11h3l3-3c1-3-3-6-6-7l3-9c5 5 13 8 21 7a32 32 0 0 0-2 2c-2 2-4 5-3 8 1 2 4 2 5 1l-2 12c1 5 5 9 9 13 4 5 6 12 4 18-1 6-6 8-12 10v2c10-1 16-9 15-19-1-5-3-10-7-14l-7-10c-1-5 1-10 2-15l1-1 1 1h5c4-3 2-8-2-10 6 0 11-2 14-6 1 4 3 7 6 8-3 2-6 4-5 8 0 1 1 2 3 2-4 8 1 15 6 22 4 4 6 9 6 15-1 7-5 13-13 11-1 0-2 2 0 2 11 3 16-8 15-18-2-12-17-19-13-32l2 2h4c2 0 3-2 4-3 1-2 0-4-1-5 5 1 10 0 15-2 13-4 22-13 26-27 3-13 1-31-13-37zm-83 71c0 2-3 1-4 0l-2 1c0 2 0 6-3 5-3 0-3-3-2-5l6-6c2 1 5 2 5 5zm-12-2c-6 4-13 4-19 0-8-4-15-14-18-23s-2-18 6-24c10-7 24-1 32 7-1 9 2 17 7 23a1 1 0 0 0 0 1c2 7-3 13-8 16zm40-1-2 1c-2-1-2-3-1-4 0-1-2-2-2 0l-3 4-2 2c-1 1-1-1-1-2l6-9h1v1c3 1 7 4 4 7zm13-18c-3 5-8 7-13 7a1 1 0 0 0-1 0h-2l-1 1c-8 3-17 2-24-4-7-7-10-18-8-27 2-18 21-40 39-25 9 7 14 20 14 31 0 6 0 12-4 17zm13 20-2 2h-3v-3c0-1-1-2-2-1-1 2-3 3-3 1-1-3 2-5 4-6l5 3c1 1 2 2 1 4zm39-32c-3 12-11 19-22 24-11 4-25 4-28-10 5-7 6-18 3-28 8-13 22-28 37-21 13 6 13 23 10 35z" style="fill:#fff"></path>
<path d="M616 115c-4-2-9-3-12-7-6-5-8-13-9-20h-3c0 9 1 19 7 26 3 5 9 8 15 9 5 1 4-6 2-8zm-3 6c-5-1-10-5-14-9-3-5-4-12-5-18 2 6 4 11 8 16l7 4 5 3c2 1 3 4-1 4zm49-58-1 1 1 1v1c5 4 6 11 7 17 1 7 2 17-7 19-3 0-9 3-8 6 1 4 7 5 10 4 25-1 9-40-2-49zm10 44c-2 2-6 3-9 3-1 0-9 0-6-4l5-2c4-1 6-1 7-4 3-4 3-9 3-14l-2-10c2 5 4 9 4 14 2 6 2 12-2 17zm54-30c-2-6-9-11-15-12-8-1-16 5-19 12h-1v2h1c6-1 13-4 18 0l9 7c5 3 8-5 7-9zm-3 6c-3 6-11-5-14-7-4-3-11-1-16 1 4-6 11-11 18-10 7 0 16 9 12 16zM118 275c-3-2-7-2-7 2-3-3-11-6-13 0 0 2-1 1-3 0l-4 1c-3 0-3 3-3 5h2c0-6 5-5 8-3l1-1c2-6 9-3 12 0l1-1c1-4 4-3 6-1h2c0-3 1-4 4-3 2 0 3 2 4 5 1-7-8-10-10-4z" style="fill:#fff"></path>
<path d="m181 346-1-10-4-20a11 11 0 0 0 2-3c2-2 1-5-1-6l3-3c3-2 2-4-1-5 4-2 5-6 2-9s-7-3-9 0l-1-4c-2-2-5-2-7-1 0-4-3-5-6-4-1-4-6-5-9-2l-5-4h-5a233 233 0 0 0 0-11 1 1 0 0 0-1-1h-4v-7c2 0 5-1 5-3 1-5-5-10-3-14l-1-1v-1c1 0 0-1 0 0-5 2-10 14-5 18l2 1 1 3v4c-3 0-6 1-4 5l-1 14h-1l-4-2h-1c-2 2-4 2-7 2h-1c-3 3-7 4-10 1h-2c1 5-4 5-7 2h-1c-1 3-3 6-7 4l-1 1-3 6h-1l1 1c3 2 1 5-2 6v2c2 0 3 1 3 4v2c3-1 9-1 7 4-1 1 0 1 1 1 3-3 7-2 8 2h1c3-2 6-2 7 2h1a7 7 0 0 0 0-1c2-2 4-2 6 1h1c3-4 8-4 10 0l1-1c3-3 5-3 7 0a1 1 0 0 0 1 0c2-2 4-3 8-1h1c2-3 6-4 8 0l1-1c2-3 5-5 8-2l2-1c0-3 3-4 6-3l1-1c-2-4-1-7 3-8a1 1 0 0 0 0-1 1 1 0 0 0-1 0c-4-2-6-5-6-9l-1-1-1 1c-3 1-5 0-5-4l-1-1-6-2h-1c-2 1-6 4-8 0l-5-1 1-7c1-1 3-2 5-1l4 4h1c3-3 7-2 7 3h1c3-2 6 0 6 3-1 1 0 1 1 1 1-1 3-2 4-1 4 0 2 4 2 6l1 1c2-3 5-5 9-3 3 3 1 7-3 8l1 2c1 0 3 0 2 2l-1 2-3 2a6 6 0 0 0-1 0v1c3 1 3 4 1 7-2 2-6 3-9 1v1c4 7-7 6-10 3l-2 1c0 7-9 3-11 0h-1l-1 1c-1 6-7 4-11 1l-1 1c0 6-6 4-8 0h-1c-1 2-4 8-8 2v-1h-1c-3 6-10 6-11-1h-1c-4 4-7 1-9-2h-1c-4 4-6-3-6-6v-1c-4 1-6 1-7-3-1-3 0-6 1-8v-1c-6-2-4-8 0-9h1v-1c-1-1-3-2-2-3 1-2 3-2 4-1l1-1c-1-2 0-3 1-4s3 0 4 1v-1l-5-1-1 4c-2 0-4 0-5 2s0 3 2 4c-6 0-7 9-2 11-1 3-1 9 1 11v1c-1 8-2 16-5 24l-3 12 1 1c17 12 42 14 62 14 15-1 38-2 48-16l1-1v-1l1-1-1-1zm-49-92c-3-1-2-6-2-8l4-8c-1 3 1 6 2 8l2 5c0 3-4 4-6 3zm-2 35v-21a6 6 0 0 1 0-1 1 1 0 0 0 0-1c0-2 3-2 6-2 2 1 1 6 1 8a183 183 0 0 1-1 20c-1 4 0 8-5 8-2-1-1-10-1-11zm12-3 2 2h5c3-1 2-1 4 1h4c0 4 4 6 8 4 0 4 2 7 6 8-3 2-4 5-3 8-3 0-6 1-7 4-3-2-6 0-8 3-2-2-4-3-7-3l-3 3-4-1-5 2-2-2c-3-1-5 1-5 3-3-4-9-3-12 0-2-2-4-2-6 0-1-3-5-4-8-1-2-4-6-5-9-2 2-4-2-7-6-6 1-2 0-4-3-5 3-2 4-6 2-7 2-1 3-3 3-6 3 1 5-1 7-4 3 3 9 1 8-4 1 3 4 4 6 3l4-2h4c3 1 4-3 6-1s4 1 5-1a279 279 0 0 0 1 19l7 1v-1l2-16 4 1zm-64 29c1 1 3 2 5 1 0 3 2 8 6 7h2l3 3c2 1 4 0 6-1 2 5 10 7 12 1 3 5 8 2 10-2 2 5 9 6 10 0 4 3 11 3 12-3 3 5 11 6 13 0 4 3 14 2 12-4 2 1 4 0 6-1v1l1 13c-30 15-70 18-99-1l1-14zm-1 15c13 10 31 13 48 14 18 0 37-4 52-13v4c-8 5-17 9-27 11-9 2-18 2-28 2-16 0-34 0-46-11a1 1 0 0 0-1 0 93 93 0 0 0 2-7zm53 34c-21 0-40-4-59-13v-1l1-3 3-9c12 11 30 12 46 12 9 0 19 0 28-2 10-2 20-5 29-11l1 11c-11 14-33 15-49 16z" style="fill:#fff"></path>
<path d="M122 248h-8l-8 1v1h16v-2zm-1-5c-4-2-8-4-10-9l-2 1c2 5 7 8 12 9v-1zm4-6c-1-4-4-8-7-11l-1 1 7 10h1zm4-19c-1 0-2 0-1 1 2 1 3 3 4 6l3 6 1-1c-2-4-3-10-7-12zm22 9c-4-3-10 1-11 5-1 1 0 1 1 1 2-4 5-6 10-5v-1zm6 10c-4-1-10-2-13 2-1 1 0 1 1 1 3-3 8-2 12-1v-2zm0 6c-3 2-7 2-10 1l-1 1c4 2 9 2 12-1l-1-1zm-12 8h-1c4 2 6 6 7 10h1c0-5-3-8-7-10zm-24 3c-2 1-4 4-4 7h1c0-3 2-5 4-7h-1zm179 102v-2l-1-10-1-28c10-1 12-14 12-22 1-12 0-23-2-35-1-1-3-1-2 1l2 29c0 8 0 24-11 25-12 2-16-14-18-23-2-10-1-22 0-32 4 2 10 2 14 2 3 0 11 1 13-2 1-4-5-6-8-6-6-2-16-1-20 4v2c-2 11-3 24 0 36 1 9 6 20 16 21-2 14-3 27-3 41-4-2-15 0-14 6s13 6 17 6c5 0 15 1 18-4 4-6-7-8-12-9zm-4-102c2 1 12 4 5 5-6 1-15 1-21-1 4-4 11-4 16-4zm12 112c-4 2-9 1-13 1l-13-1c-5-2-2-6 2-7l7-1c0 2 2 2 2 0l2-42h2v27l2 17h1v-2l6 1c4 1 7 5 2 7z" style="fill:#fff"></path>
<path d="M304 275h-1a1 1 0 0 0 0-1c-6-3-15-3-21 0l-1-1-1 1c-3 7 0 17 2 23 3 6 7 14 15 13 12-2 9-27 7-35zm-4 0-17-1c5-2 12-2 17 1zm-1 33c-8 4-14-7-16-12-2-6-4-14-2-21 7 3 14 2 21 1 2 5 2 10 2 15 0 6 0 14-5 17z" style="fill:#fff"></path>
<path d="m286 282-1-2-2 1s0-1 0 0l-1 2 3 1h1v-2zm-3 1v-1l2-1v2h-2zm9 1h-2 1l-1-1-2 2v1l1 1 2-1 2-1-1-1zm-3 2a4 4 0 0 1 0-1h2a9 9 0 0 1-2 1zm0 6-1-1h-2l2 1h-2v-3c-1 1-2 3-1 4s3 0 4-1zm15-46c-2-2-4-1-5 0v1a3 3 0 0 0-1 2c0 2 3 2 4 1 2-1 3-3 2-4zm-3 3h-1l-1-1 1-1c1-1 2-2 3 0 1 1-1 2-2 2zm-3-11h-3c-1 1-2 2-1 4l1 1 2-2 2-1-1-2zm0 1-1 1a5 5 0 0 1-1 1 5 5 0 0 1-1 0 2 2 0 0 1 0 1 1 1 0 0 1 0-1c0 1 0 0 0 0v-2h3zm11-8h-6c-2 1-2 4-1 6s4 2 6 0c2-1 2-4 1-6zm-2 5c-1 2-3 1-4 0v-4h5c1 2 0 3-1 4zm230 211 2-2c2 0 1-3-1-2-22 10-44 15-68 16-25 0-51-3-74-12v1a76 76 0 0 0 5 3h-1l1 1v1l-1 2-2 9-6 21 1 1c11-7 19-17 27-27 1 12 2 24 5 35h2c8-8 12-19 15-30l1 1 1 1v1l1 1c3 10 4 22 11 31h1c5-4 6-12 8-18l2-15c3 11 8 23 15 32l2-1c7-10 8-23 11-35 6 11 9 24 18 32h2a21 21 0 0 0 2-3 1 1 0 0 0 0-1c4-9 3-21 2-31 7 11 15 20 24 28 1 1 2 0 2-1 1-13-3-28-8-39zm-120 9c-1 0-1 1-3-1l-1 1a39 39 0 0 1-3-2l7 2zm-8-3-1 2 1 1-4-4 4 1zm-6 0a1 1 0 0 0-1 1l1-1zm-1 2 2 2a18 18 0 0 0-2-1v-1zm-1 6 1-3 2 4a50 50 0 0 0-1-1c-1-1-2 0-1 1l3 3a19 19 0 0 0-3-1c-1-1-2 1-1 1v1l-1-1 1-4zm-2 6a45 45 0 0 1 3 3l-2-1c-1 0-2 0-1 1l1 3-2-2 1-4zm-2 7 1 1h-1v-1zm0 2v2a37 37 0 0 1-1-1l1-1zm-2 6v-2l1 1 1-1v-1l1 1a50 50 0 0 1-3 2zm4-3a40 40 0 0 1 0-2 1 1 0 0 0 1-1l-1-2 2 2c1 0 2 0 1-1l-1-3 2 1c1 1 2 0 2-1l-2-3a72 72 0 0 1 2 2c1 0 2-1 1-2l-1-1a71 71 0 0 1 2 2l2-2a17 17 0 0 0-2-3 57 57 0 0 1 2 2c1 1 2-1 1-1v-1l1-1h1c0 1 2 0 1-1a37 37 0 0 0-2-3l3 2 1-1 1-2a22 22 0 0 1-1-1h3v-2h1c-6 8-12 17-20 23zm42-19c-3 11-7 23-14 31-3-11-4-23-5-34a193 193 0 0 0 20 2 1 1 0 0 0-1 1zm2 0a1 1 0 0 0 0-1 308 308 0 0 0 9 2 53 53 0 0 0 2 3 45 45 0 0 1-4-3c-1-1-2 0-1 1l1 1a87 87 0 0 1-3-2c-1-1-2 1-1 2a80 80 0 0 1 3 2 101 101 0 0 0-4-2 37 37 0 0 0-2-3zm5 11a99 99 0 0 0 5 5 41 41 0 0 1-2-2 185 185 0 0 0-3-2 98 98 0 0 0 0-1zm1 5v-1l1 1 5 3-6-3zm1 4v-1l3 3-3-2zm3 10-2-7 1 1v2l5 5-4-1zm4 7a33 33 0 0 1-2-3l1 1 1 1v1zm1-2a85 85 0 0 0-2-2h3l-1 2zm1-3a20 20 0 0 0-1-2l1-1-3-4 3 1c1 1 1 0 1-1a26 26 0 0 0-2-2h1c1 1 1 0 1-1a32 32 0 0 0-2-3l2 1c1 1 2-1 1-1a82 82 0 0 1-5-3 102 102 0 0 0 6 3h1l-4 13zm4-15-13-9 10 6c1 1 2 0 2-1l1 1h1l-1 3zm1-4a1 1 0 0 0 0-1 121 121 0 0 1-1-1c1 0 2-1 1-2h-1l2-2-1-1 1 1-1 6zm1-11a1 1 0 0 0-1 0h-3c-1-1-2 1-2 1l1 1a117 117 0 0 1-6-4 302 302 0 0 0 11 1v1zm29-3c-4 12-5 25-11 36-8-9-12-22-16-33v-1h3l24-2zm12 0 3 2-7-3 4-1v2zm1-2a157 157 0 0 0 6-1c-1-1-3 1-2 2l2 1-6-2zm-12 2 4-1 1 1 6 4a82 82 0 0 1-7-3c-1-1-2 1-1 1l13 8-13-7a1 1 0 0 0-1 0 48 48 0 0 0-2-3zm9 12c-1 0-2 1-1 2l7 5a102 102 0 0 0-4-2c-1 0-2 1-1 2l7 6-4-1a1 1 0 0 0-1 0l-7-15a109 109 0 0 0 11 6l1 1-8-4zm-4-4-1-2 1 1v1zm14 24a31 31 0 0 1-3-3l3 2v1zm1-3a131 131 0 0 0-3-2l3 1 1-2-4-4 4 2v-2l-5-5 5 2v-4a100 100 0 0 0-3-2l3 1c1 0 2-1 1-2l-4-3 2 1 1-2a49 49 0 0 0-3-2l3 1c1 0 2-1 1-2a81 81 0 0 0-4-3l3 1 1-1c1 9 1 19-2 27zm4-34a1 1 0 0 0 0-1 160 160 0 0 0 16-6v1c5 10 8 24 8 36-9-9-18-19-24-30zm198-145v-22c0-7 1-15-1-22-1-2-3-3-4-2a1 1 0 0 0-1 0l-6-2h-8c2-5 3-10 1-13-2-4-7-1-10 1s-6 6-7 10c-2-2-5-2-7-1l-2 3c-2-8-7-20-15-18-5 1-5 6-5 10v4c-3 0-6 5-7 7a73 73 0 0 0-8 14l1 1c8-2 16-2 25-1l-2 23c-2 11-5 23-3 34h-17c-5-1-9-3-9-9l2-12 3-34h-1c-2 13-2 26-5 39-2 8-2 15 7 17 9 3 19 1 29 2l21 1c3 0 6 0 8-3l1-2 11-12c4-3 8-7 10-12l-1-1zm-11-46 3 1-4 4-11-3a8 8 0 0 0 1-1l2-2 9 1zm0 41-2-4h1l1 4zm-1-11v1l-1-4 1-1-1-4a1 1 0 0 0 1 0v8zm-3-17 1 2h-1a1 1 0 0 0 0 1v-3zm3 5v2l-1-3 1 1zm-2 1a1 1 0 0 0-1 0v-2l1 2zm0 6h-1a315 315 0 0 1 1 0zm1 7h1v3a27 27 0 0 1-1-3zm1-23a1 1 0 0 0-1 0l1-1v1zm-3-1-1-2a1 1 0 0 0-1 0 18 18 0 0 1-1-1l5 1a91 91 0 0 0-2 2zm3 38-1 1a21 21 0 0 1 2 3h-1l-1 1v-8l1 3zm-1 8a205 205 0 0 0 0-3l2 3h-2zm2-2h1v2l-1-2zm-1-10h1v2l-1-2zm-8-37a34 34 0 0 0-1-1c-1-1-2 0-2 1l1 1a40 40 0 0 1-2-1h-1a4 4 0 0 0-1 0 20 20 0 0 1-1-1l4-1 4 1a1 1 0 0 0-1 1zm-10-16c2-2 6-5 9-4 4 2-1 12-2 14-3 5-8 3-12 1v-3c1-4 3-6 5-8zm-6 13 8 2v1l1 1-8-3h-1c-1 2 16 6 18 7l1-2 1 1-6 7c-2-2-6-3-9-3h-12l3-5 3-5 1-1a1 1 0 0 0-1 0h1zm-8-3 2-2c1-1 4-1 6 1l-3 3-2 1-3-1v-2zm-2 3h1v1h1l-1 1v1l-1-1a1 1 0 0 0-1 0l1-2zm-11-20c4 1 6 6 7 9l3 9c-4 1-9 2-13 1-4-5-5-22 3-19zm6 36 2 2-2-1-2 1v-5h3l1 1v1c-1-1-2 0-2 1zm-2 14h-1l1-5 4 7-4-2zm2 6-2-1h-1v-2l3 3zm-1-13h-1a134 134 0 0 0 0-4l3 5-2-1zm1-12-1-1a1 1 0 0 0 1 0v1zm0-2 1-2 1 4-2-2zm2-4 2-2v4l-1-1a1 1 0 0 0-1-1zm-14-7 2 2-3-1-1-1h2zm-1-4v1a1 1 0 0 0-1 1 8 8 0 0 0-1-1l2-1zm-3 2 1 1h-2l1-1zm-2 2 3 1-5 1a31 31 0 0 1 2-2zm-10 14 8-11 5-1 6 2 1-1h11a115 115 0 0 1-2 4 217 217 0 0 1-3 3l-1 2c-8 0-17-1-25 2zm25 25 4 6-3-2a1 1 0 0 0-2 0l1-4zm-1 5 5 7-5-3a1 1 0 0 0-1 0l1-4zm-1 8v-2l5 6-5-3v-1zm-1 4 4 5-4-2v-3zm0 6a40 40 0 0 0 3 3 302 302 0 0 0-3-2v-1zm0 4a219 219 0 0 0 0 1v-1zm-1 6 1-3 3 3h-4zm12 1a350 350 0 0 0-4-1h-2l-3-5 5 3c1 1 2-1 1-1l-5-7 5 4c1 1 2-1 1-1l-6-8 6 4 1-1-5-7 4 1c1 1 2 0 1-1l-3-6a10 10 0 0 0 2 1c1 0 2-1 1-2l-2-4c1 0 2 0 1-1l-3-6 4 2c1 1 2 0 1-1 0-3-2-5-4-8l2 1c1 1 2 0 2-1l-3-5a24 24 0 0 1 1 0c1 1 2 0 2-1l-1-3v1c1 0 2-1 1-2a29 29 0 0 0 0-2 1 1 0 0 0-1-1h2c0 20 1 39-1 58zm1-60a63 63 0 0 1-2 0h-1v-2l2 1c1 1 2 0 2-1l-1-4 2 1c1 1 2 0 1-1v-1a1 1 0 0 0 0-1v-1h2a8 8 0 0 0 2-1l-1 2-6 7a1 1 0 0 0 0 1zm24 15v15a601 601 0 0 1-1 17v11c-1 3-9 2-11 2h-12c3-19 2-39 1-58l18 1c6 2 6 7 5 12zm2 42v-23l1-19c0-4 0-8-3-12 2 0 3-1 4-3 0 17 2 33 3 49l-5 8zm6-9v-4l1 1h1a21 21 0 0 1-1-2h3a1 1 0 0 0 0 1 168 168 0 0 1-4 4zm5-6-2-27-1-12v-9l6-5a834 834 0 0 1 3 27v18a157 157 0 0 1-6 8zm-218-67c-2-9-11-13-19-13-10 1-14 13-18 20-3-13-26-15-29 0-2 9 5 18 11 23 8 6 17 9 25 14l-4 5 1 4h2c0 3 0 7 2 10 2 6 8 12 4 18-3 6-12 3-14 11-1 6 4 11 10 12v-1c-3-2-6-3-8-7-2-6 4-7 8-9 3-1 7-5 7-9 1-9-9-16-7-26a5 5 0 0 0 1-1l2 2h4l2-4c0-2-2-3-3-4a11 11 0 0 0-2-1l15-20c5-6 11-16 10-24zm-24 46 1 1 1 1a4 4 0 0 1 0 1v1a4 4 0 0 1-1 1l-1 1a3 3 0 0 1-1 0 3 3 0 0 1 0-1l-1-1-1-3h-2v3a3 3 0 0 1-1 1h-2l-1-1v-1l4-4v-1l2 1h1l2 1zm-3-3c-13-7-31-13-36-27-3-8 1-16 9-17 7-1 15 3 17 10h2c4-7 7-18 17-19s17 6 15 16c-3 14-15 25-24 37zm252 334c4-3 3-8-2-10 6-6-3-12-10-13 3-11-2-22-15-23 1-4-2-7-6-5 2-6-6-9-9-5-2-6-11-4-12 2a34 34 0 0 0-1-2c5-8 11-14 16-20v-1c-9 5-18 8-28 8h-1l-1 2-1 1 1 1c4 3 7 7 9 11-2 0-4 1-5 3-1-2-3-4-6-4-4 1-6 5-5 8-1-1-2-2-3-1-2 1-3 2-2 4h-5c-1 2-1 5 1 6 0 1 0 0 0 0-2-3 1-8 4-4l1-1v-4c2-1 3 1 4 2a8 8 0 0 0-1 1v1l1-2h1l4-1v-1l-4 1c-1-3 0-7 4-7 4-1 6 4 7 7h1a10 10 0 0 0-1-4l2-3h3a185 185 0 0 1 5 7h1c-4-7-9-15-15-20l1-1 3 2a44 44 0 0 1 12 17l-1 3h-2l-2 2h1a6 6 0 0 0 1-1h3c0-2 0-4 2-4 2-1 3 1 4 2h1c-1-2-3-4-5-3a3 3 0 0 0-2 1l-2-5 1-1c1-5 9-7 10 0h1c3-5 11-2 8 4-1 1 0 1 1 1 4-1 6 0 5 3-10 1-20 10-17 21-4-3-11-4-16-3 1-24-45-8-27 13v3c-2-1-5-1-7 1-1 2 0 5 2 6-2 1-4 4-3 7s5 4 8 3c0 18 20 33 38 34v14c-7-1-19 2-19 10 0 9 16 9 22 9 8 0 18-1 24-6 3-2 3-6 1-8-5-5-13-5-19-6l-1-2-2-11c15-2 34-14 37-30a1 1 0 0 0 1 1c6 3 12-7 6-10zm-66-68c8 0 16-2 23-5-5 4-11 10-13 16-2-4-6-8-10-11zm26 30c3-4 7-6 12-6 13-1 17 11 15 22v1c5 0 15 4 10 11h-1c1-2 0-4-2-5h-6c-1-3-5-2-7 0-1-3-3-4-7-4-3 1-6 4-6 8-1-2-3-4-5-4s-3 1-3 2c2-6 0-9-4-12 0-5 0-9 4-13zm-18 11c4 0 8 0 12 2 4 3 5 7 4 12l1 1a8 8 0 0 0-1 2c-2-1-4-2-6 1-1 2 0 5 1 6l-13-1-11 1v-1l2-3v-1c-3-4-4-9 0-13 2-4 7-5 11-6zm-32-2c1-4 5-7 9-9 9-3 19 0 19 10a1 1 0 0 0 0 1 17 17 0 0 0-3 1v-1l-2-5-5-2v1c2 0 3 1 4 3l2 4c-4 2-6 5-7 10v2c-2-4-7-5-8-1-1-1-3-2-5-1a3 3 0 0 0-1 0c-3-4-5-8-3-13zm4 25-2 8c-3 0-5 0-7-2-2-3 1-6 3-7l1 3h1v-7h-1a10 10 0 0 0-1 3c-2-1-3-2-2-4 2-3 5-2 6 0l1-1c0-1-1-3 2-4 1-1 3 1 4 2h1c1-5 5-3 7 0l1 1 1 4c-3 1-3 3-1 5a64 64 0 0 1-10-1c-1-1-1-2-2-1a1 1 0 0 0-1 0 1 1 0 0 0-1 1zm44 62h1v-4c5 1 12 1 16 4 5 5 0 8-4 9-5 2-11 3-17 3s-15 0-20-5c-4-4 3-8 6-9s7-2 10-1v5h2v-9l-1-12h4l1 11c1 2 0 6 2 8zm-3-22c-22 3-45-18-40-40 6 5 17 3 24 3h29c7 0 15-4 22-2a1 1 0 0 0 0 1c8 20-18 36-35 38zm39-28c0-3 0-7-2-11l-1-2c-6-2-13 0-19 1l-17 1c-2-1-2-3-2-4 1-3 3-3 5-1h1c0-2 1-4 3-5 3-1 4 2 5 4l-1 2h1a6 6 0 0 1 1-1l1-1 4-1-1-1h-2c0-3 1-5 4-6 4-1 6 2 7 5l1-1a8 8 0 0 0 0-1c1-2 5-3 5 1h1c2-1 4-2 5-1 2 1 2 3 2 5h-3c2 0 4 2 4 4l1-1a5 5 0 0 0-1-3c5 0 7 6 2 9v1c6 1 2 9-4 7z" style="fill:#fff"></path>
<path d="m697 592-5-4v1l3 4 1 3v2h1v-6zm-43 14c-2 0-3 1-4 3v6h1l1-5 2-3v-1zm-157 42 1-1c1-6-1-13-5-18l1-2c2 2 5 3 7 0 3-4-1-8-5-9l-1-8-1-6c2 0 3 0 5-2 3-2 0-6-3-7 0-7-2-18-11-18-1-2-4-3-6-3 0-4-2-9-4-12l-1-1-3 1v2c3 3 5 6 6 10a6 6 0 0 0-3 4h-1c-7 0-13 12-9 19-3 0-6 2-4 5 1 3 5 1 7-1v1h-1c-3 5-8 13-4 18-3 1-5 3-4 7l2 2 3-2 2 4c-4 4-5 12-3 17-2 1-4 3-3 6 1 2 3 1 4 0l2 5a1 1 0 0 0 0 1 516 516 0 0 1 14 51c11-15 12-35 16-53l4-2c5-3 2-7-2-8zm-23-84v-1a1 1 0 0 0-1 1v-1l2 2-1-1zm3 12a10 10 0 0 1 0 2l1-1h1v-2a5 5 0 0 1 3 1c2 1 2 3 2 5a4 4 0 0 0-1 0c-2-1-4 1-5 3-1-2-3-2-4-2 0-2 1-5 3-6zm-16 25c-1-1 2-3 3-4h1c-1-7 0-16 8-18a6 6 0 0 0 1 4l-1 3c1-4 3-3 5-1h1c0-2 2-3 4-3 2-1 2 2 2 4h1c1-2 0-4-1-5v-2c9 0 9 10 10 17 2 1 5 3 2 6-2 2-6 0-8-1h-1c0 4-5 5-6 0h-1c0 2-1 4-3 4s-4-1-5-3h-1c0 2-2 2-4 1a6 6 0 0 1 0-3l-1-1c-1 1-5 4-6 2zm3 24h-1c-1 1-3 4-4 1s2-5 4-5v-10l4-8c1 3 4 4 6 1 2 3 7 3 9 0 0 1 1 2 3 2s4-2 4-4l4 2v5l2 9 1 1c3 1 5 3 4 6-1 5-4 2-6 0h-1c1 5-4 3-6 1h-1c-3 2-4 2-4 0h-2c0 4-5 5-6 0h-1v-1h-1c0 3-1 5-4 6-4 0-5-3-4-6zm3 35c3 1 5-2 6-4 1 3 5 2 6 0 2 6 9 5 10-1l4 3c-3 16-4 36-15 50-2-16-5-33-11-48zm31-4c-4 2-7 0-9-4l-1 1c0 2 0 5-3 6s-4-3-5-5h-1c-1 2-3 2-5 0l-2-1c0 3-1 6-4 6s-3-4-3-6l-1-1c-1 1-3 3-4 1 0-2 1-4 3-5a1 1 0 0 0 0-1v-7l2-9a5 5 0 0 0 2 1c3 0 6-3 6-6 1 6 6 6 8 2 2 2 5 3 6-1 1 2 3 2 4 2 5 5 6 12 5 18l1 1v1c4 1 4 5 1 7z" style="fill:#fff"></path>
<path d="M490 660a95 95 0 0 0-2 3 14 14 0 0 0-3-2v1l2 2-2 2a45 45 0 0 0-4-3 61 61 0 0 1 2-2l-1-1a33 33 0 0 0-2 2h-1s-1 0 0 0v1a40 40 0 0 0-2 2 66 66 0 0 0-3-3l2-2-1-1-2 3a43 43 0 0 0-2-2v1l2 1c-2 2-3 3-3 5v1l3-5 4 3a53 53 0 0 0-3 4 92 92 0 0 0-2-2s-1 0 0 0l2 2-1 2c-1 0 0 0 0 0l1-1 4 4a76 76 0 0 1-3 3 19 19 0 0 0-3-2l2 2v1h1l4 4a33 33 0 0 0-2 3h1a48 48 0 0 1 2-3l2 4-2 2-4-4v1l3 4a17 17 0 0 1-2 1v1l3 4-2 3 1 1 2-3 1 1-1-2 3-3h-1l-2-3v-1a47 47 0 0 0 2-2l3 2c0 1 1 0 0 0a57 57 0 0 1-2-3l2-2v-1l-3 3-3-3a78 78 0 0 1 3-4 68 68 0 0 0 4 4v-1l-3-3a277 277 0 0 1 3-4v1l1-1h-1l1-1h-1a156 156 0 0 1-4-3 96 96 0 0 0 2-3l2 2v-1a28 28 0 0 0-1-2 82 82 0 0 0 2-2v-1a69 69 0 0 0 3-3l-1-1zm-7 33-3 3-2-4 2-1 3 2zm-8-23a107 107 0 0 1 2-3l4 4a147 147 0 0 1-2 3 145 145 0 0 0-4-4zm5 12-4-4a140 140 0 0 0 3-3 156 156 0 0 0 3 4 49 49 0 0 0-2 3zm6-7a85 85 0 0 0-3 3l-4-3a116 116 0 0 0 3-3l4 3zm-4-5a219 219 0 0 0-4-4 74 74 0 0 1 2-2 60 60 0 0 1 3 2l1 1-2 3zm233-189c-1-8-9-11-16-11h-9c3-5 5-10 6-16 2-5 3-12 1-17l-2-1-12-6 2-1 4-1c3 0 6-1 8-3 4-4 2-12-4-13v1c3 3 6 8 1 12l-7 1c-3 1-5 2-6 4a81 81 0 0 0-12-2c4-3 11-5 13-8 5-8-2-15-7-21l-2 1c3 5 7 8 9 13 1 5-6 9-10 11l-5 4-11-1c-1-3 4-8 5-11 2-4-1-7-5-8v1c8 6-2 9-2 16v2l-13 2v1h-1l-1 14c-2-4-5-7-9-9-3-1-8-2-10 0-3 4 1 9 3 12 3 5 10 11 17 10 0 4 1 8 3 11h-1c-5-2-13-2-19-1-4 0-12 2-12 8-1 8 7 13 14 15a117 117 0 0 0 82 2c4-2 9-6 8-11zm-82-28c-3-1-5-3-7-6-2-2-7-8-4-10 1-2 6-1 8 0 3 2 6 4 8 8h1v10l-6-2zm22-23c0 2 2 3 4 2v-1l-2-1a96 96 0 0 1 8 0c0 2 0 3 2 5h1v-5l12 2a13 13 0 0 0-1 2l1 1h2v-1l-1-2c5 1 9 3 13 6-7 6-19 3-27 1s-16-4-23-8l11-1zm-13 26c-2-8-1-16-1-25 9 5 19 8 28 11 8 1 20 4 26-2 3 9-3 22-8 30-7 11-21 16-32 9-8-4-11-14-13-23zm41 22c5 0 9 0 13 4 4 3-2 5-5 6-5 2-11 2-17 2-9 0-19-1-27-4-4-2-9-4-12-8-2-3 4-4 5-4l6 2h1l9 7c10 4 20 1 27-5zm20 13c-10 4-23 6-34 6-12 0-23-2-34-5-7-2-18-5-21-13-6-13 22-12 28-10h1l3 5c-3-2-7-2-10-1-4 1-4 4-2 7 4 4 10 7 15 8 7 3 14 3 21 4 8 0 20 1 27-4 3-2 3-5 1-7-3-5-8-5-13-5a33 33 0 0 0 3-4l1-1 1 1c8-2 19 0 23 7 3 6-5 10-10 12zm-360-9v-6c3-2 4-6 1-8 2-1 4-2 3-5 0-2-2-3-4-3 3-3 5-7 1-8-5-1-10 3-13 7-2-8-9-13-18-10-5 1-9 4-12 9a16 16 0 0 0-3-3l-1-3c4-1 12-4 11-10-1-3-5-2-8-1 1-2 1-5-1-6-2-2-5-1-7 1 1-3 1-7-3-6s-6 7-7 11c-4-2-7-2-11 1-6 5-15 12-13 21l1 3c-4 0-7 4-9 7s0 7 4 5l1 4c-2 0-4 0-5 3 0 3 1 6 4 7-3 1-5 2-5 5l3 4c-1 2-2 5 1 7 6 3 13-4 17-7 3 6 10 7 14 7l23 1c6 1 13 0 16-6l1-3c3 5 11 10 16 9 2 0 4-1 4-3s-2-4-3-5c2 0 5-2 5-5 0-2 0-3-2-4 3-1 5-3 5-6 0-4-3-5-6-4zm-4-9c-2-2-4-2-6-2v-4l7-2-7 1a24 24 0 0 0 0-2c2-1 5-2 6-4l-1-1c-1 2-3 4-5 4l-1-3c2-3 6-6 10-7 6 0 0 6-2 8 0 0 0 2 1 1 2 0 5 0 5 2s-3 3-5 3v2c5 1 4 5 0 6a9 9 0 0 0-1 0c-3-1-6 0-9 2l2-6 3 1 2 1h1zm-39-14a20 20 0 0 0-2 4l-5-3 3 3 2 1a14 14 0 0 0 0 3h-5v1h5l1 3-7 1h7a11 11 0 0 0 2 3h-13c0-2 1-3 3-4v-2c-2 0-5 0-5-3-1-3 3-3 4-3l1-1c-2-2-6-8 0-8a11 11 0 0 1 6 2l3 3zm-14-25 3-3c3-1 2 7 2 7-1 1 0 2 1 1 1-2 3-3 5-3 2 2 2 4 0 6-1 1 0 2 1 2 1-1 9-5 8 0-1 4-6 5-9 7h-1c-1-2-5-4-7-5 2-1 4-3 4-5 1 0 0 0 0 0l-4 4a23 23 0 0 1-3-1 31 31 0 0 0 1-4l-1 3-3-2a19 19 0 0 1 3-7zm-17 12c2-2 5-5 8-5s6 3 8 4 9 6 11 9c-2-2-5-2-8-1-5 1-2 5 0 8-2 1-4 2-4 5 0 2 2 4 4 5-1 1-2 2-1 4h-1l-10 1-14-10c-7-7 2-15 7-20zm1 45c-3-2-6-4-7-7h-1c1 4 4 6 8 8v1l-10-2v1l10 2a25 25 0 0 0 0 2l-9 2h4l5-1v2l-8 6c-2 1-5 2-7 1-6-1 1-6 2-6 1-1 0-2-1-2-2 1-4 1-5-1 0-3 4-3 6-3v-2l-5-5c-1-4 4-3 6-2l1-2c-1-2-3-3-3-5s3-2 4-2c5 1 9 6 10 10a1 1 0 0 0 1 1 68 68 0 0 0-1 4zm1-6c-2-6-7-11-13-11-3 0-4 1-4 3l-3-1c-1-1 1-3 1-4l7-5 1-1c1 3 4 5 6 6a30 30 0 0 1-2 3h1l2-2a39 39 0 0 0 2 1l-1 3h1l1-2 4 2-2 3v1l-1 4zm48 18c-2 6-13 3-18 3h-14c-6-1-14-2-15-9l1-16h1c2-5 11-3 15-3h21l8 1c3 1 3 4 3 6 1 6 1 13-2 18zm-4-27-12-1c-7-9 0-21 10-24 7-2 13 2 16 8 4 5 2 12 0 18v1a36 36 0 0 0-5 5c-1-6-4-7-9-7zm32 11c-1 2-3 3-6 4a13 13 0 0 0-3-1l-1 2 4 1c2 0 3 1 3 3 0 3-5 3-7 2l-1 2a19 19 0 0 1 4 3c2 1 2 3-1 4l-7-2-8-7a31 31 0 0 0 0-2l3 3 5 4 1-1-5-4-3-2h-1v-8c3 1 6 0 9-2l-1-1c-2 2-5 3-8 2a63 63 0 0 0 0-2l7-5 4-3a10 10 0 0 1 4 0l3 3-4 3c-1 1 0 2 1 2 2-1 9-3 8 2zm972 109h-7c-1 0-1 0 0 0l6 1 1-1zm-71-24-3 2v1l4-2-1-1zm37-23-4 2v1l4-2v-1zM183 441c-6 1-5-6-4-10 0-1-1-2-2-1-5 5-13 1-13-5 0-2-2-2-2 0 0 8-9 10-14 4 0 0-2 0-1 1 2 6 0 11-7 11v1c2 2 5 3 6 6h1c0-3-2-4-4-6 5-1 7-5 6-9 5 3 12 1 14-4 3 5 9 7 13 4 0 4 1 9 4 10-2 1-4 3-4 6-6-2-15-1-20 0-17 1-34 1-50-1l-17-1 1-6-1-1a176 176 0 0 0-15 0l-1 1v6l-10 3v2l-1 42c0 6-1 17 6 20 8 3 18 1 26 2h71c4 0 8 1 11-2 4-3 5-8 6-13l1-20v-16c0-5 0-9-3-13l-3-2a1 1 0 0 0 1-1c1-3 3-5 6-6 1 0 1-2-1-2zm-108 1h13l-1 5H75v-5zm105 43c0 6 0 13-2 20-1 3-2 7-6 8H79c-5 0-11 0-13-5-2-4-1-10-1-15v-27c16-2 33-1 50 0-6 4-10 14-11 20-2 13 9 24 22 24 14 1 27-11 26-25 0-7-4-12-10-16a18 18 0 0 0-3-2l13-1c9 0 19-1 28 1a422 422 0 0 0 0 18zm-63-17h19c7 2 12 8 13 15 4 13-9 23-20 25-12 1-23-8-23-20 1-7 4-17 11-20zm63-3c-8-2-17-2-25-1h-29c-20-1-41-3-61 1l-1-13c12-4 25-3 36-1l46 1c9 0 19-3 28-1 6 2 7 8 6 14z" style="fill:#fff"></path>
<path d="M171 451c-7 0-14 0-20 2l-1 1-1 1v4l1 1h20l1-1 1-7-1-1zm-12 8-6-1c-3 0-3-1-2-3l18-2v5l-10 1zm-31 13c-17-5-22 30-2 32 11 1 18-6 18-17 0-9-6-17-16-15zm-1 30c-17-1-16-30 1-28h1a1 1 0 0 0 1 0c7-1 12 6 12 13 0 9-6 16-15 15zm36 122c-2-5-7-10-11-14-2-2-7-8-11-6-5-12-12-23-20-32l-2 1c-8 11-13 24-15 38-8 3-13 11-17 18v1c5 2 11 2 16 2 2 15 8 29 20 39v1c-1 7-3 13-3 20v1h1c-3 3-5 5-5 9l2 1 2-2c-1 6 0 12 3 18h1l4-10 5 4h1c1-7-1-13-5-19 2 0 3-1 4-4l1-1c0 2 2 3 4 4-2 3-2 7-3 10l2 1 3-4c0 5 1 10 5 14h1l1-9 8 8 1-1c2-8 0-15-6-21l1-5-5-10-3-6 2-4c3-11 5-22 3-34a103 103 0 0 0-1-6h15c1 0 2-1 1-2zm-60 6-14-1c4-6 9-13 15-17l-1 18zm11-44 3 5-4-3 1-2zm2-3 4 6a294 294 0 0 1-4-5 1 1 0 0 0-1 0 93 93 0 0 1 1-1zm-4 7a51 51 0 0 1 2 3l-2-2v-1zm-1 4 1 1h-1v-1zm-1 3 1 1a1 1 0 0 0 1-1 24 24 0 0 1 2 1 186 186 0 0 0-5 1l1-2zm5 0-1-1a62 62 0 0 1 2 2h-2l1-1zm3 0-2-4 5 4-3 1a1 1 0 0 0 0-1zm5-1-1-1 2 2 2-2-1-2a66 66 0 0 0 2 3c0 1 2-1 1-2a55 55 0 0 1-2-3 105 105 0 0 0 4 5l-7 1a1 1 0 0 0 0-1zm9-1v1c1 1 2 0 2-1l1 2-4-1a1 1 0 0 0 1-1zm-12-20c5 5 9 10 12 16l-9-11a1 1 0 0 0 0-1 56 56 0 0 0-2-2c-1-1-3 0-2 1l1 2-1-1c-1-1-2 0-1 1v1h-2a92 92 0 0 1 4-6zm13 136-5-5h-2l-3 11c-2-6-2-12-1-18h-1l-3 2c0-3 2-5 4-7l5 1c4 5 6 10 6 16zm-2-20-4 2-3-1c-2 0-2 0-2-2l3-17 7-1v13l-1 6zm24 20c-4-2-7-6-8-10l-2 1v10c-3-4-4-9-4-14l-1-1-3 3 2-7 3 1 7-2c5 5 7 12 6 19zm-12-36 3 6 3 7c0 3-6 4-8 4-4 0-6-3-7-7v-13l7-1 2 4zm2-17c-1 4-2 10-6 11l-14 1a60 60 0 0 1-19-39c-1-10 0-21 3-31l13-1 13-1a1 1 0 0 0 1 0l9 30a82 82 0 0 1 0 30zm2-34a106 106 0 0 0-6-20c4 0 9 6 11 8l9 11-14 1z" style="fill:#fff"></path>
<path d="M134 619c0-5-5-11-10-9-10 1-8 19 1 20 6 0 10-5 9-11zm-10 8c-6-2-6-12-1-15l1 1c5-3 8 4 8 7 0 4-4 9-8 7zm209 13a180 180 0 0 0-43-60l-16 29c-5 11-12 22-16 34a306 306 0 0 0 17 1c-6 22-4 45-7 68l1 1 54 2 1-2c-3-21 0-42-4-63a1 1 0 0 0 0-1l-1-5 12-2h2v-2zm-8-12-2 1-3 1-2-4 5-2a319 319 0 0 1 2 4zm-15 10 3 30v34h-35l2-32 1-31v-1a1 1 0 0 0-1-1l-5-1h-5c9-12 13-29 22-42 11 13 21 27 29 42h-11v2zm7 11-4-1v-7l1 1 3 2 1 5a18 18 0 0 1-1 0zm1 1 1 4-5 1-1-5h5zm-42-6v-1l1-1h2l-1 6h-2v-4zm46-21-4 3a156 156 0 0 0-3-5l5-2a265 265 0 0 1 2 4zm-5-8 3 3-5 2-2-2 4-3zm0-1-4 3a194 194 0 0 0-3-4l3-3v-1l-4 3-2-3 3-4-1-1-3 4a263 263 0 0 0-2-4v-2l2-3c1 0 0-1 0 0l-3 4a290 290 0 0 0-5-5l4-5 15 21zm-16-22v1l-3 4-3-3a9 9 0 0 0 0-1 97 97 0 0 0 2-3l1-2 3 4zm-10-10 6 6-2 3a88 88 0 0 1-1 2l-1-2h-1a46 46 0 0 0 0-4l-1-4v-1zm-1 2v2l1 6-1 2-2-2-1-3a100 100 0 0 1 3-5zm-4 6 3 5a82 82 0 0 0-2 4l-2-1a34 34 0 0 0-2-2 133 133 0 0 1 3-6zm-4 7a37 37 0 0 1 3 1l1 2-1 2h-1l-3-2a200 200 0 0 1 1-3zm-2 4 3 2h1a151 151 0 0 0-2 4l-1-1a75 75 0 0 0-3-1 297 297 0 0 1 2-4zm-2 5 2 1 2 1a243 243 0 0 0-2 3h-1l-2-2a511 511 0 0 1 1-3zm-2 4a36 36 0 0 0 3 1l1 1-2 5-1-1h-3l-1-1a146 146 0 0 0 3-5zm-3 7h2l2 1a430 430 0 0 1-2 4l-2-1a50 50 0 0 1-2 0 309 309 0 0 0 2-4zm-3 5 5 1-2 5-5-2 2-4zm-2 5 2 1 2 1a118 118 0 0 1-3 5l-2-1h-2l3-6zm-4 6 3 1 2 1a82 82 0 0 1-2 2l1 2-3 1a25 25 0 0 1-5 2l4-9zm-1 9a21 21 0 0 0 2-1l4-2v-1l5 1-6 3a331 331 0 0 0-5 0zm6 0 7-3h3a48 48 0 0 0 0 2h-2l-2 2a232 232 0 0 0-6-1zm6 7h3v6h-3v-6zm0 7h3a886 886 0 0 1 0 4 20 20 0 0 1-4 1l1-5zm-1 6 4-1a164 164 0 0 1 0 4l-4 1v-4zm0 5 4-1v4l-5 1 1-4zm-1 5 4-1v6l-4 1v-6zm0 7 4-1a592 592 0 0 0-1 7h-4l1-6zm-1 7h4v4h-4v-4zm0 5h4v6a11 11 0 0 1-4 1v-7zm0 7h4a116 116 0 0 0 0 6l-2 1-3 3 1-10zm-2 13 1-2 6-4h2l-4 6a247 247 0 0 1-5 0zm14 1-3-1 2-6h-1l-2 6h-4l4-6h5l-1 7zm5 0h-4l2-7 3-1-1 8zm5 0h-4l1-8h4l-1 8zm5 0h-4v-4l1-4a310 310 0 0 1 4 0l-1 8zm1 0 1-8h4v8h-5zm6-8h4l3 8h-7v-8zm7 8-2-8 3 1 1-1 3 5 2 3h-7zm9 0-3-4-4-5v-2a90 90 0 0 1 4 2l2 2 1 7zm-1-9-2-1-4-2v-4l3 1 3 1v5zm0-6-3-1-3-1a411 411 0 0 0 0-5 92 92 0 0 0 4 1h1l1 6zm-1-7h-1l-4-1v-5h5v6zm0-7h-2l-3 1a472 472 0 0 1 0-5l2-1h3v5zm0-6h-5a217 217 0 0 1 0-5h5v5zm0-6h-3l-2 1v-5a63 63 0 0 1 2-1h3v5zm0-6h-2l-3 1a93 93 0 0 0 0-4h3l1-1 1 4zm-1-9v4h-1l-3 1a171 171 0 0 0-1-5h5zm-2-14h-1l-3-3v-1h2l4 2 2 2a28 28 0 0 1-4 0zm5-1-3-2-2-1h4l7 3h-6zm1-4v-3h4v-1h-5a133 133 0 0 0-1-3h2l2-1a539 539 0 0 1 6 11l-8-3z" style="fill:#fff"></path>
</svg>