<svg xmlns="http://www.w3.org/2000/svg" xml:space="preserve" style="enable-background:new 0 0 500 500" viewBox="0 0 500 500"><path d="M0 0h500v500H0z" style="fill:#fffdf8"/><path d="M245.686 379.008c-.397.09-.799.156-1.232.239-1.996-3.953-5.156-4.655-9.006-3.275-2.378-2.695-5.144-3.386-8.388-1.849-2.178-2.158-4.573-3.021-7.405-1.295-1.895-1.402-3.903-1.907-6.137-1.019-3.17 1.26-4.902 3.623-5.227 6.966-.096.986-.414 1.676-1.124 2.339-3.013 2.812-5.983 5.671-8.968 8.513-4.503 4.287-9.077 8.502-13.481 12.887-2.569 2.557-4.887 5.368-7.277 8.1-1.056 1.207-1.643 2.616-1.19 4.259.946 3.435 1.714 6.937 2.923 10.279 2.406 6.65 4.338 13.42 6.029 20.281.679 2.754 1.848 5.402 2.95 8.033.748 1.786 2.295 2.808 4.176 3.176 1.155.226 2.383.466 3.522.303 2.825-.405 5.683-.818 8.41-1.626 5.29-1.566 10.477-3.476 15.745-5.118 11.875-3.701 23.781-7.304 35.656-11.004 1.856-.578 3.662-1.369 5.413-2.223 1.85-.902 2.821-2.521 2.776-4.58-.035-1.597-.111-3.236-.494-4.776a4940.758 4940.758 0 0 0-9.108-35.971c-.353-1.373-.466-2.593-.08-4.038 1.361-5.09-3.343-9.772-8.483-8.601zm-10.781.554c.828-1.572 2.173-2.347 3.95-2.212 1.663.126 2.938.926 3.519 2.539.167.464.138 1.084-.019 1.562-.407 1.246-.935 2.453-1.471 3.821-1.7.963-3.501.322-5.278-.313-.36-.129-.709-.48-.914-.819-.941-1.557-.566-3.099.213-4.578zm-8.057-2.169c1.317-2.615 5.22-2.839 6.767-.237l-1.793 5.905c-1.229.85-2.833.303-4.357-.01-.44-.09-.902-.85-1.058-1.389-.42-1.452-.24-2.917.441-4.269zm-7.016-1.98c1.79-1.989 3.588-1.949 5.465.107-.345 1.332-.839 2.463-.881 3.61-.048 1.31-.759 1.873-1.752 2.316-3.452 1.54-4.126-.114-4.09-2.792.016-1.236.432-2.322 1.258-3.241zm-7.728-.395c1.313-1.225 2.828-2.041 4.736-1.43.396.127.801.222 1.306.361-1.102 2.053-1.671 3.794-1.552 5.733.024.398-.512 1.126-.889 1.2-1.339.263-2.727.442-4.081.364-.482-.028-1.211-.823-1.319-1.368-.379-1.924.413-3.567 1.799-4.86zm-2.649 7.348c2.611 1.606 5.214.969 8.011.039 2.031 2.91 4.498 1.203 7.018.36 1.984 3.351 5.134 2.57 8.308 2.295 2.256 2.539 5.238 2.923 8.305 2.262l4.645 4.775c-1.753 1.021-2.227.951-3.37-.559-.168-.222-.344-.449-.455-.7-.585-1.326-1.645-1.808-3.028-1.788-2.272.032-4.437-.255-6.309-1.767-.426-.344-1.182-.382-1.787-.387-2.134-.018-4.107-.391-5.96-1.604-.714-.467-1.873-.525-2.77-.385-1.755.273-3.371.406-5.099-.372-.919-.414-2.183-.194-3.27-.074-1.951.215-3.748-.003-5.731-1.585.718-.26 1.267-.648 1.492-.51zm6.547 6.565c1.546-.734 2.48-.68 3.379.196.825.804 1.192 2.306.8 3.268-.51 1.251-1.748 1.853-3.591 1.754l-.588-5.218zm-2.641-2.294c.891-.163 1.424-.282 1.965-.348.175-.022.368.094.848.23-.971.517-1.571 1.439-2.813.118zm1.016 4.878c.458 2.193-.882 4.14-3.17 4.608-2.519.514-5.167-1.148-5.6-3.516-.395-2.158 1.026-4.208 3.221-4.648 2.552-.511 5.031 1.077 5.549 3.556zm-34.912 19.607c1.725-2.015 3.457-4.041 5.359-5.883 7.124-6.896 14.318-13.72 21.624-20.703l2.095 1.277c-3.245 1.11-5.003 3.143-5.072 6.349-.629.238-1.16.408-1.664.637-2.003.911-2.996 2.79-2.532 4.747.499 2.105 2.47 3.591 4.646 3.449 1.438-.094 2.78-.544 3.715-1.687.68-.831 1.363-1.203 2.495-1.089 1.495.15 2.922-.336 4.091-1.315.644-.539 1.277-.698 2.105-.617a6.383 6.383 0 0 0 2.278-.186c3.356-.925 4.686-4.292 2.932-7.316-.243-.42-.538-.81-.874-1.31 1.431-.726 2.593-.764 4.089.053 1.471.804 3.291 1.047 4.992 1.326 1.031.169 1.965.323 2.949.803 1.343.656 2.908 1.202 4.371 1.185 2.183-.025 3.597.661 4.354 2.982-1.536.573-3.114 1.213-4.725 1.757-9.268 3.127-18.563 6.174-27.809 9.362-6.801 2.345-13.535 4.885-20.313 7.298-2.302.819-4.625 1.603-6.984 2.229-1.062.282-2.452 1.008-3.277-.295-.83-1.309.429-2.205 1.155-3.053zm26.908-13.834c-.946 1.553-2.035 2.066-3.47 1.617-1.047-.328-1.841-1.308-1.831-2.262.012-1.196.82-1.952 2.682-2.464l2.619 3.109zm-27.337 19.733c2.749-.733 5.427-1.282 7.993-2.162 10.182-3.49 20.322-7.101 30.489-10.633a5508.92 5508.92 0 0 1 25.579-8.795c.974-.333 1.992-.541 3.089-.834 1.249 1.933 1.821 4.079 2.227 6.273.218 1.175-.287 2.057-1.405 2.517-1.808.745-3.605 1.527-5.448 2.177a730.136 730.136 0 0 1-12.697 4.344c-9.288 3.081-18.593 6.114-27.882 9.193-6.037 2.002-12.057 4.053-18.087 6.077-.393.132-.801.217-1.189.321-1.006-1.358-2.192-5.143-2.669-8.478zm77.527 15.655c.302 1.199.536 2.414.819 3.703-.779.31-1.336.579-1.92.757-8.347 2.555-16.715 5.042-25.042 7.661-7.927 2.494-15.794 5.176-23.722 7.666-2.988.938-6.071 1.572-9.112 2.336-.269.068-.551.092-.829.117-4.612.424-6.295-.585-8.037-4.889-.416-1.029-.708-2.108-1.123-3.365 1.775-.602 3.276-1.141 4.795-1.621 7.525-2.376 15.031-4.814 22.588-7.083 8.763-2.632 17.563-5.138 26.364-7.64 2.751-.782 5.528-1.558 8.345-2.01 5.164-.827 5.817.18 6.874 4.368zm4.16-7.988c.566 2.297.878 4.671 1.124 7.028.209 2.006-.426 2.795-2.452 3.618-.306-1.148-.585-2.295-.922-3.424-.278-.935-.564-1.876-.954-2.768-.864-1.979-2.388-3.08-4.581-3.063-1.322.01-2.657.066-3.96.271-1.446.227-2.879.586-4.287.994-14.437 4.181-28.879 8.344-43.292 12.605-4.151 1.227-8.213 2.757-12.32 4.137-.577.194-1.178.32-1.859.501l-.536-2.01c1.241-.464 2.387-.949 3.568-1.324 9.992-3.175 19.992-6.323 29.986-9.492 6.396-2.028 12.778-4.098 19.179-6.111 3.2-1.007 6.438-1.895 9.638-2.903 1.261-.397 2.512-.881 3.684-1.487 1.575-.815 2.452-2.148 1.959-3.973-.525-1.946-1.043-3.926-1.876-5.748-.988-2.162-2.497-2.816-4.822-2.313-1.977.428-3.933.994-5.857 1.624a16850.035 16850.035 0 0 0-39.827 13.122c-5.839 1.93-11.666 3.895-17.501 5.838-.458.152-.933.253-1.682.453l-1.027-2.823c2.562-.875 4.922-1.712 7.302-2.49 10.962-3.581 21.944-7.103 32.891-10.729 7.562-2.505 15.082-5.139 22.615-7.733.923-.318 1.825-.71 2.71-1.123 2.472-1.153 3.298-2.734 2.689-5.429-.337-1.492-.892-2.936-1.368-4.395-.192-.588-.437-1.16-.694-1.834l3.82-2.5c.215.51.449.913.559 1.346 2.715 10.707 5.452 21.409 8.093 32.135zm-74.611 15.719-2.213-8.294c1.903-.667 3.78-1.362 5.681-1.985a11956.37 11956.37 0 0 1 30.872-10.092 6470.773 6470.773 0 0 1 24.732-7.972c1.063-.341 2.158-.582 3.241-.856 1.085-.274 2.048.029 2.469 1.049.715 1.731 1.299 3.521 1.833 5.318.243.819-.182 1.525-.964 1.892-.945.445-1.897.903-2.89 1.212-13.006 4.049-26.032 8.037-39.029 12.118-7.33 2.302-14.615 4.748-21.922 7.122-.518.17-1.055.286-1.81.488zm62.882-49.673c-1.651-.506-3.113-.978-4.279-2.238-1.414-1.527-1.963-3.121-1.233-4.919.654-1.611 1.814-2.64 3.6-2.776 1.778-.135 3.864 1.14 4.597 2.739 1.393 3.044.698 4.951-2.685 7.194zM236.894 304.452c-.93-1.211-1.425-2.494-1.839-3.899-.521-1.772-1.501-3.3-2.795-4.622-.377-.385-.751-.774-.911-.939.902-2.146 1.948-3.999 2.461-5.989 1.055-4.091-1.081-7.139-5.217-7.874-.13-.023-.246-.12-.436-.216-1.067-7.056-5.191-11.297-12.291-12.805.252-.676.502-1.307.723-1.948 1.952-5.656-.369-10.967-5.886-13.26-1.473-.612-3.063-.943-4.603-1.392-.451-.132-.913-.225-1.353-.332-.322-5.353-3.326-8.611-7.98-10.389-4.515-1.725-9.069-1.308-13.48.581-.645.276-1.167.84-1.708 1.243.191.441.245.652.361.82 1.87 2.708 1.904 4.782-.037 7.454-.859 1.183-1.853 2.28-2.869 3.336-2.497 2.594-3.784 5.517-2.588 9.23-2.157 1.37-4.125 2.565-5.116 4.837-1.018 2.333-.459 4.609.251 6.879-4.618 1.578-8.157 4.151-9.816 8.702-1.688 4.631-.363 8.754 2.411 12.26-1.035 1.681-2.047 3.106-2.816 4.652-.466.939-.924 1.522-2.002 1.846-2.317.696-3.148 2.965-2.213 5.196 1.891 4.51 3.697 9.055 5.569 13.573 1.523 3.676 2.901 7.429 4.689 10.974 2.067 4.1 5.285 7.298 9.545 9.078 2.68 1.12 5.582 1.831 8.452 2.35 7.58 1.371 15.192.868 22.768-.138 3.743-.497 7.428-1.313 10.932-2.813 2.72-1.164 4.935-2.9 6.46-5.45 3.988-6.663 7.653-13.498 10.685-20.651.675-1.592 1.096-3.322 1.405-5.03.326-1.801.402-3.756-.756-5.264zm-71.26-23.341c1.498-1.712 3.308-2.982 5.465-3.766 1.166-.424 2.113-.346 3.038.597.776.792 1.708 1.438 2.61 2.095.589.429 1.333.72 1.854-.001.57-.789-.105-1.225-.689-1.668-.946-.716-1.906-1.427-2.76-2.246-3.654-3.503-3.232-7.59 1.029-10.28.35-.221.728-.397 1.259-.684 2.656 2.849 6.212 2.687 9.702 2.746.551.01 1.16-.008 1.637-.233.357-.169.76-.704.742-1.056-.015-.284-.611-.739-.977-.769-1.25-.101-2.515-.007-3.77-.064-.973-.045-1.966-.102-2.906-.332-3.14-.77-4.693-3.892-3.406-6.861.355-.819.907-1.572 1.463-2.281.732-.934 1.565-1.787 2.342-2.687 2.682-3.106 4.164-6.456 2.01-10.461 5.009-2.705 12.278-1.628 16.007 2.303 3.184 3.357 3.116 7.152-.24 10.328-1.166 1.104-2.44 2.093-3.654 3.148-.367.319-.795.63-1.006 1.042-.151.295-.126.872.074 1.102.198.227.721.25 1.09.223.241-.018.469-.279.694-.443 3.284-2.386 4.986-4.187 7.231-7.699 2.947.378 5.82 1.154 8.176 3.183 2.802 2.414 3.369 6.812 1.457 10.411-1.041 1.959-2.502 3.615-4.397 4.692-3.028 1.72-6.188 3.209-9.307 4.765-.712.355-1.795.302-1.627 1.511.098.703 1.028.913 2.381.375 4.428-1.759 8.745-3.719 12.292-7.043.51-.479 1.311-.922 1.976-.919 5.268.019 10.622 5.805 10.404 11.075-4.543 2.156-8.846 4.324-13.25 6.263-8.396 3.696-17.144 5.456-26.355 4.413-2.081-.236-4.178-.328-6.269-.477-.347-.025-.753-.116-1.034.023-.386.191-.943.572-.942.87.001.341.484.755.85.996.262.172.676.125 1.024.15 3.695.258 7.386.645 11.085.736 7.454.183 14.572-1.513 21.398-4.399 3.278-1.386 6.411-3.11 9.666-4.555 1.774-.788 3.623-1.52 5.514-1.904 2.718-.553 4.428 1.03 4.455 3.839.024 2.434-1.057 4.462-2.556 6.273-1.673 2.022-3.778 3.505-6.108 4.696-5.645 2.886-11.716 4.118-17.967 4.519-9.757.626-19.416-.121-28.914-2.513-1.89-.476-3.748-1.123-5.563-1.839-1.973-.778-3.662-2.035-5.093-3.609-3.524-3.881-3.586-9.642-.135-13.585zm6.149 54.045c-2.013-2.276-3.442-4.911-4.55-7.719-2.101-5.32-4.154-10.659-6.256-15.979-.589-1.491-1.284-2.941-1.923-4.413-.311-.717-.686-1.569.079-2.096.56-.385 1.492-.678 2.078-.48 1.084.367 2.271.923 2.989 1.764 1.253 1.468 2.41 3.107 3.21 4.857 3.118 6.814 4.9 14.086 7.013 21.242.605 2.051 1.15 4.119 1.792 6.43-1.979-.942-3.233-2.25-4.432-3.606zm9.354 5.516c-1.851.179-2.448-.757-2.874-2.223a1076.953 1076.953 0 0 0-6.322-21.057c-.747-2.391-1.817-4.682-2.74-7.019-.595-1.507-.141-2.528 1.449-2.685.901-.089 2.013.11 2.751.6 1.716 1.138 3.055 2.762 3.521 4.794 1.967 8.577 3.797 17.184 4.211 26.015.024.483.004.969.004 1.575zm9.538 1.791-7.307-.999c-.251-3.044-.289-5.856-.75-8.597-1.04-6.197-2.19-12.379-3.509-18.522-.442-2.06.046-3.61 1.475-4.855 1.557-1.358 3.414-1.183 5.101-.203 2.674 1.553 4.506 3.729 4.58 7.019.185 8.248.378 16.496.557 24.745.009.399-.08.8-.147 1.412zm9.375-.775c-.005.136-.069.269-.187.708h-6.879c-.134-2.246-.319-4.455-.387-6.668-.202-6.569-.335-13.141-.547-19.71-.056-1.727.634-3.14 1.648-4.395.395-.488 1.136-.856 1.773-.962 2.955-.49 5.553 1.818 5.459 4.824-.275 8.736-.582 17.47-.88 26.203zm-3.676-33.14c-2.376-.125-3.97 1.037-5.184 2.879-1.217-1.16-2.268-2.373-3.524-3.309-1.999-1.488-4.308-2.179-6.705-1.139-1.228.532-2.246 1.549-3.272 2.284-1.437-1.087-2.88-2.532-4.612-3.395-1.883-.937-3.826-.279-5.508 1.136-.778-.876-1.453-1.766-2.262-2.508-.759-.696-1.66-1.236-2.581-1.904.531-1.919 1.479-3.557 3.079-4.903 5.682 4.155 12.36 5.133 18.976 6.164 6.645 1.035 13.359 1.297 20.077.872 5.46-.346 10.827-1.213 15.958-3.238 3.205-1.265 6.205-2.866 8.734-5.166 2.319 1.463 3.487 3.359 3.785 6.156-3.715-.038-5.274 2.853-7.045 5.421-5.764-4.577-8.303-4.126-12.128 2.207-1.716-1.914-3.63-3.413-6.38-3.244-2.899.178-4.403 2.141-5.833 4.508-1.559-1.592-3.301-2.701-5.575-2.821zm13.473 32.854-7.531.91c-.082-.732-.204-1.259-.189-1.782.249-8.442.473-16.886.809-25.325.086-2.163 1.228-3.964 2.802-5.436 1.081-1.011 2.42-1.038 3.746-.684 2.175.581 3.931 3.142 3.66 5.388-.92 7.618-1.886 15.231-2.83 22.846-.154 1.244-.285 2.488-.467 4.083zm2.122-.45.76-6.515c.79-6.792 1.477-13.599 2.427-20.369.325-2.317 1.315-4.553 3.101-6.247 1.162-1.103 2.71-1.246 4.242-.248 1.024.668 1.853 1.634 2.765 2.462-3.5 9.718-6.741 19.292-8.335 29.556-1.49.41-3.064.841-4.96 1.361zm23.061-28.875c-1.04 2.658-2.126 5.311-3.409 7.857-2.353 4.67-4.835 9.277-7.325 13.877-1.073 1.982-2.542 3.619-5.223 4.743.597-2.75.949-5.025 1.594-7.213 1.892-6.418 3.787-12.84 5.929-19.176.698-2.064 2.105-3.903 3.293-5.779.605-.954 1.533-1.616 2.724-1.784 1.663-.235 2.717.474 3.015 2.126.331 1.833.067 3.651-.598 5.349zM138.132 74.529c-2.411-9.994-7.137-18.628-15.474-24.968-5.899-4.487-12.649-7.078-19.838-8.587-6.697-1.406-13.409-1.777-20.162-.212-19.137 4.437-39.082 23.035-38.378 49.076.313 11.57 5.687 19.999 16.464 24.56 8.396 3.553 17.246 5.101 26.361 5.101.559 0 1.119.024 1.677-.004 6.272-.306 12.521-.93 18.811-1.065 4.882-.104 9.718-.975 14.435-2.391 5.541-1.663 9.784-4.941 12.826-9.852 2.089-3.373 3.429-7.013 4.206-10.883 1.406-7.001.722-13.933-.928-20.775zm-37.262 41.856c.567-.351 1.16-.668 1.699-1.059 2.712-1.965 5.544-3.792 8.084-5.96 5.408-4.617 8.054-10.795 9.252-17.649.6-3.435-.006-6.841-.813-10.177-2.564-10.6-8.822-18.417-18.268-23.694-5.024-2.806-10.532-3.247-16.101-2.399-10.278 1.565-17.649 7.372-22.619 16.299-2.396 4.304-3.854 8.976-4.24 13.941-.22 2.826.155 5.573.857 8.298.854 3.319 2.894 5.668 5.842 7.321 3.591 2.013 7.489 3.107 11.509 3.734 7.065 1.102 14.074.798 20.983-1.17 6.924-1.973 10.493-6.413 10.936-13.639.238-3.878-.084-7.713-1.302-11.396-1.95-5.896-5.701-10.107-11.964-11.474-5.649-1.233-10.603.231-14.302 4.789-3.102 3.824-4.489 8.349-4.325 13.275.106 3.179 1.919 5.484 4.804 6.46 3.876 1.311 7.312-.776 7.792-4.845.187-1.587.049-3.211.084-4.818.015-.695-.013-1.419.17-2.076.386-1.383 1.328-1.723 2.554-.965 2.049 1.268 3.39 3.183 3.272 5.532-.225 4.468-1.532 8.531-5.752 11.008-5.713 3.353-16.795 1.804-18.505-8.461-1.929-11.584 6.019-22.983 17.422-24.676 2.553-.379 5.029.008 7.437.809 11.882 3.954 17.627 13.745 17.622 25.068-.002 4.271-.995 8.313-3.354 11.946-1.65 2.539-3.851 4.512-6.682 5.524-7.749 2.768-15.691 4.7-24.002 4.138a50.776 50.776 0 0 1-14.108-2.99c-.785-.288-1.544-.652-2.305-1.004-5.033-2.333-7.726-6.35-8.155-11.804-.737-9.371.542-18.444 4.738-26.937 2.977-6.026 7.386-10.895 13.142-14.363 5.47-3.296 11.414-4.401 17.742-2.911 5.417 1.275 10.554 3.287 15.345 6.08 8.945 5.216 14.488 12.917 16.555 23.12 1.261 6.227 1.932 12.455.361 18.705-1.757 6.987-5.52 12.575-11.654 16.551-2.987 1.936-6.16 2.484-9.751 1.869zm36.51-23.328c-.86 5.946-3.001 11.33-7.145 15.795-1.333 1.436-2.822 2.67-4.804 3.532 1.158-3.13 2.242-5.99 3.265-8.871.278-.783.477-1.628.509-2.452.018-.446-.281-1.146-.634-1.311-.652-.304-.968.318-1.131.883-.096.333-.092.694-.178 1.031-.833 3.266-2.024 6.391-3.703 9.32-1.283 2.237-3.046 3.759-5.734 4.068-1.693.195-3.365.571-5.156.556.193-.172.374-.359.58-.513 7.412-5.548 11.205-13.069 11.867-22.189.444-6.127-.467-12.144-2.226-18.011-2.446-8.16-7.325-14.595-14.439-19.204-6.514-4.221-13.596-7.198-21.373-8.129-5.521-.661-10.756.605-15.487 3.44-6.845 4.102-11.907 9.894-15.133 17.207-3.574 8.101-4.683 16.644-4.189 25.418.429 7.607 4.409 12.66 11.497 15.213 8.91 3.21 18.039 4.406 27.413 2.39 3.208-.69 6.405-1.456 9.569-2.324 8.323-2.283 12.567-8.125 13.946-16.339.815-4.855.297-9.621-1.311-14.261-3.135-9.044-9.567-14.608-18.616-17.184-6.055-1.723-11.615-.194-16.711 3.296-7.461 5.11-11.485 15.893-9.216 24.66 1.455 5.622 5.998 9.628 11.771 10.107 1.991.165 4.095.101 6.025-.365 4.175-1.007 7.246-3.503 8.794-7.648.786-2.106 1.458-4.228 1.361-6.52-.14-3.284-1.706-5.716-4.484-7.357-2.209-1.304-4.584-.347-5.263 2.152-.286 1.052-.225 2.204-.274 3.313-.061 1.39.087 2.809-.139 4.168-.474 2.849-2.575 3.983-5.256 2.97-1.87-.706-3.078-2.086-3.167-4.063-.251-5.578 1.319-10.554 5.676-14.267 4.334-3.694 11.572-3.381 16.075.535 2.26 1.965 3.912 4.358 4.77 7.263 1.307 4.427 1.749 8.915.789 13.461-.966 4.576-3.699 7.563-8.243 8.858-3.916 1.116-7.883 1.871-11.969 1.923-4.779.061-9.494-.369-14.092-1.754-.201-.061-.412-.089-.609-.158-7.913-2.777-11.436-5.228-10.606-16.014.853-11.09 6.284-19.901 16.281-25.373 6.506-3.561 13.429-4.015 20.53-2.004.735.208 1.469.488 2.14.851 11.833 6.401 18.484 16.242 19.029 29.75.238 5.9-2.082 11.271-5.764 15.845-4.581 5.69-10.579 9.589-17.44 11.916-2.569.871-5.517.874-8.289.85-8.463-.074-16.696-1.607-24.542-4.814-10.218-4.177-15.416-12.016-15.614-22.933-.294-16.227 6.68-28.999 19.404-38.744 6.026-4.615 12.788-7.787 20.372-8.817 10.451-1.42 20.3.81 29.655 5.435 5.894 2.914 10.622 7.199 14.201 12.723 2.994 4.622 5.075 9.631 6.283 15.005 1.31 5.837 1.998 11.715 1.135 17.685z" style="fill:#443631"/><path d="M133.524 85.51c-.307.136-.544.939-.458 1.367.719 3.599.178 7.086-.775 10.552-.128.465-.282.954-.253 1.421.017.274.326.662.588.751.26.088.726-.038.921-.243.27-.283.45-.711.532-1.106.499-2.381.959-4.771 1.379-6.886-.245-1.857-.411-3.38-.663-4.888-.111-.65-.519-1.302-1.271-.968zM133.408 80.981l.715-.923c-.064-2.388-2.041-8.367-3.22-10.09-.156-.228-.304-.523-.53-.629-.279-.131-.712-.229-.937-.099-.233.134-.43.574-.403.856.038.395.318.761.459 1.152.708 1.964 1.437 3.922 2.09 5.904.305.924.371 1.931.715 2.835.158.413.728.668 1.111.994zM374.023 293.192c-.203-.798-.609-1.558-1.007-2.289-.298-.547-.786-.988-1.098-1.529-.587-1.015-1.283-2.015-1.621-3.117-.832-2.713-2.602-4.378-5.209-5.311-.706-.253-1.411-.592-2.015-1.031-3.051-2.216-5.464-2.373-8.729-.406-1.248.752-2.419 1.63-3.992 2.7-.376-4.629-3.136-7.354-6.431-9.629-1.483-1.024-3.087-1.97-4.77-2.589-3.466-1.274-6.963-2.568-10.554-3.383-8.59-1.951-17.092-1.022-25.451 1.488-4.178 1.254-8.074 3.097-11.529 5.827-2.746 2.17-4.442 4.925-5.246 8.328-.825 3.491-1.304 6.999-1.202 10.587.24 8.452.559 16.904.671 25.358.061 4.653 1.202 8.826 4.231 12.415.083.098.095.257.099.27-.274 1.109-.652 2.102-.746 3.121-.22 2.393.84 4.329 2.44 6.02 2.237 2.364 5.104 3.612 8.118 4.6 8.945 2.932 18.074 3.463 27.335 2.011 3.867-.606 7.711-1.341 11.245-3.169 3.838-1.984 6.062-4.855 5.422-9.427-.078-.557.04-1.319.379-1.727 2.28-2.745 3.184-6.01 3.784-9.416.093-.528.283-1.04.417-1.519 1.384-.244 2.63-.414 3.852-.688 4.819-1.077 8.11-3.89 9.675-8.627.263-.796.526-1.592.771-2.393.622-2.047 1.642-3.838 3.235-5.3 2.119-1.946 3.572-4.28 3.939-7.187 3.168.616 4.755-.975 3.987-3.988zm-23.391-7.861c.009-.361.265-.838.559-1.048 1.859-1.324 3.678-2.738 5.672-3.826 1.705-.93 3.343-.297 4.735 1.041-.752.857-1.638.983-2.656 1.075-1.284.117-2.56.505-3.795.912-.626.206-1.424.648-1.031 1.513.39.86 1.124.505 1.787.21.751-.333 1.53-.605 2.593-1.019v2.444c-3.367.285-5.623 2.496-7.889 5.225-.001-2.421-.028-4.475.025-6.527zm-.658 16.479c.06-1.256.211-2.517.148-3.767-.079-1.56.343-2.899 1.358-4.05 1.151-1.305 2.222-2.716 3.547-3.817.86-.715 2.077-1.202 3.195-1.364 2.241-.325 3.513 1.419 2.782 3.534a95.223 95.223 0 0 0-1.168 3.58c-.654 2.167-1.592 4.18-3.157 5.845-1.658 1.763-2.855 3.77-3.489 6.12-.495 1.837-1.517 3.244-3.704 4.024.172-3.56.331-6.833.488-10.105zm-60.646-21.74c1.193-2.292 2.945-4.056 5.049-5.5 3.924-2.694 8.302-4.277 12.939-5.167 7.766-1.492 15.541-1.68 23.287.125 3.986.929 7.693 2.533 10.946 5.06 2.129 1.654 3.905 3.587 4.626 6.3.453 1.705.231 3.293-.567 4.849-.197-.075-.374-.088-.404-.161-1.417-3.52-4.102-5.737-7.445-7.287-3.963-1.838-8.14-2.925-12.453-3.502-7.83-1.047-15.609-.746-23.305 1.067-2.878.678-5.537 1.899-7.966 3.613-2.136 1.508-3.893 3.346-5.171 5.706-.694-1.863-.369-3.503.464-5.103zm51.445 11.64c-3.833 3.18-8.36 4.755-13.21 5.38-9.195 1.186-18.252.58-27.09-2.413-2.877-.974-5.513-2.348-7.821-4.344-2.318-2.006-2.482-4.144-.666-6.378 1.763-2.169 4.024-3.645 6.537-4.77 3.091-1.384 6.377-2.056 9.715-2.424 2.773-.306 5.566-.429 8.35-.633 6.202.089 12.281.836 18.082 3.103 1.805.705 3.491 1.727 5.192 2.674.535.297.977.79 1.407 1.244 2.961 3.132 2.813 5.815-.496 8.561zm-52.31-2.649c2.981 3.357 6.505 5.902 10.795 7.343 10.927 3.669 22.011 4.387 33.25 1.706 5.664-1.351 10.141-4.578 13.601-9.2.899-1.202 1.505-2.623 2.317-4.072.375 1.943-.121 3.396-1.171 4.863-3.797 5.303-9.105 8.382-15.093 10.441-4.179 1.438-8.502 2.271-12.937 2.42-.279.009-.606-.057-.826.065-.322.179-.784.494-.788.757-.004.293.382.711.699.861.41.194.921.176 1.646.29-.202 1.668-.317 3.255-.603 4.811-.366 1.991-.854 3.96-1.315 5.933-.947 4.049-.822 8.03.585 11.972.845 2.367 1.609 4.764 2.349 7.166.479 1.555.62 3.149.055 5.016-4.25.397-8.486-.039-12.867-.99v-6.597c.464-.32 1.257-.682 1.783-1.279a8.282 8.282 0 0 0 1.509-2.473c.508-1.333.016-2.616-.978-3.107-1.013-.502-3.035-.09-3.659.83-.198.291-.281.855-.127 1.133.143.257.69.438 1.031.401.522-.057 1.021-.33 1.682-.565.198 1.26-.394 2.017-1.192 2.567-1.135.783-2.484.098-2.55-1.296a4.782 4.782 0 0 1 .348-2.037c.927-2.178 1.22-4.438 1.074-6.77-.073-1.176.172-2.287.976-3.117 3.129-3.234 3.591-7.111 2.889-11.306-.021-.125.049-.266.1-.511.85 0 1.725.011 2.599-.004.689-.012 1.377-.248 1.251-1.029-.06-.374-.703-.861-1.142-.933-3.031-.499-6.115-.726-9.109-1.377-4.833-1.051-9.323-2.995-13.125-6.238-1.208-1.03-2.225-2.307-3.213-3.563-.637-.81-1.061-1.787-1.009-3.198.525.483.874.76 1.165 1.087zm49.27 37.485a20.08 20.08 0 0 1-.161 5.823c-.623 3.488-1.259 4.705-6.126 5.543.17-1.265.398-2.477.483-3.7.135-1.95.224-3.906.218-5.859-.001-.437-.397-1.148-.752-1.252-.818-.239-1.064.495-1.104 1.146a108.941 108.941 0 0 0-.171 4.608c-.038 1.964-.331 3.871-1.041 5.842l-5.559.655c-.04-.634-.041-1.101-.103-1.56-.216-1.584-.324-3.198-.716-4.74-.463-1.822-1.115-3.604-1.796-5.361-1.595-4.11-1.759-8.274-.829-12.56.752-3.469 1.321-6.977 2.028-10.77l6.68-1.12c.652 1.553.751 3.147.738 4.725-.018 2.233-.252 4.466-.25 6.698.002 1.952.194 3.904.323 5.854.027.414.031.903.251 1.211.24.335.704.645 1.097.682.216.02.575-.511.707-.856.115-.3 0-.687-.009-1.036-.089-3.208-.156-6.416-.274-9.623-.082-2.228-.233-4.454-.353-6.682-.026-.477-.055-.955-.083-1.444l6.937-2.585c.684 3.789.839 7.469.09 11.133-1.038 5.072-.832 10.129-.225 15.228zm-43.177-9.773c-.35-1.975-.404-3.938.473-5.747 1.525-3.147 1.983-6.359 1.082-9.753-.068-.255-.009-.543-.009-.744l12.905 3.707c.104 1.05.298 2.291.334 3.537.063 2.144-.331 4.17-1.871 5.818-1.753 1.876-2.506 4.025-2.389 6.665.071 1.607-.485 3.291-.997 4.864-.773 2.378-.834 4.471 1.213 6.31.497.446.779 1.309.851 2.011.133 1.307.038 2.637.038 4.103-.365 0-.628.057-.855-.009-3.028-.885-5.901-2.121-8.583-3.797-.757-.474-1.116-1.036-1.236-1.992-.454-3.6-.937-7.174-.566-10.83.139-1.355-.148-2.778-.39-4.143zm-6.467 4.456c-.2-2.222-.253-4.459-.323-6.691-.177-5.652-.333-11.305-.482-16.958-.033-1.25-.005-2.502-.005-4.019.446.339.745.548 1.023.781 1.602 1.341 3.159 2.74 4.816 4.009.72.552 1.011 1.082 1.162 2.012.609 3.751.378 7.296-1.371 10.77-.889 1.767-.805 3.797-.362 5.757.45 1.989.508 3.978.326 6.027-.158 1.784.093 3.607.197 5.411.042.723.173 1.44.264 2.16-3.084-2.461-4.906-5.486-5.245-9.259zm52.332 18.363c-1.463 1.145-3.088 2.171-4.79 2.906-3.49 1.507-7.264 1.972-11.001 2.458-8.306 1.081-16.437.236-24.386-2.393-2.674-.885-5.239-1.97-7.186-4.115-1.492-1.643-2.285-3.476-1.417-5.832.306.139.583.197.771.359 5.586 4.833 12.289 7.094 19.418 8.193 5.844.901 11.706.437 17.523-.48 4.219-.665 8.024-2.333 11.402-4.957.274-.213.567-.403.858-.592.041-.027.127.016.345.051.273 1.729-.171 3.332-1.537 4.402zm5.074-13.776c-.821-.555-.488-1.214-.472-1.739.148-4.959.333-9.917.482-14.876a6.301 6.301 0 0 0-.209-1.852c-.068-.244-.51-.536-.776-.53-.27.006-.647.299-.769.563-.167.36-.17.811-.186 1.225-.198 5.026-.426 10.051-.553 15.079-.048 1.878.155 3.762.22 5.644.014.395.063.895-.14 1.173-.935 1.28-2.053 2.388-3.753 3.659 1.001-4.19.452-7.846.043-11.518-.397-3.563-.158-7.124.471-10.647.633-3.549.627-7.108.08-10.642-.261-1.687-.018-2.842 1.66-3.538.693-.287 1.289-.806 2.149-1.362.081.667.182 1.167.194 1.669.02.908-.039 1.817-.017 2.725.018.737-.158 1.75.957 1.738.972-.011.823-.958.851-1.625.05-1.187.24-2.41.03-3.556-.423-2.304.54-3.865 2.581-5.378-.526 11.426-.477 22.611-2.843 33.788zm20.1-23.906c-2.79 2.559-4.315 5.719-5.38 9.277-1.514 5.06-4.767 7.31-10.579 8.098-.25.034-.552-.315-1.18-.701.726-.211 1.024-.331 1.335-.384 4.77-.81 7.617-3.479 8.755-8.123.296-1.211.752-2.385 1.185-3.558.245-.664.687-1.384-.144-1.842-.981-.54-1.448.322-1.704 1.007a46.44 46.44 0 0 0-1.429 4.576c-.899 3.465-3.576 5.729-7.351 5.964l.186-2.014c3.378-.945 5.178-3.183 6.126-6.39.422-1.426 1.241-2.84 2.212-3.976 2.142-2.506 3.582-5.293 4.352-8.483.307-1.271.832-2.49 1.27-3.766 1.32.077 1.412.794 1.339 1.518-.133 1.317-.374 2.622-.514 3.938-.081.766-.671 1.869.519 2.126 1.201.259 1.155-.959 1.31-1.719.304-1.499.518-3.016.794-4.68.676.142 1.016.495 1.112 1.188.412 2.974.102 5.82-2.214 7.944z" style="fill:#443631"/><path d="M312.384 289.044c-.894-.388-1.828-.693-2.761-.981-2.165-.668-4.107-1.66-5.776-3.261-.775-.742-1.852-1.247-2.877-1.632-1.408-.528-3.88.324-4.742 1.508-1 1.373-.664 2.785.024 4.155.777 1.546 2.02 2.662 3.481 3.541 2.636 1.585 5.515 2.323 8.637 2.653 1.401-.353 2.851-.581 4.189-1.098 1.017-.392 1.584-1.345 1.582-2.513-.001-1.217-.743-1.932-1.757-2.372zm-2.284 3.57c-3.497.383-6.816-.285-9.75-2.244-.997-.666-1.863-1.684-2.481-2.724-.805-1.356-.089-2.571 1.49-2.556.91.008 2.072.279 2.677.879 2.47 2.452 5.514 3.677 8.747 4.619.435.127.812.451 1.216.684l.086.567c-.661.268-1.303.7-1.985.775zM336.169 288.723c-.313-.003-.65.227-.941.411-3.273 2.076-6.926 2.848-10.719 3.1-2.081.138-4.17.169-6.255.255-.616.025-1.427-.065-1.473.773-.054.972.801.982 1.503.996 1.113.022 2.228.006 3.341.006v-.02c.835 0 1.676.061 2.505-.01 4.11-.354 8.185-.862 11.778-3.155.409-.261.895-.475 1.174-.841.204-.269.289-.846.132-1.111-.154-.261-.68-.4-1.045-.404zM337.594 284.268c-.909-.847-1.882-1.668-2.949-2.295-3.418-2.009-7.129-3.126-11.101-3.428-.691 0-1.409-.112-2.063.045-.356.085-.738.59-.842.977-.053.198.432.676.762.807.436.174.956.141 1.442.18 3.933.317 7.701 1.194 11.143 3.215 1.281.753 2.462 1.6 3.036 3.046.225.567.535 1.066 1.213.802.766-.298.713-1.003.452-1.596-.276-.627-.605-1.297-1.093-1.753z" style="fill:#443631"/><path d="M318.938 289.56c.36.147.825.066 1.241.041 2.225-.134 4.457-.215 6.672-.45 1.234-.131 2.493-.388 3.646-.833 1.462-.565 1.783-1.997.91-3.248-.572-.82-1.426-1.168-1.915-.72-.659.605-.121 1.117.204 1.638.065.105.053.257.16.854-2.272.222-4.399.462-6.531.626-1.458.112-2.925.093-4.385.179-.615.036-1.151.395-.984 1.055.09.355.59.698.982.858zM308.492 284.277c1.785-.018 3.247-1.482 3.177-3.182-.066-1.604-1.244-2.55-3.195-2.567-1.904-.017-3.472 1.277-3.496 2.883-.024 1.54 1.625 2.885 3.514 2.866zm-1.401-2.932c.069-.378.831-.779 1.339-.882.382-.078.857.302 1.29.478l.031.543c-.462.278-.904.731-1.392.789-.573.068-1.409-.152-1.268-.928zM426.035 150.626c.342-.475.789-1.055 1.298-1.2 4.514-1.288 7.464-4.238 9.202-8.49.398-.974.955-1.602 1.964-1.984 2.83-1.072 4.993-3.025 6.777-5.427 2.294-3.088 3.773-6.536 4.365-10.328.187-1.197.698-1.961 1.645-2.713 5.155-4.092 7.137-9.396 5.422-15.805-.583-2.18-.632-3.969.444-6.084 1.598-3.142 1.036-6.565.035-9.829a78.115 78.115 0 0 0-9.18-19.703c-2.271-3.496-4.942-6.77-7.718-9.89-2.233-2.51-5.025-4.412-8.343-5.417-1.455-.441-2.867-1.051-4.251-1.688-1.458-.671-2.834-1.521-4.29-2.196-2.648-1.225-5.449-1.682-8.369-1.571-.947.036-1.949-.059-2.851-.336-4.498-1.382-9.052-2.417-13.781-2.453-4.414-.034-8.629.683-12.283 3.428-.428.321-.983.56-1.511.648-4.604.767-8.835 2.591-13.026 4.531-1.859.861-3.699 1.891-4.792 3.623-1.082 1.714-2.585 2.641-4.322 3.405-.895.394-1.807.78-2.634 1.293-1.894 1.175-3.866 2.273-5.576 3.683-2.194 1.809-3.196 4.293-2.456 7.129.765 2.93 3.106 4.139 5.866 4.709.205.042.413.073.621.098 3.086.38 6.145.28 9.12-.693.855-.28 1.548-.28 2.378.144 2.938 1.503 6.015 1.648 9.163.706.663-.198 1.339-.351 2.033-.531 2.312 2.542 5.356 3.521 8.623 4.146-.117 4.374 2.896 6.355 6.085 8.322-.289 4.214 1.295 7.931 3.313 11.49a119.572 119.572 0 0 0 4.173 6.782c1.763 2.674 3.388 5.475 6.227 7.257.357.224.534.956.552 1.461.1 2.79.721 5.384 2.612 7.471-.783 3.017-.957 5.903.361 8.707-.424.712-.891 1.336-1.187 2.033-.46 1.084-1.163 2.233-1.118 3.328.08 1.934-.774 3.318-1.814 4.733a68.089 68.089 0 0 0-2.511 3.615c-1.03 1.611-1.697 3.364-1.792 5.303-.122 2.483.766 4.532 2.716 6.056 2.513 1.965 5.324 2.39 8.296 1.236 4.547-1.767 7.736-5.144 10.514-8.999zm-60.248-74.901c-2.541.578-5.11.674-7.676.227a7.833 7.833 0 0 1-2.35-.816c-1.777-.965-2.442-2.638-1.975-4.594.339-1.422 1.167-2.517 2.274-3.414 2.452-1.989 5.271-3.343 8.481-4.959-.485 4.81-.029 9.035 2.42 13.03-.481.22-.812.444-1.174.526zm1.298-5.123c-.691-2.451-.892-4.932-.513-7.454.384-2.557 1.642-4.583 3.796-6.002 3.826-2.52 8.121-3.93 12.582-5.124-1.913 3.737-2.897 7.636-3.509 11.645-.611 4.009-1.045 8.02.24 11.938-5.286 2.874-11.038.522-12.596-5.003zm13.908 1.081c-.307-5.651.628-11.16 2.833-16.392 1.602-3.801 4.531-6.121 8.541-7.072 5.75-1.364 11.385-.574 16.978.932.102.027.165.198.32.396-1.004.593-2.034 1.128-2.986 1.778-3.534 2.41-6.215 5.623-8.326 9.292-3.456 6.006-6.508 12.206-8.517 18.866-4.936.09-8.581-2.99-8.843-7.8zm10.843 9.165c.216-1.441.514-2.93 1.116-4.241 2.302-5.014 4.658-10.008 7.164-14.923 1.402-2.75 3.409-5.12 5.755-7.152 5.22-4.523 11.011-5.456 17.339-2.609 1.376.619 2.691 1.376 4.35 2.233-.623.355-.886.545-1.177.665-5.265 2.182-9.757 5.502-13.508 9.718-4.27 4.799-8.317 9.797-12.398 14.76-1.015 1.234-1.866 2.624-2.649 4.022-.746 1.333-1.306 2.771-2.005 4.288-3.376-1.558-4.494-3.383-3.987-6.761zm21.792 34.034c-2.388-.397-4.39-1.418-5.82-3.386-3.413-4.696-6.727-9.475-8.893-14.894-.709-1.774-.98-3.771-1.159-5.694-.184-1.97.348-3.893 1.326-5.641.647-1.158 1.28-2.336 2.056-3.407 4.596-6.346 9.563-12.388 15.154-17.888 2.953-2.905 6.305-5.277 10.029-7.143 3.037-1.522 5.816-1.466 8.643.556 2.294 1.641 4.378 3.467 6.166 5.633 3.933 4.764 7.21 9.949 10.107 15.438 1.387 3.801 2.826 7.584 4.13 11.412.399 1.171.524 2.461.612 3.707.229 3.208-.866 5.937-3.366 7.976a37.385 37.385 0 0 1-4.622 3.242c-7.44 4.384-15.193 8.038-23.74 9.728-3.518.694-7.051.955-10.623.361zm-1.516 4.521c-.111-.816-.199-1.635-.331-2.739 8.648 1.572 16.422-.472 24.004-3.582 6.277-2.575 12.365-5.527 17.833-9.616.095-.071.254-.056.382-.081 2.113 3.602 1.602 9.148-1.227 12.773-2.021 2.589-4.609 4.532-7.638 5.701-8.51 3.283-17.37 3.903-26.377 3.078-.69-.063-1.378-.237-2.047-.428-2.589-.742-4.225-2.363-4.599-5.106zm2.207 6.68c11.28 2.464 22.189 1.203 33.066-2.83-.786 8.545-7.592 14.954-15.885 15.058-5.019.063-9.663-1.432-14.052-3.711-3.41-1.771-4.411-4.851-3.129-8.517zm-.027 8.985c6.086 3.739 12.624 5.827 20.079 5.139-.151.545-.198 1.007-.397 1.39-2.647 5.105-8.011 7.298-13.472 5.49-2.277-.754-4.4-1.812-6.056-3.614-2.596-2.827-2.641-5.261-.154-8.405zm-.481 22.945c-3.711 1.002-8.521-1.974-7.036-7.237a10.5 10.5 0 0 1 1.159-2.673c1.06-1.701 2.239-3.328 3.542-5.24 3.095 4.531 7.399 6.262 12.556 7.086-2.86 3.674-5.8 6.871-10.221 8.064z" style="fill:#443631"/><path d="M402.208 93.324c-.135-3.218.869-6.032 2.91-8.511 3.325-4.039 6.627-8.096 9.941-12.144.309-.377.684-.71.931-1.123.158-.264.137-.635.218-1.078-.41-.107-.776-.331-1.01-.235-.431.177-.86.479-1.16.837-3.848 4.599-7.741 9.164-11.477 13.853-2.046 2.568-2.518 5.697-2.376 8.919.015.345.003.752.178 1.014.201.301.609.666.904.647.308-.019.73-.411.848-.733.161-.435.114-.961.093-1.446zM433.033 60.37c-.254-.159-.635-.585-1.049-.62-1.374-.117-2.808-.336-4.132-.075-3.613.711-6.412 2.944-9.073 5.345-.101.091-.232.215-.242.332-.031.39-.159 1.012.019 1.126.336.217.951.321 1.286.15.604-.31 1.049-.912 1.626-1.294 1.793-1.187 3.541-2.481 5.454-3.439 1.5-.75 3.216-.786 4.913-.324.904.248 1.515-.323 1.198-1.201zM393.856 52.154c.601-.12 1.213-.373.984-1.03-.128-.369-.849-.804-1.246-.754-1.092.136-2.153.512-3.227.793-2.041 1.049-3.759 2.419-4.956 4.385-.373.613-.749 1.301.036 1.83.717.483 1.172-.092 1.505-.638 1.589-2.611 3.98-4 6.904-4.586zM418.375 53.19c-.724-.211-1.279-.479-1.851-.522-2.969-.223-5.411 1.1-7.725 2.749-.168.12-.395.276-.425.446-.065.375-.133.822.019 1.134.092.189.595.252.907.237.255-.012.531-.185.746-.352 2.051-1.591 4.289-2.607 6.966-2.375.256.022.597-.064.776-.231.221-.207.312-.551.587-1.086zM450.221 111.984c-.558 1.193-1.319 2.293-2.006 3.424-.342.563-.703 1.186-.007 1.653.659.441 1.178-.035 1.579-.569 1.228-1.633 2.273-3.365 2.688-5.395.122-.597.084-1.227.122-1.9-.391-.192-.704-.476-.977-.442-.266.033-.624.349-.71.616-.278.856-.314 1.811-.689 2.613zM436.133 133.95c-.578.292-1.203.696-.845 1.438.435.901 1.165.437 1.801.175.129-.053.254-.116.126-.057 2.71-1.393 4.474-3.311 5.574-5.838.253-.581.53-1.288-.205-1.672-.747-.39-1.147.202-1.422.813-1.046 2.334-2.767 3.997-5.029 5.141zM373.791 59.266c.321-.144.685-.783.611-1.093-.161-.668-.789-.657-1.367-.453-.262.092-.516.205-.593.236-1.841.839-3.606 2.536-4.318 4.05-.285.605-.501 1.304.261 1.584.334.123 1.082-.237 1.313-.591 1.051-1.611 2.305-2.929 4.093-3.733zM426.419 144.29l-.131-.179c-.314.144-.625.297-.944.43-.54.225-1.051.505-.84 1.202.206.681.786.703 1.362.576 1.901-.42 3.4-1.504 4.649-2.942.417-.48.699-1.129.045-1.643-.576-.452-.969.014-1.407.394-.879.759-1.82 1.445-2.734 2.162zM417.8 151.115c-1.025.576-1.951 1.332-2.989 1.88-.663.35-1.46.438-2.186.677-.568.187-1.128.577-.807 1.191.184.352.897.67 1.315.609.881-.128 1.725-.516 2.99-.929.745-.55 1.855-1.27 2.821-2.147.269-.244.115-.953.156-1.449-.438.047-.947-.031-1.3.168zM361.221 67.708c.226-.216.298-.751.21-1.076-.054-.196-.544-.34-.855-.38-.251-.032-.526.128-1.191.316-.66.677-1.61 1.563-2.428 2.56-.182.221.003.899.226 1.227.1.147.809.081 1.068-.116a34.768 34.768 0 0 0 2.97-2.531zM234.404 85.323c-.406-1.813-1.128-3.601-1.988-5.254-.964-1.851-2.153-3.604-3.403-5.281-4.467-5.994-9.944-10.774-16.947-13.609-3.836-1.553-7.715-1.906-11.575-.005-3.633 1.789-7.371 3.393-10.876 5.404-5.169 2.966-9.966 6.489-13.87 11.062a18.63 18.63 0 0 0-2.521 3.831c-1.488 3.025-.89 5.55 1.818 7.577 1.214.908 2.593 1.714 4.023 2.188 2.309.765 4.704 1.302 7.094 1.775 1.973.39 3.991.549 6.122.827.552 3.267.634 6.239-.438 9.148-.531 1.442-1.175 2.844-1.655 4.301-1.287 3.909-2.789 7.775-3.701 11.774-1.497 6.567 1.32 11.443 7.677 13.656 2.354.819 4.862 1.238 7.327 1.683 5.32.959 10.596.551 15.755-.983 4.49-1.335 6.948-4.55 7.24-9.223.238-3.804-.071-7.567-1.486-11.135-1.208-3.048-2.581-6.032-3.919-9.028-1.267-2.835-1.568-5.777-1.05-8.81.34-1.987.39-1.883 2.362-2.221 3.505-.602 7.009-1.241 10.473-2.044 2.977-.689 4.212-2.626 3.538-5.633zm-16.091-18.487 5.746 5.055c-2.031 1.328-3.599 1.275-5.106.006-1.422-1.196-1.669-2.598-.64-5.061zm-22.335-1.464c2.402-1.106 4.801-2.271 7.305-3.097 4.501-1.485 6.066-.297 6.127 4.326.045 3.431-1.567 6.08-4.379 7.198-3.21 1.276-6.879.565-9.046-1.909-.713-.814-1.277-1.85-1.613-2.882-.65-1.986-.286-2.764 1.606-3.636zm-10.559 21.867c-.98 3.199-1.626 3.565-4.781 2.397-1.489-.551-2.975-1.247-4.27-2.153-2.069-1.447-2.359-3.03-1.276-5.298 1.632-3.417 3.398-4.255 6.874-3.371 2.126.541 3.848 3.401 3.882 6.447-.073.353-.186 1.185-.429 1.978zm35.875 27.17c1.197 3.25 1.455 6.661 1.117 10.121-.355 3.634-2.381 5.908-5.753 6.959-3.286 1.024-6.701 1.498-10.136 1.354-3.555-.149-7.11-.502-10.526-1.635-.662-.22-1.328-.437-1.968-.712-4.422-1.901-6.261-5.022-5.752-9.804.381-3.577 1.649-6.915 2.863-10.263.904-2.493 1.889-4.959 2.743-7.469.8-2.352.915-4.786.553-7.246-.079-.535-.079-1.082-.119-1.676l21.912-.364c-.095 1.656-.244 3.319-.272 4.984-.038 2.268.508 4.412 1.435 6.492 1.365 3.059 2.747 6.119 3.903 9.259zm-.114-23.54c-9.739 1.227-19.517 1.394-29.308.801-1.864-.113-3.716-.429-5.63-.659.542-1.659 1.132-3.07 1.457-4.541.711-3.217-.843-7.058-3.651-8.759-1.148-.696-2.576-.932-3.849-1.368.888-1.679 7.726-6.808 11.971-8.807.344 3.547 2.037 6.207 5.19 7.826 2.287 1.175 4.74 1.262 7.167.727 5.148-1.133 7.227-5.199 6.704-12.817 1.654.258 3.161.986 5.241 2.565-1.165 2.643-1.29 5.271 1.091 7.402 2.457 2.198 5.178 2.133 8.106.349l5.001 7.28c-2.498 2.272-3.555 4.912-2.341 8.245-2.373.994-4.758 1.455-7.149 1.756zm11.25-3.832c-.058.484-.407 1.024-.782 1.361-.727.653-1.392.41-1.731-.518-.576-1.576.044-3.481 1.624-4.778.761 1.229 1.055 2.552.889 3.935z" style="fill:#443631"/><path d="M215.271 77.905c-3.035-.027-5.538 2.5-5.573 5.627-.035 3.087 2.326 5.607 5.288 5.645 2.957.038 5.542-2.572 5.605-5.66.061-2.997-2.393-5.586-5.32-5.612zm-.215 9.213c-1.78.016-3.215-1.463-3.269-3.367-.058-2.102 1.371-3.732 3.324-3.791 1.923-.058 3.402 1.425 3.42 3.43.018 1.984-1.593 3.712-3.475 3.728zM199.906 79.626c-3.001.045-5.463 2.377-5.48 5.192-.018 2.865 2.466 5.226 5.439 5.171 3.079-.057 5.566-2.528 5.464-5.426-.101-2.82-2.475-4.981-5.423-4.937zm-.24 8.325c-1.817-.07-3.29-1.483-3.255-3.124.038-1.782 1.726-3.233 3.695-3.176 1.817.053 3.285 1.458 3.248 3.109-.041 1.78-1.757 3.265-3.688 3.191zM448.251 247.92c-.483-.68-.755-1.25-.471-2.091.926-2.741.078-4.939-2.198-6.626-.63-.466-.857-1.024-.787-1.799.184-2.03-.612-3.668-2.087-5.033-.341-.315-.832-.774-.803-1.13.136-1.657-.657-2.796-1.821-3.652 1.559-2.872 3.162-5.57 4.522-8.386 2.542-5.26 3.674-10.832 3.175-16.684-.266-3.119-1.199-6.043-3.024-8.602-2.552-3.58-6.047-5.335-10.473-4.903-2.561.25-4.812 1.393-6.887 2.879-4.029 2.885-6.157 6.998-7.267 11.664-1.27 5.339-1.596 10.769-1.061 16.243.063.644.009 1.3.009 1.951l-.7.093c-.1-.504-.252-1.004-.292-1.513-.326-4.18-.511-8.375-.979-12.538-.381-3.392-.915-6.789-1.709-10.105-.742-3.099-2.323-5.841-4.91-7.865-3.518-2.753-7.626-2.834-11.244-.221-1.961 1.416-3.463 3.247-4.652 5.334-2.604 4.57-3.583 9.545-3.3 14.732.318 5.828 1.684 11.46 3.75 16.92.168.443.282.906.467 1.507-2.272 1.186-2.77 3.39-3.187 5.575-1.944.749-3.667 1.615-4.737 3.419-1.188 2.004-.476 3.894.288 5.685-.125.243-.16.395-.255.484-3.059 2.86-2.838 5.594-.727 8.356.568.743.52 1.512.446 2.374-.29 3.389 1.352 5.795 4.635 6.789.858.26 1.781.422 2.673.417 1.197-.007 2.064.385 2.96 1.212 3.065 2.83 6.569 5.053 10.59 6.193 8.421 2.388 16.6 2.018 24.189-2.832 1.282-.819 2.49-1.018 3.953-.684 1.07.244 2.229.287 3.326.181 3.965-.384 6.073-2.452 6.502-6.406.102-.939.509-1.493 1.149-2.093 2.732-2.562 3.082-5.825.937-8.845zm-2.851 7.762c-.682.583-1.134 1.176-1.143 2.107-.045 4.462-2.968 6.056-6.916 5.334-2.737-.5-4.821.096-7.051 1.502-7.939 5.004-22.075 5.01-31.341-3.757-1.166-1.103-2.306-1.588-3.882-1.593-1.153-.004-2.374-.289-3.443-.739-1.979-.834-2.914-2.763-2.32-4.819.33-1.141.227-2.015-.5-2.911-.393-.484-.69-1.05-.997-1.598-.695-1.242-.553-2.419.356-3.497.36-.426.736-.85 1.16-1.208.952-.803 1.036-1.639.481-2.769-1.417-2.883-.824-4.624 2.176-5.747 1.692-.633 2.507-1.512 2.557-3.316.034-1.235.698-2.235 1.815-2.896 1.601-.947 1.627-.978.901-2.753-1.65-4.032-2.688-8.227-3.403-12.51-.875-5.248-.862-10.438 1.066-15.495 1.01-2.649 2.415-5.044 4.535-6.961 3.688-3.335 7.991-3.052 11.211.745a14.046 14.046 0 0 1 3.106 6.569c.612 3.29 1.092 6.614 1.435 9.943.422 4.093.646 8.206.968 12.467-.917.262-1.616.375-2.224.673-.281.138-.584.684-.517.955.071.284.555.5.896.668.157.077.411-.012.612-.063 1.952-.494 3.884-.292 5.813.141.409.092.824.152 1.236.233.755.149 1.677.446 1.903-.607.234-1.088-.753-1.119-1.497-1.284-.397-.088-.783-.227-1.241-.362a53.76 53.76 0 0 1-.01-12.582c.38-3.269.964-6.49 2.323-9.53 1.605-3.59 4.097-6.307 7.673-7.979 4.961-2.319 9.848-.753 12.578 4.017 1.759 3.074 2.264 6.427 2.137 9.907-.176 4.831-1.435 9.393-3.697 13.642-1.31 2.46-2.839 4.807-4.326 7.168-.963 1.528-.904 1.939.738 2.588.884.349 1.545.737 1.009 1.831-.343.701-.018 1.205.499 1.645.372.317.75.629 1.125.943 1.152.963 1.803 2.174 1.531 3.687-.258 1.439.275 2.411 1.435 3.191 1.898 1.277 2.39 3.014 1.501 5.113-.469 1.109-.152 1.96.561 2.875 2.14 2.744 1.897 4.704-.829 7.032z" style="fill:#443631"/><path d="M411.652 221.936c.18-2.363.294-4.731.436-7.097l.273-.047c-.509-3.226-.907-6.475-1.563-9.67-.483-2.352-1.631-4.446-3.478-6.075-2.506-2.211-5.863-2.045-7.925.588-.875 1.117-1.513 2.519-1.91 3.892-.884 3.06-.697 6.229-.383 9.353.409 4.071 1.959 7.822 3.562 11.54.344.798.801 1.443 1.894 1.215 2.317-.483 4.654-.868 6.973-1.344 1.629-.337 1.998-.743 2.121-2.355zm-12.366-17.226c.22-1.26.804-2.552 1.541-3.605 1.377-1.969 3.441-2.068 5.223-.451 1.443 1.309 2.229 3.004 2.76 4.841 1.34 4.631 1.35 9.359 1.026 14.11-.057.831-.171 1.659-.286 2.741l-6.935 1.233c-2.985-6.031-4.487-12.232-3.329-18.869zM435.708 223.374c2.036-3.785 3.477-7.792 3.987-12.063.393-3.288.228-6.573-1.208-9.652-1.726-3.699-5.109-4.603-8.474-2.286-1.72 1.185-2.884 2.82-3.688 4.725-1.277 3.026-1.61 6.192-1.339 10.663.155 1.424.465 4.058.721 6.698.124 1.279.748 2.026 1.997 2.343 1.487.377 2.937.915 4.436 1.227 2.03.423 2.614.117 3.568-1.655zm-6.963-1.257c-.423-.148-.944-.694-.997-1.112-.549-4.288-1.329-8.576-.506-12.918.368-1.942.982-3.797 2.222-5.368a8.204 8.204 0 0 1 1.642-1.598c2.367-1.683 4.379-1.128 5.582 1.509 1.202 2.632 1.313 5.436.999 8.227-.474 4.207-1.87 8.151-3.864 11.882-.094.175-.275.303-.61.66-1.532-.426-3.027-.778-4.468-1.282zM437.073 244.545c-2.599-.115-4.766 1.936-4.764 4.509.002 2.488 2.015 4.54 4.505 4.593 2.523.054 4.583-1.898 4.65-4.406.067-2.494-1.889-4.586-4.391-4.696zm-.254 6.977c-1.4-.046-2.496-1.212-2.424-2.579.067-1.273 1.197-2.353 2.47-2.359 1.333-.007 2.529 1.19 2.53 2.532.001 1.38-1.148 2.453-2.576 2.406zM396.773 244.545c-2.599-.115-4.766 1.936-4.764 4.509.002 2.488 2.015 4.54 4.505 4.593 2.523.054 4.583-1.898 4.65-4.406.068-2.494-1.888-4.586-4.391-4.696zm-.253 6.977c-1.4-.046-2.496-1.212-2.424-2.579.067-1.273 1.197-2.353 2.47-2.359 1.333-.007 2.529 1.19 2.53 2.532 0 1.38-1.148 2.453-2.576 2.406zM424.719 249.635c-.95.608-1.916.739-2.981.258-1.127-.509-1.748-1.225-1.745-2.562.001-.398-.735-1.044-1.219-1.14-.726-.143-1.3.389-1.492 1.167-.049.199-.011.418-.035.625-.158 1.324-.647 1.862-1.938 1.945-1.244.08-2.353-.281-3.118-1.35-.377-.527-.766-1.142-1.472-.553-.589.492-.435 1.21.008 1.691.556.604 1.19 1.224 1.918 1.567 2.237 1.053 4.339.714 6.135-1.015.737.461 1.36.903 2.029 1.26 1.617.863 3.236.779 4.782-.173.625-.384 1.562-.794 1.071-1.734-.525-1.004-1.294-.402-1.943.014zM405.819 238.883c-.508.694-.808 1.634-.927 2.501-.255 1.863 1.007 3.698 2.462 3.827 1.633.145 2.968-1.454 2.978-4.054-.08-.273-.184-1.054-.525-1.713-.827-1.604-2.984-1.931-3.988-.561zm2.513 4.866-.492-.069.306-3.562c1.186 1.263 1.208 2.193.186 3.631zM424.532 238.883c-.509.694-.808 1.634-.927 2.501-.255 1.863 1.007 3.698 2.462 3.827 1.633.145 2.968-1.454 2.978-4.054-.08-.273-.184-1.054-.525-1.713-.827-1.604-2.984-1.931-3.988-.561zm2.514 4.866-.492-.069.306-3.562c1.185 1.263 1.208 2.193.186 3.631zM350.199 421.059c-.244-.415-.473-.84-.791-1.408 2.626-3.542 2.73-7.227.143-10.829-2.477-3.448-5.815-5.366-10.248-5.118-.5-1.072-.946-2.09-1.443-3.082-2.206-4.411-5.954-5.992-10.634-4.437-1.044.347-2.02.899-3.151 1.412-2.967-2.059-6.253-3.336-9.983-2.361-3.613.944-6.426 3-8.048 6.449-2.84.404-5.604.778-7.733 2.919-2.268 2.281-2.506 5.023-1.817 7.786-5.79 5.238-5.969 8.347-.942 13.686-.497 1.176-1.011 2.174-1.349 3.229-1.251 3.905.119 7.339 3.779 9.143 1.219.601 2.639.865 4 1.086.974.158 1.6.399 2.05 1.399 4.317 9.595 17.026 10.158 22.693 4.568.339-.334.728-.618 1.16-.982.501.378.942.7 1.371 1.038 1.557 1.227 3.322 1.739 5.291 1.542 4.211-.422 6.96-2.816 8.33-6.658.587-1.647 1.432-2.6 2.956-3.418 5.998-3.218 7.811-10.096 4.366-15.964zm-4.956 14.004c-.358.218-.714.475-1.107.591-1.649.484-2.503 1.552-2.859 3.242-.384 1.817-1.404 3.33-2.84 4.544-2.097 1.774-5.93 2.605-8.599-.027a9.078 9.078 0 0 0-.956-.817c-.708-.529-1.424-.53-2.098.063-.473.415-.915.864-1.383 1.284-5.185 4.656-13.824 4.011-18.196-1.406-.691-.857-1.252-1.862-1.676-2.881-.547-1.316-1.373-2.053-2.824-2.051-.416.001-.834-.085-1.249-.142-4.921-.683-6.98-4.661-4.715-9.076.466-.909 1.261-1.907 1.156-2.772-.092-.753-1.222-1.398-1.93-2.052-2.46-2.272-2.615-5.121-.365-7.574.423-.461.88-.926 1.407-1.249 1.402-.86 1.772-2.002 1.33-3.57-.608-2.157.02-4.018 1.688-5.489 1.658-1.462 3.666-1.953 5.829-1.911.408.008.815.076 1.273.122.197-.343.398-.622.527-.931 2.25-5.388 8.241-7.542 13.375-4.798.308.165.633.314.903.53 1.499 1.2 2.806 1.161 4.54.095 3.164-1.945 7.339-1.939 9.614 2.838.06.126.135.248.174.381.741 2.483 1.962 3.837 4.993 3.877 3.523.047 5.978 2.497 7.499 5.638.901 1.861.851 3.793-.222 5.631-.317.543-.621 1.094-.949 1.631-.455.743-.408 1.451.089 2.151.243.342.478.69.7 1.046 2.891 4.644 1.557 10.227-3.129 13.082z" style="fill:#443631"/><path d="M344.597 428.52c-.182-.167-.534-.259-.786-.223-1.589.229-2.225-.778-2.755-2.003-.36-.832-.801-1.629-1.204-2.443l-2.078-4.198c1.019-.156 1.786-.191 2.49-.42.3-.097.659-.607.643-.913-.015-.304-.415-.73-.737-.843a2.526 2.526 0 0 0-1.441-.053c-1.739.488-2.732-.295-3.503-1.763-.45-.858-1.098-1.616-1.689-2.395-1.344-1.768-2.708-3.52-4.278-5.558 1.41 0 2.449.011 3.487-.004.635-.009 1.345-.01 1.44-.853.097-.861-.604-1.045-1.23-1.104-1.389-.13-2.787-.249-4.18-.236-1.064.01-1.849-.306-2.555-1.117-.73-.837-1.593-1.565-2.436-2.295-.459-.397-1.091-.575-1.427.056-.159.3.009.946.256 1.255.544.681 1.231 1.246 1.986 1.982-2.737.669-5.213 1.132-7.586 1.907-1.476.482-2.598.416-3.873-.494-1.058-.755-2.322-1.258-3.557-1.7-.325-.116-.878.404-1.326.632.286.345.507.801.871 1.015 1.106.65 2.267 1.206 3.459 1.826-2.959 1.96-5.665 3.792-8.427 5.534-.368.233-1.036.084-1.54-.014-.746-.145-1.462-.51-2.208-.568-.359-.028-.756.43-1.135.668.261.347.455.808.8 1.014.504.301 1.118.42 1.917.697-.585.614-.995 1.057-1.419 1.486-.442.447-.997.819-1.315 1.339-.244.4-.428 1.114-.23 1.446.377.636.969.256 1.417-.118.321-.268.607-.579.923-.853.879-.761 1.766-1.513 2.65-2.268 3.386 2.213 6.263 4.665 8.754 7.734-.816.522-1.486.898-2.099 1.351a394.773 394.773 0 0 0-6.691 5.034c-.483.374-.889.889-1.205 1.415-.132.22-.046.815.133.925.29.178.787.217 1.108.09.363-.144.602-.57.938-.814a746.134 746.134 0 0 1 7.816-5.617c.429-.303.967-.451 1.522-.702 1.909 2.375 3.57 4.748 4.763 7.535-.63.38-1.17.685-1.689 1.022-1.815 1.178-3.646 2.335-5.421 3.571-.634.441-1.655 1.003-.894 1.954.698.871 1.34-.065 1.942-.448 2.22-1.412 4.436-2.831 6.797-4.339.495.95.835 1.618 1.188 2.279.325.609.84 1.116 1.483.678.303-.207.408-.975.317-1.432-.156-.78-.538-1.515-.865-2.375 3.305-1.414 6.378-2.864 9.767-3.663.37.668.678 1.208.97 1.756.329.616.63 1.247.971 1.856.324.579.743 1.11 1.489.701.729-.4.522-1.06.27-1.658-.189-.449-.451-.868-.648-1.314-.238-.538-.441-1.091-.778-1.936 1.944-.109 3.6-.198 5.255-.296.861-.051 1.621-.03 2.121.913.341.643 1.222.82 1.523.136.383-.872.883-1.09 1.715-1.141.238-.015.651-.472.628-.688-.039-.338-.331-.695-.604-.948zm-18.792-20.9c.364-.014.858.186 1.092.459 2.539 2.952 4.868 6.061 7.151 9.461l-6.932 1.198-9.552-9.467a27.362 27.362 0 0 1 8.241-1.651zm-20.054 7.786c2.73-2.022 5.625-3.842 9.026-5.145 3.504 2.618 6.463 5.811 9.488 9.177l-9.415 3.98-9.099-8.012zm15.367 17.457-4.868-7.644c2.983-1.698 6.133-2.877 9.641-3.928l4.844 7.742-9.617 3.83zm11.742-4.225-4.763-7.83c2.156-.757 4.319-1.026 6.511-1.029.392-.001.964.329 1.148.67 1.311 2.431 2.542 4.905 3.936 7.634l-6.832.555zM371.961 146.29c.675-3.533-1.05-6.144-4.506-7.144-.393-.114-.776-.257-1.181-.392-.158-.76-.275-1.446-.446-2.119-.774-3.031-2.699-5.151-5.653-5.922-1.695-.443-2.729-1.301-3.793-2.55-3.288-3.861-8.486-4.37-12.613-1.378-.269.195-.567.351-.8.494-6.678-3.628-10.434-2.235-15.127 5.542-3.558.406-6.605 1.837-8.402 5.092-1.886 3.419-1.396 6.735 1.098 9.645-.29.62-.507 1.056-.7 1.502-1.044 2.406-1.675 4.898-1.424 7.541.397 4.185 3.259 6.702 7.434 6.595.401-.01.804.054 1.171.08 1.089 2.988 2.926 5.19 5.759 6.468 2.95 1.331 5.736.58 8.139-.722 1.246 1.055 2.233 1.834 3.157 2.682 2.743 2.52 5.892 3.39 9.497 2.368 3.336-.946 5.802-3.021 7.432-6.05.521-.969 1.107-1.469 2.268-1.437.809.022 1.677-.189 2.435-.5 4.561-1.868 7.748-8.624 4.795-13.155-.599-.919-.382-1.624.007-2.509.589-1.334 1.182-2.711 1.453-4.131zm-3.567 7.056c3.366 3.951-.78 11.82-6.18 11.338-1.312-.117-2.079.52-2.605 1.654-.935 2.014-2.333 3.636-4.255 4.784-3.561 2.126-7.157 1.792-10.19-1.03-.864-.804-1.636-1.725-2.345-2.671-.606-.809-1.23-1.071-2.138-.565-.426.237-.882.423-1.327.627-4.184 1.915-8.323.238-10.071-4.079-.981-2.423-.981-2.423-3.661-2.272-2.762.156-4.751-1.548-5.13-4.413-.064-.483-.056-.976-.072-1.281a13.81 13.81 0 0 1 1.709-6.393c.598-1.103.683-2.157-.226-3.09-3.522-3.615-1.093-10.445 5.67-11.128 1.47-.148 2.007-.558 2.46-1.836.663-1.872 1.816-3.46 3.58-4.513 2.291-1.367 4.611-1.478 6.964-.172.427.237.843.498 1.244.777.95.662 1.773.478 2.672-.191 4.376-3.258 8.903-2.363 11.624 2.339.48.829.922 1.224 1.911 1.251 3.003.083 5.108 1.834 5.833 4.746.168.673.22 1.377.291 2.07.081.799.527 1.266 1.262 1.494.199.062.413.07.617.118 3.647.854 4.783 2.865 3.574 6.464-.354 1.053-.838 2.075-1.367 3.055-.563 1.04-.62 2.007.156 2.917z" style="fill:#443631"/><path d="M356.835 139.324c-4.675-2.796-9.786-3.697-15.134-2.908-3.555.525-6.635 2.144-8.981 4.957-1.833 2.198-2.638 4.687-2.263 7.586.604 4.676 3.415 7.725 7.298 9.892 5.428 3.031 10.937 3.278 16.241-.297 4.158-2.802 4.58-7.057 1.178-10.728-2.464-2.659-5.556-4.211-9.129-4.726-1.813-.261-3.633-.168-5.321.708-1.834.951-2.91 2.391-2.782 4.525.152 2.536 1.755 4.04 3.872 5.059 2.282 1.098 4.663 1.636 7.008.216 1.503-.91 1.608-2.502.32-3.694-.65-.602-1.401-1.431-2.371-.826-1.077.672.063 1.453.165 2.403-1.842.428-3.35-.074-4.715-.941-1.726-1.097-1.59-3.51.247-4.436.658-.332 1.486-.522 2.219-.478 3.73.224 6.654 1.91 8.666 5.089.935 1.477.735 2.929-.227 4.314-1.125 1.621-2.666 2.648-4.585 3.087-4.627 1.059-10.894-.343-14.649-6.572-1.404-2.329-1.502-4.622-.146-6.933 1.448-2.467 3.523-4.162 6.437-4.557 5.23-.709 10.149.174 14.663 3.011.706.444 1.42.994 2.201 1.162.657.141 1.578.008 2.094-.384.74-.563.678-1.568.093-2.268-.701-.84-1.475-1.709-2.399-2.261z" style="fill:#443631"/><path d="M152.308 414.175c.067-1.757-.818-2.828-2.493-3.355-1.724-.543-3.424-1.162-5.121-1.785-1.906-.699-2.319-1.427-2.034-3.434.406-2.867-.824-5.234-3.428-6.617-.239-.127-.449-.309-.834-.579.092-1.707.395-3.456.242-5.165-.789-8.792-4.027-16.695-9.186-23.791-1.257-1.729-2.973-3.148-4.592-4.58-1.282-1.132-3.019-1.706-4.01-3.234-.177-.274-.583-.543-.897-.56-1.718-.092-2.815-1.39-4.221-2.075-.699-.341-1.033-.835-1.226-1.619-.423-1.729-1.714-2.688-3.406-2.92-1.276-.175-2.593-.059-3.891-.061-.497-.001-1.014.125-1.488.029-7.954-1.609-15.37-.088-22.397 3.781-.366.202-.812.466-1.183.418-2.762-.361-4.894 1.021-6.983 2.473-3.918 2.724-7.02 6.235-9.649 10.188-.399.6-.757 1.26-1.272 1.745-2.462 2.314-4.305 5.079-5.826 8.05-2.269 4.432-3.89 9.045-3.291 14.162.03.258-.088.533-.13.76-4.765.812-5.63 1.911-5.509 6.762-1.032.747-2.238 1.288-2.933 2.213-.78 1.038-1.73 1.715-2.773 2.349-2.164 1.316-4.361 2.579-6.51 3.918-1.705 1.061-2.685 2.635-2.809 4.649-.257 4.187-.449 8.378-.695 12.566-.081 1.38.472 2.384 1.637 3.066.561.328 1.133.655 1.736.888 5.936 2.297 11.778 4.897 17.841 6.79a375.177 375.177 0 0 1 35.62 13.118c2.061.881 4.119 1.79 6.24 2.506 2.395.809 4.771 1.034 6.962-.788.989-.823 2.212-1.368 3.339-2.021 6.325-3.662 12.652-7.319 18.983-10.972.282-.163.603-.257.93-.393.309 1.104.48 2.113.875 3.026.472 1.091 1.225 2.028 2.585 1.992 1.311-.035 1.896-1.037 2.212-2.085.498-1.654.933-3.344 1.188-5.049.208-1.394.73-2.37 1.965-3.134 4.677-2.895 9.282-5.904 13.953-8.809 1.137-.707 1.936-1.596 2.024-2.898.212-3.171.333-6.349.455-9.525zm-8.599-3.369 6.018 2.096.085.547-13.421 8.939c1.938-2.25 3.32-4.717 3.49-7.811 2.066-.342 3.202-1.628 3.828-3.771zm-21.14-45.191c.78.582 1.474.967 1.997 1.516 1.344 1.408 2.813 2.755 3.877 4.362 4.206 6.346 7.13 13.244 8.028 20.855.328 2.777.4 5.609-.781 8.319-.318.729-.132 1.676-.153 2.057l-2.471 4.883-3.33-.179c.625-4.419 1.351-8.826 1.847-13.258.47-4.196.419-8.384-1.363-12.359-1.656-3.694-4.888-5.716-8.813-5.398-2.401.195-4.391 1.382-6.194 2.887-2.137 1.784-3.742 4.014-5.139 6.397-2.53 4.315-4.603 8.846-6.319 13.543-.347.949-.671 1.922-1.154 2.802-.467.85-1.127 1.593-1.79 2.504-1.152-1.164-1.073-2.36-.836-3.434.433-1.966.902-3.957 1.658-5.814 2.711-6.66 6.835-12.379 11.951-17.406 1.238-1.216 2.478-2.436 3.642-3.722 2.235-2.467 4.345-5.029 5.343-8.555zm3.816 39.647c-.306-2.348.201-4.393 1.461-5.63-.03 2.074-.408 3.866-1.461 5.63zm.43 18.418c-.426-2.805-.703-5.528-3.382-7.031 3.304.839 4.929 4.279 3.382 7.031zm1.21-27.595c-.303-1.515-.289-2.691-.146-3.981.252-2.275.177-4.607.017-6.9-.117-1.68-.922-3.176-2.079-4.441-.419-.457-.821-.929-1.387-1.571 1.683-.112 2.528.801 3.28 1.74 1.106 1.379 1.842 2.995 1.918 4.756.136 3.181 0 6.359-1.033 9.422-.087.257-.276.479-.57.975zm-29.402.953c.019-3.938 1.659-6.937 3.981-9.664l-3.981 9.664zm21.26-32.026c.052.34.248.743.132 1.009-.573 1.313-1.025 2.753-1.899 3.845-1.894 2.366-3.996 4.567-6.055 6.797-1.861 2.016-3.777 3.981-5.67 5.968-.342.359-.689.715-1.033 1.072l-.458-.229c.436-.794.758-1.684 1.329-2.366 1.854-2.215 3.708-4.443 5.729-6.5 2.89-2.941 5.947-5.722 7.925-9.596zm-12.361 4.326c.028-.824.461-1.348 1.296-1.441.847-.094 1.769.718 1.773 1.89-.367.311-.852.965-1.49 1.2-.71.26-1.609-.775-1.579-1.649zm1.572-11.112c.785-.252 1.606-.388 2.411-.578l.184.663c-4.328 1.829-8.496 3.914-12.307 6.691-3.929 2.863-6.195 6.976-8.736 11.26.231-2.671 1.708-6.143 3.723-8.441a29.758 29.758 0 0 1 4.08-3.863c3.217-2.498 6.744-4.482 10.645-5.732zm-28.296 3.803c-.839 1.674-2.654 3.116-4.825 3.682l4.825-3.682zm-11.746 13.423c1.588-1.772 3.253-3.492 5.034-5.066 2.003-1.77 4.196-3.322 6.255-5.032 1.498-1.244 3.015-2.492 3.377-4.62.069-.406.577-.805.972-1.077 3.357-2.312 11.794-4.158 16.391-3.49-1.5.969-2.823 1.741-4.052 2.641-1.279.937-2.467 1.997-4.148 3.374-.229-.452-.39-1.038-.756-1.435-.818-.889-1.894-1.339-3.114-1.241-1.449.117-2.646 1.254-2.826 2.584-.19 1.406.66 3.015 1.957 3.563.519.219 1.105.281 1.927.478l-2.425 4.476c-.285-.545-.477-.921-.677-1.294-1.318-2.456-3.104-3.369-5.751-2.43-1.871.664-3.749 1.626-5.267 2.886-1.985 1.648-3.636 3.703-5.394 5.617-.96 1.045-1.844 2.16-2.762 3.244l-.455-.307c.562-.965.984-2.057 1.714-2.871zm21.838-12.883c-.94 1.298-1.573 1.583-2.205 1.003-.522-.479-.802-1.182-.209-1.693.932-.803 1.7-.282 2.414.69zm-7.385 17.949c-1.178 2.637-2.479 5.22-3.747 7.817-1.41 2.889-2.672 5.799-1.37 9.401-1.622-1.394-2.114-2.586-1.485-4.32 1.007-2.773 2.165-5.499 3.404-8.178 1.45-3.135 3.056-6.199 4.594-9.294l.254-.031c-.543 1.538-.987 3.12-1.65 4.605zm1.008 4.327c-.253 2.222-.407 4.47-.882 6.647-.299 1.372-1.014 2.684-1.715 3.924-.349.617-1.089 1.012-1.738 1.584-.986-1.562-.687-2.954-.21-4.19 1.216-3.15 2.604-6.234 3.923-9.345l.501.098c.045.427.169.864.121 1.282zM79.923 372c-.456.418-.733.83-1.116.997-3.857 1.681-6.179 4.863-8.244 8.313-.786 1.313-1.428 2.743-2.781 3.627 2.186-4.187 4.007-8.614 7.968-11.583 1.567-1.175 2.078-1.4 4.173-1.354zm-30.275 33.246c.334-.134.698-.193 1.037-.318 1.31-.482 1.456-.748 1.162-2.077a6.775 6.775 0 0 0-.176-.627c-.405-1.255-.441-2.488.685-3.373 1.103-.867 2.387-.973 3.69-.402.263.115.484.362.752.419.323.068.853.128.975-.04.213-.293.36-.842.225-1.146-1.752-3.962-.748-7.805.485-11.617.451-1.396.939-2.818 2.141-3.923-.057 1.062-.277 2.147-.129 3.18.181 1.262.47 2.589 1.072 3.691 1.11 2.03 3.123 2.46 4.964 1.062 1.128-.856 2.125-1.977 2.923-3.154 1.133-1.671 2.031-3.502 3.024-5.268 1.251-2.223 2.661-4.329 4.756-5.852.907-.659 1.816-1.472 3.161-1.128.531 1.267.278 2.483-.223 3.594-1.04 2.303-2.242 4.533-3.302 6.828-1.059 2.292-2.172 4.577-2.992 6.958-.738 2.141-.773 4.426-.135 6.64.257.893.619 1.79 1.107 2.578 2.589 4.183 7.683 4.33 10.313.186 1.026-1.617 1.725-3.516 2.218-5.38 1.073-4.054 1.783-8.205 2.883-12.25 2.972-10.934 10.079-18.296 20.174-23.058 2.313-1.091 4.164-.698 6.205 1.372l-4.019 5.88c-1.367-1.269-2.578-2.415-4.31-1.986-.726.18-1.522.569-2.012 1.112-1.477 1.635-1.046 3.506 1.328 5.979-4.299 5.035-8.172 10.408-11.185 16.713-.36-.92-.477-1.64-.877-2.129-.435-.53-1.084-1.021-1.731-1.203-.638-.18-1.453-.112-2.082.129-1.718.659-2.414 2.543-1.643 4.11.988 2.006 2.606 2.335 5.414.889-.292.94-.5 1.67-.745 2.387-1.138 3.325-1.752 6.714-1.347 10.243.268 2.339.901 4.548 2.308 6.467 2.277 3.107 5.484 3.446 8.121.658 1.321-1.397 2.428-3.08 3.301-4.801 1.633-3.223 3.026-6.568 4.518-9.862 1.164-2.57 2.214-5.199 3.53-7.688.799-1.511 1.842-2.976 3.068-4.158 1.977-1.906 4.196-1.429 5.567.976 1.006 1.765 1.175 3.722 1.068 5.686-.286 5.236-1.385 10.311-3.111 15.263-1.089 3.125-2.528 6.155-2.637 9.644-.816.082-1.529.105-2.223.233-2.581.475-4.626 1.659-5.469 4.332-.437 1.386-.22 2.727.413 4 .35.704.915 1.237 1.733.763.669-.388.304-.963.066-1.517-1.298-3.022.623-4.777 2.647-5.374 3.571-1.053 6.613.711 7.224 4.169.435 2.459-.965 4.38-3.502 4.374-1.486-.004-2.163.526-2.816 1.772-1.474 2.814-5.15 3.494-7.589 1.434-.9-.76-1.498-.877-2.395-.058-1.696 1.549-2.909 1.649-4.893.591-.191-.102-.37-.227-.555-.34-1.733-1.063-1.682-1.004-3.278.414-.785.697-1.739 1.334-2.728 1.649-2.937.934-5.256-.012-7.142-2.765.27-.279.64-.533.818-.883.173-.34.334-.991.173-1.131-.317-.277-.859-.388-1.309-.389-.324-.001-.661.267-.971.449-2.328 1.368-6.049.648-7.185-2.224-.406-1.027-1.15-1.299-2.084-.858-1.811.853-3.213.447-4.307-1.198-.635-.955-1.345-1.095-2.373-.436-1.959 1.255-3.4.694-4.135-1.479a6.06 6.06 0 0 1-.214-.841c-.38-2.059-.387-1.951-2.618-2.155-1.789-.164-3.26-1.06-4.24-2.668-1.079-1.771-1.105-1.756-3.041-1.043-2.503.921-4.407-.199-4.501-2.884-.052-1.473-.661-2.055-1.941-2.405-.669-.183-1.378-.531-1.863-1.012-1.425-1.413-1.06-2.984.779-3.724zm44.33-15.777c.009.403-.551.819-1.072 1.504-.504-.68-1.007-1.063-1.064-1.503-.095-.733.506-1.24 1.186-1.096.399.084.941.705.95 1.095zm-6.185 47.585c3.687 1.663 7.389 3.293 11.077 4.954 1.047.471 2.065 1.007 3.304 1.614-.042 2.639.054 5.381-.624 8.066-.409 1.621-.873 1.909-2.504 1.526-1.33-.312-2.635-.771-3.91-1.271-9.089-3.563-18.15-7.197-27.258-10.709-2.964-1.143-6.073-1.908-9.063-2.992-6.863-2.49-13.695-5.066-20.535-7.619-.539-.201-1.139-.398-1.537-.779-.424-.406-.917-1.035-.902-1.553.094-3.374.317-6.744.51-10.332 5.481 1.891 10.669 3.666 15.847 5.473 6.485 2.263 12.984 4.487 19.43 6.859 2.982 1.097 5.833 2.546 8.781 3.745.846.344 1.866 1.206 2.716-.002.456-.649-.084-1.202-1.822-1.901-6.037-2.427-12.017-5.01-18.13-7.226-7.749-2.808-15.607-5.315-23.417-7.953-.411-.139-.827-.267-1.226-.436-2.191-.926-2.39-1.938-.404-3.334 2.47-1.737 5.106-3.237 7.775-4.905.979 2.024 2.301 3.389 4.298 3.83 1.495 5.106 3.062 6.134 8.069 5.275 1.591 2.25 3.764 3.648 6.596 3.716 1.659 5.529 4.444 5.778 7.504 4.563 1.514 1.825 3.542 2.263 6.007 1.696 1.925 2.959 4.754 4.028 8.119 3.483 4.536 5.257 8.787 5.805 13.689 1.893 1.401.383 2.763 1.007 4.148 1.063 1.366.055 2.756-.466 4.207-.749 1.52.25 3.199.725 4.886.753 2.213.036 4.09-.961 5.279-2.896.535-.871 1.074-1.409 2.173-1.446 1.441-.049 2.561-.901 3.598-1.838.491-.444.991-.966 1.677.057-.339.288-.657.639-1.045.876-5.616 3.44-11.24 6.867-16.865 10.292-.432.263-.899.47-1.329.736-2.76 1.71-5.31 1.781-8.295.041-3.157-1.841-6.728-2.98-10.147-4.355-.736-.296-1.861-.857-2.273.237-.464 1.227.878 1.224 1.596 1.548zm40.461-3.773c-.369 4.168-.331 4.233-3.979 6.405-6.398 3.808-12.848 7.529-19.28 11.28-.233.136-.503.21-.953.394l.443-8.252c8.021-3.827 15.175-9.171 23.245-13.519.209 1.056.4 1.938.551 2.827.048.279-.002.578-.027.865zm-1.72-18.013c.313-1.723 1.051-3.105 2.073-4.334 1.409-1.693 2.935-1.867 4.762-.686.721.466 1.316 1.634 2.395.831.93-.692.127-1.592.038-2.399-.048-.429-.178-.857-.17-1.283.021-1.303.563-1.916 1.868-2.204 1.733-.382 1.864-.749.792-2.225-.042-.058-.108-.098-.149-.157-.369-.524-.946-1.17-.155-1.612.316-.176 1.223.248 1.558.651.89 1.068 1.448 2.247.97 3.787-.229.736.063 1.65.189 2.472.053.342.31.648.439.984.745 1.949.093 3.068-1.939 3.347-1.793.246-1.857.33-1.66 2.169.444 4.144-3.79 7.812-8.016 6.731-.127-2.377-.851-4.602-2.995-6.072zm5.364 24.913c-.054.185-.254.328-.58.731-.108-.703-.198-1.198-.256-1.697-.066-.57-.155-1.144-.144-1.714.021-1.083.1-2.165.165-3.248.163-2.728.359-5.462-2.086-7.854 1.388.014 1.874.656 2.281 1.304.341.543.674 1.156.773 1.775.567 3.571.874 7.152-.153 10.703zm.2-16.217 3.482-1.307c-1.978 1.874-1.978 1.874-3.482 1.307zm18.061-2.817c-.081 2.267-1.221 3.595-3.076 4.728-3.942 2.407-7.777 4.991-11.66 7.496-.168.108-.382.146-.678.254l-.819-7.208 16.322-10.697c.426 2.044-.028 3.729-.089 5.427z" style="fill:#443731"/><path d="M73.208 418.8c.713-.597 1.233-1.443 1.984-1.973 2.269-1.6 4.872-1.115 5.455 1.904.381 1.97.851 2.052 2.66 1.014 1.5-.861 1.944-.799 3.548.614-.202.405-.371.723-.523 1.049-.679 1.455-.686 2.315.034 2.477 1.107.25 1.202-.79 1.581-1.423 1.423-2.373 3.63-2.832 5.864-1.145.687.519 1.248 1.202 1.878 1.799 1.209 1.146 1.825 1.087 2.757-.26.164-.237.275-.513.449-.741 1.423-1.879 3.608-1.704 4.703.378.269.511.411 1.107.755 1.552.22.285.838.602 1.042.487.355-.201.8-.781.732-1.102-.385-1.814-1.119-3.544-2.927-4.323-1.764-.76-3.564-.563-5.086.746-.471.405-.816.954-1.237 1.46-2.503-2.544-5.046-3.787-8.335-2.409-1.633-1.88-3.63-2.32-5.844-1.387-.228-.302-.389-.454-.476-.641-1.01-2.175-2.721-3.147-5.081-2.857-2.478.305-4.275 1.686-5.437 3.848-.168.312.137.879.224 1.328.431-.125.964-.131 1.28-.395zM54.379 408.463c.234.252.539.685.754.652.353-.055.799-.355.949-.673.24-.506.187-1.145.403-1.668.517-1.257 1.31-2.29 2.806-2.375 1.201-.068 2.466 1.02 2.824 2.584.376 1.643.953 3.378-.773 4.759-.253.203-.328 1.002-.138 1.307.405.646.99.335 1.471-.067.055-.046.11-.093.162-.144 1.561-1.538 3.221-1.335 4.93-.281.369.227.742.447 1.109.678.582.367 1.252.686 1.722-.008.559-.825-.092-1.402-.745-1.72-1.593-.774-3.236-1.446-5.268-2.339-.049-.376-.124-1.087-.237-1.791-.234-1.469-.813-2.761-1.963-3.758-1.444-1.253-3.434-1.54-5.042-.715-1.693.869-3.309 3.56-3.088 5.151.019.141.037.314.124.408zM118.243 400.482c1.773.092 3.317-1.307 3.477-3.152.166-1.915-1.377-3.706-3.3-3.829-1.909-.123-3.544 1.326-3.627 3.211-.081 1.854 1.584 3.673 3.45 3.77zm-1.381-3.652c.151-.585.693-1.069.937-1.421 1.029-.015 1.801.84 1.827 1.608.026.771-.588 1.407-1.325 1.373-.768-.036-1.626-.833-1.439-1.56zM89.783 412.241c1.88.063 3.492-1.458 3.529-3.331.037-1.884-1.612-3.586-3.552-3.663-1.742-.069-3.349 1.446-3.421 3.226-.076 1.869 1.603 3.706 3.444 3.768zm-.142-4.948c.846.051 1.704.993 1.567 2.087-.374.213-.909.715-1.509.809-.672.105-1.362-.927-1.286-1.707.071-.724.409-1.239 1.228-1.189zM112.825 409.736c1.634.025 3.141-1.329 3.21-2.884.081-1.816-1.334-3.413-3.073-3.47-1.692-.055-3.143 1.355-3.202 3.114-.059 1.724 1.35 3.214 3.065 3.24zm-.01-4.303c.354.468.823.897 1 1.424.065.193-.565.618-1.105 1.171-.431-.655-.967-1.111-.919-1.493.051-.405.659-.738 1.024-1.102zM66.982 402.97c1.478.17 2.736-.826 2.887-2.283.143-1.387-.65-2.414-1.986-2.569-1.783-.207-2.986.623-3.136 2.163-.135 1.381.817 2.527 2.235 2.689zm.494-2.879c.108-.008.237.262.477.552-.391.094-.637.211-.866.183-.112-.013-.193-.294-.287-.454.224-.102.444-.263.676-.281zM100.049 376.38c.938-.01 1.858-.836 1.917-1.722.066-.987-.779-1.765-1.981-1.823-1.073-.052-1.746.448-1.843 1.372-.116 1.089.846 2.184 1.907 2.173zM98.904 448.919c.023.256.564.677.827.644.288-.035.751-.527.728-.782-.034-.37-.435-.707-.922-1.406-.341.773-.666 1.175-.633 1.544zM44.545 429.397c-.02.266.539.849.68.802.387-.128.69-.514 1.026-.797l-.862-1.014c-.373.417-.82.697-.844 1.009zM45.229 412.472c-.059.145.369.693.575.692.341-.001.681-.298 1.236-.58-.462-.413-.749-.869-1.033-.867-.275.002-.648.433-.778.755zM39.442 422.551c-.285-.01-.794.384-.822.642-.029.267.364.768.644.827.269.057.63-.321 1.136-.616-.418-.396-.68-.843-.958-.853zM44.292 424.098c-.191-.048-.722.385-.702.558.037.337.295.815.572.909.228.077.615-.316 1.129-.615-.439-.401-.682-.774-.999-.852zM40.067 427.764c.049.35.274.86.542.944.265.083.669-.278 1.243-.557-.46-.411-.707-.784-1.028-.865-.214-.054-.776.343-.757.478zM98.157 446.348c.339-.043.842-.261.918-.517.081-.271-.254-.667-.509-1.235-.413.45-.782.688-.865 1-.055.211.324.769.456.752zM95.196 448.825c.317-.061.578-.42 1.038-.797-.505-.32-.876-.726-1.107-.658-.282.084-.554.546-.614.883-.028.16.484.61.683.572zM42.681 413.42c-.336.072-.803.352-.868.629-.056.236.375.587.724 1.074.346-.469.685-.741.729-1.055.028-.199-.429-.682-.585-.648zM134.708 394.337c.266-.296.892-.705 1.07-1.258.269-.836-.58-1.73-1.439-1.714-.855.016-1.296.542-1.398 1.331-.098.76.631 1.566 1.767 1.641zM122.713 374.698c.347-.053.839-.309.923-.588.074-.244-.328-.632-.644-1.168-.392.464-.759.721-.826 1.041-.043.207.39.739.547.715zM110.931 442.625c.029.337.281.818.557.919.225.082.62-.303 1.136-.59-.426-.408-.662-.786-.981-.88-.183-.053-.728.375-.712.551zM108.556 445.892c.057.265.537.526.873.601.128.029.558-.495.521-.712-.054-.32-.403-.589-.779-1.079-.305.547-.674.915-.615 1.19zM145.245 423.643c.031.289.469.628.801.746.143.051.662-.405.658-.624-.006-.323-.327-.639-.636-1.168-.395.473-.851.786-.823 1.046zM148.062 422.751c-.038.207.405.725.556.697.338-.063.83-.34.884-.606.056-.277-.331-.642-.652-1.186-.377.491-.728.766-.788 1.095zM148.205 419.26c-.278.034-.605.511-.697.852-.042.156.451.658.66.634.339-.038.643-.379 1.155-.722-.499-.365-.837-.799-1.118-.764zM170.606 177.192c-.931-.381-1.925-.631-2.91-.853-3.992-.902-8.001-1.096-12.059.029-1.953-7.691-6.695-13.005-13.314-16.777-4.869-2.774-10.072-4.745-15.508-6.075-11.093-2.714-22.367-3.825-33.776-3.842-4.868-.007-9.7.15-14.406 1.493-7.164 2.045-12.211 6.56-14.702 13.564-1.078 3.03-1.573 6.31-2.005 9.521-1.931 14.374 1.747 27.236 10.713 38.609.44.558.877 1.12 1.385 1.77-.483.182-.816.294-1.139.432-2.291.976-2.875 2.796-1.49 4.883.473.712 1.059 1.416 1.747 1.907 1.995 1.425 3.952 2.974 6.132 4.054 6.312 3.125 12.98 5.309 19.864 6.798 6.669 1.442 13.461 1.953 20.251 2.322 2.795.152 5.65-.03 8.423-.435 3.129-.457 4.022-3.144 2.073-5.627-.561-.714-1.206-1.362-1.887-2.123.743-.376 1.319-.67 1.898-.96 4.437-2.227 8.436-5.071 11.898-8.627 1.135-1.166 2.345-1.842 3.955-2.315 8.617-2.532 16.573-6.479 23.669-12.015 3.466-2.704 6.206-6.052 7.818-10.224 2.534-6.563-.132-12.848-6.63-15.509zM67.68 163.836c.303-1.304.791-2.653 1.535-3.752 2.609-3.854 6.459-5.864 10.886-6.956 4.886-1.205 9.836-1.41 14.846-1.329 8.698.141 17.338.789 25.875 2.486 7.121 1.416 14.013 3.51 20.403 7.087 3.606 2.019 6.642 4.655 8.986 8.016 1.059 1.519 1.756 3.3 2.539 4.998 1.25 2.71.313 5.042-1.774 6.749-1.647 1.347-3.596 2.438-5.573 3.243-4.395 1.788-9.082 2.341-13.786 2.645-8.492.549-16.901-.236-25.779-1.743-9.235-1.883-18.759-4.521-27.518-9.4-3.364-1.874-6.532-4.021-8.959-7.087-1.148-1.449-2.127-3.038-1.681-4.957zm78.002 28.387c-1.164.694-2.471 1.195-3.769 1.61-4.256 1.359-8.682 1.363-13.089 1.535-8.756.343-17.283-1.265-25.78-3.04-8.3-1.734-16.424-4.076-24.031-7.905-2.181-1.098-4.228-2.49-6.237-3.889-.865-.602-1.576-1.497-2.185-2.379-.945-1.369-.769-1.903.663-2.778.365-.223.768-.386 1.248-.623 10.886 7.323 22.968 10.847 35.545 12.939 12.507 2.08 25.002 2.624 37.441-.929.36.38.752.704 1.034 1.105 1.299 1.852 1.097 3.198-.84 4.354zm.005 2.804c-1.016 2.381-2.167 4.602-3.683 6.617-8.054 10.708-18.798 16.014-32.189 15.781-5.73-.1-11.502-.544-16.808-2.864-9.513-4.16-16.431-11.011-19.879-20.941-1.228-3.538-1.891-7.273-2.793-10.922-.08-.323-.018-.68-.022-1.013.272-.012.448-.076.521-.015 5.224 4.338 11.391 6.81 17.729 8.921 10.139 3.377 20.561 5.477 31.173 6.589 6.135.643 12.295.475 18.404-.366 2.484-.343 4.905-1.147 7.547-1.787zm-17.096 35.896c.423.518.15 1.171-.497 1.404-.671.242-1.396.442-2.103.458-2.743.063-5.495.186-8.23.03-7.01-.401-14.007-1.029-20.836-2.772-5.825-1.487-11.535-3.364-16.895-6.118-2.04-1.048-3.908-2.451-5.785-3.789-.807-.575-1.541-1.332-1.584-2.61 2.281-1.348 2.895-1.313 4.621.299 6.446 6.019 14.001 10.005 22.586 11.859 7.995 1.727 15.959 1.297 23.783-1.221.712-.229 1.729-.567 2.208-.252 1.054.692 1.919 1.717 2.732 2.712zm.171-6.893c-16.769 8.508-37.223 5.028-50.877-8.601-10.828-10.809-15.523-23.975-14.077-39.258.136-1.438.328-2.877.606-4.293.291-1.486.715-2.945 1.174-4.786.878 1.24 1.538 2.286 2.313 3.237.817 1.003 1.744 1.916 2.743 2.997-.432.319-.815.591-1.187.877-1.169.9-1.702 2.012-1.598 3.56.443 6.542 1.597 12.936 4.212 18.965 4.148 9.565 11.268 16.208 20.87 20.065 5.075 2.039 10.522 2.525 15.976 2.597 1.662.022 3.329.052 4.986-.046 12.165-.721 21.776-6.236 29.244-15.703 2.53-3.207 4.303-6.863 5.846-10.607.825-2.002.699-4.115-.507-6.043-.225-.359-.428-.732-.641-1.099l.389.419 5.211-3.942c.404 2.029.125 4.184-.163 6.272-2.195 15.916-10.064 28.054-24.52 35.389zm46.388-31.751c-1.659 3.979-4.446 7.087-7.85 9.644-5.24 3.935-11.023 6.898-17.092 9.321-1.2.479-2.433.875-3.65 1.31l-.25-.297c1.129-1.826 2.229-3.672 3.412-5.463.241-.365.77-.582 1.208-.766 3.743-1.572 7.417-3.3 10.657-5.763 1.595-1.212 3.101-2.627 4.34-4.193.907-1.147 1.544-2.632 1.898-4.067.861-3.489-.803-6.206-4.338-6.988-1.652-.366-3.429-.22-5.149-.21-.769.005-1.536.248-2.535.423l.016-2.634c3.815-1.38 7.545-1.869 11.408-1.059 1.683.353 3.108 1.14 4.279 2.396.443.475.924 1.141 1.606.529.717-.643.237-1.337-.264-1.89-1.401-1.544-3.131-2.523-5.17-2.986-3.465-.787-6.893-.545-10.309.287-.411.1-.829.173-1.236.257-.466-1.6-.456-1.693.824-2.044 2.631-.721 5.312-.602 7.966-.225 1.491.212 2.982.602 4.401 1.111 5.886 2.109 8.246 7.51 5.828 13.307zm-19.834-3.226c.077-1.077.491-1.753 1.582-1.993 2.276-.501 4.549-.897 6.788.118 1.916.868 2.521 2.104 2.169 4.174-.277 1.623-1.075 2.967-2.12 4.194-2.099 2.467-4.799 4.137-7.597 5.659-1.37.745-2.8 1.378-4.521 2.216.251-.889.347-1.373.522-1.827 1.553-4.057 2.863-8.177 3.177-12.541z" style="fill:#443731"/><path d="M78.851 190.438c.038-.199-.165-.599-.328-.638-.194-.047-.571.146-.657.333-.078.169.129.469.271.895.351-.274.679-.404.714-.59zM83.021 192.477c-.018.202.238.586.409.607.204.025.576-.214.631-.409.054-.187-.203-.464-.399-.85-.302.289-.623.457-.641.652zM76.981 195.356c-.042.188.157.556.338.63.149.06.538-.147.615-.324.079-.182-.093-.472-.205-.913-.378.288-.705.415-.748.607zM84.688 199.772c-.206-.037-.461.199-.695.316.12.229.189.562.377.655.164.081.462-.107.886-.23-.266-.368-.389-.709-.568-.741zM90.982 203.682c-.037.177.199.533.388.599.165.058.433-.18.797-.355-.269-.313-.421-.641-.597-.655-.198-.014-.55.228-.588.411zM86.957 206.111c-.126.21-.325.412-.349.633-.014.124.296.42.397.394.23-.059.525-.229.601-.427.092-.242-.013-.56-.033-.845l-.616.245zM93.727 208.343c-.236.014-.463.171-.694.27l.383.883c.301-.333.527-.492.606-.706.039-.107-.198-.453-.295-.447zM114.587 223.335c-7.294.622-14.431.055-21.32-2.613-.577-.224-1.242-.547-1.847.364.19.25.28.483.444.562.649.314 1.307.62 1.987.857 6.798 2.364 13.792 3.09 20.936 2.393.679-.066 1.937.215 1.802-.959-.127-1.108-1.299-.664-2.002-.604zM135.214 215.142c-.466.125-.875.487-1.288.775-3.886 2.707-7.97 4.984-12.692 5.89-.283.054-.604.086-.825.243-.256.182-.421.491-.625.745.33.196.639.463.996.563.247.069.558-.097.842-.148 5.33-.968 9.868-3.621 14.202-6.697.267-.19.435-.519.923-1.121-.719-.133-1.168-.348-1.533-.25zM75.254 171.439a38.31 38.31 0 0 0 5.633 3.637c7.047 3.703 14.646 5.753 22.408 7.353 3.73.468 7.452 1.03 11.194 1.372 2.876.264 5.776.334 8.666.344 5.439.019 10.838-.431 16.1-1.923 2.59-.735 5.086-1.703 7.153-3.506 2.767-2.413 3.334-5.504 1.247-8.517-1.13-1.631-2.641-3.075-4.211-4.308-3.209-2.521-6.92-4.188-10.73-5.594-12.083-4.457-24.602-6.412-37.448-6.315-5.072.038-10.11.547-15.006 1.992-2.512.741-4.935 1.695-6.948 3.442-2.732 2.37-3.267 5.534-1.268 8.539.866 1.303 1.976 2.527 3.21 3.484zm62.711 8.946c-5.358 1.431-10.842 1.756-16.347 1.664-10.701-.179-21.164-1.866-31.329-5.26-4.056-1.354-7.981-3.014-11.577-5.366-.7-.458-1.347-.995-2.018-1.496l.209-.505c21.84-2.921 42.563 1.32 62.702 10.34-.546.21-1.078.473-1.64.623zM75.6 160.393c2.003-1.222 4.294-2.109 6.569-2.719 5.993-1.607 12.151-1.757 18.313-1.521 9.082.348 17.993 1.781 26.687 4.46 4.782 1.473 9.47 3.218 13.648 6.027 1.661 1.117 3.274 2.435 4.558 3.957 2.428 2.879 1.417 6.319-2.112 7.713-.444.175-1.136.053-1.59-.175-7.02-3.531-14.477-5.868-22.024-7.885-12.333-3.297-24.883-4.556-37.633-3.417a48.326 48.326 0 0 0-3.658.457c-1.14.189-2.263.475-3.511.743-2.698-3.073-2.545-5.628.753-7.64zM173.417 185.955c-.326-.005-.717.524-.97.894-.138.202-.058.559-.06.846-.025 3.673-1.48 6.701-4.145 9.18-.687.638-1.395 1.254-2.083 1.89-.449.416-.877.99-.299 1.449.308.245 1.154.204 1.502-.053 3.456-2.562 6.129-5.693 7.001-10.092.02-1.079.122-2.166.012-3.231-.036-.346-.619-.878-.958-.883zM318.264 70.077c0-.437.008-.94-.001-1.443-.096-4.991-2.087-9.17-5.804-12.389-6.429-5.567-13.874-7.901-22.346-6.259-6.392 1.238-11.594 4.339-15.047 10.03-1.636 2.696-2.601 5.626-3.101 8.846-5.061 2.057-4.724 5.177-3.572 8.638.474 1.424 1.111 2.872 2 4.066 2.847 3.825 5.771 7.599 8.814 11.269 2.104 2.538 4.842 4.073 8.261 4.183 1.369.044 2.731.316 4.1.356 5.765.172 11.391-.603 16.808-2.652 1.651-.625 3.156-1.484 4.112-3.038 2.273-3.693 4.553-7.383 6.757-11.117.618-1.048 1.08-2.215 1.445-3.379 1.094-3.491.602-4.876-2.426-7.111zm-8.074-10.155c1.239-.738 2.039-.173 2.75.588.593.635.731 1.413.313 2.188-.635 1.179-1.613 1.763-3.063 1.563v-4.339zm-2.434-4.363c-.497 1.236-1.332 2.13-2.655 2.661l-1.767-3.87c.97-1.102 1.604-.944 4.422 1.209zm-.614 3.986c1.512 1.949 1.497 3.35-.046 4.336-1.603 1.026-3.242.499-4.392-1.413 1.292-1.736 1.292-1.736 4.438-2.923zm-8.827-7.766 3.517.852c-1.023 1.457-2.381.32-3.517 1.389v-2.241zm1.849 3.567c1.263-.019 2.425 1.314 2.437 2.794.012 1.485-1.358 2.928-2.861 3.014-1.315.075-2.656-1.27-2.621-2.629.038-1.496 1.63-3.158 3.045-3.179zm-1.911 7.638c.595.225 1.258.27 1.884.393.527 2.069.097 3.262-1.407 3.932-1.384.616-2.804.126-3.707-1.279-1.076-1.674-.912-2.247 1.224-4.114.741.403 1.343.817 2.006 1.068zm-5.545-11.268c1.06-.085 2.133-.016 3.307-.016.151 1.359.337 2.547-.575 3.483l-4.905-.678c-.098-1.929.404-2.647 2.173-2.789zm-.864 4.937c1.131-.224 2.34.464 2.774 1.578.518 1.33-.027 2.431-1.681 3.429l-3.207-2.235c-.008-1.513.701-2.493 2.114-2.772zm-.956 6.97c-.021 1.068-1.755 2.502-2.936 2.428-.907-.057-1.525-.797-1.487-1.781.042-1.128 1.45-2.438 2.64-2.458.926-.016 1.802.873 1.783 1.811zm-2.695-11.025c.114.321.206.45.192.567-.032.275-.115.545-.206.942l-2.913-.386 2.927-1.123zm-3.921 4.292c.758-1.094 2.073-1.156 3.815-.174-.17.9-.415 1.798-.488 2.71-.064.807-.561 1.252-1.179 1.314-.554.056-1.275-.155-1.702-.512-.965-.807-1.099-2.395-.446-3.338zm.368 6.046-.456 1.579c-2.36.48-3.424.075-4.024-1.477-.466-1.204-.013-1.937 1.802-2.901l2.678 2.799zm-2.164-7.823c-.245 1.798-.655 2.914-2.177 3.661-2.016.99-2.677 2.855-2.084 4.697.712 2.213 2.495 3.523 4.703 3.414.645-.032 1.285-.16 1.914-.243 2.977 2.385 4.639 1.797 7.672-.938 1.162 1.951 2.396 3.878 5.018 3.859 2.565-.019 4.14-1.454 5.067-3.904 1.766.784 3.497 1.062 5.247.162.273-.141.726-.125 1.02-.001 2.351.995 4.22.259 5.828-1.532.091-.101.243-.148.58-.344.261.935.718 1.814.709 2.688a75.423 75.423 0 0 1-.435 7.109c-.053.508-.609 1.084-1.084 1.403-1.063.713-2.222 1.284-3.539 2.023-2.005-1.32-4.009-.757-5.699.838-1.241-.579-2.354-1.454-3.525-1.541-1.081-.08-2.225.685-3.681 1.197-2.992-2.158-4.156-2.126-7.09.291-1.247-.625-2.394-1.403-3.66-1.779-1.452-.43-2.585.558-3.58 1.481-3.129-2.255-4.002-2.322-6.686-.534-2.35-.948-3.208-2.694-3.178-5.231.081-6.945 3.005-12.341 8.66-16.776zm36.653 19.513c-.315 1.396-.576 2.885-1.271 4.099-2.298 4.015-4.768 7.933-7.199 11.872-.81 1.313-2.19 1.863-3.553 2.356-4.679 1.694-9.536 2.394-14.49 2.334-2.018-.024-4.031-.353-6.048-.519-1.658-.136-3.058-.827-4.278-1.916-.647-.578-1.343-1.126-1.879-1.798-2.664-3.335-5.355-6.652-7.879-10.092-.966-1.317-1.586-2.911-2.223-4.437-.325-.779-.441-1.685-.467-2.539-.039-1.243.317-1.631 1.929-2.469v3.98l-.614.333c.329.164.661.323.986.494 3.248 1.705 5.598 4.288 7.318 7.486.754 1.402 1.499 2.808 2.264 4.204.242.441.46.944.829 1.25.268.222.857.333 1.135.184.266-.143.49-.723.424-1.048-.111-.549-.435-1.065-.723-1.565-1.548-2.687-3.112-5.364-4.675-8.053 1.075-1.054 1.586-1.239 2.428-.37a16.376 16.376 0 0 1 2.558 3.448c.868 1.578 1.485 3.294 2.224 4.944.266.594.542 1.186.867 1.748.396.685.847 1.579 1.803 1.043 1.048-.587.254-1.372-.059-2.049-1.002-2.166-1.976-4.346-3.041-6.481-.495-.993-.479-1.793.413-2.49.866-.677 1.75-.353 2.342.292.656.713 1.229 1.6 1.538 2.513.601 1.777.987 3.626 1.472 5.443.13.489.276.975.449 1.45.254.7.566 1.477 1.506 1.123.797-.3.601-1.01.403-1.671-.518-1.732-.896-3.514-1.534-5.199-.458-1.207-.096-2.09.546-3.013.523-.752 1.157-1.335 2.14-1.219 1.033.122 1.738.795 2.074 1.709.268.73.314 1.552.393 2.34.181 1.798.316 3.601.483 5.401.033.358.031.776.218 1.047.215.311.739.752.922.671.369-.164.835-.64.839-.993.013-1.078-.175-2.158-.281-3.238-.107-1.079-.296-2.16-.283-3.238.008-.682.189-1.434.524-2.023.753-1.326 1.543-1.704 2.384-1.37.997.396 1.889 1.876 1.742 2.963-.165 1.218-.376 2.429-.559 3.645-.064.428-.144.861-.142 1.292.003.762-.266 1.812.82 1.946 1.131.141 1.076-.947 1.18-1.693.14-1.002.088-2.038.301-3.02a22.815 22.815 0 0 1 1.135-3.694c.195-.483.712-1.003 1.194-1.158.531-.171 1.313-.121 1.753.176.304.205.391 1.041.266 1.515-.496 1.886-1.116 3.74-1.682 5.608-.147.484-.389.982-.366 1.463.022.494.185 1.254.515 1.407.746.347 1.165-.261 1.374-.951.147-.484.279-.973.424-1.458.558-1.871 1.089-3.75 1.686-5.609.746-2.321 2.177-3.831 4.756-4.13 1.67-.194 1.604-.294 1.305-2.192-.102-.648.138-1.35.235-2.139 1.194.473 1.32 1.301 1.149 2.055z" style="fill:#443731"/><path d="M281.872 70.666c.194-.01.372-.306.687-.599-.376-.204-.624-.449-.814-.41-.182.038-.434.384-.414.568.02.178.356.451.541.441zM277.068 71.39c.188-.011.361-.302.695-.617-.395-.185-.643-.402-.822-.356-.182.047-.43.376-.404.543.029.178.351.44.531.43zM281.745 74.243c.177.175.341.47.535.491.196.021.422-.229.793-.458-.366-.266-.581-.545-.777-.531-.194.012-.368.32-.551.498zM297.595 172.02c-7.774-11.884-18.443-19.678-32.793-21.628-10.083-1.37-19.26.793-27.109 7.625-6.905 6.01-12.63 12.942-16.695 21.163-3.373 6.822-5.489 13.993-5.593 21.706.264 2.66.448 5.332.807 7.979.73 5.384 3.608 9.539 7.723 12.903 6.353 5.195 13.663 8.645 21.283 11.506.534.201 1.122.385 1.68.373 2.962-.063 5.956.057 8.878-.34 12.121-1.646 24.082-4.172 35.946-7.118 2.629-.653 5.199-1.818 7.575-3.143 3.214-1.792 5.447-4.513 5.958-8.343.325-2.435.711-4.866.934-7.311 1.162-12.762-1.58-24.649-8.594-35.372zm-65.597 52.14c-1.083-.582-2.13-1.23-3.203-1.831-6.929-3.879-10.055-10.069-10.896-17.716-1.038-9.441 1.539-18.065 5.914-26.249 4.075-7.622 9.575-14.099 16.286-19.555 5.751-4.676 12.326-6.723 19.713-6.665 9.276.073 17.406 3.182 24.708 8.732.229.174.441.372.651.568.044.041.047.125.145.415-.365 0-.667.031-.96-.005-9.185-1.116-17.698.654-25.387 5.928-5.457 3.743-9.793 8.563-13.315 14.121-5.013 7.911-8.596 16.382-9.783 25.753-.822 6.489-.613 12.856 2.271 18.902.081.171.049.397.099.888-2.203-1.157-4.232-2.205-6.243-3.286zm71.184-11.644c-.661 3.9-3.154 6.686-6.349 8.677-2.237 1.394-4.749 2.541-7.293 3.214-10.713 2.836-21.597 4.749-32.686 5.35-1.227.067-2.452.174-3.51.25-2.268 0-4.366-.011-6.464.003-3.326.021-5.629-1.524-7.013-4.516-1.639-3.544-2.311-7.313-2.338-11.17-.049-6.958 1.447-13.635 4.087-20.054 2.771-6.737 6.342-13.001 11.298-18.39 5.421-5.895 11.803-10.241 19.859-11.579 2.768-.46 5.617-.757 8.412-.654 5.145.19 9.502 2.155 12.62 6.501 5.058 7.049 8.544 14.746 9.82 23.364.94 6.353.624 12.7-.443 19.004z" style="fill:#443731"/><path d="M256.349 159.018c-.13-.382-.514-.739-.884-.94-.105-.057-.756.476-.743.716.02.374.394.728.744 1.293.444-.515.945-.888.883-1.069zM250.643 164.306c.258.066.639-.346 1.176-.677-.465-.366-.739-.725-1.072-.791-.21-.042-.747.404-.718.546.072.353.334.851.614.922zM246.044 162.44c-.116-.322-.497-.761-.764-.757-.288.003-.572.456-1.022.861.539.286.874.588 1.219.598.197.006.625-.542.567-.702zM221.468 202.637c-.335.092-.786.404-.839.69-.045.249.393.586.766 1.081.339-.512.672-.808.7-1.131.018-.209-.473-.682-.627-.64zM222.249 197.237c-.283.002-.563.44-.844.688.246.279.464.741.746.785.273.042.612-.347 1.102-.663-.436-.376-.721-.811-1.004-.81zM239.086 184.904c.056.322.405.592.781 1.083.298-.545.66-.911.603-1.19-.054-.264-.529-.528-.862-.605-.127-.03-.56.496-.522.712zM234.767 183.502c-.208-.052-.761.359-.741.503.048.343.295.852.556.918.281.071.67-.287 1.229-.567-.463-.402-.718-.773-1.044-.854zM238.63 180.913c.277.039.614-.348 1.101-.663-.441-.377-.725-.81-1.006-.808-.279.002-.754.425-.776.694-.023.256.403.738.681.777zM248.84 159.258c.325-.017.634-.328 1.159-.639-.48-.387-.79-.824-1.053-.798-.274.028-.605.47-.708.795-.046.151.399.653.602.642zM225.606 201.608c.059.337.322.795.605.887.221.072.597-.332 1.101-.648-.448-.374-.703-.734-1.018-.797-.199-.04-.716.402-.688.558zM289.894 170.833c-3.161-2.859-6.8-4.35-11.062-4.155-6.674.305-12.865 2.154-18.089 6.431-11.617 9.512-18.726 21.54-19.677 36.742-.303 4.843.234 9.671 2.054 14.286.781 1.98 2.135 3.143 4.14 3.337 2.506.243 5.055.444 7.556.259 8.17-.605 16.211-2.035 24.078-4.357a2468.9 2468.9 0 0 0 15.993-4.799c2.15-.651 3.674-1.948 4.252-4.215.357-1.398.951-2.757 1.133-4.173.331-2.578.435-5.186.694-8.555-.353-3.424-.694-7.601-1.23-11.752-.971-7.523-4.171-13.919-9.842-19.049zm8.338 38.579c-.181 1.348-.625 2.664-.985 3.985-.503 1.844-1.723 2.853-3.576 3.372-7.375 2.064-14.685 4.374-22.099 6.288-6.518 1.683-13.207 2.486-19.941 2.777-1.151.05-2.314-.034-3.465-.133-1.661-.143-2.761-.977-3.367-2.607-1.074-2.888-1.468-5.881-1.655-8.92-.657-10.658 2.869-20.049 8.774-28.695 3.002-4.395 6.621-8.216 10.946-11.345 4.972-3.596 10.58-5.239 16.665-5.345 3.252-.057 6.071 1.108 8.516 3.231 5.928 5.147 9.017 11.715 9.767 19.46.375 3.878.754 7.756 1.035 10.637-.25 3.12-.336 5.221-.615 7.295z" style="fill:#443731"/><path d="M281.787 203.54c-.384.069-.668.751-.966 1.178-.067.096-.006.282 0 .427.049 1.347-.617 2.186-1.868 2.587-1.316.422-2.625.04-3.511-1.026-.229-.276-.36-.645-.615-.888-.567-.54-1.277-.398-1.578.311-.139.326-.154.704-.23 1.057-.283 1.304-.939 2.311-2.348 2.507-1.301.18-2.217-.426-2.754-1.635-.236-.532-.559-1.165-1.27-.847-.883.395-.667 1.15-.37 1.863 1.077 2.588 4.448 3.485 6.742 1.762.573-.431 1.062-.975 1.77-1.634.513.177 1.051.365 1.59.549 1.381.473 2.724.287 4.009-.311 1.826-.849 2.773-2.65 2.511-4.623-.094-.695-.296-1.424-1.112-1.277zM260.57 195.635c-2.612-.025-4.533 1.875-4.512 4.463.019 2.336 1.642 4.015 3.881 4.016 2.445.001 4.543-2.07 4.584-4.525.037-2.236-1.659-3.932-3.953-3.954zm-.055 3.917c-.227.034-.537-.479-.809-.744.399-.32.759-.74 1.214-.912.192-.073.581.375 1.211.82-.731.403-1.151.767-1.616.836z" style="fill:#443731"/><path d="M262.007 194.221c.464.159.99.312 1.452.241.312-.048.562-.494 1.018-.934-.602-.438-1.003-.834-1.483-1.063-2.781-1.326-6.361-.497-8.44 1.928-.516.601-1.222 1.342-.506 2.054.845.84 1.352-.157 1.87-.7 1.708-1.792 3.719-2.338 6.089-1.526zM281.929 191.348c-2.054 1.023-2.838 3.29-1.827 5.284 1.11 2.191 3.902 3.136 6.101 2.066 2.013-.98 2.738-3.199 1.735-5.309-1.112-2.336-3.671-3.205-6.009-2.041zm1.762 3.5c-.448.141-.986-.002-1.819-.046.372-.675.527-1.248.731-1.267.484-.043.992.176 1.491.29-.13.357-.184.954-.403 1.023z" style="fill:#443731"/><path d="M278.818 191.557c.447-.138.853-.506 1.2-.852 1.776-1.767 3.824-2.154 6.144-1.291.703.262 1.595.937 1.988-.188.333-.953-.627-1.311-1.353-1.626-2.93-1.271-6.512-.452-8.434 1.956-.332.416-.52.947-.869 1.605.602.197 1.023.489 1.324.396zM460.976 385.482c-.333-6.491-1.254-12.957-2.035-19.42-.644-5.334-2.342-10.292-5.854-14.487-.71-.848-1.231-1.732-1.315-2.888-.131-1.816-1.063-3.09-2.833-3.696-1.842-.631-3.631-1.554-5.524-1.873-4.988-.838-10.001-1.639-15.037-2.048-7.376-.598-14.758-.21-22.094.798-4.094.563-8.117 1.436-11.984 2.946-1.374.536-2.637 1.359-2.534 2.892.126 1.874-.827 3.022-1.79 4.401-1.142 1.636-2.155 3.474-2.716 5.374a29.562 29.562 0 0 0-1.198 7.248c-.329 9.257-.477 18.52-.682 27.366.221 9.831.414 19.238.652 28.644.111 4.412 1.454 8.231 5.338 10.834.597.401.995 1.207 1.306 1.906.933 2.094 2.422 3.613 4.535 4.438 1.34.523 2.736.977 4.148 1.228 11.281 2.001 22.604 2.303 33.897.253 4.183-.759 8.296-1.983 12.375-3.214 3.444-1.039 6.025-3.105 6.706-6.948.088-.498.506-1.121.945-1.344 2.935-1.493 3.936-4.043 4.19-7.11.449-5.406 1.163-10.797 1.394-16.211.271-6.354.436-12.742.11-19.089zm-62.428-40.514c4.342-.741 8.673-1.623 13.046-2.082 10.283-1.077 20.516-.441 30.652 1.562 1.956.387 3.844 1.113 5.764 1.683l.003.561c-.71.261-1.406.571-2.131.776-4.687 1.325-9.495 1.925-14.337 2.199-2.123.12-4.256.066-6.387.039a85.517 85.517 0 0 0 2.707-.518 4.592 4.592 0 0 0 1.396-.57c1.507-.917 1.577-2.355.071-3.237-.984-.577-2.096-.995-3.202-1.295-5.589-1.513-11.169-1.125-16.739.18-1.046.245-1.668.791-1.783 1.878-.12 1.132.538 1.74 1.455 2.158.578.263 1.177.482 1.74.811-5.015-.466-10.013-.974-14.778-3.342.839-.273 1.661-.655 2.523-.803zm23.668 2.992v-3.024c2.096.283 4.328.627 6.579 2.039-2.258 1.409-4.487.865-6.579.985zm-28.661-.929c.352.022.595-.027.773.059 5.396 2.587 11.241 3.315 17.072 3.753 5.978.448 11.999.588 17.994.481 6.663-.119 13.278-.916 19.618-3.203.198-.072.418-.084.62-.122.948 1.544.98 1.895-.444 2.448-2.554.991-5.157 1.9-7.804 2.596-8.12 2.134-16.425 2.703-24.764 2.233-6.727-.38-13.354-1.589-19.746-3.842-.748-.264-1.501-.543-2.202-.911-1.573-.826-1.761-1.432-1.117-3.492zm57.036 85.778c-1.272.802-2.607 1.586-4.02 2.068-11.109 3.794-22.546 4.994-34.212 3.988-3.953-.341-7.892-.9-11.818-1.487-1.188-.178-2.386-.65-3.445-1.232-.962-.529-1.741-1.391-2.602-2.106l.298-.396c19.613 5.864 38.748 4.572 57.601-3.807-.176 1.262-.761 2.315-1.802 2.972zm9.11-35.807c-.17 8.319-.792 16.608-1.974 24.852-.278 1.939-1.198 3.295-2.841 4.359-5.225 3.382-10.895 5.686-16.934 7.057-13.02 2.957-26.054 3.557-39.038-.205a30.391 30.391 0 0 1-5.617-2.254c-3.3-1.729-5.224-4.505-5.498-8.288-.214-2.956-.492-5.915-.524-8.875-.09-8.392-.104-16.785-.078-25.178.022-7.158.036-14.32.268-21.473.098-3.014.58-6.045 1.197-9.004.552-2.646 1.975-4.921 3.861-6.578 19.645 7.606 39.022 7.297 58.677.232 2.466 2.586 4.253 5.871 5.129 9.573.697 2.944 1.129 5.961 1.526 8.966 1.177 8.899 2.029 17.828 1.846 26.816z" style="fill:#443731"/><path d="M395.165 425.97c-2.039-1.546-3.006-3.693-3.225-6.151-.217-2.439-.23-4.896-.354-7.344-.033-.659.244-1.497-.899-1.759-.143.217-.395.428-.417.661-.116 1.222-.262 2.451-.236 3.673.064 2.963.197 5.929 1.384 8.717.673 1.578 1.811 2.781 3.209 3.721.249.167.753-.044 1.139-.081-.046-.328-.047-.672-.154-.978-.062-.183-.276-.329-.447-.459zM391.338 406.595c-.028-5.284-.067-10.567-.152-15.85-.006-.383-.386-.761-.592-1.141l-.501.144c-.11.256-.317.512-.314.767.052 5.282.113 10.565.228 15.846.008.358.457.707.861 1.291.262-.572.471-.815.47-1.057zM390.686 385.341l.607-.147c.01-1.696.025-3.392.028-5.088.007-4.149.005-4.149-.804-5.145-.215.4-.562.748-.562 1.095.003 2.938.06 5.877.143 8.814.005.163.384.315.588.471zM407.132 391.808c-2.009.008-3.439 1.505-3.46 3.621-.021 2.088 1.485 3.505 3.765 3.542 2.141.035 3.619-1.345 3.625-3.384.005-1.988-1.866-3.787-3.93-3.779zm1.451 3.559c-.25-.17-.491-.427-.593-.705-.043-.118.265-.365.506-.671.287.415.52.664.621.958.026.077-.471.461-.534.418zM437.977 395.429c-.021 2.088 1.485 3.505 3.765 3.542 2.141.035 3.619-1.345 3.625-3.384.005-1.987-1.866-3.787-3.93-3.779-2.009.008-3.439 1.505-3.46 3.621zm4.825-1.437c.287.415.52.664.621.958.026.076-.471.46-.534.418-.25-.17-.491-.427-.593-.705-.044-.118.264-.365.506-.671zM428.405 399.412c-.204.191-.371.425-.539.651-1.47 1.968-2.866 2.026-4.573.218-.307-.325-.712-.556-1.155-.894-.296 1.557.189 2.468 1.555 3.23 1.499.837 3.489.549 4.757-.774.682-.711 1.322-1.52.492-2.536-.27.048-.452.025-.537.105zM54.682 266.009c.443-2.861-.483-5.602.365-8.18 1.629-.526 2.522.361 3.473 1.244 1.184 1.1 2.355 2.78 3.708 2.973 1.326.188 2.858-1.211 4.327-1.849 1.409-.611 2.822-1.269 4.3-1.643.647-.164 1.655.129 2.127.592.305.3.141 1.4-.164 1.945-1.327 2.373-2.79 4.669-4.187 7.004-.366.612-.672 1.26-1.055 1.985 1.189.972 2.405 1.786 3.392 2.82 1.24 1.3 2.521 2.655 3.366 4.213 1.082 1.993-.009 3.444-2.25 3.179-1.885-.223-3.748-.661-5.608-1.063-2.365-.512-4.131-.058-5.442 2.284-1.049 1.873-2.62 3.459-4.006 5.134-.457.552-1.003 1.073-1.605 1.454-1.28.81-2.453.258-2.442-1.242.011-1.437.318-2.877.554-4.306.395-2.395.837-4.783 1.285-7.318-2.108-.897-4.026-1.665-5.901-2.529-1.063-.49-2.155-1.012-3.054-1.741-1.2-.973-.943-2.172.543-2.641 1.552-.49 3.176-.745 4.749-1.173 1.207-.331 2.383-.768 3.525-1.142zm-6.515 4.14c2.569 1.051 4.541 1.924 6.561 2.661 1.52.554 2.187 1.542 1.986 3.113-.172 1.349-.392 2.692-.602 4.035-.24 1.538-.491 3.075-.738 4.612l.611.235c1.288-1.717 2.736-3.34 3.823-5.176 1.357-2.294 3.212-3.055 5.718-2.618.893.156 1.786.314 2.681.463 1.293.215 2.587.422 3.88.632-.512-1.415-1.231-2.44-2.121-3.283-1.051-.995-2.263-1.817-3.383-2.741-1.523-1.258-1.618-1.714-.7-3.481.376-.724.838-1.403 1.259-2.103l3.14-5.22c-.612 0-.91-.088-1.112.014a87.657 87.657 0 0 0-3.845 2.04c-2.879 1.641-3.775 1.558-6.25-.691-.692-.629-1.364-1.281-2.397-2.253 0 1.783-.02 2.946.004 4.108.056 2.748-.084 3.016-2.706 3.911-1.7.579-3.442 1.037-5.809 1.742zM345.017 219.755c-2.645-1.178-5.532-1.003-7.799-2.497-.08-1.71 1.01-2.339 2.111-3.025 1.372-.855 3.301-1.544 3.841-2.799.529-1.23-.42-3.075-.65-4.66-.22-1.52-.485-3.056-.458-4.58.012-.667.558-1.563 1.129-1.897.37-.216 1.387.231 1.833.668 1.942 1.903 3.775 3.917 5.661 5.877.495.514 1.04.979 1.639 1.538 1.25-.892 2.354-1.853 3.61-2.534 1.579-.856 3.223-1.736 4.948-2.144 2.206-.521 3.321.912 2.478 3.005-.709 1.761-1.62 3.443-2.496 5.133-1.114 2.148-1.139 3.971.777 5.85 1.532 1.503 2.651 3.435 3.904 5.211.413.586.772 1.249.982 1.93.446 1.448-.394 2.435-1.839 2.031-1.384-.387-2.693-1.062-4.01-1.664-2.208-1.009-4.396-2.061-6.726-3.158-1.418 1.799-2.663 3.449-3.987 5.031-.751.898-1.542 1.814-2.481 2.491-1.254.903-2.343.341-2.406-1.216-.066-1.626.113-3.26.113-4.891.001-1.25-.113-2.499-.174-3.7zm2.287 7.373c1.688-2.204 3.047-3.877 4.288-5.634.933-1.322 2.061-1.706 3.525-1.1 1.257.52 2.495 1.084 3.736 1.639 1.422.635 2.838 1.28 4.257 1.921l.387-.528c-1.32-1.693-2.505-3.516-3.993-5.046-1.858-1.911-2.106-3.901-1.028-6.204.384-.821.771-1.641 1.149-2.465.546-1.191 1.085-2.386 1.627-3.579-1.5.124-2.677.548-3.725 1.187-1.236.753-2.347 1.708-3.532 2.546-1.613 1.14-2.078 1.112-3.543-.237-.6-.552-1.134-1.176-1.699-1.766l-4.214-4.399c-.16.59-.323.855-.278 1.077.292 1.421.598 2.841.961 4.245.829 3.208.514 4.051-2.305 5.85-.789.503-1.594.981-2.802 1.723 1.721.467 2.838.791 3.965 1.073 2.666.667 2.889.872 3.065 3.637.114 1.79.099 3.591.159 6.06zM100.706 323.804c-3.36.033-6.162-2.447-6.219-5.505-.055-2.975 2.431-5.264 5.671-5.219 3.371.046 6.108 2.602 6.069 5.667-.036 2.872-2.388 5.026-5.521 5.057zm-.046-2.268c1.946-.018 3.254-1.153 3.273-2.84.021-1.892-1.714-3.422-3.848-3.393-1.886.026-3.282 1.237-3.306 2.868-.028 1.866 1.724 3.385 3.881 3.365zM121.941 283.074c-2.483 2.264-6.225 2.283-8.306.04-2.024-2.181-1.695-5.545.749-7.671 2.544-2.212 6.288-2.131 8.302.18 1.888 2.167 1.57 5.34-.745 7.451zm-1.546-1.661c1.439-1.311 1.658-3.028.547-4.299-1.245-1.425-3.559-1.409-5.13.035-1.389 1.277-1.622 3.109-.553 4.342 1.223 1.411 3.541 1.375 5.136-.078zM427.097 323.43c-2.483 2.264-6.225 2.282-8.306.04-2.024-2.181-1.695-5.545.749-7.671 2.544-2.212 6.288-2.131 8.302.18 1.888 2.167 1.57 5.34-.745 7.451zm-1.546-1.661c1.439-1.311 1.657-3.028.547-4.299-1.245-1.425-3.559-1.409-5.13.035-1.389 1.277-1.622 3.109-.553 4.342 1.223 1.411 3.541 1.376 5.136-.078zM443.708 298.791c-2.483 2.264-6.225 2.283-8.306.04-2.024-2.181-1.695-5.545.749-7.671 2.544-2.212 6.288-2.131 8.302.18 1.888 2.167 1.57 5.34-.745 7.451zm-1.546-1.661c1.439-1.311 1.658-3.028.547-4.299-1.245-1.425-3.559-1.409-5.13.035-1.389 1.277-1.622 3.109-.553 4.342 1.223 1.411 3.54 1.375 5.136-.078z" style="fill:#443731"/></svg>