<svg xmlns="http://www.w3.org/2000/svg" viewBox="0 0 87 94" fill="none"> <path d="M79.75 7.230775H68.875V3.615375C68.875 2.656525 68.493 1.7369375 67.81325 1.0589225C67.1335 0.380905 66.2115 0 65.25 0C64.2885 0 63.3665 0.380905 62.68675 1.0589225C62.007 1.7369375 61.625 2.656525 61.625 3.615375V7.230775H25.375V3.615375C25.375 2.656525 24.993075 1.7369375 24.31325 1.0589225C23.63345 0.380905 22.7114 0 21.75 0C20.7886 0 19.86655 0.380905 19.18675 1.0589225C18.506925 1.7369375 18.125 2.656525 18.125 3.615375V7.230775H7.25C5.327175 7.230775 3.483125 7.992575 2.123475 9.3486C0.7638375 10.70465 0 12.543825 0 14.46155V86.76925C0 88.687 0.7638375 90.526 2.123475 91.88225C3.483125 93.23825 5.327175 94 7.25 94H79.75C81.67275 94 83.517 93.23825 84.8765 91.88225C86.23625 90.526 87 88.687 87 86.76925V14.46155C87 12.543825 86.23625 10.70465 84.8765 9.3486C83.517 7.992575 81.67275 7.230775 79.75 7.230775ZM62.37725 53.17325L40.62725 74.8655C40.2905 75.20175 39.89075 75.4685 39.45075 75.65025C39.0105 75.83225 38.539 75.926 38.0625 75.926C37.586 75.926 37.1145 75.83225 36.67425 75.65025C36.23425 75.4685 35.8345 75.20175 35.49775 74.8655L24.6228 64.0195C23.942625 63.341 23.560475 62.421 23.560475 61.4615C23.560475 60.50225 23.942625 59.582 24.6228 58.90375C25.303 58.22525 26.2255 57.84425 27.1875 57.84425C28.1495 57.84425 29.072 58.22525 29.75225 58.90375L38.0625 67.1965L57.24775 48.0575C57.5845 47.7215 57.9845 47.45525 58.4245 47.27325C58.8645 47.0915 59.33625 46.998 59.8125 46.998C60.28875 46.998 60.7605 47.0915 61.2005 47.27325C61.6405 47.45525 62.0405 47.7215 62.37725 48.0575C62.714 48.3935 62.98125 48.79225 63.1635 49.231C63.34575 49.67 63.4395 50.14025 63.4395 50.6155C63.4395 51.0905 63.34575 51.56075 63.1635 51.99975C62.98125 52.4385 62.714 52.83725 62.37725 53.17325ZM7.25 28.923V14.46155H18.125V18.076925C18.125 19.035775 18.506925 19.955375 19.18675 20.633375C19.86655 21.3114 20.7886 21.6923 21.75 21.6923C22.7114 21.6923 23.63345 21.3114 24.31325 20.633375C24.993075 19.955375 25.375 19.035775 25.375 18.076925V14.46155H61.625V18.076925C61.625 19.035775 62.007 19.955375 62.68675 20.633375C63.3665 21.3114 64.2885 21.6923 65.25 21.6923C66.2115 21.6923 67.1335 21.3114 67.81325 20.633375C68.493 19.955375 68.875 19.035775 68.875 18.076925V14.46155H79.75V28.923H7.25Z" fill="url(#paint0_linear_25320_91081)"></path> <defs> <linearGradient id="paint0_linear_25320_91081" x1="348.617" y1="-1.13959e-05" x2="-65.8978" y2="278.586" gradientUnits="userSpaceOnUse"> <stop stop-color="#1A1A22"></stop> <stop offset="0.477774" stop-color="#9799A6"></stop> <stop offset="1" stop-color="#1A1A22"></stop> </linearGradient> </defs> </svg>