<svg xmlns="http://www.w3.org/2000/svg" viewBox="5606.35302734375 4940.662109375 74.00244140625 32.419921875"> <path fill="url(#tSvgGradientddddf8a9cd)" stroke="none" fill-opacity="1" stroke-width="1" stroke-opacity="1" clip-rule="evenodd" fill-rule="evenodd" id="tSvgf498ea15d1" d="M 5641.442741176471 4943.731998235294 C 5641.585741176471 4946.3719949019605 5641.728741176471 4949.011991568627 5641.871741176471 4951.651988235294 C 5646.953741176471 4951.651988235294 5652.035741176471 4951.651988235294 5657.117741176471 4951.651988235294 C 5654.094741176471 4949.011991568627 5651.071741176471 4946.3719949019605 5648.048741176472 4943.731998235294C 5645.846741176471 4943.731998235294 5643.644741176471 4943.731998235294 5641.442741176471 4943.731998235294Z M 5628.923741176472 4951.651988235294 C 5632.385741176471 4951.651988235294 5635.847741176472 4951.651988235294 5639.309741176471 4951.651988235294 C 5639.308741176471 4949.011991568627 5639.307741176472 4946.3719949019605 5639.306741176471 4943.731998235294 C 5637.0527411764715 4943.731998235294 5634.798741176472 4943.731998235294 5632.544741176471 4943.731998235294C 5631.337741176471 4946.3719949019605 5630.130741176471 4949.011991568627 5628.923741176472 4951.651988235294Z M 5622.032741176471 4951.651988235294 C 5623.096741176471 4951.651988235294 5624.160741176471 4951.651988235294 5625.224741176471 4951.651988235294 C 5626.814741176471 4949.011991568627 5628.404741176471 4946.3719949019605 5629.9947411764715 4943.731998235294 C 5629.354741176471 4943.731998235294 5628.714741176471 4943.731998235294 5628.074741176471 4943.731998235294C 5626.060741176471 4946.3719949019605 5624.046741176471 4949.011991568627 5622.032741176471 4951.651988235294Z M 5677.064741176471 4956.397988235293 C 5677.2447411764715 4956.975988235294 5677.424741176471 4957.553988235294 5677.604741176471 4958.131988235294 C 5677.605741176471 4958.131988235294 5677.606741176472 4958.131988235294 5677.607741176471 4958.131988235294 C 5677.8796411764715 4958.132688235293 5678.147741176471 4958.196488235294 5678.390841176471 4958.318288235294 C 5678.633941176471 4958.440088235294 5678.8454411764715 4958.616588235293 5679.008741176471 4958.833988235294 C 5679.007741176471 4958.832988235294 5679.006741176471 4958.8319882352935 5679.005741176471 4958.830988235293 C 5679.169041176471 4959.0491882352935 5679.279241176471 4959.302388235294 5679.327641176471 4959.570588235294 C 5679.376141176471 4959.838688235293 5679.361441176471 4960.114488235294 5679.2847411764715 4960.375988235293 C 5679.086741176471 4961.0419882352935 5678.888741176471 4961.707988235294 5678.690741176471 4962.373988235294 C 5678.687741176471 4962.385988235294 5678.684741176471 4962.397988235293 5678.681741176471 4962.409988235294 C 5678.045741176471 4964.509988235293 5676.095741176471 4966.036988235293 5673.788741176471 4966.036988235293 C 5673.330741176471 4966.036988235293 5672.872741176471 4966.036988235293 5672.414741176472 4966.036988235293 C 5672.414741176472 4963.923788235294 5671.575341176471 4961.897088235293 5670.081041176471 4960.402788235294 C 5668.586741176471 4958.908488235294 5666.557041176471 4958.068988235294 5664.443741176471 4958.068988235294 C 5662.330541176471 4958.068988235294 5660.303841176471 4958.908488235294 5658.809541176472 4960.402788235294 C 5657.315241176471 4961.897088235293 5656.475741176471 4963.923788235294 5656.475741176471 4966.036988235293 C 5647.649741176471 4966.036988235293 5638.823741176471 4966.036988235293 5629.997741176471 4966.036988235293 C 5630.018341176471 4964.977788235294 5629.827441176471 4963.925188235294 5629.436341176472 4962.940588235294 C 5629.045241176471 4961.9560882352935 5628.461741176471 4961.059388235294 5627.719941176471 4960.303088235294 C 5626.978141176472 4959.546788235294 5626.092941176471 4958.945988235294 5625.1161411764715 4958.535788235294 C 5624.139441176471 4958.125688235294 5623.090641176471 4957.914388235294 5622.031241176471 4957.914388235294 C 5620.971941176471 4957.914388235294 5619.923141176471 4958.125688235294 5618.946341176471 4958.535788235294 C 5617.969641176471 4958.945988235294 5617.084451176471 4959.546788235294 5616.342651176471 4960.303088235294 C 5615.600861176471 4961.059388235294 5615.017331176471 4961.9560882352935 5614.626211176471 4962.940588235294 C 5614.2350911764715 4963.925188235294 5614.044221176471 4964.977788235294 5614.064781176471 4966.036988235293 C 5613.510781176471 4966.036988235293 5612.956781176471 4966.036988235293 5612.402781176471 4966.036988235293 C 5611.425081176471 4966.035188235293 5610.472581176471 4965.7267882352935 5609.679331176471 4965.1552882352935 C 5608.886091176471 4964.583688235293 5608.292031176471 4963.777788235294 5607.980777176471 4962.850988235294 C 5607.800777076472 4962.311988235294 5607.6207769764715 4961.772988235293 5607.440776876471 4961.2339882352935 C 5607.4417768764715 4961.237988235293 5607.442776876471 4961.241988235293 5607.443776876471 4961.245988235294 C 5607.355638156471 4960.989988235294 5607.331157376471 4960.716288235294 5607.372449276471 4960.448688235294 C 5607.413741176471 4960.181088235294 5607.519564176471 4959.927588235294 5607.680777176472 4959.709988235294 C 5607.681777176471 4959.707988235294 5607.682777176471 4959.705988235293 5607.683777176471 4959.703988235294 C 5607.8391761764715 4959.488088235294 5608.043781176471 4959.312388235294 5608.280638176471 4959.191388235294 C 5608.517491176472 4959.070288235293 5608.779781176471 4959.007488235294 5609.045781176471 4959.007988235294 C 5609.0487811764715 4959.007988235294 5609.051781176471 4959.007988235294 5609.054781176471 4959.007988235294 C 5609.346781176471 4957.748988235294 5609.638781176471 4956.489988235294 5609.930781176471 4955.230988235294 C 5609.9327811764715 4955.221988235294 5609.934781176471 4955.212988235294 5609.936781176471 4955.203988235294 C 5610.124121176471 4954.432888235294 5610.545201176471 4953.738588235294 5611.142381176471 4953.216088235294 C 5611.739561176471 4952.693488235293 5612.4836511764715 4952.368288235294 5613.272781176471 4952.284988235294 C 5615.226767843138 4952.084988235294 5617.1807545098045 4951.884988235293 5619.134741176471 4951.6849882352935 C 5620.988741176471 4949.077991568627 5622.8427411764715 4946.470994901961 5624.696741176471 4943.863998235293 C 5624.700741176471 4943.858998235293 5624.7047411764715 4943.853998235294 5624.708741176471 4943.848998235294 C 5625.6597411764715 4942.525998235294 5627.213741176472 4941.662001235293 5628.968741176471 4941.662001235293 C 5635.212741176471 4941.662001235293 5641.456741176471 4941.662001235293 5647.700741176471 4941.662001235293 C 5648.906441176471 4941.659977235294 5650.072941176471 4942.089956235293 5650.988741176471 4942.873998235294 C 5654.096741176471 4945.519998235293 5657.2047411764715 4948.165998235294 5660.312741176471 4950.811998235294 C 5664.574741176471 4951.52199490196 5668.836741176471 4952.231991568627 5673.098741176471 4952.941988235294 C 5673.108741176471 4952.942988235293 5673.118741176471 4952.943988235294 5673.1287411764715 4952.944988235294 C 5674.037941176472 4953.1053882352935 5674.885641176471 4953.512188235293 5675.5797411764715 4954.121088235293C 5676.273741176471 4954.729888235293 5676.787341176471 4955.517488235294 5677.064741176471 4956.397988235293Z M 5663.456041176471 4968.436888235294 C 5663.770041176471 4968.567288235294 5664.106541176471 4968.634688235294 5664.446541176471 4968.635088235294 C 5665.1332411764715 4968.635888235293 5665.792041176471 4968.363888235293 5666.278141176471 4967.878888235294 C 5666.764241176471 4967.393888235294 5667.037741176471 4966.735688235293 5667.038541176471 4966.049088235293 C 5667.039341176471 4965.362388235294 5666.767341176471 4964.703588235294 5666.282441176471 4964.217488235294 C 5665.797441176471 4963.731388235294 5665.139241176471 4963.4578882352935 5664.452541176471 4963.457088235294 C 5664.1125411764715 4963.456688235294 5663.775841176471 4963.523288235294 5663.461541176471 4963.652988235293 C 5663.147341176471 4963.782788235294 5662.8616411764715 4963.973088235293 5662.621041176471 4964.2132882352935 C 5662.380341176471 4964.4533882352935 5662.189241176471 4964.738588235294 5662.058841176471 4965.052488235294 C 5661.928341176471 4965.366488235294 5661.860941176471 4965.703088235294 5661.860541176471 4966.043088235294 C 5661.860141176471 4966.383088235294 5661.926741176471 4966.719788235294 5662.056541176471 4967.034088235294 C 5662.186241176471 4967.348288235294 5662.376641176471 4967.633988235294 5662.616741176471 4967.874688235293C 5662.856841176471 4968.115388235294 5663.142041176471 4968.3063882352935 5663.456041176471 4968.436888235294Z M 5662.1341411764715 4960.456788235294 C 5662.867141176471 4960.1525882352935 5663.652941176471 4959.9956882352935 5664.446541176471 4959.995088235294 C 5666.049441176471 4959.993488235294 5667.584241176472 4960.628688235293 5668.718741176471 4961.760888235293 C 5669.853241176471 4962.893188235294 5670.491441176471 4964.429688235294 5670.493041176471 4966.032588235294 C 5670.494641176471 4967.635388235293 5669.859441176472 4969.173188235293 5668.727241176472 4970.307688235293 C 5667.594941176471 4971.4421882352935 5666.058441176471 4972.080488235294 5664.455541176471 4972.082088235294 C 5663.661941176471 4972.082688235294 5662.875941176471 4971.9268882352935 5662.142441176471 4971.623788235293 C 5661.409041176471 4971.320588235294 5660.742441176471 4970.875888235294 5660.180841176471 4970.315188235294 C 5659.619241176471 4969.754388235294 5659.173541176471 4969.088488235294 5658.869341176472 4968.355488235294 C 5658.565041176471 4967.6224882352935 5658.408141176471 4966.836688235294 5658.407541176472 4966.043088235294 C 5658.406941176471 4965.249388235294 5658.562741176471 4964.463488235294 5658.865841176471 4963.729988235294 C 5659.169041176471 4962.996488235293 5659.613741176471 4962.329988235294 5660.174441176471 4961.768388235294C 5660.735241176471 4961.206788235294 5661.401141176471 4960.761088235294 5662.1341411764715 4960.456788235294Z M 5620.2838411764715 4967.834288235294 C 5620.743241176471 4968.3162882352935 5621.370441176471 4968.603088235293 5622.035541176471 4968.635088235294 C 5622.7222411764715 4968.635088235294 5623.380741176471 4968.362288235294 5623.866241176471 4967.876788235294 C 5624.351841176471 4967.391288235293 5624.624541176471 4966.732688235294 5624.624541176471 4966.046088235294 C 5624.624541176471 4965.359388235293 5624.351841176471 4964.700888235294 5623.866241176471 4964.215388235294 C 5623.380741176471 4963.729888235293 5622.7222411764715 4963.457088235294 5622.035541176471 4963.457088235294 C 5621.370441176471 4963.489088235294 5620.743241176471 4963.775888235294 5620.2838411764715 4964.257888235294 C 5619.824441176471 4964.739888235294 5619.568241176471 4965.380188235294 5619.568241176471 4966.046088235294C 5619.568241176471 4966.711888235293 5619.824441176471 4967.352288235294 5620.2838411764715 4967.834288235294Z M 5618.678841176471 4961.013288235294 C 5619.672441176471 4960.349388235294 5620.840541176472 4959.995088235294 5622.035541176471 4959.995088235294 C 5622.033541176471 4959.994088235294 5622.031541176471 4959.993088235294 5622.029541176471 4959.9920882352935 C 5622.031541176471 4959.9920882352935 5622.033541176471 4959.9920882352935 5622.035541176471 4959.9920882352935 C 5623.638041176471 4959.9920882352935 5625.174841176471 4960.628588235294 5626.307941176471 4961.761688235294 C 5627.441041176471 4962.894788235294 5628.077541176471 4964.431588235294 5628.077541176471 4966.034088235294 C 5628.077541176471 4966.035088235294 5628.077541176471 4966.036088235293 5628.077541176471 4966.037088235294 C 5628.077541176471 4967.232088235293 5627.723241176471 4968.400188235294 5627.059341176471 4969.393788235294 C 5626.395441176471 4970.387388235294 5625.451741176471 4971.161888235294 5624.347741176472 4971.619188235294 C 5623.243741176471 4972.076488235293 5622.028841176471 4972.196088235293 5620.856841176471 4971.962988235294 C 5619.684841176471 4971.729888235293 5618.608241176471 4971.1543882352935 5617.763241176471 4970.309388235294 C 5616.918241176471 4969.464388235294 5616.342791176471 4968.387888235294 5616.1096611764715 4967.215788235294 C 5615.876531176471 4966.0437882352935 5615.9961811764715 4964.828888235294 5616.453491176471 4963.724888235293C 5616.910791176471 4962.620888235294 5617.685241176471 4961.677188235294 5618.678841176471 4961.013288235294Z"></path> <defs> <linearGradient id="tSvgGradientddddf8a9cd" x1="5607.352941176471" x2="5628.432741176472" y1="4941.661994235294" y2="4984.717188235294" gradientUnits="userSpaceOnUse"> <stop offset="0.312143" stop-color="hsl(230.68800000000002,92.81%,72.75%)" stop-opacity="1"></stop> <stop offset="0.842143" stop-color="hsl(287.892,92.81%,72.75%)" stop-opacity="1"></stop> </linearGradient> </defs> </svg>