<svg xmlns="http://www.w3.org/2000/svg" xml:space="preserve" viewBox="0 0 525.113 610.842" fill="white">
	<path d="m474.478 29.774.005.005c-38.657-22.355-86.607-16.961-119.33 13.422-6.339 5.889-9.418 14.207-8.443 22.825.975 8.583 5.804 15.972 13.257 20.271l36.784 21.235-9.644 16.715c-31.272-19.145-66.722-30.864-103.204-34.111v-47.49h20.666c11.758 0 21.321-9.563 21.321-21.321S316.327 0 304.569 0h-84.012c-11.758 0-21.321 9.568-21.321 21.326s9.563 21.321 21.321 21.321h20.706v47.489c-36.488 3.246-71.943 14.971-103.215 34.115l-9.679-16.723 36.775-21.23c7.473-4.309 12.317-11.713 13.287-20.316.975-8.603-2.095-16.906-8.423-22.78-32.734-30.39-80.704-35.784-119.376-13.428C11.94 52.139-7.366 96.385 2.592 139.881c1.93 8.428 7.588 15.242 15.522 18.691 3.479 1.515 7.134 2.27 10.773 2.27 4.644 0 9.263-1.225 13.452-3.649l40.057-23.125 13.331 23.114C49.42 202.428 23.913 262.803 23.913 327.728c0 65.229 27.031 127.94 74.195 172.793l-41.002 71.016c-3.509 6.059-4.439 13.127-2.619 19.896 1.815 6.759 6.154 12.412 12.232 15.927 4.114 2.359 8.608 3.484 13.037 3.484 9.078 0 17.896-4.704 22.71-13.092l37.672-65.196c36.913 22.12 79.108 33.817 122.415 33.817 43.34 0 85.553-11.697 122.468-33.816l37.628 65.2c4.849 8.383 13.692 13.077 22.77 13.077 4.429 0 8.918-1.12 13.027-3.474l.015-.01c6.059-3.504 10.388-9.163 12.192-15.927 1.8-6.764.86-13.827-2.644-19.881l-41.005-70.973c47.202-44.895 74.248-107.619 74.248-172.841 0-64.979-25.527-125.375-71.864-170.599l13.323-23.064 40.055 23.123c4.194 2.429 8.813 3.654 13.457 3.654 3.639 0 7.293-.755 10.773-2.27 7.933-3.449 13.592-10.263 15.522-18.696 9.963-43.516-9.343-87.767-48.04-110.102m-265.004-8.448c0-6.114 4.974-11.088 11.083-11.088h84.012c6.109 0 11.083 4.974 11.083 11.088 0 6.109-4.974 11.083-11.083 11.083h-84.012c-6.109-.001-11.083-4.975-11.083-11.083m43.058 67.996c-.351.015-.68.008-1.032.025V42.651h22.165v46.695c-.394-.019-.761-.011-1.152-.027-3.273-.137-6.502-.227-9.695-.231-.087 0-.178-.006-.266-.006-.043 0-.088.003-.131.003-3.269.001-6.56.095-9.889.237M37.215 148.329c-4.639 2.679-10.113 2.984-15.017.86-4.919-2.145-8.428-6.369-9.628-11.593-8.943-39.087 8.408-78.853 43.186-98.959 14.292-8.263 29.994-12.307 45.58-12.307 22.315 0 44.386 8.293 61.702 24.37 3.924 3.644 5.824 8.793 5.219 14.132s-3.604 9.928-8.233 12.597l-58.923 34.017-23.83 13.738.008.015zm63.972-25.11 18.321-10.562 9.858 17.036c-.561.378-1.088.81-1.646 1.193-3.651 2.502-7.249 5.09-10.765 7.8-.382.294-.776.567-1.156.864-3.814 2.977-7.513 6.102-11.142 9.307-.42.371-.873.704-1.29 1.078L91.263 128.95zm-7.594 469.422c-4.364 7.603-14.137 10.213-21.765 5.849-7.638-4.419-10.268-14.212-5.859-21.83l39.842-69.006c.387.339.809.642 1.199.978 3.587 3.099 7.251 6.122 11.039 9.009.358.273.731.524 1.09.795 3.469 2.612 7.027 5.111 10.644 7.531.563.377 1.091.8 1.658 1.173zm359.745 5.844c-7.638 4.384-17.431 1.745-21.825-5.854l-37.802-65.496c.566-.373 1.088-.79 1.65-1.168 3.581-2.4 7.093-4.869 10.508-7.433.436-.327.889-.634 1.322-.964 3.735-2.845 7.33-5.804 10.84-8.828.413-.356.865-.68 1.275-1.039l39.842 68.961c4.408 7.624 1.803 17.412-5.81 21.821m37.677-270.759c0 63.742-26.934 125.039-73.92 168.19-9.958 9.223-21.056 17.711-32.983 25.225-36.332 22.89-78.369 34.993-121.56 34.993-43.156 0-85.172-12.102-121.515-34.998-11.808-7.408-22.92-15.912-33.038-25.285-46.935-43.101-73.85-104.383-73.85-168.125 0-63.442 25.39-122.389 71.495-165.975 10.283-9.728 21.5-18.521 33.343-26.135 32.258-20.766 69.515-33.128 107.737-35.743 5.429-.37 10.753-.555 15.827-.555 5.129 0 10.323.18 15.882.555 38.222 2.609 75.474 14.972 107.737 35.743 11.863 7.628 23.065 16.402 33.293 26.085l.005.005c46.137 43.566 71.547 102.524 71.547 166.02m-69.266-177.837c-.402-.36-.84-.681-1.244-1.039-3.614-3.192-7.301-6.306-11.108-9.277-.445-.348-.909-.668-1.357-1.013-3.469-2.668-7.019-5.221-10.626-7.692-.553-.379-1.074-.806-1.63-1.18l9.823-17.031 14.49 8.353 13.749 7.937zm90.791-12.298c-1.2 5.229-4.709 9.453-9.628 11.598-4.909 2.125-10.378 1.82-15.022-.865l-40.057-23.125.006-.01-17.393-10.027-65.36-37.733c-4.609-2.659-7.598-7.233-8.203-12.552-.605-5.354 1.305-10.523 5.239-14.177 17.316-16.072 39.372-24.36 61.677-24.36 15.577 0 31.278 4.044 45.555 12.297l.005.005c34.778 20.076 52.135 59.842 43.181 98.949"/>
	<path d="M431.172 230.171c-1.251-2.156-2.549-4.159-3.839-6.188-.642-1.011-1.25-2.083-1.904-3.069-.019-.029-.04-.057-.058-.085l-2.646-3.974-.057.033c-5.573-8.067-11.8-15.805-18.634-22.998-9.167-9.73-19.514-18.515-30.714-26.268l.076-.132-4.034-2.649c-5.939-3.899-12.387-7.628-19.171-11.083l-4.339-2.21-.073.127c-21.185-10.076-43.758-16.12-67.293-18.015v-.138l-4.658-.24c-.084-.005-.167-.016-.251-.02-.76-.033-1.527-.024-2.288-.05-6.09-.247-12.172-.249-18.249.021-.525.02-1.043.011-1.568.035-.071.004-.141.013-.212.017l-4.617.238v.137c-23.548 1.888-46.138 7.939-67.294 18.031l-.082-.142-4.334 2.21c-6.799 3.464-13.252 7.193-19.171 11.083l-4.034 2.649.082.144c-11.196 7.725-21.549 16.504-30.726 26.251-6.986 7.406-13.203 15.15-18.61 23.011l-.071-.041-2.659 3.994c-.267.401-.518.854-.783 1.26-1.576 2.394-3.14 4.89-4.705 7.567-.239.41-.471.832-.709 1.246-1.652 2.874-3.31 5.897-4.996 9.164-.045.089-.082.18-.127.268l-2.052 4.026.114.066c-10.07 21.211-16.113 43.827-17.996 67.375h-.145l-.255 4.854c-.19 3.624-.315 7.378-.315 11.068 0 3.694.125 7.443.315 11.068l.255 4.854h.147c1.885 23.554 7.92 46.163 17.988 67.382l-.109.063 1.967 3.859c.082.162.151.329.232.491 1.026 1.986 2.125 3.903 3.2 5.844 1.167 2.115 2.352 4.205 3.591 6.273 1.408 2.359 2.817 4.721 4.287 6.979.112.169.234.329.346.498l2.309 3.526.1-.058c13.414 19.355 29.972 35.91 49.308 49.31l-.039.067 3.332 2.22c.219.146.427.305.647.449 5.949 3.969 12.232 7.618 19.216 11.163.023.012.047.021.069.033l4.26 2.172.071-.123c21.233 10.063 43.85 16.1 67.375 17.983v.156l4.849.26c1.802.095 3.605.1 5.408.154 1.89.068 3.781.186 5.655.186 1.834 0 3.68-.117 5.528-.182 1.851-.054 3.701-.06 5.555-.158l4.849-.26v-.157c23.516-1.884 46.126-7.917 67.368-17.984l.072.125 4.324-2.205c.001-.001.003-.002.004-.002l.006-.003c6.969-3.539 13.252-7.189 19.176-11.143.078-.052.152-.108.23-.16l3.779-2.514-.045-.078c19.341-13.405 35.89-29.952 49.313-49.31l.102.059 2.483-3.781c.06-.091.126-.177.186-.268 1.159-1.786 2.135-3.467 3.193-5.194.921-1.502 1.898-2.995 2.767-4.502 1.864-3.219 3.565-6.363 5.118-9.47.062-.122.114-.248.175-.37l1.99-3.979-.085-.049c10.064-21.235 16.097-43.831 17.979-67.302h.157l.255-4.854c.19-3.624.315-7.373.315-11.068 0-3.689-.125-7.443-.315-11.068l-.255-4.854h-.155c-1.883-23.549-7.924-46.161-17.995-67.369l.124-.072-2.205-4.324c-.959-1.883-1.975-3.644-2.968-5.458-.806-1.475-1.573-2.992-2.407-4.428m-11.777.426c.472.757.948 1.505 1.412 2.275 1.036 1.721 2.057 3.482 3.064 5.289.421.754.828 1.521 1.24 2.285l-9.401 5.443c-2.719 1.575-6.209.62-7.788-2.105-.75-1.3-.945-2.829-.55-4.304.4-1.48 1.345-2.714 2.654-3.469zm-74.974-56.014 5.391-9.382c.817.44 1.639.875 2.444 1.323 1.713.956 3.396 1.926 5.047 2.913.792.473 1.562.955 2.338 1.435l-5.407 9.404c-1.56 2.714-5.024 3.664-7.703 2.11-2.78-1.619-3.71-5.038-2.11-7.803m-87.542-31.196c1.525-.034 3.046-.09 4.571-.097q1.1325-.0075 2.265 0c1.524.007 3.021.06 4.532.094v10.773c0 3.134-2.549 5.684-5.684 5.684s-5.684-2.549-5.684-5.684zm-88.732 25.862c1.42-.845 2.863-1.677 4.331-2.5.925-.517 1.89-1.022 2.839-1.533l5.393 9.378c.765 1.325.97 2.864.57 4.344-.395 1.46-1.335 2.679-2.649 3.429l-.02.01c-2.694 1.565-6.159.61-7.718-2.09l-5.406-9.404c.879-.546 1.75-1.093 2.66-1.634m-67.959 70.745c1.627-2.995 3.305-5.873 5.013-8.645.158-.257.316-.53.475-.784l9.443 5.455c1.315.75 2.255 1.97 2.649 3.434.395 1.475.195 3.009-.565 4.329-1.585 2.729-5.079 3.669-7.783 2.11l-9.457-5.475c.074-.137.15-.287.225-.424m-22.009 93.431c-.059-1.901-.163-3.781-.163-5.699 0-1.878.103-3.77.162-5.669h10.856c3.134 0 5.684 2.549 5.684 5.684s-2.549 5.684-5.684 5.684zm27.502 91.404c-.446-.725-.896-1.442-1.336-2.177-1.034-1.717-2.038-3.453-3.019-5.205-.446-.795-.878-1.6-1.315-2.403l9.404-5.45c2.734-1.585 6.224-.665 7.773 2.02.77 1.345.975 2.894.585 4.359-.39 1.455-1.33 2.674-2.654 3.429zm75.024 56.07-5.447 9.402c-.658-.355-1.322-.71-1.968-1.067-2.104-1.169-4.155-2.356-6.143-3.563-.583-.355-1.156-.719-1.732-1.078l5.467-9.443c1.555-2.694 5.019-3.604 7.748-2.035 2.755 1.576 3.665 4.995 2.075 7.784m87.542 31.208c-.988.031-1.973.071-2.963.086q-2.7255.042-5.451 0c-.986-.015-1.969-.055-2.954-.085v-10.842c0-3.134 2.549-5.684 5.684-5.684s5.684 2.549 5.684 5.684zm89.609-26.368c-1.921 1.165-3.899 2.31-5.926 3.438-.679.376-1.377.75-2.069 1.123l-5.435-9.395c-.77-1.345-.98-2.894-.59-4.359.39-1.455 1.335-2.674 2.674-3.439.895-.52 1.875-.76 2.839-.76 1.965 0 3.889 1.005 4.939 2.789l5.43 9.444c-.618.386-1.234.777-1.862 1.159m66.174-68.7c-1.007 1.816-2.064 3.631-3.153 5.444-.463.771-.955 1.559-1.44 2.341l-9.41-5.413c-2.714-1.565-3.649-5.064-2.1-7.778 1.04-1.805 2.944-2.814 4.909-2.814.98 0 1.975.255 2.884.78l9.408 5.404c-.364.678-.718 1.353-1.098 2.036m22.902-94.981c.058 1.899.162 3.789.162 5.669 0 1.916-.104 3.797-.162 5.699h-10.845c-3.134 0-5.684-2.549-5.684-5.684s2.549-5.684 5.684-5.684zm-.575-10.238h-10.271c-8.778 0-15.922 7.143-15.922 15.922s7.143 15.922 15.922 15.922h10.268c-1.836 21.67-7.41 42.531-16.614 62.185l-8.91-5.122c-7.608-4.394-17.381-1.81-21.78 5.809-4.349 7.608-1.72 17.361 5.869 21.75l8.89 5.113c-12.454 17.788-27.725 33.061-45.53 45.527l-5.142-8.939c-4.444-7.538-14.202-10.108-21.725-5.759-3.714 2.12-6.364 5.559-7.463 9.673-1.095 4.094-.53 8.388 1.605 12.112l5.156 8.908c-19.639 9.196-40.518 14.768-62.224 16.607v-10.263c0-8.778-7.143-15.922-15.922-15.922-8.778 0-15.922 7.144-15.922 15.922v10.265c-21.714-1.837-42.598-7.409-62.229-16.604l5.161-8.912.015-.025c4.369-7.648 1.735-17.411-5.859-21.75-7.588-4.384-17.321-1.785-21.705 5.784l-5.168 8.923c-17.811-12.465-33.097-27.75-45.552-45.541l8.894-5.113c3.714-2.12 6.364-5.554 7.463-9.668 1.095-4.089.535-8.383-1.6-12.112-4.384-7.583-14.147-10.188-21.77-5.779l-8.925 5.168c-9.196-19.602-14.77-40.485-16.61-62.236h10.278c8.778 0 15.922-7.143 15.922-15.922s-7.144-15.922-15.922-15.922H78.753c1.837-21.744 7.418-42.633 16.617-62.23l8.926 5.167c2.494 1.44 5.224 2.125 7.923 2.125 5.509 0 10.883-2.859 13.842-7.968 2.14-3.694 2.704-8.003 1.59-12.127-1.11-4.114-3.754-7.538-7.433-9.643l-8.855-5.113c5.024-7.227 10.753-14.319 17.173-21.121 8.496-9.025 18.065-17.165 28.397-24.362l5.091 8.856c2.954 5.104 8.318 7.963 13.817 7.963 2.679 0 5.399-.685 7.878-2.115 3.689-2.115 6.334-5.539 7.443-9.643 1.115-4.129.55-8.438-1.58-12.122l-5.118-8.897c19.59-9.241 40.468-14.833 62.176-16.664v10.235c0 8.778 7.144 15.922 15.922 15.922s15.922-7.144 15.922-15.922v-10.233c21.701 1.841 42.567 7.428 62.179 16.651l-5.111 8.894c-4.384 7.573-1.775 17.336 5.839 21.775 2.484 1.435 5.204 2.12 7.893 2.12 5.499 0 10.863-2.864 13.822-7.978l5.089-8.852c10.337 7.223 19.902 15.371 28.399 24.389 6.285 6.617 12.021 13.703 17.182 21.098l-8.869 5.121c-3.679 2.125-6.314 5.559-7.418 9.673-1.115 4.124-.555 8.418 1.57 12.092 2.959 5.114 8.328 7.978 13.842 7.978 2.699 0 5.434-.69 7.933-2.135l8.906-5.156c9.204 19.61 14.781 40.489 16.617 62.221"/>
	<path d="M293.724 313.854c-3.302-7.482-9.232-13.531-16.579-16.959v-75.222l-14.602-19.956-14.527 19.966v75.257c-11.837 5.566-19.606 17.457-19.606 30.786 0 18.826 15.317 34.143 34.143 34.143 13.685 0 25.701-8.06 31.084-20.271h43.725l17.771-13.872-17.771-13.872zm-35.47-88.841 4.309-5.929 4.344 5.939v68.841c-1.43-.185-2.884-.28-4.354-.28-1.44 0-2.874.09-4.299.275zm4.299 126.618c-13.182 0-23.905-10.723-23.905-23.905 0-10.223 6.484-19.306 16.157-22.6 2.537-.875 5.173-1.303 7.778-1.302 2.673.003 5.252.445 7.772 1.354l.1.036c7.06 2.41 12.594 8.081 14.826 15.201l.057.173c.745 2.24 1.125 4.644 1.125 7.138 0 2.488-.379 4.886-1.145 7.2l-.013.041c-3.142 9.97-12.283 16.664-22.752 16.664m71.29-20.27h-37.332c.125-1.195.19-2.409.19-3.634s-.065-2.439-.19-3.634h37.332l4.654 3.634z"/>
</svg>