<svg xmlns="http://www.w3.org/2000/svg" viewBox="5991 5073 51 51"> <path fill="url(#tSvgGradient15c2a9ebdf8)" stroke="none" fill-opacity="1" stroke-width="1" stroke-opacity="1" id="tSvg2cfb63438a" d="M 6016.5 5074 C 6002.9703 5074 5992 5084.9703 5992 5098.5 C 5992 5112.0297 6002.9703 5123 6016.5 5123 C 6030.0297 5123 6041 5112.0297 6041 5098.5C 6041 5084.9703 6030.0297 5074 6016.5 5074Z M 6016.5 5118.8438 C 6005.2672 5118.8438 5996.15625 5109.7328 5996.15625 5098.5 C 5996.15625 5087.2672 6005.2672 5078.15625 6016.5 5078.15625 C 6027.7328 5078.15625 6036.8438 5087.2672 6036.8438 5098.5C 6036.8438 5109.7328 6027.7328 5118.8438 6016.5 5118.8438Z M 6019.1086 5097.2312 C 6018.645566666667 5097.123666666666 6018.182533333334 5097.0161333333335 6017.7195 5096.9086 C 6017.7195 5094.460433333334 6017.7195 5092.012266666667 6017.7195 5089.5641 C 6019.7977 5089.8484 6021.0828 5091.15 6021.3016 5092.7469 C 6021.3289 5092.9656 6021.5148 5093.1242 6021.7336 5093.1242 C 6022.5521 5093.1242 6023.3706 5093.1242 6024.1891 5093.1242 C 6024.4461 5093.1242 6024.6484 5092.9 6024.6266 5092.643 C 6024.293 5089.2359 6021.4875 5087.0484 6017.7414 5086.6711 C 6017.7414 5086.075 6017.7414 5085.4789 6017.7414 5084.8828 C 6017.7414 5084.6422 6017.5445 5084.4453 6017.3039 5084.4453 C 6016.791666666667 5084.4453 6016.279433333333 5084.4453 6015.7672 5084.4453 C 6015.5266 5084.4453 6015.3297 5084.6422 6015.3297 5084.8828 C 6015.3297 5085.484366666667 6015.3297 5086.085933333334 6015.3297 5086.6875 C 6011.4578 5087.0648 6008.4281 5089.2031 6008.4281 5093.1953 C 6008.4281 5096.8922 6011.1516 5098.675 6014.0117 5099.3586 C 6014.461966666667 5099.473433333334 6014.9122333333335 5099.588266666667 6015.3625 5099.7031 C 6015.3625 5102.3044 6015.3625 5104.9057 6015.3625 5107.507 C 6012.9453 5107.1844 6011.5891 5105.8938 6011.3102 5104.1547 C 6011.2773 5103.9469 6011.0914 5103.7937 6010.8781 5103.7937 C 6010.035933333334 5103.7937 6009.193766666666 5103.7937 6008.3516 5103.7937 C 6008.0945 5103.7937 6007.8922 5104.0125 6007.9141 5104.2695 C 6008.1602 5107.2773 6010.4406 5110.0445 6015.3078 5110.4 C 6015.3078 5110.9724 6015.3078 5111.5448 6015.3078 5112.1172 C 6015.3078 5112.3578 6015.5047 5112.5547 6015.7453 5112.5547 C 6016.263 5112.5547 6016.7807 5112.5547 6017.2984 5112.5547 C 6017.5391 5112.5547 6017.7359 5112.3578 6017.7359 5112.1117 C 6017.732266666667 5111.533833333333 6017.728633333333 5110.955966666666 6017.725 5110.3781 C 6022.007 5110.0008 6025.0695 5107.7094 6025.0695 5103.5969C 6025.0641 5099.8016 6022.6523 5098.1062 6019.1086 5097.2312Z M 6015.357 5096.3453 C 6015.0508 5096.2578 6014.7938 5096.1758 6014.5367 5096.0719 C 6012.6883 5095.4047 6011.8297 5094.3273 6011.8297 5092.9383 C 6011.8297 5090.9531 6013.3336 5089.8211 6015.357 5089.5641C 6015.357 5091.8245 6015.357 5094.0849 6015.357 5096.3453Z M 6017.7195 5107.5234 C 6017.7195 5105.086166666667 6017.7195 5102.648933333333 6017.7195 5100.2117 C 6017.8891 5100.2609 6018.0422 5100.2992 6018.2008 5100.332 C 6020.7875 5101.1195 6021.657 5102.2133 6021.657 5103.8922C 6021.657 5106.0305 6020.0492 5107.3156 6017.7195 5107.5234Z"></path> <defs> <linearGradient id="tSvgGradient32aec6c1a" x1="NaN" x2="NaN" y1="NaN" y2="NaN" gradientUnits="userSpaceOnUse"> <stop offset="0.31" stop-color="hsl(230.68800000000002,92.81%,72.75%)" stop-opacity="1.00"></stop> <stop offset="0.84" stop-color="hsl(287.892,92.81%,72.75%)" stop-opacity="1.00"></stop> </linearGradient> <linearGradient id="tSvgGradient15c2a9ebdf8" x1="5992" x2="6034.5253" y1="5074" y2="5110.6959" gradientUnits="userSpaceOnUse"> <stop offset="0.312143" stop-color="hsl(230.68800000000002,92.81%,72.75%)" stop-opacity="1"></stop> <stop offset="0.842143" stop-color="hsl(287.892,92.81%,72.75%)" stop-opacity="1"></stop> </linearGradient> </defs> </svg>