<svg xmlns="http://www.w3.org/2000/svg" viewBox="0 0 99 106" fill="none"> <path d="M98.99975 49.2135V87.07125C98.99975 92.0915 96.99375 96.906 93.4235 100.45575C89.853 104.00575 85.0105 106 79.96125 106H53.3075C52.29775 106 51.32925 105.60125 50.615 104.89125C49.901 104.18125 49.49975 103.21825 49.49975 102.21425C49.49975 101.21025 49.901 100.24725 50.615 99.53725C51.32925 98.82725 52.29775 98.4285 53.3075 98.4285H79.96125C82.99075 98.4285 85.89625 97.232 88.0385 95.102C90.18075 92.972 91.38425 90.08325 91.38425 87.07125H79.96125C76.93175 87.07125 74.02625 85.8745 71.884 83.74475C69.74175 81.61475 68.53825 78.726 68.53825 75.71375V56.785C68.53825 53.77275 69.74175 50.884 71.884 48.75425C74.02625 46.62425 76.93175 45.42775 79.96125 45.42775H91.21775C90.49725 37.55775 87.53925 30.054 82.6895 23.79315C77.8395 17.532275 71.29825 12.7726 63.82925 10.07015C56.36 7.3677 48.27175 6.834 40.50925 8.531425C32.7465 10.228825 25.62975 14.087275 19.9903 19.65605C12.977775 26.53625 8.652575 35.67025 7.7867 45.42775H19.0384C22.067975 45.42775 24.973475 46.62425 27.11575 48.75425C29.258 50.884 30.4615 53.77275 30.4615 56.785V75.71375C30.4615 78.726 29.258 81.61475 27.11575 83.74475C24.973475 85.8745 22.067975 87.07125 19.0384 87.07125H11.423025C8.39345 87.07125 5.487975 85.8745 3.345725 83.74475C1.203495 81.61475 0 78.726 0 75.71375V49.2135C0.010675475 39.4645 2.930125 29.938 8.3888 21.839625C13.8475 13.7412 21.600025 7.43495 30.665 3.719125C39.73025 0.003313425 49.70025 -0.95504 59.3135 0.9653775C68.9265 2.8858 77.7505 7.59865 84.6685 14.5074C89.236 19.0707 92.853 24.485225 95.312 30.44075C97.77125 36.39625 99.0245 42.77575 98.99975 49.2135Z" fill="url(#paint0_linear_25320_91080)"></path> <defs> <linearGradient id="paint0_linear_25320_91080" x1="396.702" y1="-1.28507e-05" x2="-72.3166" y2="318.088" gradientUnits="userSpaceOnUse"> <stop stop-color="#1A1A22"></stop> <stop offset="0.477774" stop-color="#9799A6"></stop> <stop offset="1" stop-color="#1A1A22"></stop> </linearGradient> </defs> </svg>