<svg xmlns="http://www.w3.org/2000/svg" viewBox="5991.16796875 5072.5 48.66650390625 44"> <path fill="url(#tSvgGradient27e3a1cd1e)" stroke="none" fill-opacity="1" stroke-width="1" stroke-opacity="1" id="tSvgc4eb6dbc66" d="M 6027.168 5082.83333 C 6026.071333333333 5083.929986666667 6024.974666666667 5085.026643333334 6023.878 5086.1233 C 6025.884666666667 5088.137766666667 6027.891333333333 5090.152233333333 6029.898 5092.1667 C 6021.988 5092.1667 6014.078 5092.1667 6006.168 5092.1667 C 6006.168 5093.722233333333 6006.168 5095.277766666667 6006.168 5096.8333 C 6014.078 5096.8333 6021.988 5096.8333 6029.898 5096.8333 C 6027.891333333333 5098.839966666666 6025.884666666667 5100.846633333334 6023.878 5102.8533 C 6024.974666666667 5103.957766666666 6026.071333333333 5105.062233333333 6027.168 5106.1667 C 6031.056866666667 5102.2778 6034.945733333333 5098.3889 6038.8346 5094.5 M 5996.83464 5078.16667 C 6003.05686 5078.16667 6009.27908 5078.16667 6015.5013 5078.16667 C 6015.5013 5076.611113333333 6015.5013 5075.055556666666 6015.5013 5073.5 C 6009.27908 5073.5 6003.05686 5073.5 5996.83464 5073.5 C 5994.26797 5073.5 5992.167969 5075.6 5992.167969 5078.16667 C 5992.167969 5089.0555466666665 5992.167969 5099.944423333333 5992.167969 5110.8333 C 5992.167969 5113.4 5994.26797 5115.5 5996.83464 5115.5 C 6003.05686 5115.5 6009.27908 5115.5 6015.5013 5115.5 C 6015.5013 5113.944433333333 6015.5013 5112.388866666666 6015.5013 5110.8333 C 6009.27908 5110.8333 6003.05686 5110.8333 5996.83464 5110.8333C 5996.83464 5099.944423333333 5996.83464 5089.0555466666665 5996.83464 5078.16667Z"></path> <defs> <linearGradient id="tSvgGradient163c67445b7" x1="NaN" x2="NaN" y1="NaN" y2="NaN" gradientUnits="userSpaceOnUse"> <stop offset="0.31" stop-color="hsl(230.68800000000002,92.81%,72.75%)" stop-opacity="1.00"></stop> <stop offset="0.84" stop-color="hsl(287.892,92.81%,72.75%)" stop-opacity="1.00"></stop> </linearGradient> <linearGradient id="tSvgGradient27e3a1cd1e" x1="5992.167969" x2="6028.9825" y1="5073.5" y2="5108.7978" gradientUnits="userSpaceOnUse"> <stop offset="0.312143" stop-color="hsl(230.68800000000002,92.81%,72.75%)" stop-opacity="1"></stop> <stop offset="0.842143" stop-color="hsl(287.892,92.81%,72.75%)" stop-opacity="1"></stop> </linearGradient> </defs> </svg>