<svg xmlns="http://www.w3.org/2000/svg" viewBox="0 0 137 90" fill="none"> <path d="M39.71375 26.60375C42.4175 24.472625 45.54825 24.193275 48.106 22.45025C50.77725 20.63025 52.9595 18.193375 55.63125 16.35225C66.056 9.167725 76.39075 10.32865 88.209 11.322625C98.7935 12.212975 104.477 11.8417 113.00325 4.78125C115.1705 2.98625 117.599 0.380485 120.51625 0.002060685C122.89425 -0.06972625 123.6955 1.74606 124.524 3.5755L131.564 19.8708C132.635 22.351175 133.6985 24.855925 134.81425 27.31525C137.93325 34.18925 138.2765 34.514 132.0915 37.979C127.85575 40.3515 123.51925 42.545 119.23575 44.83475C115.435 46.8665 116.90875 45.92125 114.139 49.246C111.5175 52.392 108.15625 56.13975 104.51425 58.14975C102.62175 56.9555 100.7005 54.975 98.94375 53.52075L90.07325 46.076C83.398 40.47925 81.3095 38.961 77.08275 31.558C74.38975 27.63325 69.7295 25.36775 64.89425 26.322C63.1315 26.66975 61.39775 27.56325 59.7255 28.2095C53.601 30.5755 44.01925 33.44175 39.71375 26.60375Z" fill="url(#paint0_linear_25320_91070)"></path> <path d="M54.6475 83.5305C54.5 85.5545 53.466 87.3985 51.44075 88.1105C47.765 89.403 43.85175 85.58725 41.2985 83.496C31.45975 75.439 23.6172 65.8025 18.1675 54.37175C16.26365 50.37825 17.353675 51.0455 13.423875 48.68L5.938475 44.16575C-0.05930975 40.59975 -1.3940225 40.70525 1.3934575 34.37025L10.324525 14.482225C11.428925 12.015825 12.2805 8.08475 15.0327 7.236625C17.317075 6.978725 18.620325 8.612275 20.22 9.96875C27.87325 16.4588 30.0745 18.530225 40.6505 18.310975C41.864 18.285975 43.1025 18.072875 44.305 18.3217C40.01075 20.3863 31.62775 22.2885 34.6835 28.59475C39.10025 37.709 50.541 37.04775 58.7405 34.1185C61.731 33.05 63.18125 32.20575 66.3705 33.33425C70.85525 34.921 74.0035 38.463 77.206 41.785C80.739 45.44975 84.535 49.01 88.51575 52.19125C92.06425 55.0265 101.81675 61.6655 103.23375 64.6875C105.27575 69.04425 100.786 74.14825 96.1265 72.3055C94.5045 71.664 93.19975 70.16025 91.8975 69.03775C88.91525 66.46625 81.95475 60.24125 78.9055 59.0545C82.82175 63.37925 87.513 66.94875 91.8995 70.77675C97.5925 75.7455 90.796 85.27025 83.1835 78.28025L76.3955 72.65575C74.99075 71.4925 73.5935 70.261 72.0765 69.2455C74.41525 73.70425 81.46825 76.51675 82.041 80.00625C82.547 83.089 80.27175 85.897 77.23675 86.37525C73.6445 86.94175 71.95325 84.099 69.46725 82.06625C67.3265 80.31575 65.04725 78.59675 62.817 76.9625C64.52125 80.2315 68.415 81.81 68.5535 85.15825C68.65825 87.70675 66.8345 89.932 64.20975 89.99775C61.33675 90.07 59.81775 88.3165 57.8705 86.50225L54.6475 83.5305Z" fill="url(#paint1_linear_25320_91070)"></path> <defs> <linearGradient id="paint0_linear_25320_91070" x1="548.972" y1="-1.0911e-05" x2="122.487" y2="471.422" gradientUnits="userSpaceOnUse"> <stop stop-color="#1A1A22"></stop> <stop offset="0.477774" stop-color="#9799A6"></stop> <stop offset="1" stop-color="#1A1A22"></stop> </linearGradient> <linearGradient id="paint1_linear_25320_91070" x1="548.972" y1="-1.0911e-05" x2="122.487" y2="471.422" gradientUnits="userSpaceOnUse"> <stop stop-color="#1A1A22"></stop> <stop offset="0.477774" stop-color="#9799A6"></stop> <stop offset="1" stop-color="#1A1A22"></stop> </linearGradient> </defs> </svg>