<svg xmlns="http://www.w3.org/2000/svg" xml:space="preserve" style="enable-background:new 0 0 1122 1122" viewBox="0 0 1122 1122"><path d="M0 0h1122v1122H0z" style="fill:#fff"/><circle cx="181.671" cy="175.957" r="68.5" style="fill:#a0dae8"/><path d="M219.426 201.814h-105.49c10.416 27.268 36.806 46.643 67.734 46.643 18.651 0 35.653-7.048 48.5-18.62v-17.279c.001-5.934-4.81-10.744-10.744-10.744z" style="fill:#f9d045"/><path d="M201.157 217.814c-7.248 0-7.248 6-14.497 6-7.251 0-7.251-6-14.501-6-7.248 0-7.248 6-14.496 6-7.25 0-7.25-6-14.5-6-7.249 0-7.249 6-14.498 6-.552 0-1.05-.045-1.525-.109 13.288 15.164 32.784 24.751 54.531 24.751 18.651 0 35.653-7.048 48.5-18.62v-12.023c-7.253 0-7.253 6-14.507 6-7.254.001-7.254-5.999-14.507-5.999zM140.171 205.814a4 4 0 0 1-4-4v-24a4 4 0 0 1 8 0v24a4 4 0 0 1-4 4z" style="fill:#e05372"/><path d="M140.171 168.564a4 4 0 0 1-4-4v-6a4 4 0 0 1 8 0v6a4 4 0 0 1-4 4z" style="fill:#fff"/><path d="M175.171 205.814a4 4 0 0 1-4-4v-24a4 4 0 0 1 8 0v24a4 4 0 0 1-4 4z" style="fill:#e05372"/><path d="M175.171 168.564a4 4 0 0 1-4-4v-6a4 4 0 0 1 8 0v6a4 4 0 0 1-4 4zM217.018 213.865c-.384 0-.768-.146-1.061-.439l-3.182-3.182a1.5 1.5 0 1 1 2.121-2.121l3.182 3.182a1.5 1.5 0 0 1-1.06 2.56zM188.586 212.365c0-.384.146-.768.439-1.061l3.182-3.182a1.5 1.5 0 1 1 2.121 2.121l-3.182 3.182a1.5 1.5 0 0 1-2.56-1.06zM161.018 213.865c-.384 0-.768-.146-1.061-.439l-3.182-3.182a1.5 1.5 0 1 1 2.121-2.121l3.182 3.182a1.5 1.5 0 0 1-1.06 2.56zM125.586 212.365c0-.384.146-.768.439-1.061l3.182-3.182a1.5 1.5 0 1 1 2.121 2.121l-3.182 3.182a1.5 1.5 0 0 1-2.56-1.06zM230.171 216.751c-3.417.434-5.432 2.087-7.09 3.458-1.703 1.409-2.934 2.426-5.66 2.426-2.727 0-3.956-1.018-5.659-2.426-1.925-1.592-4.32-3.574-8.847-3.574-4.525 0-6.919 1.982-8.843 3.574-1.701 1.408-2.93 2.426-5.654 2.426-2.725 0-3.955-1.018-5.657-2.426-1.924-1.592-4.319-3.574-8.844-3.574-4.524 0-6.918 1.982-8.842 3.574-1.701 1.408-2.93 2.426-5.654 2.426-2.725 0-3.954-1.018-5.657-2.426-1.924-1.592-4.318-3.574-8.844-3.574-4.525 0-6.919 1.982-8.843 3.574-1.702 1.408-2.931 2.426-5.656 2.426-2.724 0-3.954-1.018-5.655-2.426a37.117 37.117 0 0 0-1.248-.994c.288.385.573.773.868 1.153.136.176.274.35.412.524.473.598.95 1.191 1.441 1.773.047.056.097.111.145.167l.021.024a72.827 72.827 0 0 0 3.214 3.54c.101.105.2.212.302.316.299.305.608.599.912.898 4.248-.121 6.569-2.01 8.431-3.551 1.701-1.408 2.931-2.426 5.655-2.426 2.725 0 3.954 1.018 5.656 2.426 1.924 1.592 4.319 3.574 8.844 3.574 4.524 0 6.918-1.982 8.842-3.574 1.701-1.408 2.93-2.426 5.654-2.426 2.725 0 3.955 1.018 5.657 2.426 1.924 1.592 4.319 3.574 8.845 3.574 4.524 0 6.919-1.982 8.842-3.574 1.701-1.408 2.931-2.426 5.654-2.426 2.727 0 3.957 1.018 5.66 2.426 1.924 1.592 4.32 3.574 8.846 3.574 4.527 0 6.922-1.981 8.847-3.574 1.287-1.065 2.306-1.904 3.904-2.251v-5.057z" style="fill:#fff"/><path d="M181.671 103.457c-40.041 0-72.5 32.459-72.5 72.5s32.459 72.5 72.5 72.5 72.5-32.459 72.5-72.5-32.46-72.5-72.5-72.5zm0 137c-35.565 0-64.5-28.935-64.5-64.5s28.935-64.5 64.5-64.5 64.5 28.935 64.5 64.5-28.935 64.5-64.5 64.5z" style="fill:#8bcadf"/><circle cx="940.329" cy="946.044" r="68.5" style="fill:#a0dae8"/><path d="M883.139 990.574c9.306 11.935 22.259 20.874 37.191 25.152l19.514-60.679-41.036-13.197-15.669 48.724z" style="fill:#f9d045"/><path d="m886.96 978.691 48.687-24.992-6.73-2.165-39.792 20.426z" style="fill:#e05372"/><path d="M898.808 941.851c-1.81 5.629 5.909 13.146 17.24 16.79 11.332 3.644 21.985 2.035 23.795-3.593 1.81-5.629-5.909-13.146-17.24-16.79-11.332-3.644-21.985-2.035-23.795 3.593z" style="fill:#fff"/><path d="M919.326 952.451a3.998 3.998 0 0 1-3.809-5.225l4.241-13.188a4.001 4.001 0 0 1 5.032-2.583 3.998 3.998 0 0 1 2.583 5.032l-4.241 13.188a3.998 3.998 0 0 1-3.806 2.776zM986.543 940.131a1.501 1.501 0 0 1-1.492-1.675l.373-3.177-3.178.373a1.486 1.486 0 0 1-1.235-.429 1.505 1.505 0 0 1-.43-1.235l.371-3.185-3.185.371a1.5 1.5 0 0 1-.348-2.98l5.067-.59a1.504 1.504 0 0 1 1.664 1.664l-.371 3.183 3.18-.373a1.502 1.502 0 0 1 1.665 1.665l-.594 5.063a1.498 1.498 0 0 1-1.487 1.325z" style="fill:#f9d045"/><path d="M961.972 1012.33a1.501 1.501 0 0 1-1.492-1.675l.373-3.178-3.178.373a1.492 1.492 0 0 1-1.235-.429 1.505 1.505 0 0 1-.43-1.235l.371-3.185-3.185.371a1.5 1.5 0 0 1-.348-2.98l5.067-.59a1.503 1.503 0 0 1 1.664 1.664l-.371 3.183 3.18-.373a1.505 1.505 0 0 1 1.665 1.665l-.594 5.063a1.5 1.5 0 0 1-1.487 1.326zM891.139 922.249a1.501 1.501 0 0 1-1.492-1.675l.373-3.177-3.178.372a1.502 1.502 0 0 1-1.665-1.664l.371-3.184-3.186.37a1.5 1.5 0 0 1-.346-2.98l5.067-.589a1.503 1.503 0 0 1 1.663 1.664l-.371 3.183 3.18-.373a1.502 1.502 0 0 1 1.665 1.665l-.594 5.063a1.5 1.5 0 0 1-1.487 1.325z" style="fill:#6cbca6"/><path d="M921.023 905.251a1.5 1.5 0 0 1-1.488-1.326l-.59-5.067c-.053-.456.105-.91.43-1.234a1.498 1.498 0 0 1 1.234-.43l3.184.371-.373-3.18a1.5 1.5 0 0 1 1.665-1.665l5.063.594a1.501 1.501 0 0 1-.35 2.98l-3.177-.373.372 3.178c.053.456-.105.911-.43 1.235a1.49 1.49 0 0 1-1.234.43l-3.185-.371.371 3.185a1.5 1.5 0 0 1-1.492 1.673zM975.048 984.959a1.5 1.5 0 0 1-1.488-1.326l-.59-5.067c-.053-.456.105-.91.43-1.234a1.498 1.498 0 0 1 1.234-.43l3.183.371-.373-3.18a1.502 1.502 0 0 1 1.665-1.665l5.063.594a1.501 1.501 0 0 1-.35 2.98l-3.178-.373.373 3.178a1.5 1.5 0 0 1-1.664 1.665l-3.185-.371.371 3.185a1.5 1.5 0 0 1-1.491 1.673z" style="fill:#f9d045"/><path d="M946.223 919.071a1.5 1.5 0 0 1-1.061-2.56l3.183-3.182a1.5 1.5 0 1 1 2.121 2.121l-3.183 3.182a1.491 1.491 0 0 1-1.06.439zM1002.278 957.14a1.5 1.5 0 0 1-1.061-2.561l3.182-3.183a1.5 1.5 0 1 1 2.121 2.121l-3.182 3.183c-.293.293-.677.44-1.06.44z" style="fill:#fff"/><path d="M939.42 934.042a1.5 1.5 0 0 1-1.06-2.56l3.182-3.182a1.5 1.5 0 1 1 2.121 2.121l-3.182 3.182a1.5 1.5 0 0 1-1.061.439z" style="fill:#f9d045"/><path d="M931.112 932.185a1.5 1.5 0 0 1-1.061-2.561l3.182-3.182a1.5 1.5 0 1 1 2.121 2.121l-3.182 3.182c-.293.294-.677.44-1.06.44z" style="fill:#6cbca6"/><path d="M941.92 985.292a1.5 1.5 0 0 1-1.06-2.56l3.183-3.183a1.5 1.5 0 1 1 2.121 2.121l-3.183 3.183a1.5 1.5 0 0 1-1.061.439zM877.353 961.882a1.5 1.5 0 0 1-1.061-2.561l3.182-3.182a1.5 1.5 0 1 1 2.121 2.121l-3.182 3.182c-.293.293-.676.44-1.06.44z" style="fill:#fff"/><path d="M964.734 956.174c-.384 0-.768-.146-1.061-.44l-3.183-3.182a1.5 1.5 0 1 1 2.121-2.121l3.183 3.182a1.5 1.5 0 0 1-1.06 2.561zM974.414 901.856c-.384 0-.768-.147-1.061-.44l-3.182-3.183a1.5 1.5 0 1 1 2.121-2.121l3.182 3.183a1.5 1.5 0 0 1-1.06 2.561z" style="fill:#6cbca6"/><path d="m912.798 1013.118 10.026-5.147 2.164-6.731-17.938 9.208a72.473 72.473 0 0 0 5.748 2.67zM897.944 1004.846l31.003-15.915 2.165-6.731-37.512 19.256a72.69 72.69 0 0 0 4.344 3.39zM886.633 994.756l48.437-24.864 2.165-6.731-53.897 27.667a73.603 73.603 0 0 0 3.295 3.928z" style="fill:#e05372"/><path d="M940.329 873.543c-40.041 0-72.5 32.459-72.5 72.5s32.459 72.5 72.5 72.5 72.5-32.459 72.5-72.5c.001-40.04-32.459-72.5-72.5-72.5zm0 137c-35.565 0-64.5-28.935-64.5-64.5s28.935-64.5 64.5-64.5 64.5 28.935 64.5 64.5c.001 35.566-28.934 64.5-64.5 64.5z" style="fill:#8bcadf"/><circle cx="371.335" cy="175.957" r="68.5" style="fill:#e6b5a8"/><path d="M431.69 216.124c-11.165 7.832-25.822 12.884-41.724 14.306-17.3 1.549-33.917-1.382-46.797-8.249-12.535-6.682-19.967-16.283-20.929-27.034-2.023-22.614 25.067-43.583 60.389-46.742a100.49 100.49 0 0 1 8.941-.402c22.377 0 41.794 7.639 51.762 19.524a72.234 72.234 0 0 0-1.477-8.38c-13.462-11.462-35.504-17.882-59.672-15.722-38.067 3.405-67.192 26.808-64.924 52.168 1.117 12.489 9.483 23.499 23.557 31.001 11.351 6.051 25.356 9.239 40.185 9.239 3.105 0 6.249-.14 9.409-.422 11.71-1.048 22.805-3.986 32.484-8.497a72.833 72.833 0 0 0 8.796-10.79z" style="fill:#f2f2f2"/><path d="m441.649 158.256-43.904-23.996a.944.944 0 0 0-1.074.117l-53.498 46.607c-.733.639-.14 1.835.813 1.638l98.523-20.449a71.157 71.157 0 0 0-.86-3.917z" style="fill:#fff"/><path d="M354.804 178.703a1.5 1.5 0 0 1-1.061-2.56l3.182-3.182a1.5 1.5 0 1 1 2.121 2.121l-3.182 3.182a1.493 1.493 0 0 1-1.06.439zM371.816 168.115c-.384 0-.768-.146-1.061-.439l-3.182-3.182a1.5 1.5 0 1 1 2.121-2.121l3.182 3.182a1.5 1.5 0 0 1-1.06 2.56zM426.827 163.075c-.384 0-.768-.146-1.06-.439l-3.182-3.182a1.5 1.5 0 1 1 2.121-2.121l3.182 3.182a1.5 1.5 0 0 1-1.061 2.56zM402.737 168.115c-.384 0-.768-.146-1.061-.439l-3.182-3.182a1.5 1.5 0 1 1 2.121-2.121l3.182 3.182a1.5 1.5 0 0 1-1.06 2.56zM392.863 149.13c-.384 0-.768-.146-1.061-.439l-3.182-3.182a1.5 1.5 0 1 1 2.121-2.121l3.182 3.182a1.5 1.5 0 0 1-1.06 2.56zM383.27 170.469a1.5 1.5 0 0 1-1.061-2.56l3.182-3.182a1.5 1.5 0 1 1 2.121 2.121l-3.182 3.182a1.491 1.491 0 0 1-1.06.439zM410.01 162.241a1.5 1.5 0 0 1-1.06-2.56l3.182-3.182a1.5 1.5 0 1 1 2.121 2.121l-3.182 3.182a1.503 1.503 0 0 1-1.061.439zM383.791 159.004a1.5 1.5 0 0 1-1.061-2.56l3.182-3.182a1.5 1.5 0 1 1 2.121 2.121l-3.182 3.182a1.495 1.495 0 0 1-1.06.439z" style="fill:#a0dae8"/><path d="M443.835 175.957c0-4.715-.466-9.319-1.325-13.783l-97.316 20.199a1.636 1.636 0 0 0-1.303 1.602v29.62a4.174 4.174 0 0 0 5.023 4.087l91.247-18.939a72.394 72.394 0 0 0 3.674-22.786z" style="fill:#f9d045"/><path d="M435.299 171.713c-3.749.778-5.262 3.347-6.366 5.223-1.009 1.713-1.561 2.55-3.075 2.865-1.511.313-2.353-.234-3.961-1.404-1.76-1.282-4.169-3.037-7.92-2.258-3.749.778-5.261 3.347-6.366 5.223-1.008 1.713-1.56 2.55-3.073 2.864-1.514.313-2.352-.234-3.959-1.404-1.759-1.282-4.167-3.037-7.919-2.258-3.749.778-5.262 3.347-6.367 5.223-1.009 1.713-1.561 2.55-3.075 2.865-1.51.311-2.354-.233-3.963-1.404-1.76-1.281-4.17-3.037-7.921-2.257-3.75.778-5.263 3.348-6.367 5.223-1.009 1.713-1.561 2.55-3.075 2.865-1.514.315-2.356-.233-3.965-1.404-1.76-1.281-4.173-3.036-7.923-2.256-3.474.721-5.023 2.972-6.112 4.791v7.359c2.122-1.136 3.207-2.96 4.049-4.388 1.01-1.714 1.563-2.551 3.08-2.866 1.516-.315 2.356.234 3.965 1.404 1.761 1.281 4.169 3.037 7.923 2.256 3.749-.778 5.262-3.347 6.367-5.223 1.009-1.713 1.562-2.551 3.075-2.865 1.516-.313 2.355.234 3.963 1.404 1.76 1.282 4.172 3.037 7.921 2.257 3.749-.778 5.262-3.347 6.367-5.223 1.009-1.713 1.561-2.55 3.075-2.865 1.516-.314 2.353.234 3.96 1.405 1.759 1.281 4.169 3.034 7.919 2.258 3.749-.778 5.261-3.347 6.366-5.223 1.008-1.713 1.56-2.55 3.073-2.864 1.512-.314 2.354.234 3.961 1.404 1.76 1.282 4.173 3.04 7.92 2.258 3.749-.778 5.262-3.347 6.366-5.223 1.009-1.713 1.561-2.55 3.074-2.865 1.517-.312 2.354.234 3.961 1.404.929.677 2.048 1.478 3.442 1.975.073-1.335.117-2.678.117-4.031 0-.529-.029-1.051-.04-1.577-.185-.13-.368-.257-.576-.409-1.761-1.283-4.172-3.038-7.921-2.259z" style="fill:#fff"/><path d="M442.965 164.723a72.02 72.02 0 0 0-1.367-6.686l-42.553-25.913a2.501 2.501 0 0 0-2.601 4.271l46.519 28.328h.002z" style="fill:#a0dae8"/><path d="M408.949 145.736c.564 3.113-2.942 7.587-4.399 7.852-1.458.264-6.31-2.696-6.874-5.809-.564-3.113 1.884-12.174 3.561-12.478 1.677-.305 7.148 7.322 7.712 10.435z" style="fill:#6cbca6"/><path d="M413.986 152.413c-2.139 2.331-7.822 2.243-8.914 1.242-1.091-1.001-1.666-6.657.473-8.988 2.139-2.331 10.837-5.858 12.093-4.706 1.255 1.152-1.513 10.121-3.652 12.452z" style="fill:#89e0b2"/><path d="M371.335 103.457c-40.041 0-72.5 32.459-72.5 72.5s32.459 72.5 72.5 72.5 72.5-32.459 72.5-72.5-32.459-72.5-72.5-72.5zm0 137c-35.565 0-64.5-28.935-64.5-64.5s28.935-64.5 64.5-64.5 64.5 28.935 64.5 64.5-28.934 64.5-64.5 64.5z" style="fill:#e05372"/><circle cx="750.664" cy="177.52" r="68.5" style="fill:#a0dae8"/><path d="M792.733 136.346c-.327-3.118-4.327-4.188-6.168-1.651l-57.035 77.194 70.366 18.835a73.301 73.301 0 0 0 3.21-3.172l-10.373-91.206z" style="fill:#e05372"/><path d="M783.778 204.716a1.5 1.5 0 0 1-1.061-2.561l3.182-3.182a1.5 1.5 0 1 1 2.121 2.121l-3.182 3.182c-.293.293-.677.44-1.06.44zM758.735 199.091a1.5 1.5 0 0 1-1.061-2.561l3.182-3.182a1.5 1.5 0 1 1 2.121 2.121l-3.182 3.182c-.292.293-.676.44-1.06.44zM779.833 165.466a1.5 1.5 0 0 1-1.061-2.561l3.182-3.182a1.5 1.5 0 1 1 2.121 2.121l-3.182 3.182c-.293.293-.676.44-1.06.44zM779.424 184.086a1.5 1.5 0 0 1-2.56 1.061l-3.182-3.182a1.5 1.5 0 1 1 2.121-2.121l3.182 3.182c.292.292.439.676.439 1.06z" style="fill:#fff"/><path d="M809.148 137.969c.658 0 1.297-.273 1.777-.763a72.663 72.663 0 0 0-4.588-6.117c-2.172-.968-4.956-1.888-7.848-1.977-6.543-.189-10.362 3.917-10.521 4.093a2.5 2.5 0 1 0 3.707 3.355c.022-.026 2.425-2.592 6.661-2.45 4.639.142 9.336 3.376 9.379 3.405.436.307.937.454 1.433.454z" style="fill:#f9d045"/><path d="M800.707 125.089a72.706 72.706 0 0 0-4.109-3.657c-1.636.808-3.326 1.863-4.77 3.232-4.762 4.514-4.517 10.117-4.504 10.353a2.487 2.487 0 0 0 2.604 2.349 2.512 2.512 0 0 0 2.389-2.595c-.005-.146-.085-3.602 2.95-6.479 1.59-1.506 3.674-2.533 5.44-3.203zM801.572 214.061a1.495 1.495 0 0 0-1.647.315 1.5 1.5 0 0 0 0 2.121l2.171 2.171-.524-4.607zM799.023 194.554c.105.106.233.17.358.238l-.529-4.651-.89-.89a1.5 1.5 0 1 0-2.121 2.121l3.182 3.182zM794.803 176.591c.384 0 .768-.146 1.061-.44l1.254-1.254-.433-3.809-2.942 2.942a1.5 1.5 0 0 0 1.06 2.561zM794.273 157.969c.269.269.616.399.968.421l-.474-4.17-1.555-1.555a1.5 1.5 0 1 0-2.121 2.121l3.182 3.183zM792.749 143.594c.239.239.543.355.854.399l-.344-3.029-.509.509a1.5 1.5 0 0 0-.001 2.121zM737.398 202.929a1.5 1.5 0 1 0 2.121-2.122l-1.036-1.036-1.802 2.44.717.718zM752.553 181.841c.384 0 .768-.146 1.061-.44l3.182-3.182a1.5 1.5 0 0 0 0-2.121 1.47 1.47 0 0 0-.567-.343l-4.358 5.898c.216.112.444.188.682.188zM765.898 168.117a1.5 1.5 0 1 0 2.121-2.122l-2.634-2.634-1.803 2.44 2.316 2.316zM775.681 149.776a1.496 1.496 0 0 0 2.122 0l3.182-3.182a1.5 1.5 0 0 0 0-2.121c-.371-.371-.884-.48-1.362-.381l-4.064 5.5c.044.06.068.13.122.184z" style="fill:#fff"/><path d="M789.424 137.973a2.5 2.5 0 0 1-2.451-3.005c.01-.052 1.109-5.646-.603-9.96-1.544-3.887-4.781-5.097-4.919-5.147a2.51 2.51 0 0 1-1.52-3.182 2.489 2.489 0 0 1 3.149-1.545c.225.076 5.516 1.931 7.937 8.029 2.272 5.723.912 12.526.852 12.813a2.5 2.5 0 0 1-2.445 1.997z" style="fill:#f9d045"/><path d="M789.423 137.973a2.499 2.499 0 0 1-2.161-1.241c-.027-.045-2.943-4.945-7.099-7.013-3.769-1.876-7.044-.57-7.076-.557a2.5 2.5 0 1 1-1.967-4.597c.219-.094 5.397-2.245 11.27.677 5.514 2.743 9.043 8.717 9.19 8.97a2.5 2.5 0 0 1-2.157 3.761z" style="fill:#fff"/><path d="M769.491 210.829c-20.448-5.473-38.435-4.639-40.176 1.865-1.741 6.503 13.424 16.212 33.872 21.685 10.457 2.799 20.264 3.944 27.591 3.529a72.826 72.826 0 0 0 11.662-9.658c-3.676-5.982-16.623-13.051-32.949-17.421z" style="fill:#f9d045"/><path d="m696.107 174.929 52.605-6.95-30.613-55.229a72.54 72.54 0 0 0-7.655 4.45l-14.337 57.729z" style="fill:#6cbca6"/><path d="M748.787 168.551c.61 4.62-10.671 9.921-25.198 11.84-14.527 1.919-26.798-.27-27.408-4.89-.61-4.62 10.671-9.921 25.198-11.84 14.527-1.919 26.798.27 27.408 4.89zM702.441 149.424l23.153-23.153-2.522-4.548-18.295 18.295z" style="fill:#8bcadf"/><path d="m710.747 165.806 23.651-23.65-2.521-4.549-35.257 35.257-.513 2.065.068-.009c.253-3.247 6.077-6.738 14.572-9.114zM740.681 153.491l-9.478 9.478c2.421-.012 4.683.105 6.728.342l5.272-5.272-2.522-4.548z" style="fill:#8bcadf"/><path d="M793.427 233.349c-7.326.415-17.133-.73-27.59-3.53-18.894-5.057-33.266-13.729-33.97-20.149-1.348.811-2.229 1.819-2.551 3.023-1.741 6.503 13.424 16.212 33.872 21.685 10.457 2.799 20.264 3.944 27.591 3.529a72.826 72.826 0 0 0 11.662-9.658 11.973 11.973 0 0 0-.874-1.222 72.588 72.588 0 0 1-8.14 6.322z" style="fill:#e05372"/><path d="M750.665 105.02c-40.041 0-72.5 32.459-72.5 72.5s32.459 72.5 72.5 72.5 72.5-32.459 72.5-72.5-32.46-72.5-72.5-72.5zm0 137c-35.565 0-64.5-28.935-64.5-64.5s28.935-64.5 64.5-64.5 64.5 28.935 64.5 64.5-28.935 64.5-64.5 64.5z" style="fill:#8bcadf"/><circle cx="940.329" cy="175.956" r="68.5" style="fill:#e6b5a8"/><path d="M998.089 219.764c-3.459-19.845-17.112-39.047-33.44-39.047-18.941 0-34.295 25.839-34.295 48.547 0 6.89 2.443 13.38 6.054 19.084 1.299.069 2.605.109 3.921.109 23.579 0 44.519-11.263 57.76-28.693z" style="fill:#f9d045"/><path d="M945.789 247.145a2.499 2.499 0 0 1-2.063-1.084c-3.913-5.693-5.897-11.527-5.897-17.341 0-9.496 3.301-19.828 8.831-27.637a2.5 2.5 0 0 1 4.08 2.889c-4.953 6.996-7.911 16.248-7.911 24.748 0 4.783 1.689 9.665 5.019 14.509a2.5 2.5 0 0 1-2.059 3.916z" style="fill:#e6b5a8"/><path d="M928.198 104.487c-22.389 3.774-41.295 17.794-51.708 37.088a52.448 52.448 0 0 0-.14 3.684c0 22.708 26.445 41.116 34.295 41.116 7.851 0 34.295-18.408 34.295-41.116 0-15.016-6.717-31.395-16.742-40.772z" style="fill:#fff"/><path d="M883.891 130.469c-1.414 4.59-2.188 9.361-2.188 13.939 0 5.814 1.984 11.648 5.898 17.341a2.497 2.497 0 0 0 3.477.644 2.5 2.5 0 0 0 .645-3.476c-3.33-4.844-5.019-9.726-5.019-14.509 0-8.47 2.937-17.683 7.858-24.67a72.899 72.899 0 0 0-10.671 10.731z" style="fill:#a0dae8"/><path d="m908.404 184.171-7.35-4.243c-1.698-.98-3.819.245-3.819 2.205v8.487c0 1.96 2.122 3.185 3.819 2.205l7.35-4.243c1.697-.981 1.697-3.432 0-4.411zM912.886 188.581l7.35 4.243c1.697.98 3.819-.245 3.819-2.205v-8.487c0-1.96-2.122-3.185-3.819-2.205l-7.35 4.243c-1.697.98-1.697 3.431 0 4.411z" style="fill:#f9d045"/><path d="M909.645 241.304a2.5 2.5 0 0 1-2.5-2.5c0-4.651.54-7.013 1.063-9.296.482-2.105.938-4.094.938-8.181 0-4.086-.455-6.075-.937-8.181-.523-2.283-1.063-4.645-1.063-9.296s.54-7.012 1.063-9.295c.481-2.105.937-4.094.937-8.18a2.5 2.5 0 1 1 5 0c0 4.651-.54 7.012-1.064 9.295-.481 2.105-.936 4.094-.936 8.18 0 4.087.455 6.076.938 8.181.522 2.283 1.063 4.645 1.063 9.296 0 4.652-.54 7.013-1.064 9.296-.481 2.105-.936 4.094-.936 8.181a2.503 2.503 0 0 1-2.502 2.5z" style="fill:#a0dae8"/><path d="M940.329 103.457c-40.041 0-72.5 32.459-72.5 72.5s32.459 72.5 72.5 72.5 72.5-32.459 72.5-72.5-32.459-72.5-72.5-72.5zm0 137c-35.565 0-64.5-28.935-64.5-64.5s28.935-64.5 64.5-64.5 64.5 28.935 64.5 64.5-28.934 64.5-64.5 64.5z" style="fill:#e05372"/><path d="M897.733 171.677a2.484 2.484 0 0 1-1.615-.593 50.743 50.743 0 0 1-3.993-3.773 2.5 2.5 0 1 1 3.627-3.441 45.607 45.607 0 0 0 3.599 3.4 2.499 2.499 0 0 1-1.618 4.407z" style="fill:#a0dae8"/><circle cx="181.67" cy="369.065" r="68.5" style="fill:#f2f2f2"/><path d="m223.708 374.651-45.226 29.727 39.151 27.628a72.779 72.779 0 0 0 15.59-11.978l-9.515-45.377z" style="fill:#6cbca6"/><path d="M178.159 403.886c-2.611-3.972 5.397-13.846 17.886-22.055 12.489-8.209 24.729-11.643 27.34-7.672 2.611 3.972-5.397 13.846-17.886 22.055-12.489 8.209-24.729 11.644-27.34 7.672z" style="fill:#8bcadf"/><path d="M197.957 354.982a1.5 1.5 0 0 1-1.492-1.675l.372-3.177-3.178.372a1.5 1.5 0 0 1-1.664-1.663l.371-3.185-3.185.371a1.5 1.5 0 0 1-.347-2.979l5.067-.59a1.497 1.497 0 0 1 1.663 1.663l-.37 3.183 3.18-.372a1.498 1.498 0 0 1 1.664 1.664l-.594 5.063a1.5 1.5 0 0 1-1.487 1.325z" style="fill:#a0dae8"/><path d="M195.335 387.302c-.443 0-.882-.195-1.178-.57l-1.983-2.51-1.984 2.511c-.284.36-.717.57-1.176.57h-.001a1.5 1.5 0 0 1-1.176-.569l-1.99-2.514-1.99 2.514a1.5 1.5 0 0 1-2.352-1.863l3.166-4c.569-.719 1.783-.719 2.353 0l1.989 2.513 1.985-2.512a1.5 1.5 0 0 1 2.354 0l3.16 4a1.499 1.499 0 0 1-1.177 2.43zM166.463 323.171a1.5 1.5 0 0 1-1.061-2.56l3.182-3.182a1.5 1.5 0 1 1 2.121 2.121l-3.182 3.182a1.493 1.493 0 0 1-1.06.439z" style="fill:#e6b5a8"/><path d="M183.549 399.766a1.5 1.5 0 0 1-1.061-2.561l3.182-3.182a1.5 1.5 0 1 1 2.121 2.121l-3.182 3.182c-.292.293-.676.44-1.06.44z" style="fill:#a0dae8"/><path d="M200.066 392.114a1.5 1.5 0 0 1-1.061-2.56l3.182-3.182a1.5 1.5 0 1 1 2.121 2.121l-3.182 3.182a1.497 1.497 0 0 1-1.06.439zM162.251 386.893a1.5 1.5 0 0 1-1.061-2.56l3.182-3.182a1.5 1.5 0 1 1 2.121 2.121l-3.182 3.182a1.493 1.493 0 0 1-1.06.439zM233.783 359.491c-.384 0-.768-.146-1.061-.439l-3.182-3.182a1.5 1.5 0 1 1 2.121-2.121l3.182 3.182a1.5 1.5 0 0 1-1.06 2.56z" style="fill:#e05372"/><path d="M150.887 360.812c-.384 0-.768-.147-1.061-.44l-3.182-3.182a1.5 1.5 0 1 1 2.121-2.121l3.182 3.182a1.5 1.5 0 0 1-1.06 2.561zM201.731 380.705a1.5 1.5 0 0 1-1.061-.439l-3.182-3.182a1.5 1.5 0 1 1 2.121-2.121l3.182 3.182a1.5 1.5 0 0 1-1.06 2.56zM205.331 322.254a1.5 1.5 0 0 1-1.488-1.327l-.589-5.067a1.5 1.5 0 0 1 1.663-1.663l3.183.37-.372-3.18a1.501 1.501 0 0 1 1.664-1.664l5.063.594a1.5 1.5 0 1 1-.35 2.98l-3.177-.372.372 3.178a1.5 1.5 0 0 1-1.663 1.664l-3.184-.371.37 3.185a1.5 1.5 0 0 1-1.492 1.673z" style="fill:#a0dae8"/><path d="M208.476 380.922a1.5 1.5 0 0 1-1.488-1.327l-.59-5.067a1.5 1.5 0 0 1 1.663-1.663l3.184.37-.373-3.18a1.498 1.498 0 0 1 1.664-1.664l5.063.594a1.5 1.5 0 1 1-.35 2.98l-3.177-.373.372 3.178a1.5 1.5 0 0 1-1.663 1.665l-3.185-.371.371 3.185a1.5 1.5 0 0 1-1.491 1.673z" style="fill:#e6b5a8"/><path d="M120.259 396.584a1.5 1.5 0 0 1-1.488-1.327l-.589-5.067a1.5 1.5 0 0 1 1.663-1.663l3.183.37-.373-3.18a1.498 1.498 0 0 1 1.664-1.664l5.063.594a1.5 1.5 0 1 1-.35 2.98l-3.177-.372.372 3.178c.053.455-.104.91-.429 1.234a1.484 1.484 0 0 1-1.234.43l-3.185-.371.37 3.185a1.5 1.5 0 0 1-1.49 1.673z" style="fill:#a0dae8"/><path d="M156.484 434.198a1.5 1.5 0 0 1-1.488-1.327l-.59-5.067a1.5 1.5 0 0 1 1.663-1.663l3.183.37-.373-3.179a1.498 1.498 0 0 1 1.664-1.664l5.063.594a1.5 1.5 0 1 1-.35 2.979l-3.177-.373.373 3.178a1.501 1.501 0 0 1-1.663 1.665l-3.185-.371.371 3.185a1.5 1.5 0 0 1-1.491 1.673zM247.231 399.233a1.501 1.501 0 0 0-1.235-.429l-3.18.372.37-3.184a1.5 1.5 0 0 0-1.663-1.663l-5.067.59a1.498 1.498 0 1 0 .347 2.979l3.185-.371-.371 3.185c-.053.456.105.91.43 1.234.325.324.78.481 1.234.429l3.178-.372-.373 3.177c-.026.224.002.44.068.641a72.463 72.463 0 0 0 3.303-6.292 1.452 1.452 0 0 0-.226-.296z" style="fill:#e6b5a8"/><path d="m131.176 331.612-3.18.372.37-3.183a1.5 1.5 0 0 0-1.663-1.663l-4.537.528a72.31 72.31 0 0 0-1.592 2.389c.305.448.838.719 1.409.652l3.185-.37-.371 3.184c-.053.456.105.91.43 1.234.324.324.783.482 1.234.429l3.178-.372-.373 3.177a1.5 1.5 0 1 0 2.98.35l.594-5.063a1.503 1.503 0 0 0-1.664-1.664z" style="fill:#e05372"/><path d="M181.671 296.565c-40.041 0-72.5 32.459-72.5 72.5s32.459 72.5 72.5 72.5 72.5-32.459 72.5-72.5-32.46-72.5-72.5-72.5zm0 137c-35.565 0-64.5-28.935-64.5-64.5s28.935-64.5 64.5-64.5 64.5 28.935 64.5 64.5-28.935 64.5-64.5 64.5z" style="fill:#f9d045"/><circle cx="371.285" cy="369.065" r="68.5" style="fill:#a0dae8"/><path d="m388.165 354.827 9.512-37.585a1.002 1.002 0 0 0-1.129-1.235l-30.243 4.823a1.002 1.002 0 0 0-.689 1.525l20.731 32.762c.471.743 1.603.563 1.818-.29zM351.518 360.668l9.51-37.58a1.003 1.003 0 0 0-1.13-1.237l-30.238 4.822a1.003 1.003 0 0 0-.69 1.527l20.728 32.758c.471.745 1.604.564 1.82-.29z" style="fill-rule:evenodd;clip-rule:evenodd;fill:#f9d045"/><path d="m301.923 349.218 11.102 17.545c.481.76 1.637.575 1.857-.296l9.491-37.503a1.024 1.024 0 0 0-1.154-1.262l-12.375 1.974a1.039 1.039 0 0 0-.711.464 72.089 72.089 0 0 0-8.33 18.229c-.084.286-.04.597.12.849z" style="fill:#f9d045"/><path d="m390.757 344.586-23.852-23.852-2.101.335 7.983 12.618 16.542 16.541z" style="fill-rule:evenodd;clip-rule:evenodd;fill:#e05372"/><path d="M430.079 326.671a72.922 72.922 0 0 0-12.781-13.621 1.035 1.035 0 0 0-.821-.221l-13.493 2.152a1.023 1.023 0 0 0-.703 1.556l20.689 32.696c.48.758 1.634.574 1.855-.296l5.417-21.406a1.035 1.035 0 0 0-.163-.86z" style="fill:#f9d045"/><path d="m392.8 336.513 1.428-5.643-12.5-12.5-6.098.973z" style="fill-rule:evenodd;clip-rule:evenodd;fill:#e05372"/><path d="M417.241 324.36a2.714 2.714 0 1 0 5.428 0 2.714 2.714 0 0 0-5.428 0z" style="fill:#e05372"/><path d="M406.196 320.224c-.493 0-.948.141-1.346.371l2.892 4.57a2.708 2.708 0 0 0 1.168-2.227 2.714 2.714 0 0 0-2.714-2.714zM414.527 333.437c-.484 0-.931.137-1.324.359l2.889 4.566a2.705 2.705 0 0 0 1.148-2.211 2.712 2.712 0 0 0-2.713-2.714zM426.712 341.48a2.702 2.702 0 0 0-1.016-.201 2.714 2.714 0 0 0-2.714 2.714 2.705 2.705 0 0 0 2.414 2.684l1.316-5.197zM428.41 329.957a2.714 2.714 0 0 0-2.714 2.714 2.707 2.707 0 0 0 2.562 2.699l1.303-5.148a2.676 2.676 0 0 0-1.151-.265z" style="fill-rule:evenodd;clip-rule:evenodd;fill:#e05372"/><path d="m415.584 420.721 22.273-36.338-33.319-4.827zM380.098 413.373l20.22-32.989a1.021 1.021 0 0 0-.725-1.545l-30.248-4.382a1.022 1.022 0 0 0-1.134 1.276l10.027 37.371c.235.867 1.391 1.034 1.86.269z" style="fill-rule:evenodd;clip-rule:evenodd;fill:#f9d045"/><circle cx="378.344" cy="379.265" r="2.714" style="fill:#e05372"/><circle cx="386.196" cy="388.265" r="2.714" style="fill:#e05372"/><path d="M376.226 402.921c-.241 0-.47.041-.692.1l1.401 5.222a2.706 2.706 0 0 0 2.004-2.608 2.712 2.712 0 0 0-2.713-2.714zM387.643 397.076a2.714 2.714 0 0 0-2.714 2.714c0 1.218.808 2.237 1.913 2.58l2.741-4.472a2.697 2.697 0 0 0-1.94-.822zM372.916 388.265c-.456 0-.878.123-1.255.321l1.367 5.095a2.708 2.708 0 0 0-.112-5.416zM397.946 380.123a2.707 2.707 0 0 0-.727 5.317l2.718-4.434a2.695 2.695 0 0 0-1.991-.883z" style="fill-rule:evenodd;clip-rule:evenodd;fill:#e05372"/><path d="m442.779 381.061-74.396-10.778a3.997 3.997 0 0 0-4.532 3.385 3.999 3.999 0 0 0 3.385 4.532l73.783 10.689a71.97 71.97 0 0 0 1.76-7.828z" style="fill:#fff"/><path d="m316.264 361.007 1.428-5.642-13.58-13.58a72.225 72.225 0 0 0-1.886 5.185l14.038 14.037zM307.337 334.894l12.397 12.397 1.428-5.642-11.216-11.216a72.557 72.557 0 0 0-2.609 4.461z" style="fill:#e05372"/><path d="m307.692 334.235 113.167-18.048a72.872 72.872 0 0 0-8.372-6.766l-98.913 15.775a72.44 72.44 0 0 0-5.882 9.039z" style="fill:#fff"/><path d="M371.285 296.565c-40.041 0-72.5 32.459-72.5 72.5s32.459 72.5 72.5 72.5 72.5-32.459 72.5-72.5-32.459-72.5-72.5-72.5zm0 137c-35.565 0-64.5-28.935-64.5-64.5s28.935-64.5 64.5-64.5 64.5 28.935 64.5 64.5-28.935 64.5-64.5 64.5z" style="fill:#8bcadf"/><circle cx="561" cy="369.065" r="68.5" style="fill:#e6b5a8" transform="rotate(-22.301 561.02 369.058)"/><path d="M533.105 412.582a5 5 0 0 1-4.994-5.325 1543.312 1543.312 0 0 0 2.817-63.428c.065-2.761 2.386-4.935 5.117-4.88a5 5 0 0 1 4.88 5.117 1551.019 1551.019 0 0 1-2.835 63.841 5.001 5.001 0 0 1-4.985 4.675zM568.813 401.756a5.001 5.001 0 0 1-4.53-2.877 508.756 508.756 0 0 1-23.348-59.167 5 5 0 1 1 9.514-3.08 498.766 498.766 0 0 0 22.888 58 5 5 0 0 1-4.524 7.124z" style="fill:#f2f2f2"/><path d="M538.898 340.973c-2.64-2.611-.735-5.218 1.018-7.689a76.88 76.88 0 0 1 6.525-7.991c6.42-6.867 14.046-12.235 22.248-16.762 4.007-2.212 8.606-5.341 13.314-3.232 3.447 1.544 5.842 4.853 7.808 7.943 2.858 4.493 5.065 9.416 6.957 14.383 1.815 4.766 3.396 9.691 4.299 14.719.353 1.963 1.521 6.712-.437 8.265-.884.701-2.391.738-3.454.836-9.442.866-19.383-.585-28.72-1.865-5.374-.737-10.738-1.619-16.032-2.807-3.969-.891-7.916-1.982-11.401-4.158-.676-.423-1.456-.981-2.125-1.642z" style="fill:#fff"/><path d="M554.207 339.207a1.5 1.5 0 0 1-1.366-2.119l2.829-6.245a1.5 1.5 0 0 1 2.283-.569l3.927 3.029 2.041-4.516a1.501 1.501 0 0 1 2.284-.57l5.421 4.19a1.5 1.5 0 0 1-1.835 2.374l-3.919-3.029-2.041 4.514a1.502 1.502 0 0 1-1.003.838c-.445.11-.917.012-1.279-.268l-3.928-3.03-2.047 4.518c-.25.555-.796.883-1.367.883z" style="fill:#a0dae8"/><path d="M533.006 334.635c-3.105-1.043-6.26-1.935-9.438-2.727-7.147-1.781-14.481-3.539-21.877-4.517-8.301 11.792-13.191 26.158-13.191 41.674 0 .057.004.112.004.169 1.654 2.663 3.772 5.54 6.594 6.587.751.279 1.561.305 2.35.238 3.797-.32 7.506-2.672 10.626-4.675 4.531-2.908 8.758-6.294 12.807-9.834 5.513-4.82 10.486-10.079 15.56-15.361 1.255-1.049 2.92-2.913 3.54-4.812.336-1.031.365-2.073-.148-2.999-1.32-2.387-4.451-2.945-6.827-3.743z" style="fill:#fff"/><path d="M531.201 343.527c1.606 5.035 6.476 7.979 10.878 6.575 4.401-1.404 6.667-6.624 5.061-11.659s-6.476-7.979-10.878-6.575c-4.401 1.404-6.667 6.624-5.061 11.659z" style="fill:#f9d045"/><path d="M506.98 351.778a1.5 1.5 0 0 1-1.366-2.119l2.829-6.246a1.5 1.5 0 0 1 2.282-.569l3.927 3.029 2.041-4.515a1.501 1.501 0 0 1 2.284-.57l5.421 4.19a1.5 1.5 0 0 1-1.834 2.374l-3.919-3.029-2.04 4.514a1.498 1.498 0 0 1-2.282.57l-3.928-3.03-2.047 4.519a1.502 1.502 0 0 1-1.368.882z" style="fill:#a0dae8"/><path d="M561 296.565c-40.041 0-72.5 32.459-72.5 72.5s32.459 72.5 72.5 72.5 72.5-32.459 72.5-72.5-32.459-72.5-72.5-72.5zm0 137c-35.565 0-64.5-28.935-64.5-64.5s28.935-64.5 64.5-64.5 64.5 28.935 64.5 64.5-28.935 64.5-64.5 64.5z" style="fill:#e05372"/><circle cx="561" cy="175.957" r="68.5" style="fill:#f2f2f2"/><path d="M596.75 188.881h-71.5a3.712 3.712 0 0 0-3.712 3.712v44.171c11.358 7.386 24.903 11.693 39.461 11.693s28.103-4.307 39.461-11.693v-44.171a3.71 3.71 0 0 0-3.71-3.712zM621.47 135.97l-68.946-16.353c-2.839-.673-5.939 2.145-6.923 6.296l-3.668 15.465c-.984 4.15.519 8.061 3.358 8.734l30.614 7.261 17.035 4.04 30.614 7.261c2.839.673 5.939-2.145 6.923-6.296l.906-3.822a72.084 72.084 0 0 0-9.913-22.586z" style="fill:#89e0b2"/><path d="M572.368 140.146h31.341v7.999h-31.341z" style="fill:#e05372" transform="rotate(-76.662 588.028 144.164)"/><path d="M521.539 218.709h78.923v8h-78.923zM605.958 119.102c-.547 1.138-1.842 2.937-4.362 4.711-1.223.862-2.78 1.252-4.281 1.406.122-.493.231-1.008.324-1.541.574-.939 1.273-1.809 2.152-2.428 2.405-1.695 4.451-2.327 5.724-2.496a72.726 72.726 0 0 0-8.074-5.464c-.296.167-.591.332-.887.514a24.958 24.958 0 0 0-.629-1.386 72.063 72.063 0 0 0-15.592-6.335c-2.891 3.102-3.509 8.967-1.302 15.438 1.649 4.837 5.613 7.964 8.342 9.629l-.094.829 3.135.736 2.968 1.248.41-.725c.606.049 1.273.083 1.996.083 3.075 0 7.033-.586 10.415-2.968 2.519-1.774 4.492-3.788 5.866-5.849a72.78 72.78 0 0 0-6.111-5.402zm-16.055 2.015a22.186 22.186 0 0 0-.668 1.488c-1.125-1.007-2.149-2.248-2.631-3.665-1.121-3.286-.967-5.689-.664-6.804.921.697 2.511 2.506 3.631 5.792.342 1.004.415 2.105.332 3.189z" style="fill:#e05372"/><path d="M519.947 162.585a1.5 1.5 0 0 1-1.061-2.56l3.182-3.182a1.5 1.5 0 1 1 2.121 2.121l-3.182 3.182a1.491 1.491 0 0 1-1.06.439z" style="fill:#a0dae8"/><path d="M607.388 186.888a1.5 1.5 0 0 1-1.061-2.56l3.182-3.182a1.5 1.5 0 1 1 2.121 2.121l-3.182 3.182a1.491 1.491 0 0 1-1.06.439zM552.047 168.459a1.5 1.5 0 0 1-1.06-2.56l3.182-3.182a1.5 1.5 0 1 1 2.121 2.121l-3.182 3.182a1.495 1.495 0 0 1-1.061.439z" style="fill:#6cbca6"/><path d="M570.623 180.459a1.5 1.5 0 0 1-1.06-2.56l3.182-3.182a1.5 1.5 0 1 1 2.121 2.121l-3.182 3.182a1.495 1.495 0 0 1-1.061.439z" style="fill:#a0dae8"/><path d="M537.797 177.548a1.5 1.5 0 0 1-2.56 1.061l-3.182-3.182a1.5 1.5 0 1 1 2.121-2.121l3.182 3.182c.293.292.439.676.439 1.06zM594.221 173.141a1.5 1.5 0 0 1-2.561 1.061l-3.182-3.182a1.5 1.5 0 1 1 2.121-2.121l3.182 3.182c.294.293.44.677.44 1.06z" style="fill:#e6b5a8"/><path d="M518.447 183.73a1.5 1.5 0 0 1-2.561 1.061l-3.182-3.182a1.5 1.5 0 1 1 2.121-2.121l3.182 3.182c.294.292.44.676.44 1.06z" style="fill:#6cbca6"/><path d="M557 248.342a73.65 73.65 0 0 0 4 .115 73.65 73.65 0 0 0 4-.115v-59.461h-8v59.461z" style="fill:#e05372"/><path d="M561 103.457c-40.041 0-72.5 32.459-72.5 72.5s32.459 72.5 72.5 72.5 72.5-32.459 72.5-72.5-32.459-72.5-72.5-72.5zm0 137c-35.565 0-64.5-28.935-64.5-64.5s28.935-64.5 64.5-64.5 64.5 28.935 64.5 64.5-28.935 64.5-64.5 64.5z" style="fill:#f9d045"/><circle cx="940.33" cy="561.391" r="68.5" style="fill:#f2f2f2"/><ellipse cx="953.496" cy="559.521" rx="18.612" ry="18.613" style="fill:#a0dae8" transform="rotate(-22.233 953.435 559.487)"/><path d="M951.506 552.185a1.5 1.5 0 0 1-1.06-2.56l3.182-3.182a1.5 1.5 0 1 1 2.121 2.121l-3.182 3.182a1.495 1.495 0 0 1-1.061.439zM962.693 550.594c-.384 0-.768-.147-1.06-.439l-3.182-3.182a1.5 1.5 0 1 1 2.121-2.121l3.182 3.182a1.5 1.5 0 0 1-1.061 2.56zM946.496 549.609a1.5 1.5 0 0 1-1.061-2.56l3.182-3.182a1.5 1.5 0 1 1 2.121 2.121l-3.182 3.182a1.495 1.495 0 0 1-1.06.439z" style="fill:#fff"/><circle cx="969.664" cy="580.029" r="18.613" style="fill:#e05372" transform="rotate(-79.973 969.692 580.045)"/><path d="M976.927 569.484c-.384 0-.768-.146-1.06-.439l-3.182-3.182a1.5 1.5 0 1 1 2.121-2.121l3.182 3.182a1.5 1.5 0 0 1-1.061 2.56zM965.871 570.359a1.5 1.5 0 0 1-1.061-2.56l3.182-3.182a1.5 1.5 0 1 1 2.121 2.121l-3.182 3.182a1.495 1.495 0 0 1-1.06.439z" style="fill:#fff"/><circle cx="939.5" cy="576.068" r="23.229" style="fill:#e6b5a8" transform="rotate(-62.839 939.482 576.09)"/><path d="M959.939 565.021c-1.573.423-2.547 1.471-3.296 2.292-.907.993-1.432 1.511-2.544 1.511s-1.638-.518-2.545-1.511c-.959-1.05-2.273-2.489-4.76-2.489-2.486 0-3.799 1.438-4.758 2.489-.905.993-1.431 1.511-2.542 1.511-1.111 0-1.637-.518-2.542-1.511-.959-1.05-2.271-2.489-4.759-2.489-2.486 0-3.799 1.438-4.758 2.489-.905.993-1.431 1.511-2.542 1.511-1.11 0-1.635-.518-2.54-1.511-.748-.821-1.721-1.868-3.292-2.292-.491.907-.92 1.852-1.289 2.826.981.058 1.513.554 2.364 1.488.958 1.051 2.271 2.489 4.757 2.489 2.487 0 3.8-1.438 4.759-2.489.905-.993 1.43-1.511 2.541-1.511s1.637.518 2.542 1.511c.959 1.05 2.271 2.489 4.759 2.489 2.487 0 3.8-1.438 4.759-2.489.905-.993 1.43-1.511 2.541-1.511 1.112 0 1.638.518 2.545 1.511.959 1.05 2.272 2.489 4.76 2.489 2.487 0 3.801-1.438 4.759-2.488.854-.935 1.385-1.432 2.37-1.489a23.348 23.348 0 0 0-1.289-2.826z" style="fill:#fff"/><path d="M987.372 580.389h-69.425a2.943 2.943 0 0 0-2.805 3.835l15.198 47.797c.166.523.62.908 1.165.978a72.69 72.69 0 0 0 9.21.597c13.32 0 25.793-3.603 36.519-9.871.304-.178.531-.464.637-.8l12.306-38.7a2.943 2.943 0 0 0-2.805-3.836z" style="fill:#89e0b2"/><path d="m987.079 593.967.954-3h-70.747l.954 3zM980.72 613.967l.954-3h-58.028l.953 3z" style="fill:#fff"/><path d="m938.778 633.56-15.941-50.133a1.501 1.501 0 0 0-2.86.909l15.604 49.071c1.059.077 2.126.123 3.197.153z" style="fill:#fff"/><path d="M940.329 488.891c-40.041 0-72.5 32.459-72.5 72.5s32.459 72.5 72.5 72.5 72.5-32.459 72.5-72.5-32.459-72.5-72.5-72.5zm0 137c-35.565 0-64.5-28.935-64.5-64.5s28.935-64.5 64.5-64.5 64.5 28.935 64.5 64.5c.001 35.565-28.934 64.5-64.5 64.5z" style="fill:#f9d045"/><path d="M930.933 510.898c-.384 0-.768-.146-1.06-.439l-3.183-3.182a1.5 1.5 0 1 1 2.121-2.121l3.183 3.182a1.5 1.5 0 0 1-1.061 2.56z" style="fill:#a0dae8"/><path d="M971.256 531.403c-.384 0-.768-.146-1.061-.439l-3.183-3.182a1.5 1.5 0 1 1 2.121-2.121l3.183 3.182a1.5 1.5 0 0 1-1.06 2.56zM925.479 530.893c-.384 0-.768-.146-1.061-.439l-3.183-3.182a1.5 1.5 0 1 1 2.121-2.121l3.183 3.182a1.5 1.5 0 0 1-1.06 2.56z" style="fill:#6cbca6"/><path d="M896.696 530.957c0-.384.146-.768.44-1.061l3.182-3.183a1.5 1.5 0 1 1 2.121 2.121l-3.182 3.183a1.5 1.5 0 0 1-2.561-1.06zM981.674 547.594c0-.384.146-.768.44-1.061l3.182-3.183a1.5 1.5 0 1 1 2.121 2.121l-3.182 3.183a1.5 1.5 0 0 1-2.561-1.06z" style="fill:#a0dae8"/><path d="M946.746 519.447a1.5 1.5 0 0 1 .439-1.061l3.182-3.183a1.5 1.5 0 1 1 2.121 2.121l-3.182 3.183a1.5 1.5 0 0 1-2.56-1.06zM913.18 553.291c0-.384.146-.768.439-1.061l3.182-3.183a1.5 1.5 0 1 1 2.121 2.121l-3.182 3.183a1.5 1.5 0 0 1-2.56-1.06z" style="fill:#e6b5a8"/><circle cx="940.329" cy="369.065" r="68.5" style="fill:#a0dae8"/><path d="M940.516 438.358c-18.583 0-21.782-4.361-22.236-6.761l-6.84-31.904c-.88-4.65 1.97-8.846 6.113-8.846h45.925c4.143 0 6.993 4.196 6.113 8.846l-6.84 31.904c-.453 2.4-3.652 6.761-22.235 6.761z" style="fill:#f9d045"/><path d="M919.015 433.264c.555.773 1.476 1.592 3 2.343v-44.76h-3v42.417zM929.015 437.598c.92.146 1.919.274 3 .382v-47.133h-3v46.751zM939.015 438.347a104.618 104.618 0 0 0 3 0v-47.5h-3v47.5zM949.015 437.98a52.467 52.467 0 0 0 3-.382v-46.751h-3v47.133zM959.015 435.607c1.524-.75 2.445-1.569 3-2.342v-42.418h-3v44.76z" style="fill:#fff"/><path d="M973.277 372.421c.01-.219.033-.435.033-.657 0-7.732-6.268-14-14-14-4.034 0-7.659 1.716-10.214 4.446a13.935 13.935 0 0 0-9.581-3.811c-1.039 0-2.047.121-3.021.336-2.396-4.275-6.965-7.169-12.215-7.169-7.732 0-14 6.268-14 14 0 2.377.597 4.613 1.642 6.574-6.199 1.441-10.823 6.987-10.823 13.624 0 7.732 6.268 14 14 14 4.531 0 8.548-2.162 11.107-5.501a13.92 13.92 0 0 0 11.285-2.51 13.956 13.956 0 0 0 9.941 4.147c2.888 0 5.571-.876 7.8-2.374 2.56 2.803 6.233 4.572 10.328 4.572 7.732 0 14-6.268 14-14 .001-4.879-2.498-9.171-6.282-11.677z" style="fill:#e05372"/><path d="M958.717 358.907a8.777 8.777 0 0 0-.917-5.944c-.562-1.014-1.35-1.93-2.369-2.483-2.692-1.462-5.447.553-6.818 2.865.162-2.683-.988-5.896-4.036-6.196-1.154-.114-2.32.202-3.354.726a8.782 8.782 0 0 0-4.094 4.406c-2.6 6.231 3.758 10.031 7.258 14.834 5.592-2.012 12.986-1.591 14.33-8.208zM918.924 365.107c0-.384.146-.767.439-1.06l3.182-3.183a1.5 1.5 0 1 1 2.121 2.121l-3.182 3.183a1.5 1.5 0 0 1-2.56-1.061zM942.015 382.428c0-.384.146-.767.439-1.06l3.182-3.183a1.5 1.5 0 1 1 2.121 2.121l-3.182 3.183a1.5 1.5 0 0 1-2.56-1.061z" style="fill:#fff"/><path d="M911.279 388.611a1.5 1.5 0 0 1 .439-1.061l3.182-3.183a1.5 1.5 0 1 1 2.121 2.121l-3.182 3.183a1.5 1.5 0 0 1-2.56-1.06z" style="fill:#e6b5a8"/><path d="M930.606 376.985c-.384 0-.767-.147-1.06-.44l-3.183-3.182a1.5 1.5 0 1 1 2.121-2.121l3.183 3.182a1.5 1.5 0 0 1-1.061 2.561zM968.289 389.464c-.384 0-.768-.146-1.061-.439l-3.183-3.182a1.5 1.5 0 1 1 2.121-2.121l3.183 3.182a1.5 1.5 0 0 1-1.06 2.56z" style="fill:#89e0b2"/><path d="M963.606 373.894c-.384 0-.767-.147-1.06-.44l-3.183-3.182a1.5 1.5 0 1 1 2.121-2.121l3.183 3.182a1.5 1.5 0 0 1-1.061 2.561z" style="fill:#e6b5a8"/><path d="M940.329 296.565c-40.041 0-72.5 32.459-72.5 72.5s32.459 72.5 72.5 72.5 72.5-32.459 72.5-72.5-32.459-72.5-72.5-72.5zm0 137c-35.565 0-64.5-28.935-64.5-64.5s28.935-64.5 64.5-64.5 64.5 28.935 64.5 64.5-28.934 64.5-64.5 64.5z" style="fill:#8bcadf"/><circle cx="181.671" cy="561.391" r="68.5" style="fill:#e6b5a8"/><path d="M156.175 629.268a72.323 72.323 0 0 0 25.495 4.623c29.513 0 54.889-17.644 66.202-42.951v-27.246h-91.697v65.574z" style="fill:#f9d045"/><path d="M210.18 627.121c-2.078.119-3.803 1.425-5.325 2.576-.305.231-.632.477-.959.709a72.063 72.063 0 0 0 8.018-3.127 6.353 6.353 0 0 0-1.734-.158z" style="fill:#fff"/><ellipse cx="202.024" cy="563.694" rx="45.849" ry="14.157" style="fill:#fff"/><path d="M232.731 547.297c-8.315-2.568-19.221-3.982-30.707-3.982s-22.392 1.414-30.707 3.982c-14.366 4.436-17.382 11.365-17.382 16.397 0 5.032 3.016 11.961 17.381 16.397 8.316 2.568 19.221 3.982 30.707 3.982s22.392-1.414 30.707-3.982c14.366-4.436 17.382-11.365 17.382-16.397.001-5.032-3.015-11.961-17.381-16.397zm-30.707 28.776c-22.14 0-40.089-5.542-40.089-12.379s17.948-12.378 40.089-12.378 40.089 5.542 40.089 12.378-17.949 12.379-40.089 12.379z" style="fill:#a0dae8"/><path d="M182.024 563.675a4 4 0 0 1-4-4v-16.75a4 4 0 0 1 8 0v16.75a4 4 0 0 1-4 4zM202.024 563.675a4 4 0 0 1-4-4v-16.75a4 4 0 0 1 8 0v16.75a4 4 0 0 1-4 4zM222.024 563.675a4 4 0 0 1-4-4v-16.75a4 4 0 0 1 8 0v16.75a4 4 0 0 1-4 4z" style="fill:#8bcadf"/><path d="M182.024 536.675a4 4 0 0 1-4-4v-2.936a4 4 0 0 1 8 0v2.936a4 4 0 0 1-4 4zM202.024 536.675a4 4 0 0 1-4-4v-2.936a4 4 0 0 1 8 0v2.936a4 4 0 0 1-4 4zM222.024 536.675a4 4 0 0 1-4-4v-2.936a4 4 0 0 1 8 0v2.936a4 4 0 0 1-4 4zM190.804 633.298c.995-.578 2.163-1.221 2.777-1.185.285.016.73.255 1.211.571a72.126 72.126 0 0 0 6.581-1.525c-.649-.306-1.475-.929-2.179-1.462-1.522-1.151-3.247-2.457-5.326-2.576-2.2-.12-4.132 1.008-5.839 2.008-.888.521-2.24 1.303-2.739 1.246-.696-.085-1.808-1.184-2.702-2.067-1.318-1.303-2.813-2.778-4.771-3.175-2.198-.445-4.31.36-6.174 1.07-.853.326-2.28.874-2.707.765-.862-.28-1.688-1.707-2.417-2.966-.828-1.432-1.685-2.912-3.082-3.765-1.353-.825-2.878-1.389-4.224-1.887-.848-.314-2.081-.768-2.576-1.103a2.491 2.491 0 0 0-.46-1.04v6.336c.44.177.88.341 1.303.497 1.188.439 2.416.893 3.352 1.464.325.213.948 1.289 1.36 2.002 1.12 1.936 2.514 4.344 5.199 5.217 2.057.665 4.169-.138 6.034-.849 1.229-.469 2.622-.999 3.401-.842.497.101 1.551 1.143 2.249 1.831.692.684 1.431 1.405 2.254 2.018.115.001.228.009.344.009.811 0 1.617-.019 2.422-.045 2.262-.08 4.5-.269 6.709-.547z" style="fill:#fff"/><path d="M202.024 609.851c-27.184 0-41.849-7.209-41.849-10.157a4 4 0 0 0-4-4v11.736c8.16 7.109 27.53 10.422 45.848 10.422 9.833 0 19.968-.956 28.514-2.938.197-.18.394-.359.589-.541a71.665 71.665 0 0 0 1.92-1.86c.399-.401.79-.809 1.18-1.219a73.222 73.222 0 0 0 1.579-1.716c.32-.359.641-.717.954-1.083a73.817 73.817 0 0 0 1.944-2.373c.299-.38.589-.767.88-1.154.476-.632.94-1.272 1.396-1.919.176-.251.358-.497.532-.751-5.144 3.307-18.622 7.553-39.487 7.553z" style="fill:#a0dae8"/><path d="M247.872 579.208c-.225.302-.39.653-.46 1.039-.496.334-1.726.789-2.572 1.102-1.346.497-2.872 1.062-4.225 1.888-1.396.852-2.253 2.333-3.082 3.765-.729 1.259-1.554 2.686-2.412 2.965-.425.109-1.858-.438-2.711-.764-1.864-.71-3.974-1.515-6.175-1.07-1.958.396-3.453 1.873-4.771 3.175-.895.883-2.008 1.983-2.705 2.067-.495.072-1.851-.725-2.74-1.246-1.707-1-3.643-2.133-5.84-2.008-2.078.119-3.803 1.425-5.325 2.577-.974.737-2.187 1.654-2.831 1.654-.645 0-1.857-.917-2.831-1.654-1.522-1.152-3.247-2.458-5.326-2.577-2.2-.129-4.132 1.008-5.839 2.008-.889.522-2.251 1.302-2.738 1.247-.696-.085-1.809-1.184-2.703-2.067-1.318-1.303-2.813-2.779-4.771-3.175-2.2-.446-4.311.36-6.175 1.071-.854.325-2.281.866-2.707.765-.862-.28-1.688-1.707-2.417-2.966-.829-1.432-1.686-2.913-3.082-3.765-1.354-.826-2.879-1.39-4.225-1.887-.848-.314-2.08-.769-2.575-1.103a2.482 2.482 0 0 0-.46-1.039v6.336c.439.177.879.34 1.302.497 1.188.439 2.416.893 3.354 1.465.325.212.948 1.289 1.36 2.001 1.12 1.936 2.514 4.344 5.199 5.217 2.055.666 4.168-.138 6.033-.849 1.229-.468 2.619-.997 3.402-.842.497.101 1.552 1.143 2.249 1.832 1.51 1.492 3.221 3.183 5.613 3.474 2.186.266 4.142-.883 5.871-1.896 1.041-.611 2.359-1.369 3.024-1.33.56.032 1.736.922 2.595 1.571 1.652 1.25 3.525 2.667 5.848 2.667s4.196-1.417 5.848-2.667c.858-.649 2.034-1.539 2.594-1.571.684-.04 1.984.719 3.026 1.33 1.728 1.013 3.685 2.16 5.872 1.896 2.392-.291 4.103-1.982 5.614-3.474.698-.69 1.752-1.732 2.25-1.832.775-.153 2.172.374 3.402.842 1.865.711 3.978 1.516 6.033.848 2.685-.873 4.079-3.282 5.199-5.218.412-.712 1.035-1.789 1.358-2.001.938-.573 2.166-1.027 3.354-1.466.422-.156.86-.324 1.298-.5v-6.332z" style="fill:#fff"/><path d="M181.671 488.891c-40.041 0-72.5 32.459-72.5 72.5s32.459 72.5 72.5 72.5 72.5-32.459 72.5-72.5-32.46-72.5-72.5-72.5zm0 137c-35.565 0-64.5-28.935-64.5-64.5s28.935-64.5 64.5-64.5 64.5 28.935 64.5 64.5c-.001 35.565-28.935 64.5-64.5 64.5z" style="fill:#e05372"/><circle cx="371.335" cy="561.391" r="68.5" style="fill:#f2f2f2"/><path d="M349.963 543.16c-10.165-2.499-14.056 2.522-14.056 2.522l-16.337 66.45a72.62 72.62 0 0 0 22.986 15.809l18.692-76.029s-1.12-6.253-11.285-8.752z" style="fill:#6cbca6"/><path d="m338.208 625.873 5.739-3.593 3.763-15.306-19.857 12.432a72.628 72.628 0 0 0 10.355 6.467zM319.57 612.131a70.979 70.979 0 0 0 1.565 1.539l29.465-18.447 3.763-15.307-31.762 19.886-3.031 12.329zM325.49 588.051l31.762-19.885 3.763-15.307-31.762 19.886z" style="fill:#8bcadf"/><path d="M348.348 553.745a4 4 0 0 1-3.887-4.956l3.628-14.757a4 4 0 1 1 7.768 1.91l-3.628 14.757a4 4 0 0 1-3.881 3.046z" style="fill:#a0dae8"/><path d="M354.421 529.041a4 4 0 0 1-3.887-4.956l1.324-5.385a4 4 0 1 1 7.769 1.909l-1.324 5.385a4.002 4.002 0 0 1-3.882 3.047z" style="fill:#f9d045"/><path d="M370.236 589.18s.884-4.373 8.061-5.969c7.176-1.596 9.831 1.991 9.831 1.991l9.408 42.311a71.952 71.952 0 0 1-18.344 1.94l-8.956-40.273z" style="fill:#89e0b2"/><path d="m396.624 623.411.912 4.102a72.254 72.254 0 0 1-6.77 1.273l-13.73-9.028-2.403-10.807 21.991 14.46zM394.779 615.115l-21.991-14.46-2.403-10.807 21.991 14.46z" style="fill:#e6b5a8"/><path d="M380.333 590.15a2.5 2.5 0 0 0 1.438-2.833l-2.316-10.418a2.5 2.5 0 1 0-4.881 1.085l2.316 10.418a2.5 2.5 0 0 0 3.443 1.748z" style="fill:#6cbca6"/><path d="M376.455 572.708a2.5 2.5 0 0 0 1.438-2.833l-.845-3.802a2.5 2.5 0 1 0-4.881 1.085l.846 3.802a2.5 2.5 0 0 0 3.442 1.748z" style="fill:#f9d045"/><path d="M371.335 488.891c-40.041 0-72.5 32.459-72.5 72.5s32.459 72.5 72.5 72.5 72.5-32.459 72.5-72.5-32.459-72.5-72.5-72.5zm0 137c-35.565 0-64.5-28.935-64.5-64.5s28.935-64.5 64.5-64.5 64.5 28.935 64.5 64.5-28.934 64.5-64.5 64.5z" style="fill:#f9d045"/><circle cx="561" cy="561.391" r="68.5" style="fill:#a0dae8"/><path d="m607.978 570.144-23.42-23.313 4.937 16.047zM506.647 513.437a72.58 72.58 0 0 0-10.692 15.926l.634 6.204 57.354 57.354 7.612-18.196-11.451-17.83-43.457-43.458zM551.472 557.87l19.75.781-54.584-54.583c-3.619 2.805-5.596 6.917-8.623 10.345l43.457 43.457z" style="fill:#f9d045"/><path d="m551.472 557.87-43.457-43.457c-.999 1.132-3.329 1.321-4.258 2.514l57.798 57.798-10.083-16.855zM516.638 504.067l54.584 54.584 13.167-15.436-48.85-48.85c-6.953 2.579-13.142 5.239-18.901 9.702z" style="fill:#fff"/><path d="M561 488.891c-40.041 0-72.5 32.459-72.5 72.5s32.459 72.5 72.5 72.5 72.5-32.459 72.5-72.5-32.459-72.5-72.5-72.5zm0 137c-35.565 0-64.5-28.935-64.5-64.5s28.935-64.5 64.5-64.5 64.5 28.935 64.5 64.5-28.935 64.5-64.5 64.5z" style="fill:#8bcadf"/><path d="m589.888 563.031 17.835 6.95a.803.803 0 0 1 .125 1.435l-16.365 9.928a.803.803 0 0 0-.385.64l-1.099 19.11a.803.803 0 0 1-1.326.562l-14.499-12.496a.804.804 0 0 0-.728-.168l-18.514 4.86a.802.802 0 0 1-.944-1.087l7.404-17.651a.804.804 0 0 0-.065-.745l-10.343-16.106a.803.803 0 0 1 .742-1.234l19.075 1.587a.802.802 0 0 0 .688-.292l12.121-14.814a.803.803 0 0 1 1.403.325l4.385 18.632a.805.805 0 0 0 .49.564z" style="fill:#e05372"/><circle cx="750.665" cy="369.065" r="68.5" style="fill:#f2f2f2"/><circle cx="756.189" cy="352.129" r="34.092" style="fill:#6cbca6" transform="rotate(-62.594 756.19 352.114)"/><path d="M726.734 354.478a36.37 36.37 0 0 1-2.306-14.73 34.173 34.173 0 0 1 8.344-12.405c-3.84 7.626-4.607 16.771-1.361 25.369 6.153 16.297 24.418 24.55 40.715 18.397 8.598-3.246 14.954-9.865 18.14-17.787a34.165 34.165 0 0 1-3.794 14.459 36.373 36.373 0 0 1-12.58 8.005c-18.876 7.127-40.031-2.432-47.158-21.308z" style="fill:#a0dae8"/><path d="M740.056 341.131c5.297 14.029 21.02 21.134 35.049 15.837 6.362-2.402 11.292-6.951 14.296-12.51a33.86 33.86 0 0 1 .884 7.592 31.98 31.98 0 0 1-13.414 9.596c-16.609 6.271-35.222-2.14-41.493-18.749a31.976 31.976 0 0 1-1.663-16.41 33.92 33.92 0 0 1 6.282-4.354c-2.188 5.929-2.343 12.636.059 18.998z" style="fill:#a0dae8"/><path d="M748.679 318.878c2.201-.5 4.414-.772 6.61-.83-3.773 4.202-5.143 10.309-3.015 15.948 3.039 8.05 12.061 12.127 20.111 9.087 5.638-2.129 9.315-7.194 9.976-12.803a33.89 33.89 0 0 1 3.746 5.51c-2.027 5.327-6.216 9.804-11.955 11.97-10.629 4.013-22.541-1.369-26.554-11.999-2.168-5.738-1.577-11.841 1.081-16.883z" style="fill:#a0dae8"/><path d="M767.357 381.72a4 4 0 0 1 5.155 2.329l17.361 45.984a72.382 72.382 0 0 1-7.039 4.004l-17.806-47.162a4 4 0 0 1 2.329-5.155z" style="fill:#89e0b2"/><path d="M777.94 325.882c-.068 3.909-2.473 7.573-6.348 9.036-5.071 1.914-10.753-.653-12.667-5.724-1.463-3.875-.302-8.101 2.586-10.736a34.24 34.24 0 0 1 16.429 7.424zm-11.525-4.677a4.835 4.835 0 0 0-2.812 6.224 4.834 4.834 0 0 0 6.224 2.812 4.835 4.835 0 0 0 2.812-6.224 4.835 4.835 0 0 0-6.224-2.812z" style="fill:#a0dae8"/><path d="M770.182 389.205a3.99 3.99 0 0 0 2.119-1.864l3.095-5.82 6.167 2.323a4 4 0 0 0 4.942-1.867l4.742-8.923a3.999 3.999 0 1 0-7.064-3.753l-3.091 5.817-6.166-2.322a4.001 4.001 0 0 0-4.942 1.865l-3.096 5.821-6.168-2.322a4 4 0 0 0-4.941 1.865l-3.097 5.823-6.174-2.322a3.999 3.999 0 1 0-2.816 7.487l9.463 3.56a4 4 0 0 0 4.94-1.865l3.096-5.822 6.169 2.323a4.008 4.008 0 0 0 2.822-.004z" style="fill:#e6b5a8"/><path d="M750.665 296.565c40.041 0 72.5 32.459 72.5 72.5s-32.459 72.5-72.5 72.5-72.5-32.459-72.5-72.5 32.459-72.5 72.5-72.5zm0 137c35.565 0 64.5-28.935 64.5-64.5s-28.935-64.5-64.5-64.5-64.5 28.935-64.5 64.5 28.934 64.5 64.5 64.5z" style="fill:#f9d045"/><circle cx="750.664" cy="561.391" r="68.5" style="fill:#e6b5a8"/><path d="m783.832 622.931-37.699 8.672c-3.456.795-7.052-1.345-8.045-4.825l-12.965-43.54c-1.242-4.354.933-8.672 4.877-9.579l43.027-9.897c3.944-.907 7.788 2.026 8.573 6.486l7.362 44.829c.626 3.563-1.674 7.059-5.13 7.854z" style="fill:#fff"/><path d="M750.813 578.999a4.378 4.378 0 1 1-8.533 1.963 4.378 4.378 0 0 1 8.533-1.963zM773.585 590.455a4.378 4.378 0 1 1-8.533 1.963 4.378 4.378 0 0 1 8.533-1.963zM758.365 605.472a4.378 4.378 0 1 1-8.533 1.963 4.378 4.378 0 0 1 8.533-1.963zM733.05 595.286a4.378 4.378 0 0 0-5.248-3.285c-.022.005-.042.016-.064.022l2.488 8.356c2.077-.729 3.329-2.898 2.824-5.093zM779.296 574.732a4.374 4.374 0 0 0 3.587 3.338l-1.285-7.823c-.021-.119-.053-.233-.078-.35-1.708.905-2.678 2.861-2.224 4.835zM740.605 621.958c-.518-2.254-2.692-3.677-4.943-3.324l2.425 8.144c.015.052.036.1.051.151a4.377 4.377 0 0 0 2.467-4.971zM786.298 602.463a4.378 4.378 0 1 0 1.962 8.533c.01-.002.018-.007.028-.01l-1.412-8.597c-.192.019-.384.029-.578.074zM768.652 621.289a4.378 4.378 0 0 0-3.285 5.248c.048.208.126.401.201.594l8.411-1.935c-.017-.207-.031-.414-.079-.622a4.378 4.378 0 0 0-5.248-3.285z" style="fill:#a0dae8"/><path d="m782.204 570.702-57.427 13.209a3.337 3.337 0 0 1-4.001-2.505l-2.458-10.687a3.337 3.337 0 0 1 2.505-4.001l57.427-13.209a3.338 3.338 0 0 1 4.001 2.505l2.458 10.687a3.339 3.339 0 0 1-2.505 4.001z" style="fill:#f9d045"/><path d="M761.875 547.812a11.483 11.483 0 0 0-4.932-6.137c-1.302-.781-2.795-1.303-4.312-1.263-4.009.106-5.812 4.195-5.852 7.713-1.573-3.147-4.981-6.037-8.634-4.38-1.383.627-2.498 1.749-3.327 3.02a11.485 11.485 0 0 0-1.755 7.676c1.134 8.767 10.829 8.91 17.943 12.063 5.021-5.946 13.679-10.31 10.869-18.692z" style="fill:#6cbca6"/><path d="M750.665 488.891c-40.041 0-72.5 32.459-72.5 72.5s32.459 72.5 72.5 72.5 72.5-32.459 72.5-72.5-32.46-72.5-72.5-72.5zm0 137c-35.565 0-64.5-28.935-64.5-64.5s28.935-64.5 64.5-64.5 64.5 28.935 64.5 64.5-28.935 64.5-64.5 64.5z" style="fill:#e05372"/><path d="M739.831 560.377c-.435.1-.911.006-1.284-.298-1.727-1.404-2.71-3.204-3.007-5.502a10.036 10.036 0 0 1 1.525-6.674 1.5 1.5 0 0 1 2.513 1.638 6.984 6.984 0 0 0-1.063 4.65c.196 1.521.807 2.651 1.925 3.559a1.501 1.501 0 0 1-.609 2.627z" style="fill:#89e0b2"/><path d="M697.812 568.094c0-.384.146-.768.439-1.061l3.182-3.183a1.5 1.5 0 1 1 2.121 2.121l-3.182 3.183a1.5 1.5 0 0 1-2.56-1.06zM727.359 521.68c0-.384.146-.768.44-1.061l3.182-3.183a1.5 1.5 0 1 1 2.121 2.121l-3.182 3.183a1.5 1.5 0 0 1-2.561-1.06zM785.972 533.162a1.5 1.5 0 0 1 .439-1.061l3.182-3.183a1.5 1.5 0 1 1 2.121 2.121l-3.182 3.183a1.5 1.5 0 0 1-2.56-1.06z" style="fill:#fff"/><path d="M707.218 539.371c.384 0 .768.146 1.06.44l3.183 3.182a1.5 1.5 0 1 1-2.121 2.121l-3.183-3.182a1.5 1.5 0 0 1 1.061-2.561zM760.831 516.997c.384 0 .768.146 1.061.44l3.183 3.182a1.5 1.5 0 1 1-2.121 2.121l-3.183-3.182a1.5 1.5 0 0 1 1.06-2.561zM797.791 554.608c.384 0 .768.147 1.061.44l3.183 3.182a1.5 1.5 0 1 1-2.121 2.121l-3.183-3.182a1.5 1.5 0 0 1 1.06-2.561z" style="fill:#e05372"/><circle cx="181.67" cy="753.717" r="68.5" style="fill:#a0dae8"/><path d="M214.82 802.471a3.998 3.998 0 0 0-4.923-2.786 4.001 4.001 0 0 0-2.787 4.923l4.228 15.258a72.515 72.515 0 0 0 7.26-3.761l-3.778-13.634z" style="fill:#f9d045"/><path d="m178.321 759.4 8.433 30.434c2.901 10.47 13.741 16.606 24.211 13.705 10.47-2.901 16.606-13.741 13.705-24.211l-8.433-30.434-37.916 10.506z" style="fill:#fff"/><path d="M216.502 749.852c1.13 4.077-6.442 9.734-16.912 12.635-10.47 2.901-19.874 1.948-21.003-2.129-1.13-4.077 6.442-9.734 16.912-12.635 10.47-2.901 19.873-1.948 21.003 2.129z" style="fill:#f9d045"/><path d="M187.928 770.71c-1.167.357-1.986 1.362-2.011 3.356-.012.938.521 2.751.521 2.751s2.729 13.658 7.644 18.267c4.214 3.951 10.414 5.446 16.095 3.872 4.604-1.276 8.611-4.643 10.652-8.938 2.374-4.996 1.435-10.112-.808-14.91-.666-1.424-1.631-2.042-3.267-1.852-3.046.354-5.589 2.712-8.19 4.103-5.622 3.007-9.266.481-13.073-3.788-1.527-1.712-5.235-3.574-7.563-2.861zM183.261 756.808c-.384 0-.767-.146-1.06-.439l-3.182-3.182a1.5 1.5 0 1 1 2.121-2.121l3.182 3.182a1.5 1.5 0 0 1-1.061 2.56zM194.544 745.062c-.384 0-.768-.146-1.061-.439l-3.182-3.182a1.5 1.5 0 1 1 2.121-2.121l3.182 3.182a1.5 1.5 0 0 1-1.06 2.56zM194.544 719.576c-.384 0-.768-.146-1.061-.44l-3.182-3.182a1.5 1.5 0 1 1 2.121-2.121l3.182 3.182a1.5 1.5 0 0 1-1.06 2.561z" style="fill:#e05372"/><path d="m176.575 711.266-5.893-6.201-30.827 29.298c-4.638 4.408-15.905-1.475-23.67 5.905l-6.662 6.332a73.41 73.41 0 0 0-.352 7.117 72.136 72.136 0 0 0 11.466 39.107l23.905-22.719c7.765-7.38 2.462-18.931 7.101-23.339l30.827-29.298-5.895-6.202z" style="fill:#fff"/><path d="M175.489 736.469c0-.384.146-.768.439-1.061l3.182-3.182a1.5 1.5 0 1 1 2.121 2.121l-3.182 3.182a1.5 1.5 0 0 1-2.56-1.06zM199.822 730.287c0-.384.146-.768.439-1.061l3.182-3.182a1.5 1.5 0 1 1 2.121 2.121l-3.182 3.182a1.5 1.5 0 0 1-2.56-1.06zM206.958 748.078c0-.384.146-.768.439-1.061l3.182-3.182a1.5 1.5 0 1 1 2.121 2.121l-3.182 3.182a1.5 1.5 0 0 1-2.56-1.06zM182.469 717.468c-1.333 1.267-5.053-.482-8.308-3.906-3.255-3.425-4.813-7.228-3.479-8.496 1.333-1.267 5.053.482 8.308 3.906 3.255 3.424 4.812 7.228 3.479 8.496z" style="fill:#e05372"/><path d="M181.671 681.217c-40.041 0-72.5 32.459-72.5 72.5s32.459 72.5 72.5 72.5 72.5-32.459 72.5-72.5c-.001-40.041-32.46-72.5-72.5-72.5zm0 137c-35.565 0-64.5-28.935-64.5-64.5s28.935-64.5 64.5-64.5 64.5 28.935 64.5 64.5c-.001 35.565-28.935 64.5-64.5 64.5z" style="fill:#8bcadf"/><path d="M151.84 742.164a1.5 1.5 0 0 1-1.033-2.587l22.189-21.088a1.5 1.5 0 1 1 2.067 2.174l-22.189 21.088a1.494 1.494 0 0 1-1.034.413zM143.03 766.863a1.501 1.501 0 0 1-1.337-2.179c1.393-2.747 1.52-5.867 1.642-8.885.085-2.121.166-4.124.701-5.859a1.502 1.502 0 0 1 2.868.883c-.42 1.363-.493 3.177-.571 5.098-.129 3.183-.275 6.791-1.964 10.121a1.5 1.5 0 0 1-1.339.821z" style="fill:#f9d045"/><circle cx="371.335" cy="753.717" r="68.5" style="fill:#e6b5a8"/><path d="M387.613 732.288a1.5 1.5 0 0 1-1.5-1.5c0-1.85 1.022-2.848 1.698-3.509.59-.576.794-.804.794-1.361 0-.559-.204-.787-.794-1.364-.676-.661-1.697-1.659-1.697-3.509 0-1.85 1.022-2.848 1.697-3.509.59-.577.794-.806.794-1.364a1.5 1.5 0 1 1 3 0c0 1.85-1.021 2.848-1.697 3.509-.59.577-.794.806-.794 1.364s.204.787.794 1.364c.676.661 1.697 1.659 1.697 3.509 0 1.849-1.021 2.847-1.697 3.507-.59.577-.794.806-.794 1.363a1.501 1.501 0 0 1-1.501 1.5zM325.454 738.048a1.5 1.5 0 0 1-1.5-1.5c0-1.85 1.021-2.848 1.698-3.509.59-.576.794-.804.794-1.361 0-.559-.204-.787-.795-1.364-.676-.661-1.697-1.659-1.697-3.509s1.021-2.848 1.697-3.509c.59-.577.795-.806.795-1.364a1.5 1.5 0 1 1 3 0c0 1.85-1.022 2.848-1.697 3.509-.59.577-.794.806-.794 1.364s.204.787.794 1.364c.676.661 1.697 1.659 1.697 3.509 0 1.849-1.022 2.847-1.697 3.507-.59.577-.794.806-.794 1.363a1.502 1.502 0 0 1-1.501 1.5zM370.748 717.508a1.5 1.5 0 0 1-1.5-1.5c0-1.849 1.022-2.847 1.698-3.508.59-.576.794-.804.794-1.361 0-.559-.204-.787-.795-1.364-.676-.66-1.697-1.659-1.697-3.509 0-1.85 1.022-2.849 1.697-3.509.591-.577.795-.806.795-1.364a1.5 1.5 0 1 1 3 0c0 1.85-1.022 2.849-1.697 3.509-.591.577-.795.806-.795 1.364 0 .559.204.787.795 1.364.676.66 1.697 1.659 1.697 3.509 0 1.849-1.022 2.847-1.698 3.508-.59.576-.794.804-.794 1.361a1.5 1.5 0 0 1-1.5 1.5z" style="fill:#fff"/><path d="M355.116 735.284c-25.118 2.39-44.123 22.965-45.232 47.467-.17 3.752 3.022 6.791 6.761 6.435l86.417-8.221c3.739-.356 6.3-3.942 5.426-7.595-5.709-23.853-28.253-40.476-53.372-38.086z" style="fill:#f9d045"/><path d="M347.669 739.825a2.5 2.5 0 0 1-2.486-2.263 10.03 10.03 0 0 1 2.27-7.393 10.043 10.043 0 0 1 6.832-3.623c2.69-.248 5.313.551 7.393 2.271a10.032 10.032 0 0 1 3.622 6.832 2.5 2.5 0 0 1-2.252 2.726c-1.382.108-2.595-.879-2.726-2.253a5.11 5.11 0 0 0-5.564-4.597 5.068 5.068 0 0 0-3.451 1.829 5.066 5.066 0 0 0-1.146 3.734 2.5 2.5 0 0 1-2.492 2.737z" style="fill:#fff"/><path d="m318.174 783.051-.068-.002a1.5 1.5 0 0 1-1.431-1.565c.072-1.606.238-3.225.493-4.812a1.5 1.5 0 0 1 2.962.475 39.689 39.689 0 0 0-.457 4.472 1.502 1.502 0 0 1-1.499 1.432zM319.769 773.432a1.5 1.5 0 0 1-1.44-1.92 42.776 42.776 0 0 1 18.287-24.237 1.499 1.499 0 1 1 1.6 2.537 39.787 39.787 0 0 0-17.006 22.54 1.503 1.503 0 0 1-1.441 1.08z" style="fill:#e05372"/><path d="M407.57 792.888h-92.903a3.987 3.987 0 0 0-3.236 1.666 72.922 72.922 0 0 0 4.872 6.334h91.267a4 4 0 0 0 0-8z" style="fill:#fff"/><path d="M371.335 681.217c-40.041 0-72.5 32.459-72.5 72.5s32.459 72.5 72.5 72.5 72.5-32.459 72.5-72.5-32.459-72.5-72.5-72.5zm0 137c-35.565 0-64.5-28.935-64.5-64.5s28.935-64.5 64.5-64.5 64.5 28.935 64.5 64.5-28.934 64.5-64.5 64.5z" style="fill:#e05372"/><circle cx="561" cy="753.717" r="68.5" style="fill:#f2f2f2"/><path d="m593.421 778.638-62.791-15.247a2.092 2.092 0 0 1-1.539-2.526l9.071-37.358a2.091 2.091 0 0 1 2.526-1.539L603.42 737.2c1.851.449 2.187 2.937.522 3.861l-17.712 12.157a2.092 2.092 0 0 0-.735 2.975l10.169 19.266c1.039 1.587-.4 3.627-2.243 3.179z" style="fill:#6cbca6"/><path d="M572.978 748.842a10.144 10.144 0 0 0-1.467-6.796c-.719-1.131-1.691-2.134-2.905-2.702-3.208-1.501-6.247 1.014-7.67 3.775.002-3.107-1.546-6.736-5.085-6.872-1.34-.052-2.663.393-3.821 1.069a10.14 10.14 0 0 0-4.42 5.366c-2.571 7.37 5.027 11.316 9.397 16.618 6.314-2.707 14.876-2.73 15.971-10.458z" style="fill:#e6b5a8"/><path d="M541.064 711.556a2.502 2.502 0 0 0-3.019 1.84l-23.338 96.113a72.916 72.916 0 0 0 4.339 3.318l23.857-98.251a2.5 2.5 0 0 0-1.839-3.02z" style="fill:#a0dae8"/><path d="M561 681.217c-40.041 0-72.5 32.459-72.5 72.5s32.459 72.5 72.5 72.5 72.5-32.459 72.5-72.5-32.459-72.5-72.5-72.5zm0 137c-35.565 0-64.5-28.935-64.5-64.5s28.935-64.5 64.5-64.5 64.5 28.935 64.5 64.5-28.935 64.5-64.5 64.5z" style="fill:#f9d045"/><circle cx="940.329" cy="753.717" r="68.5" style="fill:#e6b5a8"/><path d="m985.837 810.14-13.606-68.702s-5.616-7.782-21.522-4.632c-15.906 3.15-18.132 12.485-18.132 12.485l15.16 76.551c14.355-1.456 27.462-7.111 38.1-15.702z" style="fill:#fff"/><path d="M940.329 681.217c-40.041 0-72.5 32.459-72.5 72.5s32.459 72.5 72.5 72.5 72.5-32.459 72.5-72.5-32.459-72.5-72.5-72.5zm0 137c-35.566 0-64.5-28.935-64.5-64.5s28.934-64.5 64.5-64.5c35.565 0 64.5 28.935 64.5 64.5s-28.934 64.5-64.5 64.5z" style="fill:#e05372"/><path d="M950.709 736.806c-15.906 3.15-18.132 12.486-18.132 12.486l6.497 32.808c1.145-.193 2.23-.693 3.048-1.512 1.724-1.727 3.184-7.742 6.217-4.127 1.327 1.581 2.217 3.481 3.443 5.141 1.833 2.482 4.496 4.12 7.476 2.559 2.477-1.297 2.707-4.521 4.012-6.698 1.923-3.209 5.522-2.293 7.943.003 1.951 1.85 3.162 4.372 5.23 6.102 1.414 1.182 2.967 1.639 4.42 1.459l-8.632-43.588s-5.616-7.783-21.522-4.633z" style="fill:#f9d045"/><path d="M952.304 748.876a4.001 4.001 0 0 1-3.92-3.224l-2.38-12.017a4 4 0 1 1 7.847-1.555l2.38 12.017a4 4 0 0 1-3.927 4.779z" style="fill:#8bcadf"/><path d="M947.835 726.314a4.001 4.001 0 0 1-3.92-3.224l-1.036-5.232a4 4 0 0 1 7.847-1.555l1.036 5.232a4 4 0 0 1-3.927 4.779z" style="fill:#fff"/><circle cx="750.665" cy="753.717" r="68.5" style="fill:#a0dae8"/><path d="m812.291 784.563 3-22.759c.222-1.687-1.719-2.791-3.055-1.736l-29.255 23.084a1.897 1.897 0 0 1-2.717-.385l-16.765-23.432a1.896 1.896 0 0 0-3.086.003l-16.878 23.671a1.897 1.897 0 0 1-2.722.385l-29.396-23.307c-1.335-1.059-3.281.044-3.058 1.734l7.241 54.924a72.251 72.251 0 0 0 6.633 2.876H773.097c17.033-6.385 31.013-18.994 39.194-35.058z" style="fill:#e05372"/><path d="M705.802 751.19a4 4 0 0 1-3.961-3.477l-.947-7.182a4 4 0 0 1 7.931-1.047l.947 7.182a4 4 0 0 1-3.97 4.524z" style="fill:#fff"/><path d="M777.178 796.388a10.147 10.147 0 0 0-3.029-6.258c-.966-.93-2.147-1.674-3.461-1.94-3.471-.702-5.831 2.459-6.563 5.479-.731-3.019-3.091-6.181-6.563-5.479-1.314.266-2.495 1.01-3.461 1.94a10.142 10.142 0 0 0-3.029 6.258c-.759 7.769 7.555 9.811 13.053 13.932 5.498-4.121 13.812-6.164 13.053-13.932z" style="fill:#f9d045"/><path d="M761.776 749.082h-.051a4 4 0 0 1-3.95-4.05l.1-8.028a4 4 0 0 1 3.999-3.95h.051a4 4 0 0 1 3.95 4.05l-.1 8.028a4 4 0 0 1-3.999 3.95zM814.313 751.156a4.001 4.001 0 0 0 4.488-3.443l.724-5.492a71.967 71.967 0 0 0-.793-4.886 3.964 3.964 0 0 0-2.428-1.291 3.99 3.99 0 0 0-4.488 3.443l-.946 7.182a4 4 0 0 0 3.443 4.487z" style="fill:#fff"/><path d="M750.665 681.217c-40.041 0-72.5 32.459-72.5 72.5s32.459 72.5 72.5 72.5 72.5-32.459 72.5-72.5-32.46-72.5-72.5-72.5zm0 137c-35.565 0-64.5-28.935-64.5-64.5s28.935-64.5 64.5-64.5 64.5 28.935 64.5 64.5-28.935 64.5-64.5 64.5z" style="fill:#8bcadf"/><circle cx="561" cy="946.043" r="68.5" style="fill:#e6b5a8"/><path d="M618.603 981.383c.569 2.257 1.025 4.733.034 6.84-.98 2.083-3.157 3.318-5.296 4.168-3.221 1.281-7.914 1.318-8.213-3.185-.078-1.176.171-2.346.382-3.506.57-3.135.864-6.392.097-9.485-1.418-5.719-6.211-10.042-8.145-15.607-.909-2.615-.708-4.89 1.324-6.82 2.467-2.342 5.668-1.021 7.865 1.125 3.311 3.236 4.872 7.84 6.739 11.961 2.121 4.687 3.953 9.515 5.213 14.509zM560.806 986.074c-1.132 2.034-2.497 4.15-4.662 5.005-2.141.846-4.572.253-6.713-.593-3.224-1.274-6.667-4.463-3.8-7.947.749-.91 1.732-1.592 2.681-2.292 2.563-1.893 5.009-4.064 6.57-6.842 2.886-5.136 2.358-11.569 4.762-16.948 1.13-2.528 2.835-4.047 5.637-4.06 3.402-.015 4.828 3.14 4.957 6.208.194 4.626-1.824 9.049-3.288 13.329-1.664 4.868-3.639 9.64-6.144 14.14z" style="fill:#fff"/><path d="M602.412 956.218c-1.094-8.183-9.054-14.144-17.891-14.144h-1.576c-8.836 0-16.797 5.962-17.891 14.144 0 0-5.629 20.677-5.607 24.146.062 9.806 10.935 17.718 24.286 17.718s24.224-7.913 24.286-17.718c.022-3.47-5.607-24.146-5.607-24.146z" style="fill:#f9d045"/><path d="M567.618 1007.635c3.405-.975 6.074-3.836 7.437-7.112 2.373-5.704 1.703-14.05-.697-19.64-1.521-3.542-4.64-6.657-8.474-7.05-5.758-.591-10.899 4.563-12.734 9.594-2.151 5.894-1.635 13.861 1.978 19.071 2.703 3.897 7.722 6.401 12.307 5.188l.183-.051z" style="fill:#fff"/><path d="M576.203 968.878c-.028-.011-.056-.024-.084-.037a1.387 1.387 0 0 1-.641-1.856c2.56-5.262 1.564-3.226 3.904-8.589a1.396 1.396 0 0 1 1.828-.717 1.388 1.388 0 0 1 .717 1.828c-2.355 5.398-1.376 3.397-3.952 8.693-.321.661-1.1.952-1.772.678zM583.054 970.337a1.39 1.39 0 0 1-.863-1.216c-.299-5.864-.241-4.878.197-10.734a1.389 1.389 0 0 1 2.769.207c-.429 5.741-.485 4.637-.192 10.386a1.388 1.388 0 0 1-1.911 1.357z" style="fill:#e05372"/><path d="M581.732 958.498c-.405-.949.359-1.419 1.069-1.87.807-.512 1.648-.97 2.517-1.369 2.372-1.092 4.896-1.671 7.48-1.974 1.262-.148 2.773-.47 3.763.567.724.759.992 1.861 1.174 2.862.263 1.455.313 2.953.278 4.428-.034 1.416-.145 2.848-.44 4.236-.115.542-.314 1.885-.98 2.079-.301.088-.692-.061-.976-.148-2.519-.769-4.922-2.186-7.188-3.495a53.74 53.74 0 0 1-3.827-2.405c-.927-.646-1.827-1.341-2.495-2.266a3.335 3.335 0 0 1-.375-.645z" style="fill:#e05372"/><path d="M580.882 956.25a34.174 34.174 0 0 0-2.14-1.692c-1.473-1.052-3.03-1.889-4.485-2.93-.811-.581-1.72-1.189-2.713-1.093-.893.086-1.627.728-2.228 1.394-1.744 1.932-6.303 9.866-1.925 11.238 1.01.316 2.21.101 3.223-.086 1.47-.272 2.913-.699 4.326-1.184 1.923-.66 3.754-1.49 5.613-2.316.433-.138 1.057-.442 1.415-.866.195-.23.311-.495.277-.787-.089-.751-.836-1.223-1.363-1.678z" style="fill:#e05372"/><path d="M579.484 958.347c-.116 1.463.827 2.731 2.106 2.833 1.279.101 2.41-1.003 2.526-2.466.116-1.463-.827-2.731-2.106-2.833-1.279-.102-2.41 1.002-2.526 2.466zM622.879 908.255a72.793 72.793 0 0 0-10.123-12.962c-.198-.017-.395-.044-.595-.044-5.709 0-9.957 6.897-9.957 12.607s0 12.606 10.337 12.606c10.099 0 10.333-6.581 10.338-12.207zM550.771 907.856c0-5.709 4.247-12.606 9.957-12.606 5.709 0 10.718 6.897 10.718 12.606s0 12.606-10.337 12.606-10.338-6.897-10.338-12.606z" style="fill:#fff"/><ellipse cx="585.037" cy="927.526" rx="31.328" ry="29.751" style="fill:#f9d045"/><path d="M591.69 936.756c0 5.098-5.649 12.407-12.616 12.407-6.968 0-12.617-7.309-12.617-12.407s5.649-9.23 12.617-9.23c6.967 0 12.616 4.132 12.616 9.23z" style="fill:#fff"/><path d="M580.9 932.014c0 1.34-1.728 3.418-3.86 3.418-2.132 0-3.86-2.079-3.86-3.418 0-1.34 1.728-2.426 3.86-2.426 2.132 0 3.86 1.086 3.86 2.426z" style="fill:#e05372"/><path d="M577.038 944.811a1.5 1.5 0 0 1-1.466-1.189 58.21 58.21 0 0 1-.521-2.872c-.86-5.391.555-8.703.615-8.842a1.5 1.5 0 0 1 2.752 1.197c-.029.07-1.109 2.754-.404 7.174.166 1.046.332 1.961.493 2.723a1.501 1.501 0 0 1-1.469 1.809z" style="fill:#e05372"/><path d="M599.046 972.916c-5.758-.591-10.899 4.563-12.734 9.594-2.151 5.894-1.635 13.861 1.978 19.071 2.701 3.894 7.713 6.396 12.295 5.19a72.678 72.678 0 0 0 6.108-4.45 13.783 13.783 0 0 0 1.523-2.715c2.373-5.704 1.703-14.05-.697-19.64-1.52-3.542-4.639-6.657-8.473-7.05z" style="fill:#fff"/><path d="M566.514 1002.226c2.288-.655 4.082-2.578 4.998-4.78 1.595-3.833 1.144-9.442-.469-13.199-1.022-2.38-3.118-4.474-5.695-4.738-3.87-.397-7.324 3.067-8.558 6.448-1.445 3.961-1.099 9.315 1.329 12.816 1.816 2.619 5.189 4.302 8.271 3.487l.124-.034zM599.695 1001.402c2.307-.661 4.116-2.6 5.04-4.82 1.608-3.865 1.154-9.522-.472-13.31-1.031-2.4-3.144-4.511-5.743-4.778-3.902-.4-7.386 3.093-8.63 6.502-1.458 3.995-1.108 9.393 1.341 12.924 1.832 2.641 5.233 4.338 8.34 3.516l.124-.034z" style="fill:#f9d045"/><path d="M561 873.543c-40.041 0-72.5 32.459-72.5 72.5s32.459 72.5 72.5 72.5 72.5-32.459 72.5-72.5c0-40.04-32.459-72.5-72.5-72.5zm0 137c-35.565 0-64.5-28.935-64.5-64.5s28.935-64.5 64.5-64.5 64.5 28.935 64.5 64.5c0 35.566-28.935 64.5-64.5 64.5z" style="fill:#e05372"/><circle cx="371.335" cy="946.043" r="68.5" style="fill:#a0dae8"/><path d="M422.794 997.106c-.039-.107-.069-.214-.112-.32l-22.989-56.323c-1.098-3.519-6.779-19.795-19.578-25.969-6.331-3.053-13.36-3.164-20.33-.319-20.459 8.351-20.332 29.887-15.255 42.325a9 9 0 1 0 16.665-6.802c-.016-.039-1.598-4.209-1.505-8.716.107-5.179 2.169-8.211 6.897-10.141 2.861-1.17 4.542-.692 5.687-.144 5.033 2.407 9.112 11.371 10.291 15.308.086.297.189.589.306.876l23.147 56.708a8.951 8.951 0 0 0 3.418 4.135 72.926 72.926 0 0 0 13.358-10.618z" style="fill:#e05372"/><path d="m418.663 986.941-12.239 17.462a8.934 8.934 0 0 0 3.562 3.629l10.924-15.586-2.247-5.505zM400.885 991.016l12.286-17.529-2.247-5.505-12.286 17.529zM393.146 972.057l12.287-17.529-2.247-5.506-12.287 17.53zM383.16 947.593l2.247 5.505 12.399-17.69a59.043 59.043 0 0 0-2.497-5.149l-12.149 17.334zM356.263 961.431a9.001 9.001 0 0 0 4.932-11.734c-.003-.008-.073-.194-.178-.511l-9.019 12.868a8.946 8.946 0 0 0 4.265-.623zM383.803 916.675l-10.332 14.741c1.278.891 2.478 2.164 3.568 3.621l10.615-15.145a31.084 31.084 0 0 0-3.851-3.217zM343.345 953.107l28.652-40.878a24.252 24.252 0 0 0-6.277.245l-23.758 33.895c.28 2.361.757 4.632 1.383 6.738z" style="fill:#fff"/><path d="M371.335 873.543c-40.041 0-72.5 32.459-72.5 72.5s32.459 72.5 72.5 72.5 72.5-32.459 72.5-72.5c0-40.04-32.459-72.5-72.5-72.5zm0 137c-35.565 0-64.5-28.935-64.5-64.5s28.935-64.5 64.5-64.5 64.5 28.935 64.5 64.5c0 35.566-28.934 64.5-64.5 64.5z" style="fill:#8bcadf"/><circle cx="181.67" cy="946.043" r="68.5" style="fill:#f2f2f2" transform="rotate(-22.301 181.696 946.057)"/><path d="M150.785 1011.641a72.204 72.204 0 0 0 30.886 6.902 72.208 72.208 0 0 0 30.886-6.902l3.947-49.515h-69.667l3.948 49.515z" style="fill:#89e0b2"/><ellipse cx="181.671" cy="962.125" rx="34.833" ry="10.981" style="fill:#6cbca6"/><path d="M212.842 953.893a16.01 16.01 0 0 0-.092-.718c-.828-5.475-3.571-11.195-7.135-15.689-2.915-3.677-6.496-6.764-9.407-10.444-1.42-1.795-2.68-3.738-3.52-5.876-.952-2.421-.766-4.931-1.49-7.365-.051-.172-.122-.357-.292-.451-.271-.151-.62.009-.882.172-2.983 1.845-5.319 4.177-8.427 5.944-3.067 1.744-6.235 3.353-9.177 5.266-5.688 3.697-11.51 7.158-15.596 12.403-2.609 3.35-4.5 7.141-5.554 11.106-1.002 3.77-1.855 8.545.18 12.151 1.672 2.961 5.27 4.546 8.614 5.63 5.745 1.863 12.029 2.526 18.121 2.796 6.32.28 12.697-.095 18.882-1.313 3.915-.771 8.113-1.46 11.438-3.583 3.685-2.354 4.741-6.182 4.337-10.029z" style="fill:#e6b5a8"/><path d="M176.86 917.922a7.262 7.262 0 0 0-3.398-3.636c-.857-.431-1.823-.69-2.778-.593-2.522.256-3.465 2.918-3.325 5.137-1.14-1.909-3.424-3.57-5.648-2.354-.842.46-1.492 1.22-1.955 2.06a7.264 7.264 0 0 0-.744 4.921c1.128 5.472 7.245 5.106 11.877 6.758 2.886-3.983 8.137-7.142 5.971-12.293zM203.555 966.055c1.569-5.387 1.772-11.331.508-17.185-.8-3.703-2.366-7.044-3.879-10.274-.898-1.916-1.826-3.896-2.564-5.901-.795-2.158-1.378-4.189-1.753-6.108-1.276-1.669-2.407-3.46-3.179-5.42a9.71 9.71 0 0 1-.274-.813c-.223 3.997.557 8.402 2.39 13.378.783 2.124 1.738 4.164 2.663 6.137 1.51 3.222 2.936 6.265 3.664 9.635 1.292 5.986.931 12.063-.989 17.392a44.955 44.955 0 0 0 3.413-.841zM183.825 968.88c.058-.25.06-.516-.021-.778-2.431-7.927-2.604-16.707-.488-24.724.793-3.002 1.921-5.994 3.012-8.889.348-.922.695-1.843 1.033-2.767 1.652-4.514 3.535-10.295 4.181-16.41a13.679 13.679 0 0 0-.344-1.512c-.051-.172-.122-.357-.292-.451-.271-.151-.62.009-.882.172-.489.303-.957.621-1.418.945-.554 5.987-2.424 11.748-4.063 16.225-.335.915-.679 1.827-1.023 2.739-1.118 2.965-2.274 6.031-3.105 9.182a48.038 48.038 0 0 0 .495 26.279c.972.015 1.943.008 2.915-.011zM186.178 916.276c-1.451 1.117-2.904 2.236-4.581 3.19l-.095.053a38.161 38.161 0 0 1-1.547 2.511 57.968 57.968 0 0 1-7.728 9.309c-1.367 1.334-2.844 2.643-4.272 3.908-3.619 3.207-7.361 6.523-9.978 10.783-3.18 5.179-4.339 11.504-3.427 17.499 1.049.69 2.213 1.258 3.412 1.734-1.506-5.916-.632-12.447 2.571-17.662 2.383-3.881 5.797-6.905 9.411-10.107 1.455-1.29 2.96-2.623 4.379-4.008a61.042 61.042 0 0 0 8.128-9.791c1.334-2.001 2.852-4.534 3.727-7.419z" style="fill:#e05372"/><path d="M182.387 929.145c-.384 0-.768-.146-1.061-.44l-3.182-3.182a1.5 1.5 0 1 1 2.121-2.121l3.182 3.182a1.5 1.5 0 0 1-1.06 2.561zM193.968 931.117c-.384 0-.768-.146-1.061-.439l-3.182-3.182a1.5 1.5 0 1 1 2.121-2.121l3.182 3.182a1.5 1.5 0 0 1-1.06 2.56zM165.384 942.269c-.384 0-.768-.147-1.061-.44l-3.182-3.182a1.5 1.5 0 1 1 2.121-2.121l3.182 3.182a1.5 1.5 0 0 1-1.06 2.561zM193.133 945.779c-.384 0-.768-.146-1.061-.44l-3.182-3.182a1.5 1.5 0 1 1 2.121-2.121l3.182 3.182a1.5 1.5 0 0 1-1.06 2.561zM186.178 925.034a1.5 1.5 0 0 1-1.061-2.56l3.182-3.182a1.5 1.5 0 1 1 2.121 2.121l-3.182 3.182a1.491 1.491 0 0 1-1.06.439zM184.587 934.528a1.5 1.5 0 0 1-1.061-2.561l3.182-3.182a1.5 1.5 0 1 1 2.121 2.121l-3.182 3.182c-.292.293-.676.44-1.06.44zM180.796 948.306a1.5 1.5 0 0 1-1.061-2.561l3.182-3.183a1.5 1.5 0 1 1 2.121 2.121l-3.182 3.183c-.292.293-.677.44-1.06.44z" style="fill:#fff"/><path d="M210.102 980.414a4 4 0 1 0-.626 7.975c4.556.357 8.125 4.225 8.125 8.804 0 4.869-3.962 8.831-8.831 8.831-.238 0-.475-.01-.708-.028-2.191-.165-4.127 1.474-4.3 3.676-.165 2.108 1.341 3.943 3.4 4.251a72.26 72.26 0 0 0 16.416-8.736 16.72 16.72 0 0 0 2.023-7.993c0-8.728-6.808-16.098-15.499-16.78z" style="fill:#6cbca6"/><path d="M181.671 873.543c-40.041 0-72.5 32.459-72.5 72.5s32.459 72.5 72.5 72.5 72.5-32.459 72.5-72.5c-.001-40.04-32.46-72.5-72.5-72.5zm0 137c-35.565 0-64.5-28.935-64.5-64.5s28.935-64.5 64.5-64.5 64.5 28.935 64.5 64.5c-.001 35.566-28.935 64.5-64.5 64.5z" style="fill:#f9d045"/><circle cx="750.664" cy="946.043" r="68.5" style="fill:#f2f2f2"/><path d="M819.689 923.845a72.117 72.117 0 0 0-5.049-11.919l-63.661 63.66c-8.256 8.255-24.497 6.308-32.003-1.075-4.282-4.212-6.933-10.498-7.274-17.246-.203-4.019.463-7.522 1.925-10.133 1.396-2.493 3.859-4.783 7.121-6.623 2.461-1.388 6.226-2.984 10.15-2.716 4.386.3 9.592 3.235 13.262 7.478 3.054 3.53 3.629 7.193 1.708 10.888-1.389 2.673-4.062 5.266-6.811 6.606-2.316 1.133-5.617 1.515-7.935-.802-1.29-1.291-1.4-2.941-.957-3.929.646-1.438 2.501-1.636 3.943-1.554 3.304.219 6.148-2.329 6.341-5.638a6 6 0 0 0-5.638-6.341c-7.156-.418-12.981 2.802-15.594 8.617-2.577 5.742-1.203 12.705 3.42 17.328 5.585 5.586 14.097 6.804 21.683 3.103 5.062-2.47 9.62-6.902 12.196-11.857 4.226-8.131 3.03-16.978-3.281-24.273-4.502-5.203-12.519-10.981-21.517-11.599-5.461-.373-11.29 1.091-16.866 4.236-5.178 2.921-9.223 6.797-11.694 11.21-2.604 4.649-3.763 10.235-3.44 16.604.491 9.716 4.443 18.899 10.844 25.195 6.66 6.552 16.193 9.858 25.541 9.858 8.803 0 17.442-2.934 23.361-8.853l60.225-60.225z" style="fill:#a0dae8"/><path d="m807.729 935.804 3-3v-16.968l-3 2.999zM799.729 943.804l3-3v-16.969l-3 3zM780.729 962.804l3-3v-16.969l-3 3zM772.729 970.804l3-3v-16.969l-3 3zM764.729 978.804l3-3v-16.969l-3 3z" style="fill:#6cbca6"/><path d="M717.093 918.747a1.5 1.5 0 0 1-1.488-1.326l-.59-5.067a1.5 1.5 0 0 1 1.664-1.664l3.183.371-.373-3.18a1.499 1.499 0 0 1 .43-1.235 1.493 1.493 0 0 1 1.235-.43l5.063.594a1.501 1.501 0 0 1 1.315 1.665 1.504 1.504 0 0 1-1.665 1.315l-3.177-.373.373 3.178a1.5 1.5 0 0 1-1.664 1.665l-3.185-.371.371 3.185a1.5 1.5 0 0 1-1.492 1.673zM768.908 934.073a1.501 1.501 0 0 1-1.492-1.675l.373-3.178-3.178.373a1.494 1.494 0 0 1-1.235-.429 1.505 1.505 0 0 1-.43-1.235l.371-3.185-3.185.371a1.5 1.5 0 0 1-.348-2.98l5.067-.59a1.503 1.503 0 0 1 1.664 1.664l-.371 3.183 3.18-.373a1.505 1.505 0 0 1 1.665 1.665l-.594 5.063a1.5 1.5 0 0 1-1.487 1.326z" style="fill:#e6b5a8"/><path d="M750.665 873.543c-40.041 0-72.5 32.459-72.5 72.5s32.459 72.5 72.5 72.5 72.5-32.459 72.5-72.5c0-40.04-32.46-72.5-72.5-72.5zm0 137c-35.565 0-64.5-28.935-64.5-64.5s28.935-64.5 64.5-64.5 64.5 28.935 64.5 64.5c0 35.566-28.935 64.5-64.5 64.5z" style="fill:#f9d045"/></svg>