<svg xmlns="http://www.w3.org/2000/svg" width="30" height="30" fill="none" class="t-sociallinks__svg" viewBox="0 0 100 100"><path fill="#fff" fill-rule="evenodd" d="M50 100c27.6142 0 50-22.3858 50-50S77.6142 0 50 0 0 22.3858 0 50s22.3858 50 50 50M25 39.3918C25 31.4558 31.4566 25 39.3918 25h21.2164C68.5442 25 75 31.4566 75 39.3918v21.411c0 7.9352-6.4558 14.3918-14.3918 14.3918H39.3918C31.4558 75.1946 25 68.738 25 60.8028zm11.9883 10.6136c0-7.1207 5.8555-12.9132 13.0514-12.9132s13.0514 5.7925 13.0514 12.9132c0 7.1198-5.8555 12.9123-13.0514 12.9123-7.1967 0-13.0514-5.7925-13.0514-12.9123m4.7539 0c0 4.4979 3.7219 8.1584 8.2975 8.1584s8.2975-3.6597 8.2975-8.1584c0-4.4988-3.7227-8.1585-8.2975-8.1585-4.5756 0-8.2975 3.6597-8.2975 8.1585m21.5826-10.3699c1.696 0 3.0708-1.3749 3.0708-3.0709 0-1.6959-1.3748-3.0708-3.0708-3.0708s-3.0709 1.3749-3.0709 3.0708c0 1.696 1.3749 3.0709 3.0709 3.0709" clip-rule="evenodd"/></svg>