<svg xmlns="http://www.w3.org/2000/svg" viewBox="5991.25 5073.25 54.5 54.5"> <path fill="url(#tSvgGradientf57d74ac3)" stroke="none" fill-opacity="1" stroke-width="1" stroke-opacity="1" clip-rule="evenodd" fill-rule="evenodd" id="tSvg13ad796ffd4" d="M 5995.75 5083 C 5995.75 5080.0885 5998.0885 5077.75 6001 5077.75 C 6012.666666666667 5077.75 6024.333333333333 5077.75 6036 5077.75 C 6038.9115 5077.75 6041.25 5080.0885 6041.25 5083 C 6041.25 5094.666666666667 6041.25 5106.333333333333 6041.25 5118 C 6041.25 5120.9115 6038.9115 5123.25 6036 5123.25 C 6024.333333333333 5123.25 6012.666666666667 5123.25 6001 5123.25 C 5998.0885 5123.25 5995.75 5120.9115 5995.75 5118C 5995.75 5106.333333333333 5995.75 5094.666666666667 5995.75 5083Z M 6001 5074.25 C 5996.1555 5074.25 5992.25 5078.1555 5992.25 5083 C 5992.25 5094.666666666667 5992.25 5106.333333333333 5992.25 5118 C 5992.25 5122.8445 5996.1555 5126.75 6001 5126.75 C 6012.666666666667 5126.75 6024.333333333333 5126.75 6036 5126.75 C 6040.8445 5126.75 6044.75 5122.8445 6044.75 5118 C 6044.75 5106.333333333333 6044.75 5094.666666666667 6044.75 5083 C 6044.75 5078.1555 6040.8445 5074.25 6036 5074.25C 6024.333333333333 5074.25 6012.666666666667 5074.25 6001 5074.25Z M 6004.5 5084.75 C 6003.5335 5084.75 6002.75 5085.5335 6002.75 5086.5 C 6002.75 5087.4665 6003.5335 5088.25 6004.5 5088.25 C 6005.1834 5088.25 6005.8668 5088.25 6006.5502 5088.25 C 6006.8088 5088.9813 6007.2287 5089.6534 6007.7877 5090.2123 C 6008.7723 5091.1969 6010.1076 5091.75 6011.5 5091.75 C 6012.1894 5091.75 6012.8721 5091.6142 6013.5091 5091.3504 C 6014.146 5091.0865 6014.7248 5090.6998 6015.2123 5090.2123 C 6015.6998 5089.7248 6016.0865 5089.146 6016.3504 5088.5091 C 6016.3858 5088.4235 6016.4189 5088.3372 6016.4497 5088.2501 C 6021.7998 5088.2500666666665 6027.1499 5088.250033333334 6032.5 5088.25 C 6033.4665 5088.25 6034.25 5087.4665 6034.25 5086.5 C 6034.25 5085.5335 6033.4665 5084.75 6032.5 5084.75 C 6027.149933333333 5084.750033333334 6021.799866666666 5084.7500666666665 6016.4498 5084.7501 C 6016.419 5084.6629 6016.3858 5084.5765 6016.3504 5084.4909 C 6016.0865 5083.854 6015.6998 5083.2752 6015.2123 5082.78769 C 6014.7248 5082.30018 6014.146 5081.91347 6013.5091 5081.64963 C 6012.8721 5081.3858 6012.1894 5081.25 6011.5 5081.25 C 6010.1076 5081.25 6008.7723 5081.80312 6007.7877 5082.78769 C 6007.2287 5083.34665 6006.8088 5084.0187 6006.5502 5084.75C 6005.8668 5084.75 6005.1834 5084.75 6004.5 5084.75Z M 6013.25 5086.5 C 6013.25 5086.2702 6013.2047 5086.0426 6013.1168 5085.8303 C 6013.0288 5085.618 6012.8999 5085.4251 6012.7374 5085.2626 C 6012.5749 5085.1001 6012.382 5084.9712 6012.1697 5084.8832 C 6011.9574 5084.7953 6011.7298 5084.75 6011.5 5084.75 C 6011.0359 5084.75 6010.5908 5084.9344 6010.2626 5085.2626 C 6009.9344 5085.5908 6009.75 5086.0359 6009.75 5086.5 C 6009.75 5086.9641 6009.9344 5087.4092 6010.2626 5087.7374 C 6010.5907 5088.0656 6011.0359 5088.25 6011.5 5088.25 C 6011.7298 5088.25 6011.9574 5088.2047 6012.1697 5088.1168 C 6012.382 5088.0288 6012.5749 5087.8999 6012.7374 5087.7374 C 6012.8999 5087.5749 6013.0288 5087.382 6013.1168 5087.1697C 6013.2047 5086.9574 6013.25 5086.7298 6013.25 5086.5Z M 6030.4497 5098.75 C 6030.1912 5098.0187 6029.7713 5097.3466 6029.2123 5096.7877 C 6028.2277 5095.8031 6026.8924 5095.25 6025.5 5095.25 C 6024.1076 5095.25 6022.7723 5095.8031 6021.7877 5096.7877 C 6021.2287 5097.3467 6020.8088 5098.0187 6020.5502 5098.7501 C 6015.200133333334 5098.7500666666665 6009.850066666667 5098.750033333334 6004.5 5098.75 C 6003.5335 5098.75 6002.75 5099.5335 6002.75 5100.5 C 6002.75 5101.4665 6003.5335 5102.25 6004.5 5102.25 C 6009.8501 5102.250033333334 6015.2002 5102.2500666666665 6020.5503 5102.2501 C 6020.8089 5102.9814 6021.2288 5103.6534 6021.7877 5104.2123 C 6022.7723 5105.1969 6024.1076 5105.75 6025.5 5105.75 C 6026.8924 5105.75 6028.2277 5105.1969 6029.2123 5104.2123 C 6029.7713 5103.6534 6030.1912 5102.9813 6030.4497 5102.25 C 6031.133133333334 5102.25 6031.816566666666 5102.25 6032.5 5102.25 C 6033.4665 5102.25 6034.25 5101.4665 6034.25 5100.5 C 6034.25 5099.5335 6033.4665 5098.75 6032.5 5098.75C 6031.816566666666 5098.75 6031.133133333334 5098.75 6030.4497 5098.75Z M 6027.25 5100.5 C 6027.25 5100.0359 6027.0656 5099.5908 6026.7374 5099.2626 C 6026.4092 5098.9344 6025.9641 5098.75 6025.5 5098.75 C 6025.0359 5098.75 6024.5908 5098.9344 6024.2626 5099.2626 C 6023.9344 5099.5908 6023.75 5100.0359 6023.75 5100.5 C 6023.75 5100.9641 6023.9344 5101.4092 6024.2626 5101.7374 C 6024.5908 5102.0656 6025.0359 5102.25 6025.5 5102.25 C 6025.9641 5102.25 6026.4092 5102.0656 6026.7374 5101.7374C 6027.0656 5101.4092 6027.25 5100.9641 6027.25 5100.5Z M 6004.5 5112.75 C 6003.5335 5112.75 6002.75 5113.5335 6002.75 5114.5 C 6002.75 5115.4665 6003.5335 5116.25 6004.5 5116.25 C 6005.1834 5116.25 6005.8668 5116.25 6006.5502 5116.25 C 6006.8088 5116.9813 6007.2287 5117.6534 6007.7877 5118.2123 C 6008.7723 5119.1969 6010.1076 5119.75 6011.5 5119.75 C 6012.1894 5119.75 6012.8721 5119.6142 6013.5091 5119.3504 C 6014.146 5119.0865 6014.7248 5118.6998 6015.2123 5118.2123 C 6015.6998 5117.7248 6016.0865 5117.146 6016.3504 5116.5091 C 6016.3858 5116.4235 6016.4189 5116.3372 6016.4497 5116.2501 C 6021.7998 5116.2500666666665 6027.1499 5116.250033333334 6032.5 5116.25 C 6033.4665 5116.25 6034.25 5115.4665 6034.25 5114.5 C 6034.25 5113.5335 6033.4665 5112.75 6032.5 5112.75 C 6027.149933333333 5112.750033333334 6021.799866666666 5112.7500666666665 6016.4498 5112.7501 C 6016.419 5112.6629 6016.3858 5112.5765 6016.3504 5112.4909 C 6016.0865 5111.854 6015.6998 5111.2752 6015.2123 5110.7877 C 6014.7248 5110.3002 6014.146 5109.9135 6013.5091 5109.6496 C 6012.8721 5109.3858 6012.1894 5109.25 6011.5 5109.25 C 6010.1076 5109.25 6008.7723 5109.8031 6007.7877 5110.7877 C 6007.2287 5111.3466 6006.8088 5112.0187 6006.5502 5112.75C 6005.8668 5112.75 6005.1834 5112.75 6004.5 5112.75Z M 6013.25 5114.5 C 6013.25 5114.2702 6013.2047 5114.0426 6013.1168 5113.8303 C 6013.0288 5113.618 6012.8999 5113.4251 6012.7374 5113.2626 C 6012.5749 5113.1001 6012.382 5112.9712 6012.1697 5112.8832 C 6011.9574 5112.7953 6011.7298 5112.75 6011.5 5112.75 C 6011.0359 5112.75 6010.5908 5112.9344 6010.2626 5113.2626 C 6009.9344 5113.5908 6009.75 5114.0359 6009.75 5114.5 C 6009.75 5114.9641 6009.9344 5115.4092 6010.2626 5115.7374 C 6010.5908 5116.0656 6011.0359 5116.25 6011.5 5116.25 C 6011.7298 5116.25 6011.9574 5116.2047 6012.1697 5116.1168 C 6012.382 5116.0288 6012.5749 5115.8999 6012.7374 5115.7374 C 6012.8999 5115.5749 6013.0288 5115.382 6013.1168 5115.1697C 6013.2047 5114.9574 6013.25 5114.7298 6013.25 5114.5Z"></path> <defs> <linearGradient id="tSvgGradientb31a5f964b" x1="NaN" x2="NaN" y1="NaN" y2="NaN" gradientUnits="userSpaceOnUse"> <stop offset="0.31" stop-color="hsl(230.68800000000002,92.81%,72.75%)" stop-opacity="1.00"></stop> <stop offset="0.84" stop-color="hsl(287.892,92.81%,72.75%)" stop-opacity="1.00"></stop> </linearGradient> <linearGradient id="tSvgGradientf57d74ac3" x1="5992.25" x2="6037.8128" y1="5074.25" y2="5113.5671" gradientUnits="userSpaceOnUse"> <stop offset="0.312143" stop-color="hsl(230.68800000000002,92.81%,72.75%)" stop-opacity="1"></stop> <stop offset="0.842143" stop-color="hsl(287.892,92.81%,72.75%)" stop-opacity="1"></stop> </linearGradient> </defs> </svg>