<svg xmlns="http://www.w3.org/2000/svg" width="22" height="24" fill="none"><path fill="#2F1E18" d="m12.808 15.447-.391.413s-.933.98-3.476-1.697c-2.544-2.678-1.612-3.659-1.612-3.659l.247-.26c.608-.641.666-1.67.135-2.42L6.626 6.29c-.658-.93-1.927-1.051-2.68-.259L2.594 7.452c-.373.393-.623.902-.593 1.467.078 1.447.696 4.557 4.143 8.187 3.656 3.848 7.086 4 8.488 3.862.445-.043.83-.283 1.14-.61l1.223-1.288c.827-.87.594-2.359-.463-2.966l-1.644-.947a1.683 1.683 0 0 0-2.08.289M10.831 4.542a.647.647 0 0 1 .741-.534l.13.026c.072.016.175.041.302.078.256.074.613.198 1.042.394.857.393 1.998 1.081 3.182 2.265 1.185 1.184 1.873 2.326 2.266 3.183a7.7 7.7 0 0 1 .393 1.042c.038.128.07.259.098.39l.004.027a.658.658 0 0 1-.531.756.646.646 0 0 1-.74-.531 2.406 2.406 0 0 0-.07-.282 6.347 6.347 0 0 0-.327-.864c-.336-.732-.94-1.742-2.006-2.808-1.065-1.066-2.075-1.67-2.808-2.005-.28-.13-.568-.239-.863-.327a4.955 4.955 0 0 0-.274-.069.653.653 0 0 1-.54-.741Z"/><path fill="#2F1E18" fill-rule="evenodd" d="M11.025 7.512a.645.645 0 0 1 .798-.444h.003l.002.001.007.002.017.005.048.018c.23.088.45.195.66.32.422.25.997.663 1.672 1.34.676.676 1.09 1.25 1.34 1.672.125.21.207.382.26.508.03.065.055.132.078.2l.005.017.002.007v.003s0 .003-.619.18l.62-.177a.646.646 0 0 1-1.239.363l-.002-.009a3.155 3.155 0 0 0-.216-.434c-.192-.324-.54-.815-1.142-1.417-.603-.603-1.092-.95-1.417-1.141a3.15 3.15 0 0 0-.434-.215l-.008-.004a.645.645 0 0 1-.435-.795Z" clip-rule="evenodd"/></svg>