<svg xmlns="http://www.w3.org/2000/svg" xml:space="preserve" width="403.0416222" height="508.4" style="max-height:500px" viewBox="257.3265742 902.1 403.0416222 508.4"><linearGradient id="a" x1="282.4146" x2="471.2827" y1="1257.0359" y2="1077.7308" gradientUnits="userSpaceOnUse"><stop offset="0" style="stop-color:#fff778"/>
	<stop offset=".132" style="stop-color:#edc34e"/>
	<stop offset=".25" style="stop-color:#db9125"/>
	<stop offset=".2708" style="stop-color:#d38c24"/>
	<stop offset=".344" style="stop-color:#bb7d21"/>
	<stop offset=".4117" style="stop-color:#ac741f"/>
	<stop offset=".4681" style="stop-color:#a7711e"/>
	<stop offset=".5217" style="stop-color:#ab741f"/>
	<stop offset=".5764" style="stop-color:#b77e21"/>
	<stop offset=".6315" style="stop-color:#cc8f24"/>
	<stop offset=".6593" style="stop-color:#d99a26"/>
	<stop offset="1" style="stop-color:#f6ce69"/>
</linearGradient>
<path d="M331.257 1145.981c5.438-7.698 11.491-15.147 17.512-22.537 11.998-14.862 24.904-29.15 35.384-45.573 5.117-8.212 9.718-17.208 10.986-27.308.26-2.513.365-5.067.083-7.607-.157-2.531-.859-5.18-1.819-7.532-1.987-4.751-4.95-8.81-8.09-12.553-4.745-5.558-9.936-10.54-15.113-15.474l-3.106.027.973 2.988c4.967 4.864 9.88 9.73 14.232 14.97 2.958 3.609 5.635 7.446 7.293 11.578 1.635 4.069 1.882 8.611 1.376 13.112-1.153 9.024-5.467 17.572-10.473 25.495-10.22 15.886-23.147 30.121-35.261 44.98-6.079 7.451-12.063 14.927-17.653 22.892-5.581 8.015-9.992 17.272-11.175 27.301-1.272 10.033 1.226 20.211 5.598 28.996 4.367 8.862 10.318 16.681 16.697 23.933 6.387 7.27 13.232 14.047 20.17 20.685l10.394 9.872c3.346 3.345 6.543 6.835 9.518 10.502 5.923 7.331 11.017 15.422 14.221 24.274 1.617 4.411 2.758 9.002 3.255 13.665.48 4.621.408 9.483-.786 13.84l-.029.104c-.13.477.144.974.62 1.116.484.146.993-.13 1.138-.613 1.457-4.868 1.586-9.766 1.219-14.651-.403-4.876-1.48-9.675-3.048-14.292-3.111-9.266-8.178-17.739-14.092-25.423-2.996-3.824-6.237-7.438-9.616-10.912l-10.306-10.054c-6.811-6.692-13.5-13.499-19.663-20.705-6.138-7.205-11.806-14.838-15.902-23.188-4.08-8.318-6.261-17.555-5.076-26.632 1.108-9.08 5.182-17.662 10.539-25.276" style="fill:url(#a)"/>
<linearGradient id="b" x1="368.8871" x2="557.7551" y1="1348.1207" y2="1168.8158" gradientUnits="userSpaceOnUse"><stop offset="0" style="stop-color:#fff778"/>
	<stop offset=".132" style="stop-color:#edc34e"/>
	<stop offset=".25" style="stop-color:#db9125"/>
	<stop offset=".2708" style="stop-color:#d38c24"/>
	<stop offset=".344" style="stop-color:#bb7d21"/>
	<stop offset=".4117" style="stop-color:#ac741f"/>
	<stop offset=".4681" style="stop-color:#a7711e"/>
	<stop offset=".5217" style="stop-color:#ab741f"/>
	<stop offset=".5764" style="stop-color:#b77e21"/>
	<stop offset=".6315" style="stop-color:#cc8f24"/>
	<stop offset=".6593" style="stop-color:#d99a26"/>
	<stop offset="1" style="stop-color:#f6ce69"/>
</linearGradient>
<path d="M394.349 1290.033c.38-7.104 2.565-14.156 6.398-20.263 3.856-6.081 9.292-11.193 15.67-14.661 6.353-3.529 13.677-5.292 20.969-5.199 7.31.02 14.728 2.29 20.773 6.566 6.074 4.249 10.679 10.488 13.138 17.457 2.372 7.007 2.628 14.707.281 21.782-2.371 7.026-7.398 13.055-13.815 16.654-6.45 3.557-14.101 4.815-21.393 3.117-7.298-1.685-13.669-6.997-16.809-13.903-1.52-3.474-2.249-7.296-2.114-11.085.074-3.829 1.368-7.646 3.444-10.87 4.215-6.488 12.14-10.22 19.768-9.351 3.867.394 7.556 2.161 10.335 4.84 2.748 2.707 4.628 6.304 5.131 10.129.536 3.76-.209 7.914-2.554 11.066-2.263 3.17-5.827 5.345-9.653 5.886-1.903.265-3.861.193-5.757-.354-1.872-.574-3.592-1.603-4.984-2.958-2.782-2.739-4.083-6.824-3.331-10.649.742-3.881 4.011-7.062 7.842-7.704 1.877-.333 3.918-.167 5.657.758 1.729.896 3.097 2.42 3.802 4.207.704 1.784.78 3.814.049 5.623-.741 1.789-2.286 3.189-4.1 3.767-1.807.581-3.878.316-5.43-.748-1.563-.938-2.768-3.02-2.013-4.916.065-.178.262-.269.441-.204.173.064.261.263.206.437-.542 1.531.444 3.15 1.839 3.945 1.377.87 3.117 1.013 4.618.473 1.498-.542 2.722-1.753 3.265-3.22.532-1.458.413-3.171-.222-4.598-.632-1.439-1.791-2.625-3.191-3.284-1.389-.681-3.026-.751-4.557-.425-3.069.651-5.585 3.252-6.078 6.297-.519 3.077.626 6.371 2.901 8.484 1.141 1.048 2.52 1.82 3.998 2.234 1.473.384 3.082.407 4.623.15 3.084-.52 5.897-2.355 7.624-4.919 1.776-2.56 2.311-5.763 1.833-8.885-.459-3.108-2.045-5.995-4.297-8.148-2.288-2.121-5.254-3.48-8.352-3.741-6.326-.607-12.783 2.592-16.129 7.94-3.391 5.294-3.415 12.36-.953 18.216 2.483 5.865 7.667 10.682 13.962 12.413 6.27 1.653 13.409.735 19.102-2.623 5.75-3.291 10.159-8.814 12.011-15.11 3.766-12.706-1.783-27.29-12.516-34.847-10.66-7.953-25.964-7.845-37.83-1.798-12.01 6.02-20.749 18.424-22.063 32.14-.04.423-.417.734-.841.694-.415-.039-.72-.403-.698-.812" style="fill:url(#b)"/>
<linearGradient id="c" x1="343.1568" x2="532.0245" y1="1321.0179" y2="1141.7134" gradientUnits="userSpaceOnUse"><stop offset="0" style="stop-color:#fff778"/>
	<stop offset=".132" style="stop-color:#edc34e"/>
	<stop offset=".25" style="stop-color:#db9125"/>
	<stop offset=".2708" style="stop-color:#d38c24"/>
	<stop offset=".344" style="stop-color:#bb7d21"/>
	<stop offset=".4117" style="stop-color:#ac741f"/>
	<stop offset=".4681" style="stop-color:#a7711e"/>
	<stop offset=".5217" style="stop-color:#ab741f"/>
	<stop offset=".5764" style="stop-color:#b77e21"/>
	<stop offset=".6315" style="stop-color:#cc8f24"/>
	<stop offset=".6593" style="stop-color:#d99a26"/>
	<stop offset="1" style="stop-color:#f6ce69"/>
</linearGradient>
<path d="M394.727 1293.196c-3.765-7.201-10.814-12.397-18.626-14.066-7.767-1.708-16.383.166-22.442 5.182-6.107 5.017-8.954 13.501-7.369 21.153.79 3.828 2.535 7.476 5.247 10.182 2.737 2.673 6.289 4.555 10.105 5.1 3.796.573 7.786-.116 11.149-1.979 3.332-1.812 5.869-5.003 6.909-8.666 1.076-3.651.615-7.725-1.233-11.049-1.794-3.299-5.288-5.575-9.035-5.966-3.712-.406-7.754 1.007-9.95 3.99-2.281 2.945-2.555 7.234-.74 10.484 1.698 3.267 5.963 4.877 9.473 3.578 1.77-.609 3.247-1.838 3.849-3.561.643-1.705.477-3.72-.089-5.59-.132-.428.108-.881.536-1.012.421-.13.869.106 1.008.522.677 2.067.992 4.421.226 6.676-.719 2.287-2.724 4.02-4.858 4.791-4.33 1.739-9.788-.113-12.112-4.273-2.395-3.99-2.037-9.355.763-13.062 2.795-3.805 7.649-5.507 12.156-5.064 4.546.429 8.836 3.165 11.075 7.183 2.239 3.936 2.82 8.751 1.584 13.106-1.193 4.36-4.193 8.213-8.162 10.417-3.909 2.21-8.536 3.053-12.978 2.424-4.442-.607-8.669-2.722-11.818-5.928-3.166-3.24-5.094-7.432-5.933-11.748-1.702-8.692 1.626-18.164 8.517-23.714 6.875-5.548 16.188-7.394 24.641-5.472 8.452 2.008 15.807 7.909 19.552 15.631.198.401.033.886-.368 1.084-.394.193-.872.031-1.077-.353" style="fill:url(#c)"/>
<linearGradient id="d" x1="343.5973" x2="532.4683" y1="1321.4832" y2="1142.1755" gradientUnits="userSpaceOnUse"><stop offset="0" style="stop-color:#fff778"/>
	<stop offset=".132" style="stop-color:#edc34e"/>
	<stop offset=".25" style="stop-color:#db9125"/>
	<stop offset=".2708" style="stop-color:#d38c24"/>
	<stop offset=".344" style="stop-color:#bb7d21"/>
	<stop offset=".4117" style="stop-color:#ac741f"/>
	<stop offset=".4681" style="stop-color:#a7711e"/>
	<stop offset=".5217" style="stop-color:#ab741f"/>
	<stop offset=".5764" style="stop-color:#b77e21"/>
	<stop offset=".6315" style="stop-color:#cc8f24"/>
	<stop offset=".6593" style="stop-color:#d99a26"/>
	<stop offset="1" style="stop-color:#f6ce69"/>
</linearGradient>
<path d="M392.591 1288.555c.35-2.154.483-4.545.491-6.85-.001-2.325-.111-4.661-.382-6.982-.521-4.645-1.561-9.244-3.066-13.695-.153-.438.079-.917.516-1.071.425-.148.892.074 1.059.486 1.763 4.489 3.064 9.174 3.836 13.96.396 2.392.629 4.812.747 7.244.102 2.452.104 4.834-.187 7.4-.095.838-.852 1.442-1.691 1.346-.839-.095-1.442-.851-1.347-1.691.003-.023.006-.046.009-.068z" style="fill:url(#d)"/>
<linearGradient id="e" x1="333.2998" x2="522.1661" y1="1310.6344" y2="1131.3312" gradientUnits="userSpaceOnUse"><stop offset="0" style="stop-color:#fff778"/>
	<stop offset=".132" style="stop-color:#edc34e"/>
	<stop offset=".25" style="stop-color:#db9125"/>
	<stop offset=".2708" style="stop-color:#d38c24"/>
	<stop offset=".344" style="stop-color:#bb7d21"/>
	<stop offset=".4117" style="stop-color:#ac741f"/>
	<stop offset=".4681" style="stop-color:#a7711e"/>
	<stop offset=".5217" style="stop-color:#ab741f"/>
	<stop offset=".5764" style="stop-color:#b77e21"/>
	<stop offset=".6315" style="stop-color:#cc8f24"/>
	<stop offset=".6593" style="stop-color:#d99a26"/>
	<stop offset="1" style="stop-color:#f6ce69"/>
</linearGradient>
<path d="M391.031 1250.89c3.478.792 5.656 4.257 4.863 7.734-.793 3.478-4.257 5.656-7.735 4.863s-5.656-4.257-4.863-7.735c.794-3.477 4.258-5.655 7.735-4.862" style="fill:url(#e)"/>
<linearGradient id="f" x1="303.5284" x2="492.4075" y1="1279.2756" y2="1099.9602" gradientUnits="userSpaceOnUse"><stop offset="0" style="stop-color:#fff778"/>
	<stop offset=".132" style="stop-color:#edc34e"/>
	<stop offset=".25" style="stop-color:#db9125"/>
	<stop offset=".2708" style="stop-color:#d38c24"/>
	<stop offset=".344" style="stop-color:#bb7d21"/>
	<stop offset=".4117" style="stop-color:#ac741f"/>
	<stop offset=".4681" style="stop-color:#a7711e"/>
	<stop offset=".5217" style="stop-color:#ab741f"/>
	<stop offset=".5764" style="stop-color:#b77e21"/>
	<stop offset=".6315" style="stop-color:#cc8f24"/>
	<stop offset=".6593" style="stop-color:#d99a26"/>
	<stop offset="1" style="stop-color:#f6ce69"/>
</linearGradient>
<path d="M361.336 1244.996c-.093-.021-.183-.06-.264-.115-.199-.138-.321-.364-.329-.605-.155-4.883-2.631-10.176-5.026-15.29-3.317-7.091-6.451-13.788-2.514-18.222 5.9-6.643 16.535-5.47 25.918-4.437 6.345.7 12.338 1.362 16.046-.398.33-.158.722-.059.94.233.216.291.199.694-.043.966-3.972 4.45-10.73 5.741-18.554 7.239-2.644.505-5.38 1.029-8.143 1.703-4.06.99-3.862 2.149-3.13 6.46.455 2.684 1.08 6.361.749 11.415-.611 9.339-5.046 10.966-5.234 11.03-.135.046-.278.052-.416.021m30.927-36.662c-3.762.566-8.435.048-13.309-.487-9.456-1.041-19.233-2.119-24.607 3.931-3.271 3.683-.343 9.938 2.755 16.56 2.25 4.809 4.572 9.77 5.075 14.561 1.124-1.008 2.921-3.472 3.286-9.057.319-4.87-.288-8.445-.732-11.055-.728-4.285-1.166-6.873 4.275-8.201 2.8-.684 5.555-1.209 8.219-1.719 5.959-1.14 11.277-2.158 15.038-4.533" style="fill:url(#f)"/>
<linearGradient id="g" x1="305.3905" x2="494.2604" y1="1281.2382" y2="1101.9315" gradientUnits="userSpaceOnUse"><stop offset="0" style="stop-color:#fff778"/>
	<stop offset=".132" style="stop-color:#edc34e"/>
	<stop offset=".25" style="stop-color:#db9125"/>
	<stop offset=".2708" style="stop-color:#d38c24"/>
	<stop offset=".344" style="stop-color:#bb7d21"/>
	<stop offset=".4117" style="stop-color:#ac741f"/>
	<stop offset=".4681" style="stop-color:#a7711e"/>
	<stop offset=".5217" style="stop-color:#ab741f"/>
	<stop offset=".5764" style="stop-color:#b77e21"/>
	<stop offset=".6315" style="stop-color:#cc8f24"/>
	<stop offset=".6593" style="stop-color:#d99a26"/>
	<stop offset="1" style="stop-color:#f6ce69"/>
</linearGradient>
<path d="M361.076 1243.791c1.418-1.695 1.7-4.416 1.253-6.771-.447-2.38-1.498-4.828-2.257-7.3-.805-2.47-1.615-4.942-2.206-7.536-.289-1.299-.543-2.623-.585-4.038-.039-1.392.171-2.995 1.105-4.377l1.859 1.339c-1.145 1.551-.858 4.25-.389 6.659.476 2.473 1.194 4.953 1.911 7.425.67 2.495 1.629 4.867 2.062 7.595.351 2.661.143 5.639-1.893 7.924z" style="fill:url(#g)"/>
<linearGradient id="h" x1="271.1116" x2="459.9795" y1="1245.1307" y2="1065.8259" gradientUnits="userSpaceOnUse"><stop offset="0" style="stop-color:#fff778"/>
	<stop offset=".132" style="stop-color:#edc34e"/>
	<stop offset=".25" style="stop-color:#db9125"/>
	<stop offset=".2708" style="stop-color:#d38c24"/>
	<stop offset=".344" style="stop-color:#bb7d21"/>
	<stop offset=".4117" style="stop-color:#ac741f"/>
	<stop offset=".4681" style="stop-color:#a7711e"/>
	<stop offset=".5217" style="stop-color:#ab741f"/>
	<stop offset=".5764" style="stop-color:#b77e21"/>
	<stop offset=".6315" style="stop-color:#cc8f24"/>
	<stop offset=".6593" style="stop-color:#d99a26"/>
	<stop offset="1" style="stop-color:#f6ce69"/>
</linearGradient>
<path d="M390.508 1095.629c.378 1.332 1.298 3.266 1.417 5.237.123 1.002.067 1.723.015 2.438l-.13 2.202c-.028 1.476-.264 2.923-.535 4.365-.256 1.444-.447 2.904-.895 4.298-1.416 5.693-3.852 11.035-6.631 16.108-5.57 10.189-12.931 19.149-20.454 27.79l-11.452 12.785c-3.693 4.207-6.555 9.136-8.701 14.349-4.267 10.445-6.142 21.911-6.203 33.173v.051c-.003.47-.385.848-.854.845-.345-.001-.641-.209-.772-.506l-.002-.006c-4.454-11.223-4.622-23.486-2.387-35.08 2.3-11.659 7.524-22.507 13.932-32.369 6.464-9.872 14.278-18.748 22.301-27.261 3.99-4.279 8.051-8.484 11.781-12.907 1.842-2.221 3.643-4.485 5.111-6.904l1.099-1.815.868-1.898.433-.948c.139-.33.298-.93.516-1.396.431-1.015 1.094-1.871 1.543-2.551m-.065 2.424c.06.729.333 1.282.374 1.675.002.231.036.361-.116.7l-.478 1.046-.97 2.083-1.18 1.932c-1.581 2.571-3.45 4.889-5.347 7.155-3.835 4.499-7.927 8.689-11.933 12.943-8.047 8.452-15.799 17.176-22.21 26.859-6.358 9.679-11.508 20.254-13.808 31.607-2.26 11.234-2.076 23.351 2.083 33.98l.002.004-1.627.391c.009-11.583 1.843-23.147 6.175-33.942 2.181-5.371 5.115-10.498 8.956-14.92l11.391-12.843c7.451-8.615 14.583-17.597 19.917-27.575 2.661-4.97 4.949-10.168 6.252-15.61.441-1.334.626-2.718.878-4.089.269-1.37.505-2.745.536-4.138l.137-2.082c.069-.713.079-1.42.053-1.846-.048-.884.705-1.806.915-3.33" style="fill:url(#h)"/>
<linearGradient id="i" x1="275.2821" x2="464.1498" y1="1249.5233" y2="1070.2188" gradientUnits="userSpaceOnUse"><stop offset="0" style="stop-color:#fff778"/>
	<stop offset=".132" style="stop-color:#edc34e"/>
	<stop offset=".25" style="stop-color:#db9125"/>
	<stop offset=".2708" style="stop-color:#d38c24"/>
	<stop offset=".344" style="stop-color:#bb7d21"/>
	<stop offset=".4117" style="stop-color:#ac741f"/>
	<stop offset=".4681" style="stop-color:#a7711e"/>
	<stop offset=".5217" style="stop-color:#ab741f"/>
	<stop offset=".5764" style="stop-color:#b77e21"/>
	<stop offset=".6315" style="stop-color:#cc8f24"/>
	<stop offset=".6593" style="stop-color:#d99a26"/>
	<stop offset="1" style="stop-color:#f6ce69"/>
</linearGradient>
<path d="M335.399 1214.826c-.29-5.512-.228-11.015.126-16.518.415-5.49 1.057-11.003 2.602-16.349.715-2.698 1.864-5.253 2.928-7.77 1.109-2.52 2.233-5.035 3.455-7.507 2.486-4.945 4.938-9.827 8.676-14.239l1.062 1.098c-3.411 3.946-6.065 8.925-8.523 13.744-1.236 2.437-2.379 4.922-3.507 7.415-1.098 2.523-2.236 4.983-2.955 7.594-1.564 5.198-2.262 10.651-2.729 16.089-.409 5.448-.528 10.94-.297 16.394z" style="fill:url(#i)"/>
<linearGradient id="j" x1="289.1815" x2="478.0492" y1="1264.1641" y2="1084.8595" gradientUnits="userSpaceOnUse"><stop offset="0" style="stop-color:#fff778"/>
	<stop offset=".132" style="stop-color:#edc34e"/>
	<stop offset=".25" style="stop-color:#db9125"/>
	<stop offset=".2708" style="stop-color:#d38c24"/>
	<stop offset=".344" style="stop-color:#bb7d21"/>
	<stop offset=".4117" style="stop-color:#ac741f"/>
	<stop offset=".4681" style="stop-color:#a7711e"/>
	<stop offset=".5217" style="stop-color:#ab741f"/>
	<stop offset=".5764" style="stop-color:#b77e21"/>
	<stop offset=".6315" style="stop-color:#cc8f24"/>
	<stop offset=".6593" style="stop-color:#d99a26"/>
	<stop offset="1" style="stop-color:#f6ce69"/>
</linearGradient>
<path d="M351.626 1234.7c.03.272-.661.481-.549.406l-.133.01-.264.017-.524.021-1.043.006c-.694-.009-1.386-.047-2.076-.102-1.38-.116-2.751-.314-4.111-.573-2.715-.542-5.374-1.365-7.931-2.435-2.571-1.053-4.974-2.466-7.369-3.596-2.396-1.232-4.858-1.534-6.908-.17-2.073 1.341-3.621 3.623-5.079 5.807-1.427 2.25-2.736 4.607-3.989 6.997-2.485 4.79-4.89 9.666-7.203 14.58-.375.815-1.34 1.17-2.154.795-.482-.222-.807-.672-.911-1.153-1.509-7.48-1.952-15.047-.801-22.633.625-3.76 1.744-7.514 3.549-10.933.876-1.709 1.971-3.352 3.325-4.808 1.346-1.442 3.024-2.745 5.024-3.346 4.089-1.27 8.11.281 11.372 2.021 3.35 1.794 6.346 4.031 9.296 6.275 2.945 2.255 5.822 4.566 8.791 6.735 1.492 1.071 2.997 2.123 4.557 3.076.786.461 1.565.947 2.38 1.35l1.307.662c.564.272 1.058.7 1.444.991m-.907-.126c-.462-.074-.817-.01-1.102-.101-.266-.07-.801-.37-1.188-.544-.853-.393-1.659-.867-2.478-1.318-1.62-.932-3.175-1.958-4.714-3.002-3.059-2.11-6.01-4.352-8.993-6.512-2.984-2.149-6.003-4.267-9.223-5.879-3.167-1.597-6.763-2.733-9.906-1.673-3.147 1.068-5.248 4.165-6.683 7.34-1.469 3.216-2.286 6.689-2.696 10.239-.463 3.542-.526 7.157-.337 10.761.154 3.591.516 7.259 1.171 10.733l-3.065-.358c2.47-4.886 4.789-9.85 7.656-14.566 1.409-2.367 2.869-4.718 4.551-6.949 1.714-2.198 3.427-4.471 5.998-6.091 1.336-.684 2.896-1.315 4.469-1.055 1.547.14 2.921.724 4.166 1.35 2.498 1.276 4.767 2.71 7.217 3.801 2.44 1.109 4.991 1.985 7.608 2.592 1.31.292 2.635.526 3.968.678.667.073 1.336.13 2.005.16l1.002.025.498-.004.247-.008.123-.005c.197-.08-.409.12-.294.386" style="fill:url(#j)"/>
<linearGradient id="k" x1="291.0818" x2="479.9474" y1="1266.1649" y2="1086.8623" gradientUnits="userSpaceOnUse"><stop offset="0" style="stop-color:#fff778"/>
	<stop offset=".132" style="stop-color:#edc34e"/>
	<stop offset=".25" style="stop-color:#db9125"/>
	<stop offset=".2708" style="stop-color:#d38c24"/>
	<stop offset=".344" style="stop-color:#bb7d21"/>
	<stop offset=".4117" style="stop-color:#ac741f"/>
	<stop offset=".4681" style="stop-color:#a7711e"/>
	<stop offset=".5217" style="stop-color:#ab741f"/>
	<stop offset=".5764" style="stop-color:#b77e21"/>
	<stop offset=".6315" style="stop-color:#cc8f24"/>
	<stop offset=".6593" style="stop-color:#d99a26"/>
	<stop offset="1" style="stop-color:#f6ce69"/>
</linearGradient>
<path d="M348.006 1233.792c-3.114-.281-5.901-1.388-8.627-2.629-2.712-1.266-5.292-2.785-7.766-4.448-2.504-1.662-4.747-3.571-7.389-4.615-2.532-1.096-5.725-1.281-7.716.198l-.118.087c-.341.253-.822.181-1.075-.16s-.182-.822.159-1.075c.005-.003.012-.009.018-.013 2.96-2.07 6.473-1.487 9.258-.307 2.87 1.209 5.161 3.251 7.542 4.894 2.4 1.685 4.904 3.225 7.529 4.517 2.602 1.266 5.412 2.4 8.201 2.709l.07.008c.229.025.395.232.37.462-.028.228-.23.393-.456.372" style="fill:url(#k)"/>
<linearGradient id="l" x1="262.2578" x2="451.1259" y1="1235.8046" y2="1056.4996" gradientUnits="userSpaceOnUse"><stop offset="0" style="stop-color:#fff778"/>
	<stop offset=".132" style="stop-color:#edc34e"/>
	<stop offset=".25" style="stop-color:#db9125"/>
	<stop offset=".2708" style="stop-color:#d38c24"/>
	<stop offset=".344" style="stop-color:#bb7d21"/>
	<stop offset=".4117" style="stop-color:#ac741f"/>
	<stop offset=".4681" style="stop-color:#a7711e"/>
	<stop offset=".5217" style="stop-color:#ab741f"/>
	<stop offset=".5764" style="stop-color:#b77e21"/>
	<stop offset=".6315" style="stop-color:#cc8f24"/>
	<stop offset=".6593" style="stop-color:#d99a26"/>
	<stop offset="1" style="stop-color:#f6ce69"/>
</linearGradient>
<path d="M298.237 1189.842c-3.475.646-6.9 1.736-10.025 3.409-3.086 1.664-6.138 3.655-8.378 5.994-.524.557-1.014 1.249-1.092 1.581-.05.096-.056.159-.017.047.007-.015-.026-.104-.032-.051l.066.437c.1.621.1 1.044.145 1.567.092 1.934.079 3.78.057 5.639-.044 3.708-.224 7.375-.437 11.068l-.001.004-4.003-1.682c1.188-1.376 2.547-3.651 3.999-5.548 1.46-1.969 3.068-3.88 4.863-5.619 3.561-3.526 8.157-6.009 12.927-7.233 4.787-1.159 9.592-1.53 14.405-1.383 4.801.222 9.563.962 14.125 2.549l.013.004-.522.553-3.762-8.158-.005-.009.32.325c-3.578-1.448-7.379-2.51-11.188-3.177-3.814-.659-7.706-.853-11.458-.317m-.285-2.13c4.083-.43 8.146-.056 12.065.769 3.925.843 7.72 2.054 11.391 3.701.148.063.262.19.321.326l.004.01 3.358 8.332c.086.215-.018.459-.232.544-.096.039-.201.039-.291.009l-.012-.004c-4.462-1.358-9.203-1.917-13.869-1.939-4.663-.005-9.395.643-13.721 2.135-4.333 1.49-7.938 4.359-10.961 7.637-1.498 1.677-2.828 3.505-4.059 5.44-1.294 1.969-2.214 3.884-3.991 6.216-.75.984-2.156 1.174-3.14.423-.627-.478-.931-1.222-.876-1.953l.013-.152.001-.005.772-10.887c.1-1.804.187-3.623.179-5.354-.016-.39-.01-.888-.053-1.173l-.02-.245c-.016-.174-.029-.493-.019-.736.001-.581.132-.951.27-1.279.564-1.392 1.307-2.124 2.033-2.887 2.946-2.871 6.341-4.63 9.867-6.07 3.528-1.396 7.193-2.45 10.97-2.858" style="fill:url(#l)"/>
<linearGradient id="m" x1="263.4736" x2="452.3441" y1="1237.0861" y2="1057.7788" gradientUnits="userSpaceOnUse"><stop offset="0" style="stop-color:#fff778"/>
	<stop offset=".132" style="stop-color:#edc34e"/>
	<stop offset=".25" style="stop-color:#db9125"/>
	<stop offset=".2708" style="stop-color:#d38c24"/>
	<stop offset=".344" style="stop-color:#bb7d21"/>
	<stop offset=".4117" style="stop-color:#ac741f"/>
	<stop offset=".4681" style="stop-color:#a7711e"/>
	<stop offset=".5217" style="stop-color:#ab741f"/>
	<stop offset=".5764" style="stop-color:#b77e21"/>
	<stop offset=".6315" style="stop-color:#cc8f24"/>
	<stop offset=".6593" style="stop-color:#d99a26"/>
	<stop offset="1" style="stop-color:#f6ce69"/>
</linearGradient>
<path d="M291.421 1195.487c5.058-.974 10.106-1.512 15.211-1.615 5.079-.046 10.273.439 15.06 2.398.215.088.317.333.229.548-.087.211-.34.309-.552.228-4.646-1.781-9.727-2.152-14.709-1.991-4.989.187-10.005.958-14.794 2.221l-.035.009c-.493.13-.998-.164-1.128-.657s.164-.998.657-1.128c.02-.005.042-.01.061-.013" style="fill:url(#m)"/>
<linearGradient id="n" x1="244.2289" x2="433.0942" y1="1216.8127" y2="1037.5104" gradientUnits="userSpaceOnUse"><stop offset="0" style="stop-color:#fff778"/>
	<stop offset=".132" style="stop-color:#edc34e"/>
	<stop offset=".25" style="stop-color:#db9125"/>
	<stop offset=".2708" style="stop-color:#d38c24"/>
	<stop offset=".344" style="stop-color:#bb7d21"/>
	<stop offset=".4117" style="stop-color:#ac741f"/>
	<stop offset=".4681" style="stop-color:#a7711e"/>
	<stop offset=".5217" style="stop-color:#ab741f"/>
	<stop offset=".5764" style="stop-color:#b77e21"/>
	<stop offset=".6315" style="stop-color:#cc8f24"/>
	<stop offset=".6593" style="stop-color:#d99a26"/>
	<stop offset="1" style="stop-color:#f6ce69"/>
</linearGradient>
<path d="M318.542 1170.596c-.162.02-.504-.04-.714-.259-.104-.101-.167-.211-.206-.301l-.018-.041-.049-.111-.105-.224-.234-.449c-.158-.301-.352-.584-.535-.873-.399-.554-.822-1.096-1.316-1.565-.969-.957-2.131-1.7-3.403-2.167-2.58-.967-5.442-.614-8.189.181-2.778.801-5.488 1.843-8.085 3.111-2.585 1.258-5.133 2.741-7.356 4.458l-.001.001-.02.016c-.278.219-.659.219-.935.026-2.38-1.677-4.65-3.444-6.752-5.495-1.026-1.053-2.06-2.113-2.772-3.596-.335-.684-.613-1.846.089-2.781.651-.727 1.099-1.048 1.672-1.578 4.368-3.782 9.464-6.964 15.22-8.318 1.424-.366 2.892-.562 4.361-.662 1.511-.122 3.046.131 4.47.493 2.849.802 5.555 2.09 7.884 3.919 2.326 1.819 4.3 4.138 5.606 6.816.677 1.326 1.154 2.752 1.483 4.196.126.791.339 1.315.39 2.327.092 1.046-.327 2.185-.485 2.876m-.298-1.576c-.262-.734-.785-1.02-.796-1.396-.022-.418-.227-1.277-.33-1.894-.289-1.336-.711-2.654-1.321-3.877-1.175-2.471-2.955-4.65-5.124-6.354s-4.718-2.939-7.37-3.66c-2.646-.756-5.384-.385-8.107.274-5.393 1.381-10.295 4.394-14.605 7.977-.488.423-1.171.993-1.477 1.325-.22.242-.179.718.088 1.28.532 1.105 1.51 2.154 2.487 3.12 2.006 1.926 4.279 3.664 6.583 5.255l-.954.041.002-.001c2.44-1.846 5.014-3.295 7.709-4.581 2.687-1.28 5.484-2.324 8.35-3.12 2.826-.849 6.085-1.329 9.093-.233 1.487.526 2.855 1.386 3.982 2.478.575.537 1.066 1.151 1.527 1.782.214.328.437.649.625.996l.279.523.131.272.064.14s.016.037.01.021c-.031-.069-.086-.157-.181-.238-.196-.176-.52-.194-.665-.13" style="fill:url(#n)"/>
<linearGradient id="o" x1="247.0901" x2="435.9582" y1="1219.828" y2="1040.5229" gradientUnits="userSpaceOnUse"><stop offset="0" style="stop-color:#fff778"/>
	<stop offset=".132" style="stop-color:#edc34e"/>
	<stop offset=".25" style="stop-color:#db9125"/>
	<stop offset=".2708" style="stop-color:#d38c24"/>
	<stop offset=".344" style="stop-color:#bb7d21"/>
	<stop offset=".4117" style="stop-color:#ac741f"/>
	<stop offset=".4681" style="stop-color:#a7711e"/>
	<stop offset=".5217" style="stop-color:#ab741f"/>
	<stop offset=".5764" style="stop-color:#b77e21"/>
	<stop offset=".6315" style="stop-color:#cc8f24"/>
	<stop offset=".6593" style="stop-color:#d99a26"/>
	<stop offset="1" style="stop-color:#f6ce69"/>
</linearGradient>
<path d="M288.285 1172.16c.305-.622-.04-.598.103-.555.056.038.153.105.261.159.215.115.461.224.71.327.499.208 1.028.391 1.556.566 1.062.348 2.144.658 3.232.944 2.172.573 4.339 1.245 6.526 1.621.542.094 1.09.171 1.594.189.243.024.521-.026.54-.025.009-.067-.273.331-.16.45 0 0-.087-.203-.125-.296-.462-.963-1.062-1.945-1.648-2.904l-3.67-5.735-.004-.005.43.133c-1.689.659-3.368 1.387-4.976 2.222-1.57.839-3.257 1.732-4.369 2.909m-.924-.852c1.511-1.408 3.204-2.117 4.883-2.916 1.695-.743 3.395-1.434 5.133-2.061.16-.058.336.003.431.133l.004.004c1.383 1.818 2.753 3.641 4.03 5.544.639.958 1.275 1.893 1.845 2.96.074.167.127.228.217.484.22.4-.24 1.094-.506 1.121-.507.208-.815.188-1.137.199-.634.002-1.219-.06-1.802-.134-2.31-.343-4.564-.798-6.766-1.481-1.097-.352-2.186-.728-3.267-1.149-.541-.214-1.079-.431-1.617-.69-.271-.129-.539-.265-.817-.433-.14-.085-.281-.18-.444-.319-.101-.119-.145-.095-.28-.341-.055-.12-.102-.218-.11-.367-.002-.187.088-.419.203-.554" style="fill:url(#o)"/>
<linearGradient id="p" x1="246.0232" x2="434.8914" y1="1218.7042" y2="1039.3992" gradientUnits="userSpaceOnUse"><stop offset="0" style="stop-color:#fff778"/>
	<stop offset=".132" style="stop-color:#edc34e"/>
	<stop offset=".25" style="stop-color:#db9125"/>
	<stop offset=".2708" style="stop-color:#d38c24"/>
	<stop offset=".344" style="stop-color:#bb7d21"/>
	<stop offset=".4117" style="stop-color:#ac741f"/>
	<stop offset=".4681" style="stop-color:#a7711e"/>
	<stop offset=".5217" style="stop-color:#ab741f"/>
	<stop offset=".5764" style="stop-color:#b77e21"/>
	<stop offset=".6315" style="stop-color:#cc8f24"/>
	<stop offset=".6593" style="stop-color:#d99a26"/>
	<stop offset="1" style="stop-color:#f6ce69"/>
</linearGradient>
<path d="M284.223 1164.574c2.727-1.912 5.565-3.442 8.603-4.657 3.026-1.183 6.247-2.033 9.554-2.035 1.647.006 3.308.229 4.88.757 1.565.549 2.998 1.213 4.45 1.946 1.436.739 2.819 1.608 4.082 2.655 1.212 1.095 2.468 2.244 2.84 4.148.044.224-.103.442-.327.486-.223.043-.439-.101-.485-.322l-.027-.129c-.265-1.266-1.436-2.537-2.59-3.475-1.204-.964-2.545-1.779-3.949-2.471-1.398-.678-2.874-1.329-4.322-1.804-1.456-.466-3.004-.589-4.533-.543-3.077.097-6.091 1.064-8.909 2.346-2.811 1.292-5.528 2.96-7.917 4.833l-.04.032c-.478.374-1.17.29-1.545-.188s-.291-1.169.187-1.545c.016-.011.034-.024.048-.034" style="fill:url(#p)"/>
<linearGradient id="q" x1="231.8122" x2="420.6794" y1="1203.7344" y2="1024.4303" gradientUnits="userSpaceOnUse"><stop offset="0" style="stop-color:#fff778"/>
	<stop offset=".132" style="stop-color:#edc34e"/>
	<stop offset=".25" style="stop-color:#db9125"/>
	<stop offset=".2708" style="stop-color:#d38c24"/>
	<stop offset=".344" style="stop-color:#bb7d21"/>
	<stop offset=".4117" style="stop-color:#ac741f"/>
	<stop offset=".4681" style="stop-color:#a7711e"/>
	<stop offset=".5217" style="stop-color:#ab741f"/>
	<stop offset=".5764" style="stop-color:#b77e21"/>
	<stop offset=".6315" style="stop-color:#cc8f24"/>
	<stop offset=".6593" style="stop-color:#d99a26"/>
	<stop offset="1" style="stop-color:#f6ce69"/>
</linearGradient>
<path d="M319.965 1159.151c-.152-.724-.341-1.97-.128-2.884l.245-2.04c.12-1.366.211-2.735.244-4.11.065-2.749-.046-5.505-.3-8.248-.501-5.485-1.612-10.929-3.396-16.122-1.828-5.121-4.398-10.219-8.394-13.64-1.991-1.663-4.336-2.847-6.839-2.844-2.486-.068-4.984.866-7.199 2.292l-.048.031c-.513.33-1.196.182-1.526-.331-.18-.28-.216-.615-.13-.912.935-3.147 2.555-5.954 5.061-8.097 2.452-2.196 5.872-3.165 9.054-3.007 3.179.084 6.335 1.246 8.91 3.021 2.613 1.76 4.663 4.101 6.567 6.482 3.613 4.919 6.429 10.379 8.142 16.206 1.729 5.779 2.589 12.031.987 18.041l-.002.006q-.012.0585-.042.105l-.026.04c-3.448 5.41-7.429 10.895-11.18 16.011m.59-1.433c3.215-5.277 6.199-10.184 9.717-15.165l-.068.145.002-.006c.748-2.826.858-5.79.671-8.729-.338-2.93-.839-5.858-1.769-8.678-1.699-5.672-4.528-11.023-8.199-15.614-1.925-2.207-3.984-4.333-6.423-5.854-2.424-1.531-5.12-2.374-7.945-2.475-2.776-.1-5.529.707-7.569 2.557-2.071 1.751-3.549 4.391-4.289 6.971l-1.703-1.211c2.43-1.592 5.359-2.782 8.473-2.685 3.12.021 6.065 1.482 8.21 3.496 4.37 4.061 6.677 9.455 8.484 14.757 1.768 5.358 2.896 10.898 3.417 16.497.26 2.799.375 5.614.309 8.431-.034 1.409-.126 2.817-.25 4.224l-.252 2.106c-.014.459-.436.584-.816 1.233" style="fill:url(#q)"/>
<linearGradient id="r" x1="234.1794" x2="423.0468" y1="1206.2279" y2="1026.9236" gradientUnits="userSpaceOnUse"><stop offset="0" style="stop-color:#fff778"/>
	<stop offset=".132" style="stop-color:#edc34e"/>
	<stop offset=".25" style="stop-color:#db9125"/>
	<stop offset=".2708" style="stop-color:#d38c24"/>
	<stop offset=".344" style="stop-color:#bb7d21"/>
	<stop offset=".4117" style="stop-color:#ac741f"/>
	<stop offset=".4681" style="stop-color:#a7711e"/>
	<stop offset=".5217" style="stop-color:#ab741f"/>
	<stop offset=".5764" style="stop-color:#b77e21"/>
	<stop offset=".6315" style="stop-color:#cc8f24"/>
	<stop offset=".6593" style="stop-color:#d99a26"/>
	<stop offset="1" style="stop-color:#f6ce69"/>
</linearGradient>
<path d="M325.159 1147.889c.144-3.84-.104-7.765-.58-11.613-.513-3.849-1.234-7.691-2.47-11.371-1.216-3.677-2.86-7.222-5.072-10.381-2.271-3.112-5.118-5.751-8.427-7.686l-.029-.017c-.296-.173-.396-.553-.223-.849s.554-.396.85-.223l.001.001c3.483 2.047 6.458 4.837 8.803 8.084 2.307 3.282 3.907 6.96 5.234 10.694 1.317 3.751 2.106 7.653 2.683 11.567.54 3.93.848 7.862.755 11.869-.01.422-.359.756-.781.746s-.756-.36-.746-.782v-.007z" style="fill:url(#r)"/>
<linearGradient id="s" x1="221.3307" x2="410.1983" y1="1192.6947" y2="1013.3901" gradientUnits="userSpaceOnUse"><stop offset="0" style="stop-color:#fff778"/>
	<stop offset=".132" style="stop-color:#edc34e"/>
	<stop offset=".25" style="stop-color:#db9125"/>
	<stop offset=".2708" style="stop-color:#d38c24"/>
	<stop offset=".344" style="stop-color:#bb7d21"/>
	<stop offset=".4117" style="stop-color:#ac741f"/>
	<stop offset=".4681" style="stop-color:#a7711e"/>
	<stop offset=".5217" style="stop-color:#ab741f"/>
	<stop offset=".5764" style="stop-color:#b77e21"/>
	<stop offset=".6315" style="stop-color:#cc8f24"/>
	<stop offset=".6593" style="stop-color:#d99a26"/>
	<stop offset="1" style="stop-color:#f6ce69"/>
</linearGradient>
<path d="M344.026 1124.682c-.305.025-.765-.619-.679-.557l-.085-.172-.159-.342-.282-.683c-.18-.456-.333-.917-.473-1.38-.283-.926-.505-1.864-.679-2.809-.331-1.889-.546-3.798-.55-5.705-.073-3.816.392-7.611 1.194-11.311.78-3.699 1.969-7.337 3.217-10.845 1.211-3.532 2.414-7.073 3.359-10.655.845-3.522 1.853-7.406-.147-10.296-.755-1.397-2.584-1.975-4.265-2.697l-5.274-1.943c-3.537-1.337-7.056-2.982-10.235-5.306-3.162-2.314-5.933-5.443-7.563-9.192v-.001c-.39-.828-.035-1.817.794-2.207.423-.199.888-.204 1.294-.05l.221.084c3.047 1.166 6.897 1.928 10.49 2.539 3.679.591 7.384.925 11.165 1.185 3.795.299 7.644.524 11.46 1.589 1.895.531 3.815 1.3 5.452 2.604 1.658 1.273 2.876 3.11 3.538 5.043 1.304 3.917.968 7.915.485 11.701-.517 3.784-1.25 7.527-2.093 11.234-.84 3.707-1.807 7.379-2.747 11.034-.466 1.827-.93 3.654-1.301 5.473-.18.907-.34 1.817-.414 2.697-.105.822.02 1.87.206 1.982v.001l.2.667c.062.207.005.424-.126.577-5.271 6.026-10.723 11.965-16.003 17.741m.139-1.495c4.893-5.942 9.616-11.722 14.519-17.414l.074 1.243-.004-.004c-.63-.631-.73-1.319-.796-1.855-.054-.559-.043-1.08-.001-1.582.08-1.006.246-1.962.429-2.91.375-1.89.834-3.734 1.292-5.572.925-3.675 1.866-7.325 2.678-10.999.814-3.673 1.517-7.365 2.004-11.079.464-3.657.694-7.455-.448-10.768-1.066-3.375-4.136-5.438-7.637-6.312-3.507-.893-7.27-1.118-11.014-1.197-3.775-.036-7.63-.14-11.454-.531-3.876-.441-7.574-.886-11.567-2.531l2.309-2.172v.001c1.187 3.218 3.371 6.036 6.112 8.301 2.748 2.276 5.995 4.007 9.35 5.559l5.127 2.293c.866.392 1.737.79 2.597 1.294.428.266.859.533 1.268.911.445.371.757.892 1.002 1.264 1.139 1.681 1.527 3.886 1.345 5.815-.157 1.954-.576 3.819-1.056 5.649-1.854 7.334-5.025 14.212-6.54 21.441-.78 3.612-1.224 7.301-1.15 10.974.005 1.838.216 3.664.531 5.458.166.896.377 1.782.642 2.646.131.432.273.859.438 1.274l.254.613.137.295.07.143c.139.167-.26-.376-.511-.248" style="fill:url(#s)"/>
<linearGradient id="t" x1="236.7504" x2="425.6178" y1="1208.9364" y2="1029.6321" gradientUnits="userSpaceOnUse"><stop offset="0" style="stop-color:#fff778"/>
	<stop offset=".132" style="stop-color:#edc34e"/>
	<stop offset=".25" style="stop-color:#db9125"/>
	<stop offset=".2708" style="stop-color:#d38c24"/>
	<stop offset=".344" style="stop-color:#bb7d21"/>
	<stop offset=".4117" style="stop-color:#ac741f"/>
	<stop offset=".4681" style="stop-color:#a7711e"/>
	<stop offset=".5217" style="stop-color:#ab741f"/>
	<stop offset=".5764" style="stop-color:#b77e21"/>
	<stop offset=".6315" style="stop-color:#cc8f24"/>
	<stop offset=".6593" style="stop-color:#d99a26"/>
	<stop offset="1" style="stop-color:#f6ce69"/>
</linearGradient>
<path d="M350.372 1117.154c-.521-3.437-.501-6.771-.351-10.14.173-3.356.587-6.688 1.142-9.991.569-3.301 1.316-6.567 2.192-9.793.872-3.229 1.923-6.403 3.035-9.552.077-.219.317-.334.536-.257.216.077.328.321.255.537-1.052 3.147-2.039 6.315-2.848 9.529-.813 3.212-1.497 6.456-2.002 9.726-.491 3.271-.842 6.563-.955 9.858-.096 3.276-.038 6.64.495 9.782l.01.058c.07.416-.209.81-.625.881s-.81-.21-.881-.625c-.002-.003-.003-.01-.003-.013" style="fill:url(#t)"/>
<linearGradient id="u" x1="211.9711" x2="400.839" y1="1182.8357" y2="1003.531" gradientUnits="userSpaceOnUse"><stop offset="0" style="stop-color:#fff778"/>
	<stop offset=".132" style="stop-color:#edc34e"/>
	<stop offset=".25" style="stop-color:#db9125"/>
	<stop offset=".2708" style="stop-color:#d38c24"/>
	<stop offset=".344" style="stop-color:#bb7d21"/>
	<stop offset=".4117" style="stop-color:#ac741f"/>
	<stop offset=".4681" style="stop-color:#a7711e"/>
	<stop offset=".5217" style="stop-color:#ab741f"/>
	<stop offset=".5764" style="stop-color:#b77e21"/>
	<stop offset=".6315" style="stop-color:#cc8f24"/>
	<stop offset=".6593" style="stop-color:#d99a26"/>
	<stop offset="1" style="stop-color:#f6ce69"/>
</linearGradient>
<path d="M364.271 1042.045c-.198.151-.574.275-.895.226-.413-.083-.277-.078-.332-.085l-.129-.051-.249-.103-.479-.216c-.318-.145-.618-.308-.922-.469-.597-.335-1.183-.686-1.737-1.079-1.118-.775-2.154-1.656-3.108-2.618-1.88-1.94-3.447-4.212-4.533-6.654-1.074-2.402-2.119-4.844-2.292-7.751-.025-.725.035-1.53.439-2.37.353-.886 1.542-1.551 2.469-1.464l3.839.037c5.181.131 10.376.465 15.491 1.436 5.1.953 10.188 2.494 14.66 5.319h.003c.079.047.148.123.19.198 1.359 2.405 2.623 4.84 3.793 7.335 1.14 2.504 2.272 5.031 2.865 7.784l.001.004c.042.195-.082.388-.278.431-.087.019-.174.005-.247-.035l-.014-.007c-4.735-2.532-9.613-4.87-14.628-6.685-2.515-.929-5.039-1.548-7.676-1.932-2.533-.365-5.43-.606-7.528-.116h.002l.784-1.205c.376 3.337.472 6.87.511 10.07m-1.436-1.786c-.58-2.841-1.104-5.349-1.351-8.05l-.004-.039c-.049-.536.291-1.018.788-1.168l.012-.003c3.216-.58 5.791-.043 8.553.426 2.684.52 5.388 1.326 7.889 2.395 5.041 2.107 9.804 4.684 14.453 7.466l-.538.388-.001-.003c-.633-2.597-1.821-5.082-3.016-7.517-1.223-2.429-2.552-4.822-3.953-7.145l.19.196-.002-.002c-4.308-2.613-9.271-4.034-14.276-4.873-5.018-.836-10.134-1.151-15.237-1.061l-3.878.097c-.355.047-.484.088-.642.413-.147.325-.23.842-.187 1.395.149 2.26 1.192 4.656 2.202 6.921 1.012 2.261 2.397 4.295 4.118 6.029.873.85 1.817 1.626 2.826 2.3.5.343 1.026.644 1.555.931.267.135.534.276.804.393l.404.174.197.078.096.036c-.017.008.157.026-.219-.043-.284-.036-.623.101-.783.266" style="fill:url(#u)"/>
<linearGradient id="v" x1="213.3514" x2="402.2164" y1="1184.2854" y2="1004.9833" gradientUnits="userSpaceOnUse"><stop offset="0" style="stop-color:#fff778"/>
	<stop offset=".132" style="stop-color:#edc34e"/>
	<stop offset=".25" style="stop-color:#db9125"/>
	<stop offset=".2708" style="stop-color:#d38c24"/>
	<stop offset=".344" style="stop-color:#bb7d21"/>
	<stop offset=".4117" style="stop-color:#ac741f"/>
	<stop offset=".4681" style="stop-color:#a7711e"/>
	<stop offset=".5217" style="stop-color:#ab741f"/>
	<stop offset=".5764" style="stop-color:#b77e21"/>
	<stop offset=".6315" style="stop-color:#cc8f24"/>
	<stop offset=".6593" style="stop-color:#d99a26"/>
	<stop offset="1" style="stop-color:#f6ce69"/>
</linearGradient>
<path d="M389.113 1034.33c-1.813-1.456-4.009-2.669-6.214-3.664-2.226-.998-4.552-1.782-6.924-2.396-2.386-.551-4.805-1.012-7.258-1.202-2.448-.242-4.914-.239-7.378-.165-.232.015-.431-.161-.447-.392-.015-.228.171-.427.397-.447 2.497-.132 5.005-.194 7.507-.004 2.507.136 4.991.549 7.452 1.059 2.449.574 4.863 1.324 7.192 2.305 2.333 1 4.561 2.136 6.663 3.744.335.256.399.735.142 1.07s-.736.399-1.07.143c-.004-.003-.007-.006-.011-.009z" style="fill:url(#v)"/>
<linearGradient id="w" x1="249.1702" x2="438.0383" y1="1222.0199" y2="1042.715" gradientUnits="userSpaceOnUse"><stop offset="0" style="stop-color:#fff778"/>
	<stop offset=".132" style="stop-color:#edc34e"/>
	<stop offset=".25" style="stop-color:#db9125"/>
	<stop offset=".2708" style="stop-color:#d38c24"/>
	<stop offset=".344" style="stop-color:#bb7d21"/>
	<stop offset=".4117" style="stop-color:#ac741f"/>
	<stop offset=".4681" style="stop-color:#a7711e"/>
	<stop offset=".5217" style="stop-color:#ab741f"/>
	<stop offset=".5764" style="stop-color:#b77e21"/>
	<stop offset=".6315" style="stop-color:#cc8f24"/>
	<stop offset=".6593" style="stop-color:#d99a26"/>
	<stop offset="1" style="stop-color:#f6ce69"/>
</linearGradient>
<path d="M364.486 1101.186c-.012-.096-.165-.214-.28-.187-.127.045-.081.04-.033-.022l.222-.234.446-.468.901-.924 1.832-1.817c1.243-1.19 2.497-2.367 3.793-3.501 2.585-2.274 5.277-4.437 8.152-6.369 2.878-1.909 5.934-3.658 9.373-4.608 3.422-.87 6.847-1.14 10.21-1.691 6.703-.984 13.334-2.904 18.58-6.993 5.195-4.107 8.805-9.932 11.078-16.206l.003-.005 1.51 1.675-19.968 3.826c-6.431 1.543-12.259 5.074-17.587 9.111-5.329 4.089-10.203 8.786-14.84 13.686-2.364 2.412-4.564 4.978-6.815 7.499-1.175 1.288-2.075 2.472-3.18 3.62-1.075 1.134-2.263 2.325-3.397 3.608m-.505.585c1.927-2.618 4.089-5.906 6.351-8.439 2.212-2.572 4.373-5.19 6.706-7.66 4.573-5.016 9.395-9.841 14.74-14.104 5.34-4.204 11.289-7.991 18.059-9.754 6.811-1.382 13.223-2.765 19.803-4.446l.066-.017c.664-.17 1.339.231 1.508.895.07.276.042.555-.063.798l-.002.005v.001c-2.455 6.538-6.425 12.787-12.178 17.033-5.777 4.254-12.84 6.038-19.649 6.852-3.411.456-6.863.646-10.103 1.424-3.201.817-6.22 2.45-9.068 4.269-2.851 1.84-5.553 3.929-8.155 6.134-1.304 1.099-2.571 2.244-3.825 3.402l-1.852 1.77-.91.9-.45.453-.224.229c-.026.015-.054.088-.255.211-.187.101-.413.063-.499.044" style="fill:url(#w)"/>
<linearGradient id="x" x1="245.5422" x2="434.4103" y1="1218.1976" y2="1038.8926" gradientUnits="userSpaceOnUse"><stop offset="0" style="stop-color:#fff778"/>
	<stop offset=".132" style="stop-color:#edc34e"/>
	<stop offset=".25" style="stop-color:#db9125"/>
	<stop offset=".2708" style="stop-color:#d38c24"/>
	<stop offset=".344" style="stop-color:#bb7d21"/>
	<stop offset=".4117" style="stop-color:#ac741f"/>
	<stop offset=".4681" style="stop-color:#a7711e"/>
	<stop offset=".5217" style="stop-color:#ab741f"/>
	<stop offset=".5764" style="stop-color:#b77e21"/>
	<stop offset=".6315" style="stop-color:#cc8f24"/>
	<stop offset=".6593" style="stop-color:#d99a26"/>
	<stop offset="1" style="stop-color:#f6ce69"/>
</linearGradient>
<path d="M370.313 1092.465c5.106-4.992 10.732-9.21 16.769-12.851 3.005-1.83 6.136-3.453 9.356-4.871 3.196-1.477 6.556-2.567 9.924-3.572.334-.099.684.091.783.424.098.328-.084.672-.407.779l-.03.009c-3.28 1.068-6.541 2.214-9.64 3.741-3.121 1.468-6.151 3.135-9.053 5-5.806 3.69-11.295 8.045-16.036 12.915l-.043.045c-.442.453-1.167.463-1.621.022-.453-.442-.463-1.167-.021-1.62.004-.006.013-.015.019-.021" style="fill:url(#x)"/>
<linearGradient id="y" x1="230.6509" x2="419.5179" y1="1202.5104" y2="1023.2064" gradientUnits="userSpaceOnUse"><stop offset="0" style="stop-color:#fff778"/>
	<stop offset=".132" style="stop-color:#edc34e"/>
	<stop offset=".25" style="stop-color:#db9125"/>
	<stop offset=".2708" style="stop-color:#d38c24"/>
	<stop offset=".344" style="stop-color:#bb7d21"/>
	<stop offset=".4117" style="stop-color:#ac741f"/>
	<stop offset=".4681" style="stop-color:#a7711e"/>
	<stop offset=".5217" style="stop-color:#ab741f"/>
	<stop offset=".5764" style="stop-color:#b77e21"/>
	<stop offset=".6315" style="stop-color:#cc8f24"/>
	<stop offset=".6593" style="stop-color:#d99a26"/>
	<stop offset="1" style="stop-color:#f6ce69"/>
</linearGradient>
<path d="M392.502 1042.895c1.691-2.447 2.632-4.859 3.829-7.432 1.138-2.537 2.3-5.083 3.597-7.572 2.576-4.956 5.674-9.855 10.224-13.53 2.268-1.802 4.954-3.23 7.795-3.955 2.781-.876 5.781-1.105 8.723-.865 5.946.535 11.498 3.294 15.597 7.859.569.635.516 1.61-.117 2.18-.386.346-.897.462-1.367.357l-.131-.03c-4.949-1.135-10.111-.507-14.855 1.359-4.741 1.894-9.056 5.103-12.46 9.094-1.736 1.974-3.215 4.176-4.525 6.465-1.219 2.287-2.484 4.812-3.97 7.115-1.514 2.304-3.239 4.493-5.284 6.388-2.102 1.827-4.37 3.539-7.38 4.064-.327.039-.622-.194-.661-.52-.005-.041-.004-.098-.001-.138zm1.109.432-.886 10.515-.66-.658c2.355-.492 4.613-2.173 6.458-3.948 1.856-1.849 3.427-3.989 4.797-6.248 1.372-2.286 2.397-4.665 3.728-7.138 1.373-2.389 2.797-4.775 4.581-6.906 3.447-4.315 7.742-8.157 12.947-10.517 2.582-1.186 5.369-2.049 8.255-2.281 2.878-.224 5.783.027 8.58.703l-1.615 2.507c-3.255-3.772-8.263-6.505-13.398-7.006-2.585-.282-5.23-.07-7.803.561-2.589.513-4.971 1.653-7.156 3.168-4.39 3.06-7.622 7.674-10.255 12.48-1.308 2.427-2.492 4.927-3.665 7.448-1.176 2.443-2.348 5.235-3.908 7.32" style="fill:url(#y)"/>
<linearGradient id="z" x1="228.6477" x2="417.5146" y1="1200.4004" y2="1021.0966" gradientUnits="userSpaceOnUse"><stop offset="0" style="stop-color:#fff778"/>
	<stop offset=".132" style="stop-color:#edc34e"/>
	<stop offset=".25" style="stop-color:#db9125"/>
	<stop offset=".2708" style="stop-color:#d38c24"/>
	<stop offset=".344" style="stop-color:#bb7d21"/>
	<stop offset=".4117" style="stop-color:#ac741f"/>
	<stop offset=".4681" style="stop-color:#a7711e"/>
	<stop offset=".5217" style="stop-color:#ab741f"/>
	<stop offset=".5764" style="stop-color:#b77e21"/>
	<stop offset=".6315" style="stop-color:#cc8f24"/>
	<stop offset=".6593" style="stop-color:#d99a26"/>
	<stop offset="1" style="stop-color:#f6ce69"/>
</linearGradient>
<path d="M393.729 1045.892c1.925-1.84 3.663-4.491 5.237-6.946 1.604-2.489 3.003-5.175 4.777-7.651 1.747-2.475 3.663-4.842 5.836-6.972 2.215-2.096 4.542-4.054 7.447-5.365.285-.129.619-.002.748.282.128.284.002.619-.283.748h-.001l-.061.028c-2.581 1.156-4.961 3.078-7.071 5.104-2.11 2.07-3.985 4.384-5.633 6.848-1.68 2.435-3.01 5.109-4.605 7.693-1.63 2.588-3.088 5.1-5.471 7.448-.298.294-.779.291-1.073-.008-.295-.298-.291-.779.008-1.073l.005-.005z" style="fill:url(#z)"/>
<linearGradient id="A" x1="205.9405" x2="394.8071" y1="1176.481" y2="997.1774" gradientUnits="userSpaceOnUse"><stop offset="0" style="stop-color:#fff778"/>
	<stop offset=".132" style="stop-color:#edc34e"/>
	<stop offset=".25" style="stop-color:#db9125"/>
	<stop offset=".2708" style="stop-color:#d38c24"/>
	<stop offset=".344" style="stop-color:#bb7d21"/>
	<stop offset=".4117" style="stop-color:#ac741f"/>
	<stop offset=".4681" style="stop-color:#a7711e"/>
	<stop offset=".5217" style="stop-color:#ab741f"/>
	<stop offset=".5764" style="stop-color:#b77e21"/>
	<stop offset=".6315" style="stop-color:#cc8f24"/>
	<stop offset=".6593" style="stop-color:#d99a26"/>
	<stop offset="1" style="stop-color:#f6ce69"/>
</linearGradient>
<path d="M386.096 1026.398c-.089-.034-.256.09-.25.182-.002.078-.011-.05-.011-.05l-.026-.214-.044-.426-.071-.85-.074-1.705c-.021-1.137.002-2.278.105-3.415.206-2.269.591-4.563 1.515-6.716.457-1.072 1.021-2.123 1.783-3.046.733-.923 1.388-1.732 2.02-2.652 1.232-1.82 2.264-3.77 3.099-5.791 1.665-4.044 2.541-8.388 2.484-12.663-.036-2.076-.408-4.363-.532-6.669-.12-2.344-.261-4.516.097-7.155l.012-.059 2.458 1.911c-3.592 2.015-6.92 5.501-9.253 9.3-2.431 3.822-4.063 8.18-5.112 12.659-1.009 4.506-1.175 9.212-.793 13.864.211 2.328.589 4.641 1.071 6.932.244 1.145.521 2.283.837 3.411l.496 1.685.272.833.143.414.073.206c.095.079-.194-.164-.299.014m.162.613c-.159.042-.502-.34-.46-.398l-.081-.208-.159-.418-.302-.839-.553-1.692c-.353-1.133-.669-2.278-.95-3.431-.56-2.307-1.005-4.644-1.302-7.006-.618-4.716-.681-9.534-.049-14.32.722-4.765 2.165-9.481 4.588-13.757 2.454-4.283 5.577-8.102 10.108-10.921l2.458 1.912.001-.006c-.338 1.815-.372 4.176-.339 6.325.012 2.195.282 4.384.224 6.814-.11 4.739-1.423 9.336-3.491 13.476-1.038 2.072-2.275 4.039-3.707 5.85-.703.897-1.555 1.761-2.251 2.577-.711.783-1.269 1.715-1.736 2.689-.943 1.956-1.443 4.144-1.694 6.344-.134 1.102-.191 2.215-.205 3.329l.021 1.671.044.834.03.415.018.207.011.16c.015.164-.143.358-.224.393" style="fill:url(#A)"/>
<linearGradient id="B" x1="209.7941" x2="398.6615" y1="1180.5431" y2="1001.2388" gradientUnits="userSpaceOnUse"><stop offset="0" style="stop-color:#fff778"/>
	<stop offset=".132" style="stop-color:#edc34e"/>
	<stop offset=".25" style="stop-color:#db9125"/>
	<stop offset=".2708" style="stop-color:#d38c24"/>
	<stop offset=".344" style="stop-color:#bb7d21"/>
	<stop offset=".4117" style="stop-color:#ac741f"/>
	<stop offset=".4681" style="stop-color:#a7711e"/>
	<stop offset=".5217" style="stop-color:#ab741f"/>
	<stop offset=".5764" style="stop-color:#b77e21"/>
	<stop offset=".6315" style="stop-color:#cc8f24"/>
	<stop offset=".6593" style="stop-color:#d99a26"/>
	<stop offset="1" style="stop-color:#f6ce69"/>
</linearGradient>
<path d="M389.682 1000.859c-.767 1.782-1.408 3.768-1.919 5.728-.514 1.975-.93 3.982-1.233 6.007-.599 4.054-.819 8.168-.744 12.277.005.232-.179.424-.411.43-.227.005-.416-.174-.429-.399-.207-4.151-.059-8.318.373-12.465.242-2.07.534-4.138.933-6.194.417-2.065.854-4.08 1.571-6.156.182-.527.756-.806 1.282-.624.526.181.805.755.623 1.281-.008.023-.016.045-.026.068z" style="fill:url(#B)"/>
<linearGradient id="C" x1="345.3513" x2="534.2192" y1="1323.3295" y2="1144.0248" gradientUnits="userSpaceOnUse"><stop offset="0" style="stop-color:#fff778"/>
	<stop offset=".132" style="stop-color:#edc34e"/>
	<stop offset=".25" style="stop-color:#db9125"/>
	<stop offset=".2708" style="stop-color:#d38c24"/>
	<stop offset=".344" style="stop-color:#bb7d21"/>
	<stop offset=".4117" style="stop-color:#ac741f"/>
	<stop offset=".4681" style="stop-color:#a7711e"/>
	<stop offset=".5217" style="stop-color:#ab741f"/>
	<stop offset=".5764" style="stop-color:#b77e21"/>
	<stop offset=".6315" style="stop-color:#cc8f24"/>
	<stop offset=".6593" style="stop-color:#d99a26"/>
	<stop offset="1" style="stop-color:#f6ce69"/>
</linearGradient>
<path d="m515.396 1396.187-71.071-71.02 1.744-1.744 69.327 69.276 114.202-114.202v-233.204L515.396 931.092l-69.327 69.275-1.744-1.743 71.071-71.02 116.668 116.668v235.247z" style="fill:url(#C)"/>
<linearGradient id="D" x1="311.2579" x2="500.1259" y1="1287.4175" y2="1108.1127" gradientUnits="userSpaceOnUse"><stop offset="0" style="stop-color:#fff778"/>
	<stop offset=".132" style="stop-color:#edc34e"/>
	<stop offset=".25" style="stop-color:#db9125"/>
	<stop offset=".2708" style="stop-color:#d38c24"/>
	<stop offset=".344" style="stop-color:#bb7d21"/>
	<stop offset=".4117" style="stop-color:#ac741f"/>
	<stop offset=".4681" style="stop-color:#a7711e"/>
	<stop offset=".5217" style="stop-color:#ab741f"/>
	<stop offset=".5764" style="stop-color:#b77e21"/>
	<stop offset=".6315" style="stop-color:#cc8f24"/>
	<stop offset=".6593" style="stop-color:#d99a26"/>
	<stop offset="1" style="stop-color:#f6ce69"/>
</linearGradient>
<path d="M558.235 1111.623h.995v1.103H524v-1.103h.995c1.619 0 2.815-.499 3.589-1.491.773-.995 1.159-1.934 1.159-2.816 0-.884-.183-1.768-.552-2.652l-5.41-13.583h-25.842l-5.742 13.583c-.371.959-.554 1.86-.554 2.705 0 .848.404 1.768 1.216 2.763.81.993 2.024 1.491 3.644 1.491h.882v1.103h-23.632v-1.103h.995c1.693 0 3.385-.515 5.08-1.547 1.691-1.031 3.091-2.577 4.196-4.64l25.511-57.757c3.459-7.289 5.299-12.109 5.521-14.467h.992l32.8 72.002c1.103 2.137 2.502 3.739 4.196 4.806 1.694 1.069 3.424 1.603 5.191 1.603m-58.419-25.181h22.086l-10.712-27.166z" style="fill:url(#D)"/>
<linearGradient id="E" x1="387.6371" x2="576.5053" y1="1367.8704" y2="1188.5653" gradientUnits="userSpaceOnUse"><stop offset="0" style="stop-color:#fff778"/>
	<stop offset=".132" style="stop-color:#edc34e"/>
	<stop offset=".25" style="stop-color:#db9125"/>
	<stop offset=".2708" style="stop-color:#d38c24"/>
	<stop offset=".344" style="stop-color:#bb7d21"/>
	<stop offset=".4117" style="stop-color:#ac741f"/>
	<stop offset=".4681" style="stop-color:#a7711e"/>
	<stop offset=".5217" style="stop-color:#ab741f"/>
	<stop offset=".5764" style="stop-color:#b77e21"/>
	<stop offset=".6315" style="stop-color:#cc8f24"/>
	<stop offset=".6593" style="stop-color:#d99a26"/>
	<stop offset="1" style="stop-color:#f6ce69"/>
</linearGradient>
<path d="M513.124 1222.698v32.135h14.578c2.722-.073 4.969-.995 6.735-2.761 1.768-1.768 2.652-4.013 2.652-6.737v-.992h1.103v25.509h-1.103v-.884c0-2.722-.867-4.969-2.597-6.735-1.729-1.768-3.919-2.688-6.571-2.76h-14.797v27.718c0 1.915.699 3.553 2.098 4.914 1.397 1.364 3.054 2.045 4.969 2.045h1.324l.111 1.103h-33.571v-1.103h1.436c1.912 0 3.55-.682 4.914-2.045 1.361-1.361 2.078-2.999 2.153-4.914v-61.513c0-2.575-1.216-4.487-3.644-5.742-1.033-.588-2.173-.882-3.423-.882h-1.436v-1.105h42.296c2.281 0 4.784-.219 7.508-.663 2.724-.441 4.64-.884 5.745-1.325v18.663h-1.105v-1.103c0-3.24-.939-5.834-2.816-7.788-1.876-1.948-4.437-2.963-7.674-3.035z" style="fill:url(#E)"/>
<linearGradient id="F" x1="342.9617" x2="531.83" y1="1320.8126" y2="1141.5076" gradientUnits="userSpaceOnUse"><stop offset="0" style="stop-color:#fff778"/>
	<stop offset=".132" style="stop-color:#edc34e"/>
	<stop offset=".25" style="stop-color:#db9125"/>
	<stop offset=".2708" style="stop-color:#d38c24"/>
	<stop offset=".344" style="stop-color:#bb7d21"/>
	<stop offset=".4117" style="stop-color:#ac741f"/>
	<stop offset=".4681" style="stop-color:#a7711e"/>
	<stop offset=".5217" style="stop-color:#ab741f"/>
	<stop offset=".5764" style="stop-color:#b77e21"/>
	<stop offset=".6315" style="stop-color:#cc8f24"/>
	<stop offset=".6593" style="stop-color:#d99a26"/>
	<stop offset="1" style="stop-color:#f6ce69"/>
</linearGradient>
<path d="M464.222 1156.997h99.987v2.467h-99.987z" style="fill:url(#F)"/>
</svg>