<svg id="Слой_1" data-name="Слой 1" xmlns="http://www.w3.org/2000/svg" viewBox="0 0 111.37 55.41"><defs><style>.cls-1{fill:#000;}</style></defs><title>logo2-1</title><path class="cls-1" d="M69.23,3.76q1,1.25,1,6.27V22.67h3.27V10c0-3.06.27-5,.82-5.87q1.33-2.08,4.53-2.09h1.78V.58H63.15V2.07h1.74A5.27,5.27,0,0,1,69.23,3.76Z" transform="translate(-2.28 -0.58)"/><path class="cls-1" d="M32.43,4.08a24.28,24.28,0,0,1,3.32,3.66V22.67H39V12.08l8,10.59h9.1L39.5.58H25.84V2.07a11.06,11.06,0,0,1,3.27.36A11.72,11.72,0,0,1,32.43,4.08Z" transform="translate(-2.28 -0.58)"/><path class="cls-1" d="M40,51.93q-1-1.24-1-6.27v-9H35.75v9c0,3.06-.27,5-.82,5.87-.89,1.39-2.42,2.09-4.56,2.09H28.63v1.49H46.15V53.62H44.37A5.37,5.37,0,0,1,40,51.93Z" transform="translate(-2.28 -0.58)"/><polygon class="cls-1" points="67.99 36.09 67.99 40.89 64.37 36.09 55.32 36.09 69.92 55.41 71.25 55.41 71.25 36.09 67.99 36.09"/><path class="cls-1" d="M2.28,33V27h.94l3.63,4.69V27h.88v6H6.79L3.16,28.27V33Z" transform="translate(-2.28 -0.58)"/><path class="cls-1" d="M11.36,33V27h.91v6Z" transform="translate(-2.28 -0.58)"/><path class="cls-1" d="M15.81,33V27h.94l3.63,4.69V27h.88v6h-.94l-3.63-4.69V33Z" transform="translate(-2.28 -0.58)"/><path class="cls-1" d="M24,33l2.66-6h1l2.83,6h-1l-.81-1.81H25.7L24.94,33Zm2-2.45H28.3l-.72-1.65c-.22-.5-.38-.92-.49-1.24a7.2,7.2,0,0,1-.37,1.14Z" transform="translate(-2.28 -0.58)"/><path class="cls-1" d="M32.21,34.62v-.53h5.63v.53Z" transform="translate(-2.28 -0.58)"/><path class="cls-1" d="M41.61,33l-1.83-6h.94l1.05,3.91c.11.41.21.82.29,1.22l.31-1.1,1.32-4h1.1l1,3a14,14,0,0,1,.54,2.11c.09-.38.2-.81.34-1.3L47.74,27h.92l-1.9,6h-.88l-1.46-4.55-.22-.7c-.07.27-.14.51-.2.7L42.53,33Z" transform="translate(-2.28 -0.58)"/><path class="cls-1" d="M51.17,30.06a3,3,0,0,1,.92-2.33,3.4,3.4,0,0,1,2.39-.84,3.79,3.79,0,0,1,1.73.39,2.77,2.77,0,0,1,1.17,1.1,3.39,3.39,0,0,1,0,3.23,2.63,2.63,0,0,1-1.2,1.08,3.82,3.82,0,0,1-1.68.37,3.73,3.73,0,0,1-1.75-.41,2.85,2.85,0,0,1-1.17-1.11A3,3,0,0,1,51.17,30.06Zm.94,0a2.19,2.19,0,0,0,.67,1.7,2.41,2.41,0,0,0,1.69.62A2.24,2.24,0,0,0,56.84,30a2.68,2.68,0,0,0-.29-1.27,2,2,0,0,0-.83-.84,2.54,2.54,0,0,0-1.23-.3,2.5,2.5,0,0,0-1.67.58A2.38,2.38,0,0,0,52.11,30.07Z" transform="translate(-2.28 -0.58)"/><path class="cls-1" d="M62.1,33l-1.83-6h.94l1,3.91c.11.41.21.82.29,1.22l.31-1.1,1.32-4h1.1l1,3a14,14,0,0,1,.54,2.11c.09-.38.2-.81.34-1.3L68.23,27h.92l-1.9,6h-.88l-1.46-4.55-.22-.7c-.07.27-.14.51-.2.7L63,33Z" transform="translate(-2.28 -0.58)"/><path class="cls-1" d="M71.05,34.62v-.53h5.63v.53Z" transform="translate(-2.28 -0.58)"/><path class="cls-1" d="M79.23,33V27h.94l3.63,4.69V27h.88v6h-.94l-3.63-4.69V33Z" transform="translate(-2.28 -0.58)"/><path class="cls-1" d="M87.39,33l2.66-6h1l2.83,6h-1L92,31.15H89.13L88.37,33Zm2-2.45h2.34L91,28.86c-.22-.5-.38-.92-.49-1.24a8.4,8.4,0,0,1-.37,1.14Z" transform="translate(-2.28 -0.58)"/><path class="cls-1" d="M96.68,33V27h.91v6Z" transform="translate(-2.28 -0.58)"/><path class="cls-1" d="M101.1,33V27H102v5.26h3.41V33H101.1Z" transform="translate(-2.28 -0.58)"/><path class="cls-1" d="M108.13,31.05,109,31a1.46,1.46,0,0,0,.29.73,1.48,1.48,0,0,0,.7.46,3,3,0,0,0,1.06.18,2.84,2.84,0,0,0,.92-.13,1.26,1.26,0,0,0,.6-.37.8.8,0,0,0,.2-.51.69.69,0,0,0-.19-.49,1.39,1.39,0,0,0-.62-.35c-.19-.06-.6-.16-1.23-.29a7.15,7.15,0,0,1-1.33-.37,1.75,1.75,0,0,1-.74-.56,1.23,1.23,0,0,1-.24-.74,1.35,1.35,0,0,1,.3-.84,1.88,1.88,0,0,1,.87-.6,3.64,3.64,0,0,1,1.27-.2,4.09,4.09,0,0,1,1.36.21,1.84,1.84,0,0,1,.9.63,1.68,1.68,0,0,1,.34.94l-.88.06a1.17,1.17,0,0,0-.48-.85,2.14,2.14,0,0,0-1.21-.29,2.22,2.22,0,0,0-1.21.26.76.76,0,0,0-.38.63.65.65,0,0,0,.27.53,4.12,4.12,0,0,0,1.38.43,9.68,9.68,0,0,1,1.53.38,2,2,0,0,1,.89.61,1.37,1.37,0,0,1,.29.85,1.48,1.48,0,0,1-.32.9,2.05,2.05,0,0,1-.91.66,3.54,3.54,0,0,1-1.33.23,4.43,4.43,0,0,1-1.57-.24,2.23,2.23,0,0,1-1-.71A1.84,1.84,0,0,1,108.13,31.05Z" transform="translate(-2.28 -0.58)"/></svg>